<?xml version="1.0" encoding="UTF-8" standalone="no"?>

<svg id="dofus_calculators_only" xmlns:rdf="http://www.w3.org/1999/02/22-rdf-syntax-ns#" xmlns="http://www.w3.org/2000/svg" d="" height="122" width="90" version="1.1" xmlns:cc="http://creativecommons.org/ns#" xmlns:dc="http://purl.org/dc/elements/1.1/" style="fill:white">

 <g id="g3001" transform="matrix(0.49010102,0,0,0.49010102,0.9906496,1.3834)" fill="#FFF">

  <path id="path3003" clip-rule="evenodd" d="M178.73,145.87c-1.23-14.09-4.65-27.66-10.08-40.73-4.49-10.811-9.93-21.132-15.89-31.206-7.67-12.983-16.26-25.269-26.38-36.487-3.82-4.24-7.72-8.392-11.77-12.409-5.96-5.907-12.39-11.226-19.579-15.586l0.004,0.004-0.014-0.01,0.01,0.006c-0.312-0.309-0.585-0.679-0.945-0.915-4.888-3.204-10.209-5.154-15.958-6.359-2.882-0.604-5.799-0.964-8.659-1.252-4.774-0.479-9.282,1.423-13.309,3.736-5.546,3.185-10.45,7.366-14.677,12.199-6.449,7.371-11.553,15.636-16.286,24.212-5.777,10.47-10.234,21.472-14.431,32.608-1.496,3.973-2.374,8.152-3.627,12.196-2.913,9.399-4.593,19.022-5.506,28.757-1.119,11.938-1.024,23.897,0.208,35.859,1.53,14.85,4.296,29.364,9.944,43.267,5.223,12.854,12.218,24.454,22.905,33.549,3.013,2.563,6.296,4.701,9.75,6.679,5,2.861,10.095,5.461,15.489,7.437,12.43,4.55,25.362,4.745,38.318,3.85,7.988-0.553,15.849-2.123,23.565-4.421,8.714-2.595,16.946-6.284,24.17-11.704,15.965-11.979,25.874-28.086,30.345-47.439,2.721-11.776,3.46-23.794,2.404-35.844zm-8.179,31.626c-4.141,17.921-13.315,32.835-28.099,43.928-6.689,5.019-14.312,8.435-22.381,10.837-7.145,2.128-14.424,3.582-21.82,4.094-11.995,0.82-23.97,0.64-35.479-3.57-4.995-1.83-9.712-4.24-14.342-6.89-3.199-1.83-6.24-3.81-9.029-6.18-9.896-8.42-16.373-19.17-21.209-31.07-5.23-12.87-7.791-26.31-9.208-40.06-1.141-11.08-1.229-22.15-0.193-33.21,0.845-9.015,2.4-17.926,5.098-26.629,1.161-3.744,1.974-7.615,3.359-11.293,3.886-10.313,8.014-20.5,13.363-30.195,4.383-7.942,9.109-15.595,15.08-22.42,3.915-4.475,8.456-8.346,13.591-11.295,3.729-2.142,7.903-3.903,12.324-3.459,2.648,0.266,5.35,0.599,8.018,1.159,5.324,1.117,10.25,2.923,14.777,5.889,0.334,0.219,0.586,0.562,0.877,0.849,6.658,4.037,12.607,8.961,18.126,14.432,3.751,3.719,7.359,7.564,10.899,11.489,9.368,10.388,17.326,21.764,24.431,33.787,5.512,9.329,10.55,18.885,14.709,28.897,5.025,12.099,8.193,24.671,9.336,37.71,0.978,11.155,0.293,22.284-2.226,33.187z"/>

  <path id="path3005" d="m167.82,134.64c-4.953-5.167-9.885-10.358-14.878-15.487-0.827-0.851-1.072-1.317-0.076-2.279,1.783-1.721,1.694-3.868-0.007-5.688-1.002-1.072-2.025-2.125-3.038-3.186l-1.735-1.82c-1.162-0.722-1.946-1.842-2.897-2.781-1.984-1.953-4.053-2.104-6.137-0.266-0.686,0.605-1,0.546-1.572-0.097-1.462-1.646-3.104-3.137-4.495-4.839-1.667-2.046-3.607-2.219-5.893-1.366-1.939,0.725-3.914,1.333-6.015,1.38-7.106,1.32-13.369-0.625-18.966-4.99-1.139-0.888-2.285-1.605-3.75-1.697-0.845,0.113-1.585,0.496-2.317,0.905-1.892,1.817-3.783,3.637-5.674,5.455l-2.697,2.435c-0.348,0.58-0.789,1.053-1.524,1.36l-1.001-2.71-0.918-1.92c-1.995-3.618-4.066-7.18-7.354-9.834l-1.704-1.239c-4.586-2.679-9.562-4.004-14.844-4.17-2.071-0.066-4.148,0.068-6.223,0.112l-2.226,0.253c-0.854,0.507-1.601,1.139-2.167,1.963-0.645,1.39-0.412,2.754,0.126,4.107l1.365,1.923,2.294,3.177c2.167,3.126,4.336,6.249,6.505,9.375,2.632,3.267,4.918,6.781,7.291,10.234,0.268,0.932-0.365,1.524-0.824,2.183-0.085,0.68-0.377,1.266-0.821,1.779-2.115,4.531-4.239,9.058-6.335,13.597-0.272,0.588-0.679,0.806-1.277,0.846-4.078,0.271-8.154,0.553-12.23,0.828l-1.871,0.204-2.253,0.168c-2.08,0.642-3.313-0.273-4.341-2.059-1.263-2.195-2.771-4.249-4.174-6.363-0.322-0.185-0.591-0.41-0.637-0.812-3.463-5.039-6.957-10.056-10.37-15.128-0.939-1.393-2.163-1.938-3.728-1.814-1.512,0.119-2.512,0.934-3.221,2.338-2.743,5.428-4.383,11.114-4.353,17.234,0.311,0.594,0.288,1.225,0.191,1.863l0.493,2.282c0.757,2.873,2.038,5.516,3.582,8.039,0.392,0.416,0.806,0.82,0.87,1.433,2.127,2.695,4.525,5.128,7.143,7.344,4.09,2.957,8.424,5.416,13.317,6.83,2.42,0.697,4.898,1.056,7.352,1.559,0.112-0.048,0.228-0.06,0.347-0.038,1.391-0.282,2.751-0.001,4.114,0.23,3.004,0.011,5.973-0.321,8.876-1.08,0.958-0.249,1.434,0.049,1.931,0.829,1.831,2.868,3.727,5.69,5.6,8.53,0.742,0.609,1.178,1.428,1.576,2.275,2.658,3.476,2.677,3.497-0.488,6.36-1.354,1.226-2.504,2.684-4.082,3.66-0.555,0.776-1.152,1.512-2.008,1.985l-2.914,2.758c-0.514,0.709-1.105,1.326-1.932,1.677-1.058,0.92-2.205,1.697-3.514,2.217-3.275,2.37-6.683,4.536-10.153,6.605-0.726,0.568-1.217,1.312-1.597,2.137l-0.317,3.971c0.345,1.795,0.655,3.598,1.403,5.285,1.466,2.295,3.265,4.292,5.375,6.011,1.787,1.017,3.548,2.077,5.362,3.043,4.538,2.413,5.87,2.173,9.19-1.547,0.2-0.225,0.45-0.403,0.677-0.602,1.567-2.189,3.288-4.25,5.15-6.191,2.983-3.801,5.82-7.727,9.367-11.051,0.706-0.924,1.455-1.808,2.46-2.427,0.458-0.626,0.904-1.262,1.6-1.658,0.402-0.541,0.771-1.005,1.339-0.117,1.479,2.31,2.99,4.598,4.487,6.894,0.58,0.541,1.049,1.157,1.326,1.91,0.922,0.951,1.552,2.107,2.236,3.228,1.137,1.64,2.378,3.215,3.26,5.022,1.672,1.936,3.027,4.087,4.273,6.313,0.556,0.303,0.863,0.785,1.021,1.382,1.653,1.892,2.903,4.064,4.26,6.157,0.861,1.325,1.882,1.881,3.501,2.149,4.847,0.805,9.198,0.017,13.067-3.077l4.066-4.201c1.293-1.967,2.589-3.93,3.883-5.894,0.342-1.662-0.033-3.099-1.101-4.46-1.279-1.634-2.405-3.387-3.599-5.09l-3.268-4.689c-1.174-1.325-2.216-2.746-3.104-4.278-0.75-0.838-1.447-1.71-1.896-2.756-1.007-0.891-1.612-2.078-2.333-3.182l-1.226-1.657c-3.047-4.222-6.081-8.451-9.148-12.656-0.564-0.77-0.584-1.291,0.158-2.009,6.562-6.34,13.086-12.722,19.612-19.098,0.53-0.519,0.911-0.872,1.607-0.125,4.338,4.651,8.719,9.262,13.088,13.887l0.633,1.047c0.507,0.424,0.989,0.884,1.525,1.27,2.107,1.505,3.868,1.422,5.771-0.349,2.959-2.753,5.877-5.551,8.812-8.328l1.978-1.975c2.493-2.449,4.911-4.979,7.63-7.191,0.911-0.939,1.707-2.003,2.829-2.725,1.078-1.078,2.15-2.163,3.236-3.234,1.882-1.862,1.907-3.875,0.069-5.789zm-26.319-27.042c0.375-0.512,0.719-0.137,1.029,0.178,1.877,1.897,3.757,3.793,5.641,5.684,0.461,0.462,0.347,0.846-0.105,1.217-0.649,0.534-1.119,1.289-1.956,1.589-2.062-2.2-4.062-4.46-6.339-6.447,0.1-1.111,1.177-1.463,1.73-2.221zm-4.225,2.176-0.048-0.039,0.048,0.039zm-0.183-0.152-0.05-0.047,0.05,0.047zm-0.349-0.363c-0.112-0.134-0.221-0.28-0.326-0.438,0.105,0.158,0.213,0.304,0.326,0.438zm-46.918-4.14c2.666-2.438,5.29-4.923,7.867-7.455,0.709-0.696,1.116-0.734,1.94-0.112,8.657,6.547,18.162,7.567,28.279,4.123,0.948-0.324,1.514-0.252,2.194,0.491,2.062,2.255,4.201,4.441,6.312,6.655,0.038,0.822-0.582,1.327-0.984,1.91-5.041,7.284-10.104,14.556-15.169,21.822-0.838,1.198-1.589,3.162-2.618,3.333-1.166,0.192-2.024-1.83-3.09-2.815-0.133-0.122-0.284-0.225-0.426-0.335-3.146-3.84-6.781-7.223-10.188-10.813-4.681-4.932-9.412-9.815-14.19-14.651-0.898-0.909-0.783-1.37,0.073-2.153zm-5.274,27.78c1.598-3.471,2.616-7.128,3.447-10.844,0.242-2.861,0.607-5.712,0.521-8.753,1.149,0.585,1.783,1.558,2.548,2.346,5.157,5.304,10.247,10.669,15.44,15.933,0.998,1.013,1.012,1.593-0.091,2.383-0.74,0.531-1.401,1.168-2.097,1.758-0.484,0.893-1.317,1.431-2.07,2.05l-2.057,1.958c-3.685,3.502-7.384,6.99-11.041,10.52-0.718,0.694-1.119,0.714-1.611-0.193-0.493-0.91-1.114-1.75-1.678-2.623-0.848-0.866-1.424-1.914-1.991-2.972l-0.143-0.111c-1.003-1.457-2.44-2.795-2.884-4.406-0.461-1.676,1.519-2.822,2.22-4.315,0.436-0.94,0.985-1.822,1.487-2.731zm-28.53-44.576c-0.275-0.392-0.514-0.809-0.909-1.432,8.508-0.622,16.423,0.298,21.801,7.486,4.161,5.562,6.496,12.053,6.623,19.144,0.037,2.079-0.12,4.161-0.188,6.242,0.042,0.328,0.019,0.63-0.323,0.803l-0.036,0.025c-4.117-0.853-8.284-1.468-12.341-2.604,2.585-3.617,2.077-6.634-0.764-10.195-4.959-6.219-9.278-12.949-13.863-19.469zm-35.405,48.941c-5.947-7.42-5.923-16.06-1.633-24.76,1.434,1.487,2.415,3.234,3.516,4.877,3.307,4.928,6.893,9.666,9.931,14.774-2.609,2.997-5.149,6.051-7.403,9.33-2.04-0.809-3.14-2.637-4.411-4.221zm40.892,12.875c-0.373-0.576-0.579-1.281-1.262-1.616-4.767,1.409-9.547,2.312-14.606,1.866-7.153-0.631-13.55-2.989-19.268-7.28-0.453-0.31-0.822-0.688-1.1-1.143,0.277,0.455,0.646,0.833,1.1,1.143,0.455-1.738,1.84-2.851,2.913-4.139,1.465-1.761,2.545-3.871,4.522-5.188,1.42,3.458,3.834,4.254,7.536,3.749,6.343-0.863,12.775-1.085,19.175-1.521,1.209-0.081,1.843-0.619,2.34-1.676,2.047-4.365,4.164-8.697,6.256-13.04,0.26-0.54,0.394-1.166,0.976-1.498,4.166,1.155,8.436,1.816,12.668,2.656-1.195,6.332-4.073,11.814-8.374,16.578-4.326,3.737-8.749,7.334-14.139,9.493,0.684,0.334,0.89,1.039,1.263,1.616,0.233-0.186,0.44-0.441,0.705-0.547,4.194-1.679,7.772-4.271,11.061-7.316,0.607-0.563,1.146-1.296,2.076-1.411,1.75,2.592,3.502,5.182,5.249,7.776,0.268,0.396,0.684,0.729,0.591,1.292,0.413,0.254,0.754,0.559,0.93,0.983-0.176-0.426-0.518-0.729-0.93-0.981-0.702,0.175-1.41,0.334-2.106,0.531-4.838,1.368-9.675,2.744-14.513,4.117l-3.063-4.444zm7.571,42.184c-4.054,4.91-8.16,9.78-12.174,14.724-0.86,1.058-1.531,1.173-2.739,0.572-2.821-1.405-5.503-2.941-7.513-5.447-0.657-0.821-1.222-1.689-1.611-2.662-1.298-3.263-0.991-4.246,1.897-6.112,3.652-2.358,7.309-4.709,10.965-7.064,0.629,0.212,1.267,0.406,1.888,0.639,3.399,1.268,6.793,2.545,10.189,3.819,0.051,0.716-0.53,1.081-0.902,1.531zm37.227-6.335c0.163,0.239,0.205,0.561,0.301,0.842-3.202,4.194-6.391,8.396-9.626,12.562-0.4,0.516-0.572,1.435-1.558,1.287,0.319,0.681,0.81,1.211,1.431,1.631,3.763-4.604,7.282-9.394,10.738-14.23,2.384,2.467,4.149,5.411,6.246,8.101,2.366,3.037,4.556,6.211,6.921,9.248,0.742,0.952,0.723,1.598,0.051,2.547-1.775,2.504-3.574,4.96-6.191,6.68-1.397,0.917-2.871,1.635-4.548,1.823-2.197,0.247-4.06,0.091-5.436-2.206-2.197-3.662-4.765-7.103-7.159-10.649-0.269-0.397-0.419-0.875-0.625-1.313-0.619-0.418-1.11-0.949-1.429-1.63-4.264-6.284-8.529-12.567-12.793-18.854-0.247-0.838,0.443-1.181,0.89-1.635,3.617-3.668,7.244-7.327,10.867-10.989,0.439-0.057,0.648,0.227,0.866,0.544,3.684,5.412,7.377,10.821,11.054,16.241zm-5.312-26.197c-1.376,2.343-3.664,3.832-5.448,5.793-0.612,0.673-1.364,1.224-1.819,2.039-4.385,4.057-8.562,8.325-12.736,12.598,0.783,0.089,0.972,0.783,1.345,1.292-0.373-0.509-0.562-1.203-1.345-1.292-2.685,2.628-5.365,5.263-8.07,7.872-0.515,0.495-0.944,1.12-1.681,1.353-3.796-1.459-7.592-2.916-11.389-4.373l-0.57,0.368,0.57-0.368c1.065-1.893,2.909-3.037,4.396-4.519,3.444-3.428,7.001-6.738,10.513-10.095,4.371-4.183,8.741-8.364,13.111-12.543-0.95,0.107-1.202-0.717-1.672-1.254,0.004,0.478-0.312,0.766-0.623,1.064-3.568,3.415-7.129,6.833-10.696,10.249-0.303,0.29-0.579,0.655-1.089,0.498-2.265-3.396-4.548-6.776-6.779-10.194-0.443-0.679-1.248-1.227-1.058-2.22,5.499-1.318,10.881-3.044,16.289-4.679,1.631,1.524,2.517,3.608,3.955,5.28,0.47,0.537,0.723,1.361,1.675,1.253,2.7-2.511,5.394-5.031,8.109-7.527,0.481-0.439,0.862-1.029,1.551-1.21,1.153,3.54,2.307,7.078,3.461,10.615,0.265-0.088,0.494-0.217,0.698-0.376-0.204,0.159-0.433,0.288-0.698,0.376zm13.812-13.039c-3.838,3.851-7.796,7.584-11.714,11.355-0.211,0.206-0.498,0.331-0.751,0.493-1.099-3.484-2.197-6.97-3.296-10.457,0.621-1.876,2.413-2.681,3.69-3.939,3.042-2.999,6.187-5.894,9.304-8.813,0.428-0.4,0.803-0.971,1.536-0.843,2.015,2.386,3.953,4.845,6.386,6.838-1.304,2.181-3.405,3.611-5.155,5.366zm47.79-8.161c-7.023,6.643-14.002,13.333-20.945,20.058-0.98,0.949-1.504,1.085-2.536-0.006-5.67-5.999-11.438-11.907-17.171-17.848-0.667-0.712-1.275-1.49-2.014-2.118-0.856-0.726-0.748-1.309-0.15-2.162,5.762-8.226,11.5-16.466,17.196-24.737,0.71-1.03,1.104-1.12,1.984-0.169,2.032,2.2,4.187,4.284,6.292,6.415,5.789,6.059,11.551,12.144,17.395,18.148,0.968,0.996,0.949,1.477-0.051,2.419z"/>

 </g>

</svg>

