<?xml version="1.0" encoding="UTF-8" standalone="no"?>
<!-- Generator: Adobe Illustrator 16.0.0, SVG Export Plug-In . SVG Version: 6.00 Build 0)  -->
<svg id="farmer" xmlns:rdf="http://www.w3.org/1999/02/22-rdf-syntax-ns#" xmlns="http://www.w3.org/2000/svg" enable-background="new 0 0 90 90" xml:space="preserve" height="90" viewBox="0 0 90 90" width="90" version="1.1" y="0px" x="0px" xmlns:cc="http://creativecommons.org/ns#" xmlns:dc="http://purl.org/dc/elements/1.1/"><metadata id="metadata3392"><rdf:RDF><cc:Work rdf:about=""><dc:format>image/svg+xml</dc:format><dc:type rdf:resource="http://purl.org/dc/dcmitype/StillImage"/><dc:title/></cc:Work></rdf:RDF></metadata><path id="icon_farmer" clip-rule="evenodd" d="m78.006,55.114c-0.17479-1.7546-0.34958-3.5099-0.52437-5.2645-0.6194-3.7889-1.4094-7.5332-2.7299-11.153-1.9002-5.2092-4.6432-9.9138-8.4543-13.944-2.1416-2.2653-4.7565-3.9815-7.3236-5.7319-0.40543-0.27622-0.74417-0.47324-0.40654-1.0332,0.10254-0.17034,0.13505-0.49463,0.04057-0.65414-0.49602-0.83588-0.25232-1.6259,0.06308-2.4254-0.0603-0.86672-0.51714-1.4439-1.2766-1.8388-0.56883-0.29622-1.1082-0.64941-1.6609-0.97732-0.40821-0.23759-0.81642-0.4749-1.2244-0.71222-0.63997-0.34263-1.2852-0.67665-1.9191-1.0298-1.0887-0.60718-1.9805-0.43266-2.6774,0.59273-0.20258,0.29678-0.4071,0.42961-0.75168,0.38654-0.76362-0.09559-1.2688,0.31206-1.6884,0.88145-0.21119,0.34624-0.42266,0.69304-0.63496,1.0393-1.3616,2.4109-2.8091,4.7696-4.318,7.0908-0.137,0.40293-0.37236,0.74695-0.64386,1.069-0.67414,1.1327-1.3372,2.2725-2.0266,3.396-0.48991,0.79892-0.61301,1.5814,0.06336,2.3192,0.23176,0.25232,0.16451,0.43044,0.0289,0.65442-0.82643,1.3672-1.6526,2.7349-2.479,4.1027-0.2287,0.3996-0.4574,0.79947-0.6861,1.1988-1.2466,2.2356-2.5857,4.4164-3.8976,6.6134-2.2367,3.7456-4.4078,7.529-6.6092,11.295-0.11226,0.19257-0.24648,0.37236-0.37014,0.55855-0.49769,1.0018-1.0435,1.9749-1.6923,2.888-0.18201,0.33207-0.3643,0.66498-0.54604,0.9976-0.152,0.23398-0.30373,0.46851-0.45517,0.70221-1.2774,2.3626-2.6485,4.6693-4.0843,6.9379-1.4022,2.4857-3.5294,4.3686-5.3832,6.4791-0.14339,0.35708-0.42989,0.59495-0.70193,0.84449-0.41627,0.52548-0.85838,1.0351-1.0762,1.6868,0.01,1.333,0.46434,2.5379,1.0682,3.6989,0.77502,0.9851,1.6848,1.8274,2.7074,2.5499,0.16312,0.03585,0.34458,0.03696,0.48602,0.11226,1.4,0.75279,2.9047,1.1479,4.4692,1.3597,1.9296,0.26093,2.8111,0.6019,3.8234-1.4845,0.31262-0.94119,0.69749-1.8507,1.1743-2.7208,0.67137-1.7754,1.4269-3.5141,2.2411-5.2287,0.70777-1.874,1.4558-3.7292,2.5549-5.4193,0.21897-0.42822,0.4624-0.14756,0.68276-0.0125,1.0198,0.62579,2.0344,1.2608,3.0509,1.8921,0.47629,0.11282,0.74139,0.49074,1.0401,0.82726,1.0171,0.85477,2.0661,1.6742,3.0395,2.576,0.64219,0.59495,1.3513,0.85005,2.195,0.83087,0.6244-0.21592,1.2488-0.43155,1.8729-0.64747,0.03418-0.03696,0.07614-0.05419,0.12672-0.05252,0.34958-0.33318,0.69916-0.66636,1.049-0.99983,0.21453-0.29206,0.42961-0.58356,0.64441-0.87478,0.13422-0.27955,0.26844-0.5591,0.40293-0.83865,0.39793-1.1718,0.67609-2.3717,0.79419-3.6044,0.11671-1.2157-0.16701-1.6831-1.266-2.1769-0.86922-0.39015-1.7351-0.78697-2.6024-1.181-0.35486-0.13338-0.73806-0.20202-1.0387-0.45795-0.29761-0.07447-0.59022-0.16117-0.83254-0.36264-0.426-0.10476-0.82476-0.27288-1.1918-0.51353-1.2119-0.37348-2.2839-1.0393-3.3996-1.6153-0.30262-0.15645-0.31595-0.32179-0.15089-0.59273,0.40738-0.66803,0.79447-1.3483,1.1902-2.0233,0.13839-0.30678,0.24815-0.63024,0.51131-0.86255,1.7743-3.1768,3.5436-6.356,5.3259-9.5272,0.63469-1.1299,1.3011-2.2414,1.953-3.3613,0.32679-0.72361,0.67943-1.4322,1.1632-2.0672,1.2191-2.1889,2.437-4.3778,3.6572-6.5661,0.09448-0.16868,0.16979-0.36514,0.42544-0.3393,1.0096,0.10087,1.6478-0.42016,2.1672-1.3427-0.25343,1.6515,0.95786,2.1497,1.9952,2.7852,1.5614,0.95675,3.1192,1.9191,4.679,2.8792,0.26204,0.16173,0.5466,0.29539,0.71972,0.56938,0.38709,0.21536,0.73167,0.48241,1.004,0.83587,2.2156,1.669,4.1271,3.6614,5.9898,5.6977,1.2527,1.3694,2.4429,2.7977,3.4666,4.3544,0.34402,0.39571,0.66498,0.80697,0.88617,1.2863,0.55021,0.62802,0.9537,1.3483,1.3263,2.088,1.3149,1.968,2.3898,4.0607,3.2707,6.2557,0.21703,0.33152,0.4938,0.6069,0.8092,0.84393,0.28066,0.06614,0.5616,0.13311,0.84227,0.1998,0.28177-0.06197,0.56327-0.12366,0.8456-0.18618,0.27733-0.28233,0.5541-0.56438,0.83143-0.84671,0.18007-0.89951-0.01084-1.8049,0.04557-2.7058zm-25.321-42.112c0.92924,0.51353,1.8238,1.0949,2.7761,1.5578,0.70999,0.3443,0.77391,0.71527,0.31095,1.2919-0.10421,0.12949-0.16173,0.29233-0.33874,0.34735v0.000278c-1.4778-0.87644-2.9553-1.7534-4.4325-2.6304,0.56772-1.1732,0.57216-1.181,1.6843-0.56688zm-3.8987,1.3502c0.3229-0.60634,0.6458-0.7489,1.1885-0.30234,0.10198,0.0842,0.24871,0.11365,0.37514,0.16812,1.6484,1.0334,3.3535,1.9669,5.0692,2.8819,0.8531,0.3568,0.87644,0.882,0.34152,1.5556-0.15034,0.18924-0.22036,0.44239-0.32735,0.66609-0.64358,1.116-1.288,2.2314-1.9485,3.376-0.58356-0.47324-1.144-0.9009-1.6754-1.3633-1.5717-1.3666-3.2846-2.5676-4.7643-4.0427,0.58522-0.97732,1.2068-1.9352,1.7412-2.9395zm-16.732,43.256c-0.09476,0.16979-0.15561,0.35875-0.23231,0.53798v0.000556c-0.7614,1.1429-1.4164,2.3451-2.0116,3.5816,0.27455,0.05863,0.54938,0.11727,0.8242,0.1759,0.57605-1.0159,1.1524-2.0316,1.7287-3.047,1.0165,0.56216,2.033,1.1246,3.0501,1.6873,0.14339,0.06252,0.28622,0.12532,0.42961,0.18785-0.14339-0.06252-0.2865-0.12532-0.42989-0.18785-0.11893,1.353-0.23759,2.706-0.3568,4.0596,0.27622,0.17145,0.55216,0.34402,0.82837,0.51603,0.21675-1.3764,0.14394-2.7886,0.50964-4.1466,0,0.000556,0.000278,0.000556,0.000278,0.000556,1.9972,0.8506,3.9854,1.7259,5.9981,2.539,0.6333,0.25565,0.85088,0.53687,0.68693,1.2477-0.2701,1.1707-0.56244,2.3067-1.4389,3.1876-0.92674,0.93202-1.4183,0.96926-2.397,0.13338-1.1352-0.96926-2.2406-1.973-3.3593-2.9617-0.27594-0.17201-0.55188-0.34458-0.82809-0.51603-1.5031-0.85199-3.0387-1.6515-4.4217-2.7002-0.27455-0.05863-0.54938-0.11727-0.82393-0.1759-0.79141,1.313-1.5828,2.6263-2.3742,3.9393-2.2572-0.18729-4.5145-0.37403-6.7717-0.56077-0.17951,0.2551-0.35903,0.51019-0.53854,0.76585,2.3223,0.20202,4.6451,0.40376,6.9674,0.60579-0.77863,2.2036-1.8215,4.2952-2.7146,6.4511-0.59273,1.43-1.2316,2.8414-1.841,4.265-0.11477,0.2676-0.19896,0.54938-0.56883,0.5063-2.5299-0.29428-4.9524-0.8406-6.707-2.9139-0.19869-0.23509-0.37292-0.49713-0.51992-0.76807-0.69388-1.2777-0.68332-1.2852,0.29261-2.3854,1.7004-1.9174,3.3943-3.8404,5.0911-5.7611,0.17951-0.2551,0.35875-0.51019,0.53854-0.76529,0.60773-1.4953,1.5492-2.8044,2.3559-4.1866,3.7812-6.4808,7.5926-12.944,11.397-19.412,0.14172-0.24092,0.31623-0.46351,0.47546-0.69471,0.06503-0.24898,0.1923-0.45601,0.36236-0.63385-0.16979,0.17812-0.29706,0.38487-0.36236,0.63441,1.2922,1.7043,2.432,3.5116,3.5891,5.3065-2.1433,3.8284-4.2875,7.6576-6.4275,11.488zm12.919-22.909c-1.8343,3.2749-3.7109,6.5258-5.5752,9.7846-0.12449,0.21758-0.29067,0.41238-0.43767,0.61774-1.1741-1.6976-2.3484-3.3949-3.5225-5.0925,0.74612-1.6423,1.7676-3.1273,2.6702-4.6807,1.4147-2.4337,2.8391-4.8613,4.2655-7.2881,0.14089-0.23926,0.32318-0.45378,0.4863-0.67942v-0.000556c1.5459,0.92063,3.0595,1.8991,4.6829,2.6855,0.000556,0,0.000556,0,0.000556-0.000556-0.70916,1.6331-1.7045,3.1084-2.5701,4.654zm4.9102-5.7502c-0.64358,1.0946-0.63608,1.099-1.7476,0.54604-1.702-1.0018-3.4041-2.0038-5.1061-3.0056-1.1479-0.73639-1.1432-0.73389-0.41016-1.9332,1.1763-1.9252,2.3392-3.8581,3.5275-5.7758,0.14478-0.23453,0.17368-0.63524,0.60301-0.60523,1.8568,1.5567,3.6889,3.1431,5.5844,4.6507,0.55966,0.44517,0.78002,0.80058,0.34624,1.4072-0.93286,1.572-1.8713,3.1398-2.7972,4.716zm4.1341,2.7377c-0.39737-0.23564-0.24037-0.48352-0.13088-0.77891,0.48518-1.3063,0.82281-2.6257,0.54437-4.0468-0.16784-0.85755-0.63385-1.5517-1.0507-2.28,1.0415-1.5045,1.7634-3.1929,2.7383-4.736,2.5287,1.5642,4.9455,3.2857,7.2403,5.1778,0.21425,0.17757,0.40432,0.38487,0.60579,0.57855-1.6037,3.0584-3.2071,6.1168-4.811,9.1752-1.7109-1.0318-3.4169-2.0727-5.1361-3.0898zm5.9445,3.7545c-0.01084-0.48352,0.31095-0.83198,0.51297-1.2232,1.365-2.6421,2.7441-5.2765,4.1182-7.9138,1.0221,0.6936,1.6851,1.7209,2.4126,2.6741,4.1038,5.3765,6.4602,11.509,7.7391,18.097,0.47324,2.437,0.80225,4.8938,0.92758,7.4187-3.813-7.534-9.144-13.806-15.712-19.054z"/></svg>
