<?xml version="1.0" encoding="UTF-8" standalone="no"?>
<!-- Generator: Adobe Illustrator 16.0.0, SVG Export Plug-In . SVG Version: 6.00 Build 0)  -->
<svg id="jeweller" xmlns:rdf="http://www.w3.org/1999/02/22-rdf-syntax-ns#" xmlns="http://www.w3.org/2000/svg" enable-background="new 0 0 300 300" xml:space="preserve" height="100" viewBox="0 0 100 100" width="100" version="1.1" y="0px" x="0px" xmlns:cc="http://creativecommons.org/ns#" xmlns:dc="http://purl.org/dc/elements/1.1/"><metadata id="metadata3139"><rdf:RDF><cc:Work rdf:about=""><dc:format>image/svg+xml</dc:format><dc:type rdf:resource="http://purl.org/dc/dcmitype/StillImage"/><dc:title/></cc:Work></rdf:RDF></metadata><g id="icon_jeweller" transform="matrix(0.3075737,0,0,0.30743314,3.5566195,3.8388805)"><path id="path3127" d="m259.78,157.19c-0.743-2.178-2.38-3.661-3.993-5.163-0.201-0.143-0.402-0.286-0.605-0.43-1.231-0.761-2.379-1.624-3.264-2.792l-0.014,0.029c-5.267-3.884-10.543-7.75-14.873-12.73-0.68-0.781-2.17-0.262-2.617-1.512-2.6-1.752-4.975-3.777-7.231-5.945-4.733-3.431-9.313-7.048-13.556-11.08-8.523-6.838-17.078-13.637-25.564-20.521-13.291-10.781-26.536-21.615-39.796-32.435-0.412-0.336-0.751-0.762-1.125-1.146-2.412-1.465-4.457-3.386-6.524-5.277-5.903-4.258-11.4-9.017-16.956-13.705-0.196-0.212-0.391-0.425-0.585-0.637-2.463-1.934-4.978-3.808-7.367-5.828-1.225-1.035-2.541-1.589-4.099-1.688-3.787-0.237-5.874,1.278-7.397,5.416-3.691,10.021-7.369,20.046-11.052,30.069-0.564,2.488-1.285,4.921-2.531,7.168-2.967,9.565-6.506,18.925-10.096,28.267-0.684,2.113-1.224,4.281-2.375,6.216-1.353,4.927-3.199,9.672-5.173,14.375-0.262,2.584-1.896,4.693-2.488,7.164-3.321,9.322-6.642,18.642-9.962,27.964-3.408,9.372-6.816,18.742-10.224,28.114-2.504,7.137-5.056,14.258-7.497,21.415-1.633,4.79-0.13,8.192,4.38,10.424,1.93,0.953,3.842,1.941,5.762,2.914,1.622,0.458,3.078,1.245,4.431,2.233,6.042,3.513,12.085,7.025,18.127,10.54,2.002,1.253,4.003,2.506,6.006,3.76,2.248,1.224,4.66,2.168,6.618,3.887,1.107,0.649,2.213,1.296,3.32,1.943,5.728,3.412,11.863,6.159,17.038,10.469,4.879,1.729,8.97,5.652,14.612,5.261,1.082,0.023,2.163,0.046,3.245,0.069,7.672-0.073,15.363,0.352,22.953-1.356,2.722-0.613,5.534-0.824,8.305-1.218,3.092-0.54,6.164-1.341,9.279-1.569,6.545-0.482,12.217-3.503,18.154-5.779,2.443-1.349,4.952-2.55,7.655-3.295,2.207-0.986,4.414-1.975,6.621-2.961,5.029-1.568,8.325-5.583,12.264-8.691,2.168-2.387,4.492-4.604,7.126-6.481,7.843-6.588,10.635-16.429,15.88-24.688,1.274-2.393,2.551-4.783,3.825-7.175,0.434-1.215,0.903-2.411,1.85-3.344,0.36-1.419,1.062-2.663,1.941-3.817,5.31-10.105,10.597-20.224,15.948-30.306,1.034-1.945,1.895-3.871,1.624-6.128zm-133.36-98.378c0.856-0.036,1.656-0.012,1.309,1.21,1.32-0.619,1.864,0.649,2.563,1.219,37.527,30.54,75.024,61.117,112.52,91.694,0.078,0.063,0.109,0.185,0.164,0.279l-0.048-0.038c0.01,0.014,0.021,0.027,0.031,0.041-1.478,0.335-2.76-0.409-4.069-0.827-5.151-1.648-10.452-2.987-15.359-5.194-7.036-3.169-14.136-2.645-21.325-1.483-2.808,0.454-4.706,0.092-6.676-2.333-16.537-20.357-33.238-40.581-49.898-60.837-5.438-6.614-10.908-13.199-16.332-19.825-0.649-0.794-1.727-1.384-1.599-2.66-0.813-0.015-1.089-0.586-1.281-1.246-0.198-0.353-0.336-0.781-0.557-1.106,0.221,0.325,0.359,0.752,0.557,1.106zm-10.87-7.004c0.258,0.246,0.516,0.494,0.773,0.74,10.299,12.439,20.617,24.862,30.888,37.326,15.101,18.321,30.168,36.669,45.246,55.008,0.335,0.408,0.641,0.84,0.914,1.202-0.23,0.966-0.979,0.982-1.552,1.091-15.411,2.925-30.836,5.782-46.235,8.778-1.916,0.371-2.557,0.098-3.077-1.885-5.865-22.396-12.101-44.69-17.694-67.167-2.6-10.449-5.582-20.864-8.562-31.249-0.238-0.827-0.341-1.695-0.507-2.544-0.314-0.397-0.534-0.807-0.194-1.3zm2.863,26.524c6.783,25.377,13.519,50.768,20.417,76.115,0.677,2.484,0.165,3.315-2.141,4.212-13.21,5.135-26.35,10.456-39.516,15.706-0.774,0.31-1.573,0.555-2.492,0.876,6.148-40.477,11.035-80.902,16.961-122.18,2.421,9.036,4.6,17.152,6.771,25.272zm-22.942,100.53c14.287-5.668,28.589-11.3,42.838-17.064,2.055-0.83,2.526-0.118,3.064,1.639,4.274,13.964,8.627,27.9,12.952,41.848,0.674,2.171,1.194,4.399,2.04,6.5,0.745,1.848-0.09,2.271-1.627,2.534-21.529,3.679-43.055,7.369-64.578,11.08-2.298,0.397-3.159-0.271-2.303-1.987,1.853-14.433,3.648-28.27,5.377-42.116,0.185-1.478,1.092-1.978,2.237-2.434zm49.456-16.575c-0.433-1.394-0.677-2.345,1.335-2.723,16.398-3.08,32.778-6.26,49.164-9.41,0.106-0.021,0.213-0.036,0.425-0.072,1.156-0.311,1.596,0.676,2.17,1.442,8.144,10.841,16.256,21.704,24.459,32.498,1.32,1.737,0.617,2.284-0.964,2.954-19.538,8.279-39.078,16.563-58.573,24.944-1.996,0.858-2.575,0.301-3.138-1.53-4.916-16.047-9.896-32.076-14.878-48.103zm-47.745-73.438,0.009-0.02c-0.114-0.754-0.255-1.516,0.648-1.927l0.01-0.025c-0.127-0.762-0.234-1.519,0.653-1.941,2.61-7.562,5.22-15.123,7.83-22.686-0.238,6.795-1.6,13.456-2.452,20.174-1.739,13.721-3.621,27.424-5.626,41.109-2.505,17.1-3.997,34.352-7.604,51.293-0.368,1.728-1.077,2.615-2.583,3.272-7.337,3.208-14.588,6.586-21.692,11.673,0.946-5.671,2.5-10.533,3.953-15.414,7.925-26.634,16.476-53.07,25.243-79.439,0.438-1.319,1.115-2.604,0.975-4.071l0.01-0.062c-0.146-0.76-0.286-1.517,0.626-1.936zm-26.855,73.818c-0.19,0.333-0.381,0.668-0.571,1.001,0.122-0.372-0.103-0.943,0.571-1.001zm-8.82,23.5c2.633-7.532,5.477-14.991,8.23-22.483-1.207,6.948-3.905,13.5-5.398,20.374-0.666,3.064-1.146,6.197-1.969,9.187-0.968,3.515-3.48,6.332-6.214,8.81,1.136-5.514,3.509-10.614,5.351-15.888zm4.315,36.086c-4.233-2.148-8.459-4.308-12.708-6.425-0.621-0.309-1.156-0.577-1.188-1.351-0.313-0.43-0.159-0.586,0.323-0.55l0.036-0.032c4.541-5.236,8.381-10.999,12.331-16.666,3.646-5.23,9.153-7.816,14.43-10.744,2.548-1.415,5.302-2.453,7.912-3.764,1.875-0.939,2.484-0.491,2.205,1.571-0.708,5.245-1.318,10.503-2.02,15.75-1.017,7.602-2.257,15.18-3.033,22.805-0.288,2.826-1.528,2.791-3.571,2.401-4.446-0.846-8.904-1.625-13.358-2.431l-0.001-0.001c-0.157-0.091-0.323-0.165-0.495-0.222-0.287-0.113-0.575-0.229-0.863-0.341zm85.1,31.291c-9.521,2.202-19.107,1.934-28.736,1.246-1.333-0.094-2.531-0.332-3.689-1.016-13.522-7.972-27.061-15.921-40.582-23.897-0.416-0.244-0.703-0.706-1.045-1.076-0.528,0.022-1.074,0.073-1.196-0.657,0.453,0.118,1.013,0.036,1.207,0.633,14.698,2.26,28.589-2.873,42.814-4.818,11.968-1.637,23.833-4.036,35.737-6.138,2.026-0.357,3.061,0.18,3.754,2.309,3.276,10.063,6.751,20.063,10.154,30.084-6.023,1.762-12.341,1.923-18.418,3.33zm19.325-3.32c0.597-0.039,1.174-0.164,1.736-0.368-0.562,0.204-1.139,0.329-1.736,0.368zm29.536-12.978c-0.469,0.425-0.867,1.017-1.418,1.255-8.505,3.689-17.032,7.335-25.553,10.989-3.44-10.231-6.861-20.469-10.344-30.687-0.548-1.61-0.683-2.62,1.291-3.452,19.304-8.146,38.563-16.396,57.839-24.605,0.156-0.065,0.38,0.028,0.82,0.074-5.513,11.203-11.008,22.318-16.452,33.458-1.942,3.974-3.766,8.007-5.646,12.012h-0.004l0.06,0.162c0.042,0.444-0.207,0.67-0.593,0.794zm41.279-60.514c-7.428,14.059-14.884,28.104-22.329,42.153-2.547,4.806-6.725,8.013-10.925,11.199-0.031,0.365-0.209,0.585-0.602,0.585,0.191-0.188,0.384-0.381,0.575-0.57,1.186-4.778,3.991-8.829,5.998-13.236,3.093-6.796,6.958-13.267,9.716-20.187,2.834-7.109,8.85-11.482,13.24-17.229,1.624-2.125,3.128-4.441,5.429-5.986,0.388,1.34-0.564,2.254-1.102,3.271zm8.518-16.889c-0.099-0.081-0.199-0.162-0.3-0.243-6.779,7.313-13.177,14.954-19.477,22.675-1.652,2.026-2.512,2.138-4.175-0.139-7.35-10.059-14.913-19.96-22.391-29.925-0.575-0.766-1.092-1.574-1.828-2.642,7.046-1.019,13.596-2.13,20.462,0.563,8.951,3.508,18.246,6.138,27.396,9.145,0.088-0.088,0.177-0.175,0.269-0.262,0.367,0.257,0.354,0.535,0.044,0.828z"/><path id="path3129" d="m126.02,53.509c-0.001,0.008,0.001,0.015,0,0.024,0.008,0,0.015,0.002,0.022,0.002,0.005-0.016,0.004-0.025,0.008-0.039-0.01,0.005-0.02,0.007-0.03,0.013z"/><path id="path3131" d="m71.507,234.46c-0.013-0.002-0.026-0.003-0.04-0.005,0.009,0.009,0.018,0.021,0.027,0.03,0.007,0,0.015-0.001,0.023-0.001-0.002-0.009-0.007-0.015-0.01-0.024z"/><path id="path3133" d="m211.92,235.85,0,0,0,0-0.008,0.007c-0.008,0.007-0.016,0.016-0.023,0.023-0.001,0.002-0.001,0.004-0.002,0.007,0.009-0.007,0.02-0.015,0.029-0.022,0-0.006,0.003-0.011,0.004-0.015z"/></g></svg>
