<?xml version="1.0" encoding="UTF-8" standalone="no"?>
<!-- Generator: Adobe Illustrator 16.0.0, SVG Export Plug-In . SVG Version: 6.00 Build 0)  -->
<svg id="lumberjack" xmlns:rdf="http://www.w3.org/1999/02/22-rdf-syntax-ns#" xmlns="http://www.w3.org/2000/svg" enable-background="new 0 0 100 100" xml:space="preserve" height="100" viewBox="0 0 100 100" width="100" version="1.1" y="0px" x="0px" xmlns:cc="http://creativecommons.org/ns#" xmlns:dc="http://purl.org/dc/elements/1.1/"><metadata id="metadata3157"><rdf:RDF><cc:Work rdf:about=""><dc:format>image/svg+xml</dc:format><dc:type rdf:resource="http://purl.org/dc/dcmitype/StillImage"/><dc:title/></cc:Work></rdf:RDF></metadata><path id="icon_lumberjack" d="m84.069,36.447c-2.4793-1.8213-5.0138-3.5484-7.8524-4.7787-0.59341-0.19468-1.1525-0.46041-1.6652-0.81838-0.000267,0,0.0032,0.0059,0.0032,0.0059-0.63953-0.19521-1.2469-0.46014-1.799-0.84145-2.3329-1.0943-4.6725-2.1752-6.9944-3.292-0.62907-0.30247-0.54514-0.92135-0.40544-1.463,0.07052-0.2719,0.30676-0.50117,0.46738-0.74947,0.08715-0.20272,0.17349-0.40624,0.26091-0.60923,0.16625-0.94708-0.18395-1.6258-1.019-2.106-1.7196-0.98759-3.4234-2.0031-5.1339-3.007-0.41804-0.24187-0.88167-0.12147-1.3241-0.16866-0.49259,0.13166-0.80927,0.49125-1.1192,0.86022-0.18234,0.32419-0.36361,0.64811-0.54568,0.97257-2.2532,1.4381-2.8308,4.0673-4.303,6.0599-0.20862,0.28263-0.39632,0.58054-0.59314,0.87148-0.08179,0.3199-0.25528,0.58617-0.47945,0.82294-1.2831,2.1838-2.5662,4.3681-3.8493,6.5524-0.314,0.50733-0.62854,1.0147-0.94254,1.522-0.38452,0.79532-0.84306,1.5469-1.3434,2.2734-0.15418,0.36763-0.3502,0.70952-0.61942,1.0064-0.3435,0.85834-1.1144,1.5974-0.71515,2.6665,0.03888,0.10404-0.12388,0.29067-0.20728,0.43091-2.0149,3.3792-4.0305,6.7578-6.0497,10.136-0.15204,0.2542-0.32473,0.4958-0.4883,0.7433-0.83742,1.4295-1.673,2.8611-2.5133,4.2893-0.24562,0.41697-0.64248,0.65321-1.0635,0.85539-0.325,0.35422-0.72239,0.60494-1.1552,0.80391-0.93637,0.78567-1.9607,1.4472-2.9794,2.1168-0.32553,0.22256-0.65133,0.44459-0.97686,0.66715-1.6976,1.3096-3.4722,2.5104-5.2527,3.7026-0.27887,0.19575-0.55775,0.39176-0.83608,0.58724-2.2321,1.5713-4.4649,3.1403-6.6951,4.7132-1.0112,0.71274-1.1512,1.6089-0.4159,2.579,0.3081,0.40678,0.60869,0.81785,0.91277,1.2273,0.27271,0.23141,0.49178,0.50358,0.64194,0.83018,0.09278,0.1153,0.18502,0.2298,0.2778,0.34537,1.1112,1.2431,2.1076,2.578,3.1204,3.9002,0.43011,0.56177,0.84842,1.1517,1.6454,1.2268,0.31722-0.02199,0.63417-0.04397,0.95112-0.06516,1.1404-0.9184,2.1983-1.9384,3.4082-2.7705,1.1683-1.1176,2.4216-2.1339,3.6921-3.1309,0.14802-0.24294,0.39659-0.35932,0.62773-0.49822,1.4799-1.3973,3.0866-2.6437,4.6577-3.9337,0.15713-0.1145,0.3148-0.22954,0.47248-0.34511,2.1074-1.7885,4.2091-3.583,6.3275-5.3581,0.40195-0.33652,0.761-0.70067,1.0737-1.1168,0.20674-0.52503,0.5076-0.9959,0.83555-1.452,0.99804-1.8124,1.98-3.6334,2.9976-5.4351,1.5732-2.7858,3.17-5.5584,4.7572-8.3364,0.11584-0.24294,0.22015-0.49151,0.34966-0.72695,0.83233-1.5225,1.7928-1.5542,2.7627-0.09492,1.4571,2.0197,1.9068,4.1847,0.70952,6.4591-0.45907,0.87255,0.41429,2.3458,1.4102,2.3744,3.048,0.08742,6.0588-0.11772,9.0347-0.84359,2.3294-0.56847,4.5062-1.4941,6.6299-2.5742,0.59904-0.39766,1.1992-0.79693,1.7985-1.1954,0.27753-0.20352,0.55533-0.40732,0.8334-0.60977,0.27539-0.22095,0.55131-0.44137,0.8267-0.66259,1.9293-1.7186,3.6342-3.6374,5.1321-5.7416,0.31936-0.49956,0.63953-0.99938,0.95889-1.4992,0.63068-1.215,1.2603-2.43,1.8902-3.6455,0.19011-0.45049,0.3864-0.89937,0.56928-1.3531,0.44727-1.1187,0.26386-1.6719-0.69932-2.3787zm-9.509-3.1277c1.2694,0.57357,2.5179,1.1925,3.7755,1.7918-2.4249,4.8371-5.8183,8.7762-10.653,11.531-0.41536-1.9795-0.81088-3.8734-1.2128-5.7652-0.07749-0.36468,0.13622-0.62827,0.28826-0.9125,1.4552-2.726,2.9115-5.4509,4.3681-8.1763,1.2123,0.35932,2.2921,1.016,3.4342,1.5317zm-8.1308-3.8857c1.3448,0.65589,2.7595,1.178,4.0085,2.024,0.13836,0.0062,0.27458,0.01501,0.39498,0.059-0.12013-0.04425-0.25662-0.0531-0.39525-0.059-0.14775,0.22498-0.31373,0.43949-0.44083,0.67519-1.3289,2.453-2.6659,4.9017-3.9635,7.3716-0.25072,0.47784-0.54219,0.60923-1.0377,0.51967-0.6996-0.12603-1.4062-0.21398-2.1098-0.31614-1.9089-0.27512-3.8181-0.5497-5.8-0.83448,0.17939-0.33545,0.30059-0.57652,0.43359-0.81034,1.9022-3.3529,3.8055-6.7053,5.7086-10.057,1.152,0.2845,2.1519,0.91653,3.2014,1.4279zm-5.7005-7.6572c0.85593,0.47301,1.6909,0.9841,2.553,1.4442,0.39444,0.2105,0.52316,0.43198,0.26868,0.83233-0.26064,0.40866-0.43225,0.87684-0.81249,1.2051-0.03137,0.1389-0.06141,0.27807-0.09305,0.41643,0.03137-0.13863,0.0614-0.27753,0.09305-0.41643-1.4968-0.8814-3.0759-1.6226-4.4869-2.6485,0.84949-1.7263,0.85217-1.7317,2.4777-0.83313zm-3.8584,1.7716c0.1802-0.31186,0.33679-0.5666,0.73097-0.29443,0.19843-0.07025,0.31883-0.22015,0.43333-0.37541-0.1145,0.15526-0.2349,0.30488-0.43333,0.37541,1.6051,1.0254,3.2647,1.9559,4.9516,2.8378v-0.000268c0.76905,0.32553,0.41536,0.80471,0.17403,1.2691-1.1828,2.0291-2.3879,4.0458-3.5361,6.0942-0.3384,0.60494-0.55855,0.65267-1.0106,0.12683-1.4072-1.6365-3.0668-3.0405-4.4019-4.7451,1.0324-1.7623,2.0696-3.5205,3.092-5.2881zm-32.343,53.712c-0.543,0.53495-1.1933,0.9597-1.7523,1.4807-0.33518,0.31212-0.52047,0.26171-0.78084-0.07052-1.4166-1.8073-2.8434-3.6071-4.2796-5.3983-0.23463-0.29309-0.30703-0.50063,0.07294-0.71381,0.32982-0.18448,0.58912-0.49286,0.98437-0.56633,2.5992,1.171,5.2316,2.2626,7.8918,3.2878-0.51994,0.86612-1.4432,1.2984-2.1363,1.9805zm3.4948-2.9201c-0.20406,0.17242-0.36012,0.42072-0.66608,0.43976-0.12094,0.19709-0.25608,0.37487-0.46148,0.45531,0.2054-0.08098,0.34001-0.25876,0.46121-0.45531-2.5793-1.2327-5.2509-2.2465-7.898-3.3191,2.0237-1.5831,4.1906-2.963,6.2835-4.4483,1.5598-1.1069,3.1411-2.1841,4.7132-3.2741,0.33921,0.31454,0.65348,0.66313,1.0227,0.93664,1.5705,1.1672,2.2468,2.7952,2.4678,4.669-1.9738,1.6657-3.9479,3.332-5.9228,4.9961zm20.529-24.175c-0.61647,1.0895-1.131,2.2444-1.943,3.2167-1.1506-1.7601-2.3007-3.5208-3.4511-5.2812-0.12254,0.26815-0.24589,0.53603-0.36844,0.80417,1.1026,1.8062,2.2618,3.576,3.4776,5.308-0.76449,1.3729-1.5287,2.7453-2.2935,4.1174-0.15097,0.26734-0.30166,0.53522-0.45263,0.80283-0.74089,1.341-1.4088,2.7303-2.2457,4.008-0.63015,0.96292-1.7076,1.5215-2.5713,2.2752-1.2362,1.0798-2.5308,2.0921-3.801,3.1333-0.15982,0.29389-0.43896,0.44512-0.70308,0.61352,0.26412-0.1684,0.543-0.3199,0.70308-0.61406-0.47328-0.31668-0.3494-0.88676-0.55533-1.3177-0.2829-0.59234-0.19065-1.1002,0.28156-1.6043,2.2197-2.3704,4.4145-4.7642,6.613-7.1544,0.23141-0.25152,0.44325-0.35905,0.77441-0.15982,0.48937,0.29362,1.0015,0.54836,1.5046,0.82026,0.1507-0.26761,0.30167-0.53549,0.45263-0.80283-0.62076-0.28665-1.2708-0.52423-1.8545-0.87389-0.53737-0.32124-0.8629-0.19575-1.2544,0.23356-2.287,2.5077-4.5974,4.9937-6.8978,7.4894-0.13997,0.1515-0.28424,0.48642-0.49178,0.27914-0.76181-0.75805-1.7271-1.3362-2.1924-2.3702h0.000268c1.5837-1.1203,3.1826-2.2213,4.7443-3.3711,0.67734-0.49875,0.9546-1.3225,1.3751-2.02,1.6236-2.6925,3.2194-5.4016,4.8368-8.0978,0.15016-0.24991,0.2467-0.55936,0.54997-0.6945,0.12281-0.26761,0.24589-0.53549,0.3687-0.80337,1.0128-1.7003,2.024-3.4031,3.0416-5.101,0.1094-0.18288,0.25715-0.34189,0.38747-0.51243,0.02011-0.11745,0.0598-0.23222,0.096-0.34725-0.0362,0.1153-0.07615,0.2298-0.096,0.34806,1.5882,0.89186,3.1767,1.7843,4.765,2.6766-0.80122,1.7395-1.8593,3.3376-2.8003,4.9996zm3.4666-5.5013c-1.7207-1.0965-3.4961-2.0988-5.2833-3.0805-0.52932-0.24723-0.23811-0.543-0.05846-0.84386,1.9859-3.3229,3.9675-6.649,5.9534-9.9719,0.22203-0.37058,0.46604-0.72829,0.6996-1.0911,1.4582,1.5169,2.8858,3.063,4.3872,4.5354,0.53978,0.52879,0.532,0.89159,0.17188,1.5166-1.511,2.6217-3.048,5.2307-4.4158,7.9329-0.14319,0.22792-0.31159,0.44459-0.42421,0.68699-0.23382,0.49983-0.53629,0.6996-1.0302,0.31534zm2.1645-0.65642c-0.12147-0.05095-0.22444-0.14024-0.33438-0.21505,0.10967,0.07481,0.21264,0.16357,0.33438,0.21425,0.71568-1.2557,1.4509-2.5005,2.1353-3.7731,0.23838-0.44352,0.52155-0.54354,0.98866-0.47355,2.5372,0.38318,5.076,0.76234,7.6205,1.0973,0.50841,0.06704,0.67922,0.25474,0.77066,0.73767,0.2963,1.5542,0.5985,3.1116,1.0058,4.6392,0.18046,0.67868-0.04612,0.90097-0.60038,1.1447-2.5517,1.1198-5.2289,1.721-7.983,2.0323-0.81141-2.1666-2.2648-3.8651-3.9375-5.4037zm15.916,8.4348c-3.8144,1.8384-7.869,2.4903-12.142,2.3876,0.51565-1.5153,0.70416-3.0126,0.34082-4.5435,3.0126-0.39659,5.9684-1.0104,8.7075-2.3956,0.36334-0.18422,0.55667,0.01314,0.79988,0.17725,1.4904,1.0082,2.9813,2.0151,4.4724,3.0223-0.55238,0.72963-1.4115,0.98276-2.1787,1.352zm12.386-13.704c-2.0755,4.739-4.9851,8.8346-9.2232,11.899-0.10592-0.0088-0.23677,0.01957-0.31293-0.03217-1.5673-1.0707-3.1282-2.1503-4.7717-3.284,4.9055-2.8121,8.349-6.8469,10.855-11.738,1.2657,0.65133,2.3337,1.5955,3.5114,2.3774,0.37835,0.25072,0.04558,0.54058-0.05845,0.7779z"/></svg>
