<?xml version="1.0" encoding="UTF-8" standalone="no"?>
<!-- Generator: Adobe Illustrator 16.0.0, SVG Export Plug-In . SVG Version: 6.00 Build 0)  -->
<svg id="miner" xmlns:rdf="http://www.w3.org/1999/02/22-rdf-syntax-ns#" xmlns="http://www.w3.org/2000/svg" enable-background="new 0 0 100 100" xml:space="preserve" height="100" viewBox="0 0 100 100" width="100" version="1.1" y="0px" x="0px" xmlns:cc="http://creativecommons.org/ns#" xmlns:dc="http://purl.org/dc/elements/1.1/"><metadata id="metadata3175"><rdf:RDF><cc:Work rdf:about=""><dc:format>image/svg+xml</dc:format><dc:type rdf:resource="http://purl.org/dc/dcmitype/StillImage"/><dc:title/></cc:Work></rdf:RDF></metadata><path id="icon_miner" clip-rule="evenodd" d="m80.975,47.971c-0.59733-3.4154-1.8654-6.5892-3.5377-9.6108-0.30196-0.54451-0.60737-1.0867-0.91105-1.6298-1.2928-1.8761-2.6522-3.697-4.117-5.4465-2.0248-2.4177-4.5547-4.1968-7.1532-5.902-0.45294-0.29708-0.89728-0.53475-0.44806-1.1556,0.03071-0.04305,0.05999-0.12056,0.04191-0.16103-0.5359-1.2268,0.18112-2.5104-0.17337-3.7435-0.2879-0.48079-0.80457-0.68803-1.2173-1.021-0.5003-0.29306-1.0006-0.58527-1.5009-0.87833-0.5115-0.21269-0.97707-0.50375-1.4185-0.83642-0.66449-0.26178-1.2569-0.64928-1.8313-1.0661-0.6886-0.31172-1.374-0.3588-2.0546,0.02354-0.43888,0.57178-0.80542,1.1705-1.7254,1.0836-0.46414-0.04363-0.86714,0.39726-1.1275,0.82494-0.14151,0.23307-0.26666,0.33124-0.54135,0.19777-2.0793-1.0121-4.2682-1.6883-6.539-2.1091-0.87001-0.09214-1.732-0.22762-2.5684-0.49456-0.19748-0.01349-0.40099-0.0011-0.59187-0.0442-3.8403-0.87345-7.7399-1.0155-11.658-1.0012-0.43601,0.002-0.85537,0.36023-1.2957,0.05569-0.33727,0.01751-0.67425,0.03416-1.0115,0.05195-1.1786,0.13347-2.3597,0.24829-3.5354,0.40616-0.9254,0.124-1.5333,0.6243-1.7782,1.5675-0.19088,0.73596-0.46041,1.4507-0.6952,2.1752-0.05712,0.29766-0.11481,0.59531-0.17165,0.89297,0.02067,0.96272,0.66478,1.4538,1.4142,1.8646,0.1085,0.0095,0.21671,0.01866,0.3255,0.02899,0.30196-0.03904,0.59847-0.03014,0.87575,0.11596,0.63923-0.03703,1.2558,0.11051,1.8769,0.22532,0.58039,0.0864,1.1806,0.04793,1.7403,0.2701,0.33698,0.05109,0.69319-0.01091,1.0078,0.17251,2.833,0.39381,5.6147,1.0302,8.3677,1.7989,0.80542,0.24111,1.6108,0.48136,2.416,0.72247,1.5425,0.46414,3.1164,0.82839,4.6089,1.4515,0.32378,0.03846,0.59015,0.2081,0.85709,0.37573,1.3158,0.5603,1.3189,0.56173,0.57666,1.7403-0.1794,0.28417-0.38549,0.55168-0.57924,0.82638-0.19691,0.50518-0.50662,0.94004-0.84446,1.3574-0.22532,0.53877-0.38319,1.1217-0.02842,1.6223,0.44806,0.63004,0.23365,1.1481-0.09817,1.6909-0.23422,0.38319-0.47992,0.75921-0.72017,1.1381-0.22934,0.4007-0.45868,0.80054-0.68774,1.2015-1.3999,2.4278-2.8804,4.811-4.276,7.2373-2.275,3.9554-4.6253,7.8659-6.8958,11.824-0.12658,0.22044-0.27728,0.42711-0.41678,0.6398-0.15758,0.35621-0.30024,0.72132-0.59962,0.99114-0.09042,0.32923-0.26924,0.60737-0.4983,0.85566-0.88465,1.7027-1.858,3.3511-2.9309,4.941,0.04966,0.2546-0.1217,0.39381-0.28015,0.5402-1.0112,1.9315-2.1453,3.7906-3.294,5.6411-0.12572,0.29967-0.38578,0.4828-0.60823,0.69893-0.34703,0.63808-0.93717,1.06-1.4085,1.5873-0.0023,0.04363-0.02182,0.07693-0.05855,0.10046-0.35822,0.7994-1.3227,1.0732-1.6476,1.9025-0.60479,0.70984-1.1711,1.4579-1.8247,2.1186-0.65789,0.66506-0.90847,1.4073-0.74945,2.3098,0.31947,1.0841,0.63722,2.1691,1.3356,3.0891,0.3387,0.3387,0.65502,0.70439,1.0198,1.0121,2.2042,1.8611,4.8816,2.4458,7.6426,2.7386,1.1872,0.12544,1.8138-0.35822,2.3-1.49,0.44749-1.044,0.91249-2.0802,1.3697-3.1192,0.45581-1.1691,0.89928-2.3437,1.5141-3.4424,0.79968-2.0979,1.5477-4.2189,2.7441-6.1406,1.7047-3.1367,3.4444-6.2539,5.2973-9.3072,0.25747-0.65731,0.6045-1.2641,1.0253-1.8299,2.4513-4.4221,4.9152-8.8378,7.496-13.187,0.29967-0.65129,0.61282-1.2942,1.0592-1.862,1.0893-1.9567,2.1806-3.9132,3.2656-5.8722,0.12515-0.22532,0.29106-0.3123,0.54824-0.31517,0.86082-0.01005,1.4076-0.48681,1.8078-1.213,0.47964-0.87001,1.0084-1.713,1.4883-2.583,0.20035-0.36253,0.36769-0.4848,0.77557-0.23566,2.1077,1.2882,4.2186,2.5698,6.1661,4.0977,0.68056,0.50289,1.3614,1.0061,2.0431,1.5098,0.46414,0.28962,0.91766,0.59302,1.2842,1.0081,0.86312,0.5204,1.5649,1.236,2.3066,1.903,0.35592,0.21987,0.65588,0.5003,0.90416,0.83728,0.93114,0.71156,1.7762,1.515,2.5334,2.4105,0.29392,0.32406,0.58842,0.6487,0.88235,0.97248,0.4673,0.4096,0.8304,0.90502,1.1737,1.4174,0.20724,0.26838,0.41563,0.53532,0.62172,0.80485,0.59962,0.78131,1.49,1.0376,2.335,0.67224,0.75462-0.32722,1.1657-1.1008,1.0003-2.0457zm-22.103-28.609c0.84991,0.50518,1.7133,0.98683,2.5675,1.4848,1.1103,0.6487,1.1085,0.65186,0.17854,1.6459v0.000287c-0.13692-0.0953-0.27154-0.19432-0.4119-0.28503-1.2753-0.8258-2.6901-1.4243-3.879-2.3899,0.52556-1.0706,0.52126-1.0635,1.5448-0.4561zm-3.9577,1.732c0.63177-1.0405,0.62775-1.0431,1.7064-0.5999,1.5649,1.0287,3.2007,1.9386,4.8343,2.8526v-0.000287c0.09157,0.0663,0.17452,0.15586,0.2767,0.19432,0.63234,0.23566,0.70984,0.57666,0.29708,1.1166-0.25345,0.33066-0.40443,0.7394-0.60163,1.1134,0.18485,0.09558,0.34071,0.21958,0.45438,0.38434-0.11367-0.16476-0.26953-0.28847-0.45438-0.38377-0.48308,0.82896-0.98224,1.649-1.4424,2.4903-0.20236,0.37028-0.34473,0.51179-0.73711,0.17997-1.7991-1.5227-3.6149-3.0271-5.4413-4.5174-0.32952-0.26867-0.39037-0.48366-0.1527-0.84188,0.29651-0.44663,0.5425-0.92684,0.81002-1.3921,0.15098-0.19806,0.32206-0.38377,0.45065-0.59618zm-23.578-0.531c-1.6536-0.26407-3.3098-0.5158-4.9715-0.71931-0.46557-0.05712-0.50978-0.20753-0.35306-0.56891,0.01119-0.02555,0.008-0.05655,0.0155-0.08353,0.40099-1.5015,0.403-1.4785,1.9516-1.6324,4.2329-0.41965,8.4561-0.3697,12.672,0.20265,0.25202,0.03444,0.49973,0.10362,0.74945,0.15701-0.3918,1.54-0.78361,3.0799-1.1757,4.6204-2.9436-0.74629-5.8863-1.4972-8.8881-1.976zm10.493,2.4843c-0.26465-0.08439-0.55886-0.10132-0.75146-0.34215,0.41276-1.5342,0.82523-3.0678,1.2377-4.6021,2.2429,0.5003,4.5521,0.69377,6.7531,1.3723,1.6195,0.49887,3.218,1.0824,4.6531,2.0216-1.0813,1.6223-2.1152,3.2742-3.0607,4.9801-0.70324-0.16017-1.279-0.59216-1.8919-0.92856-2.1849-1.2018-4.596-1.7538-6.94-2.5012zm-12.411,59.124c-0.15902,0.37659-0.39037,0.51035-0.78935,0.45466-1.9315-0.26809-3.8061-0.69721-5.3934-1.9188-0.33554-0.25833-0.64698-0.56144-0.92024-0.88551-1.1975-1.4223-1.1685-2.0466,0.05741-3.4218,1.5695-1.7601,3.1189-3.5371,4.6773-5.3076,2.2776,0.18916,4.5544,0.37745,6.8315,0.56632-1.4891,3.5039-2.982,7.0063-4.4631,10.513zm15.569-30.532c-2.0454,3.6764-4.0865,7.3544-6.136,11.028-1.4131,2.5314-2.8371,5.0567-4.259,7.5835-0.10994,0.19605-0.24484,0.37831-0.36769,0.56718-2.2171-0.18571-4.4336-0.37114-6.6503-0.55628-0.08755,0.13806-0.17509,0.27699-0.26235,0.41477,0.08726-0.13778,0.17452-0.2767,0.26206-0.41477,2.0064-3.4404,4.0067-6.884,6.0209-10.32,2.4889-4.2464,4.9878-8.4877,7.4879-12.728,0.14151-0.24025,0.32894-0.45294,0.49542-0.67855v-0.000574c1.1031,1.7239,2.1823,3.4637,3.4091,5.1052,0.31689-0.16677,0.46184-0.434,0.50949-0.75806-0.04765,0.32435-0.1926,0.59129-0.50949,0.75806zm5.5877-9.7064c-1.6617,2.9502-3.3735,5.8722-5.0639,8.8063-1.2552-1.616-2.3399-3.348-3.4209-5.0828,1.775-3.0472,3.5389-6.1012,5.3314-9.1384,0.60392-1.0224,1.0976-2.1157,1.8818-3.0277,1.5204,0.85709,3.0414,1.7153,4.5624,2.5724-0.96416,2.0311-2.1904,3.9157-3.2909,5.8702zm5.5734-6.8906c-0.40013,0.78992-0.78619,1.0583-1.5319,0.48366h0.000287c-1.6772-1.0382-3.3905-2.0136-5.1457-2.9143-1.1682-0.79337-1.1648-0.79136-0.38807-2.0296,0.70869-1.1295,1.4085-2.265,2.112-3.3982,0.4782-0.7684,0.99028-1.5184,1.4237-2.3112,0.27441-0.50231,0.47476-0.47074,0.87202-0.13003,1.3585,1.1654,2.7484,2.2951,4.1259,3.4384,0.5026,0.41764,1.2142,0.74371,1.4513,1.2787,0.27986,0.63177-0.58699,1.1335-0.7173,1.7928-0.74142,1.2601-1.5434,2.4883-2.2021,3.7897zm9.9171,0.74974c-2.2059-1.5778-4.5432-2.9476-6.8536-4.3601,0.91938-1.7013,1.9521-3.3417,2.7688-5.0986,0.1682-0.07004,0.31976-0.05712,0.48193,0.04191,2.0962,1.2851,4.1801,2.5859,6.0487,4.1982-0.70927,1.7555-1.4182,3.511-2.1278,5.2663-0.10678-0.01464-0.24025,0.0075-0.31804-0.04765zm12.09,10.389c-0.12945,0.05999-0.1062-0.10276-0.13749-0.17968-2.0021-2.1335-4.0667-4.2016-6.3742-6.0097-1.5417-1.2076-3.1037-2.3893-4.6563-3.5831,0.72017-1.7173,1.4406-3.4338,2.1608-5.1512,1.203,0.93201,2.0896,2.1565,3.0079,3.3382,2.6539,3.4154,4.8041,7.1059,5.9586,11.316,0.0876,0.08295,0.12314,0.23135,0.0408,0.26981z"/></svg>
