<?xml version="1.0" encoding="UTF-8" standalone="no"?>
<!-- Generator: Adobe Illustrator 16.0.0, SVG Export Plug-In . SVG Version: 6.00 Build 0)  -->
<svg id="shovel_smith" xmlns:rdf="http://www.w3.org/1999/02/22-rdf-syntax-ns#" xmlns="http://www.w3.org/2000/svg" enable-background="new 0 0 100 100" xml:space="preserve" height="100" viewBox="0 0 100 100" width="100" version="1.1" y="0px" x="0px" xmlns:cc="http://creativecommons.org/ns#" xmlns:dc="http://purl.org/dc/elements/1.1/"><metadata id="metadata3298"><rdf:RDF><cc:Work rdf:about=""><dc:format>image/svg+xml</dc:format><dc:type rdf:resource="http://purl.org/dc/dcmitype/StillImage"/><dc:title/></cc:Work></rdf:RDF></metadata><path id="icon_shovel_smith" clip-rule="evenodd" d="m80.784,41.803c-0.47503-2.2183-1.3086-4.3076-2.206-6.3793-1.03-2.3788-2.303-4.6341-3.4545-6.9501-0.16271-0.27972-0.32541-0.55944-0.48784-0.83889-0.43407-0.71574-0.90854-1.3462-1.7722-1.6418-1.1571-0.3959-2.2695-0.91968-3.411-1.3629-3.5812-1.3911-7.1474-2.839-10.99-3.3681-0.52685-0.07244-0.50929-0.39256-0.57254-0.75029-0.20227-1.1445-0.13401-2.3445-0.68844-3.4182-0.27471-0.23487-0.55025-0.46973-0.82524-0.70432-0.12983-0.04541-0.26663-0.0755-0.38726-0.13819-2.5158-1.3019-5.1515-1.5808-7.8796-0.86675-0.96677,0.25325-1.9544,0.53883-2.5125,1.5048-0.14655,0.616-0.29254,1.2323-0.43909,1.8483-0.12677,1.724-0.59734,3.3904-0.85644,5.0921-0.05711,0.37306-0.32792,0.31316-0.57477,0.29282-0.99658-0.08275-1.9934-0.16995-2.99-0.25548-0.11618,0.03678-0.22344,0.03288-0.31343-0.06185l-0.01727,0.0056c-0.32541-0.02201-0.65055-0.0443-0.97624-0.06603-0.66392-0.04848-1.3281-0.10308-1.9926-0.1446-2.9329-0.18277-5.8569-0.4115-8.5962-1.6215-0.26718-0.0156-0.53409-0.03093-0.80128-0.04653-1.0105,0.3594-1.6282,1.149-2.1896,1.9996-0.11896,0.34241-0.23765,0.68454-0.35634,1.0267-0.19725,1.1635-0.21676,2.3241-0.01811,3.4932,0.33712,1.9848,0.6433,2.2952,2.5766,2.505,0.26301-0.168,0.55443-0.1237,0.84112-0.11312,1.1668-0.0599,2.3267-0.25103,3.4999-0.18973,0.39451-0.14878,0.7932-0.2109,1.2019-0.06018,1.3646,0.07132,2.7292,0.15324,4.0953,0.20673,0.37027,0.01477,0.6252,0.11033,0.79459,0.46639,0.24991,0.52629,0.54496,1.0314,0.8205,1.5454,0.08581,0.12398,0.17162,0.24768,0.25743,0.37194,0.54356,0.93055,1.0551,1.8823,1.6427,2.7841,0.3165,0.48617,0.20896,0.71964-0.26969,0.92832-0.32708,0.14265-0.63606,0.32597-0.95312,0.49146-0.44661,0.26969-0.8935,0.53966-1.3401,0.80936-0.27276,0.49369-0.69513,0.73775-1.2423,0.88068-1.0498,0.27387-2.0829,0.6121-3.1179,0.93835-1.0044,0.31622-1.385,0.86758-1.3437,1.9012,0.03232,0.80685,0.57059,1.3933,1.4702,1.6131,1.1381,0.27861,2.3308,0.23208,3.482,0.59873-0.68426,1.6424-1.3663,3.2943-2.0606,4.9414-0.62241,1.4786-0.33294,2.2336,1.1164,2.8546,0.61433,0.26356,1.2245,0.53827,1.8466,0.78261,1.0217,0.40092,1.6714,0.24072,2.3386-0.63049,0.43797-0.57254,0.71435-0.03455,1.0314,0.10671,0.42738,0.19085,0.26301,0.43686,0.0234,0.70209-2.245,2.4796-4.4817,4.967-6.7209,7.4519-0.68426,0.7815-1.3688,1.5624-2.0528,2.3439-0.04374,0.1758-0.18806,0.2488-0.33043,0.32374-1.0258,1.2122-2.0475,2.4272-3.185,3.5383-0.28474,0.43101-0.59678,0.83861-0.99463,1.1738-1.0863,1.222-2.1665,2.4498-3.2653,3.6609-0.19976,0.21982-0.47642,0.36971-0.71825,0.5522-0.34854,0.27443-0.69736,0.54969-1.0456,0.82468-0.41234,0.36136-0.80434,0.74973-1.3089,0.98934-0.73775,0.59093-1.4694,1.1905-2.216,1.7703-0.46555,0.36163-0.90158,0.74277-1.1813,1.273-0.01031,0.60291-0.0209,1.2061-0.0312,1.809,0.0482,0.77927,0.44326,1.4454,0.70042,2.1564,0.75893,1.1016,1.7396,1.9703,2.8463,2.7067,0.63105,0.28502,1.2521,0.59678,1.8956,0.85087,2.7989,1.1061,3.0549,0.92944,4.4377-0.87929,0.54245-0.93779,1.1654-1.8201,1.8419-2.666,0.54356-0.78735,1.0868-1.575,1.6301-2.3626,0.96482-1.5401,1.9907-3.0346,3.2876-4.3223,0.09612-0.22651,0.25576-0.3973,0.46304-0.52657,1.0398-1.254,2.0645-2.5214,3.2048-3.6879,0.21982-0.27805,0.43936-0.5561,0.65919-0.83387,0.6174-0.72466,1.2348-1.4488,1.8525-2.1737,0.26022-0.35049,0.54579-0.67674,0.9052-0.93055,0.96259-1.4064,2.1723-2.6078,3.2516-3.9175,0.88709-1.0751,1.8449-2.0923,2.7161-3.1792,0.32625-0.40732,0.54551-0.41318,0.92999-0.12928,0.50344,0.37166,1.2275,0.31511,1.6641,0.87037,0.20422,0.25938,0.26133,0.38448,0.05879,0.6915-0.59176,0.89572-0.49509,1.675,0.26523,2.3927,0.56697,0.53548,1.1554,1.0523,1.7697,1.5326,0.99212,0.77592,1.8681,0.6929,2.7097-0.25242,1.1863-1.3331,2.3554-2.6822,3.518-4.0359,0.29839-0.34714,0.53075-0.51208,1.0325-0.25604,1.5922,0.81214,2.0439,0.65501,3.2165-0.7124,1.9898-2.3197,3.6952-4.911,6.2787-6.6729,0.67451-0.56084,1.349-1.1217,2.0232-1.6828,0.22985-0.28808,0.50623-0.51765,0.84084-0.6759,0.05071-0.04959,0.10114-0.09946,0.15212-0.14961,1.3384-1.2565,2.7557-2.4197,4.2061-3.5439,0.33544-0.27526,0.67061-0.55053,1.0055-0.82551,0.46193-0.3998,0.88737-0.85588,1.3936-1.1874,0.90937-0.59594,1.105-1.3908,0.89071-2.3913zm-19.901-17.819c3.698,1.0144,7.2627,2.4108,10.762,3.9755-0.47753,0.58034-0.85421,1.4371-1.4627,1.6586-0.54217,0.19753-1.3412-0.30368-2.0258-0.50205-2.7905-0.80824-5.6009-1.502-8.5343-1.4886-0.27331,0.0011-0.53799,0.05238-0.58786-0.38058-0.04931-0.42627-0.45831-0.33182-0.74639-0.3321-0.62631-0.0014-0.95785-0.25381-1.0242-0.91578-0.08525-0.85839-0.25019-1.7087-0.38141-2.5624,1.385-0.19698,2.707,0.1928,4.0005,0.54746zm6.2458,10.826c-0.24434-0.52155-0.7163-0.18249-1.0423-0.11005-1.7647,0.392-3.5171,0.83944-5.2749,1.2652-0.1563,0.03789-0.31984,0.09863-0.53994-0.0677,1.1665-1.5555,2.3328-3.1109,3.4996-4.6656,0.35132-0.46834,0.784-0.89656,1.037-1.4128,0.32291-0.66086,0.75196-0.61266,1.3148-0.44104,0.98376,0.30034,1.982,0.55332,2.9686,0.84669,0.43546,0.12927,0.78818,0.35439,0.97903,0.82635,1.0944,2.7131,2.1832,5.4237,2.6749,8.3318,0.12927,0.76589,0.06157,1.356-0.59288,1.9232-2.6958,2.3364-5.347,4.7244-8.0005,7.1095-0.4831,0.43463-0.78344,0.55861-1.1398-0.15546-1.0701-2.1456-2.1901-4.2663-3.3082-6.3874-0.22094-0.4193-0.18444-0.67702,0.21202-0.98265,2.2291-1.7182,4.4393-3.462,6.6467-5.2077,0.27861-0.22094,0.80546-0.36191,0.56585-0.87232zm-7.8024-6.3322c1.5226-0.0755,3.0318,0.03984,4.5341,0.60959-1.5594,0.49676-3.1179,0.99519-4.6784,1.4878-0.10086,0.03176-0.26384,0.07049-0.31706,0.02006-0.31511-0.29867-0.19837-0.71881-0.07383-0.99992,0.16549-0.37528-0.22874-1.0799,0.53521-1.1175zm-1.178-0.35328c-0.09333,0.5795-0.17441,1.0966-0.26133,1.6126-0.02758,0.16159-0.04625,0.3516-0.29115,0.29616-0.19892-0.04541-0.37751-0.1276-0.33684-0.38309,0.08665-0.5444,0.18249-1.0868,0.26802-1.631,0.03455-0.21676,0.11033-0.3686,0.36832-0.33461,0.33879,0.04486,0.26468,0.28641,0.25298,0.43992zm-11.914,0.9963c3.2594-0.2956,6.5158-0.62297,9.7716-0.96064,0.69847-0.07216,0.56362,0.40788,0.52267,0.75558-0.14683,1.2387-0.33266,2.4729-0.5118,3.708-0.21063,1.4535-0.4558,2.9031-0.62882,4.361-0.05098,0.42738-0.22094,0.64916-0.57895,0.81938-1.1699,0.5561-2.3668,0.98766-3.6275,0.88904-1.5744,0.07578-2.8925-0.50651-4.1961-1.1676-0.55443-0.28139-0.59817-0.81827-0.63718-1.2816-0.18304-2.157-0.40732-4.3084-0.69568-6.4537-0.05934-0.44298,0.08665-0.62464,0.58173-0.66949zm1.0621-9.3629c0.36191-1.9962,0.32904-2.0118,2.3102-2.3801,1.865-0.34714,3.5826,0.06854,5.2596,0.84,0.33907,0.15602,0.48478,0.35495,0.53465,0.7436,0.19085,1.4864,0.43714,2.9661,0.66309,4.4477,0.14042,0.98488,0.26412,1.9723,0.4285,2.953,0.09584,0.57031,0.10113,0.89071-0.67228,0.95674-3.2001,0.27136-6.3932,0.63077-9.588,0.96231-0.33572,0.03483-0.53075,0.0014-0.43602-0.42961,0.10058-0.45747,0.13011-0.93055,0.19085-1.3972,0.60904-2.1982,0.9038-4.4597,1.3095-6.6963zm-2.1631,6.7459c-0.11618,0.7397-0.19502,1.4869-0.35745,2.2158-0.16215,0.72577-0.65445,0.17079-1.1345,0.27443,0.48979-0.9077,0.91857-1.7017,1.3465-2.4958,0.04904-0.01421,0.09751-0.01226,0.14543,0.0056zm-9.4877,1.9734c-0.74388-0.07439-1.4978-0.04541-2.2367-0.1914-0.22121-0.9403-0.44215-1.8806-0.66309-2.8209-0.28223-0.01003-0.56474-0.02062-0.84725-0.03037,0.08832,0.98376,0.48701,1.8945,0.66782,2.8563-1.4574,0.2566-2.9346,0.26997-4.4062,0.35188-0.21118,0.0117-0.39897-0.02006-0.43992-0.27108-0.21007-1.2869-0.26914-2.5559,0.45357-3.7297,0.13624-0.22122,0.28112-0.44967,0.59009-0.33126,1.0373,0.3959,2.147,0.59037,3.1343,1.1233,0.28251,0.01031,0.56502,0.02062,0.84724,0.03065,3.1054,0.24908,6.2127,0.47865,9.315,0.76116,0.65779,0.0599,1.344-0.05962,1.9767,0.22985-0.633,1.8424-1.7396,2.8992-3.8412,2.3347-0.18054-0.04848-0.38559-0.0064-0.57895-0.0064-1.3109-0.25966-2.6493-0.17608-3.9716-0.30675zm6.1397,10.552c0.000592-0.002,0.0017-0.0042,0.0022-0.0061,0.7046-0.41206,1.3097-1.0147,2.1701-1.1267,0.09055,0.30842,0.24128,0.59984-0.2931,0.69095-0.63244,0.10754-1.2016,0.50567-1.8792,0.44187-0.01532,0.03845-0.03065,0.07662-0.04597,0.11479-0.03232-0.03316-0.06464-0.06631-0.09668-0.09974,0.04903-0.007,0.09779-0.0156,0.14655-0.02535l-0.01114,0.01031c0.0025-0.000296,0.0047-0.000296,0.0072,0zm-0.72438,0.31678c-0.04068,0.0287-0.07996,0.05851-0.11646,0.09055,0.03678-0.03176,0.07578-0.06185,0.11646-0.09055zm-3.835,2.2807c-0.0036-0.04319-0.007-0.08665-0.01087-0.12983,1.1376-0.37584,2.2751-0.75168,3.4121-1.1275,1.0874-0.32318,2.1773-0.63745,3.2617-0.97095,1.5479-0.47642,1.573-0.5561,0.70906-1.9374-0.02786-0.04458-0.07885-0.07494-0.11869-0.11172-1.2744-2.2336-2.5504-4.4661-3.8211-6.7016-0.19001-0.33377-0.35662-0.6812-0.53409-1.0222,1.4089,0.06798,2.8468-0.13345,4.1747,0.60012,0.43435,0.23988,0.65194,0.45915,0.69736,0.98711,0.17134,1.9731,0.41875,3.939,0.62575,5.909,0.03009,0.29059,0.07718,0.5366,0.3477,0.7124,3.053,1.9854,6.3715,2.371,9.6376,0.48645,0.46165-0.26607,0.54496-0.65334,0.60681-1.1069,0.2031-1.4919,0.42961-2.9808,0.62854-4.4733,0.04402-0.33015,0.12092-0.55108,0.48812-0.66448,1.838-0.56585,3.6665-1.1624,5.4997-1.7432,0.129-0.04096,0.2722-0.05461,0.45218,0.14014-0.52991,0.71268-1.069,1.446-1.6168,2.1729-0.90742,1.2041-1.8252,2.4008-2.7262,3.6102-0.1563,0.20951-0.42961,0.42822-0.24963,0.7358,0.20199,0.34436,0.54802,0.21787,0.83415,0.15101,1.7349-0.40565,3.4656-0.82691,5.2646-1.1376-1.5602,1.2256-3.1171,2.4556-4.682,3.6754-1.1894,0.92721-2.381,1.8513-3.5887,2.7543-0.35857,0.26802-0.55387,0.58313-0.6603,1.0164-0.41819,1.7009-0.86953,3.394-1.3418,5.218-1.1445-1.6508-2.2174-3.1761-3.2628-4.7207-0.25437-0.37612-0.53576-0.56975-1.0019-0.62492-2.381-0.28279-4.7575-0.60374-7.1363-0.9116,0.07355,0.22957,0.1992,0.41234,0.35411,0.56948-0.15463-0.15686-0.28056-0.3399-0.35411-0.56948-1.9625-0.26217-3.9259-0.52378-5.8889-0.78512zm14.419,4.4062c-0.02117,0.30898-0.28167,0.21146-0.44522,0.22734-1.2969,0.1276-2.5952,0.24016-3.8933,0.35773-1.3039-0.86814-2.2392-2.1152-3.3085-3.2249,2.009,0.2396,4.0192,0.47419,6.0268,0.7241,0.31678,0.03984,1.6393,1.6385,1.6201,1.9157zm-13.157,4.1839c-0.41708-0.2162-0.59956-0.35968-0.36414-0.85505,0.50038-1.0509,0.96705-2.1213,1.3816-3.2084,0.23208-0.60876,0.52183-0.64804,1.057-0.38782,0.46277,0.22484,0.86257,0.35049,0.47224,0.99296-0.24016,0.39479-0.33879,0.87538-0.50094,1.3175h0.000593c-0.23208,0.2371-0.36776,0.52211-0.41652,0.84948-0.1315,0.27331-0.31427,0.53409-0.38476,0.82217-0.1953,0.79765-0.60179,0.80239-1.2451,0.46918zm2.4392-1.1158c0.06547-0.22567,0.13095-0.45134,0.19614-0.67674,0.92414,0.10754,1.6912,0.63996,2.5442,0.93919,0.18694,0.06575,0.28195,0.16354,0.15017,0.36191-0.16995,0.25632-0.31901,0.53827-0.71351,0.35773-0.72354-0.33182-1.451-0.65528-2.177-0.98209zm-13.963,33.297c-0.15045,0.21982-0.33266,0.29059-0.57059,0.20283-1.5775-0.58368-3.1274-1.2167-4.1683-2.6409-0.21174-0.28947-0.39646-0.60876-0.53743-0.93779-0.50679-1.1855-0.46444-1.3415,0.56613-2.1408,1.5421-1.1955,3.0928-2.3801,4.6397-3.5695,0.08135-0.07662,0.15435-0.16438,0.22957-0.24963-0.07522,0.08525-0.1485,0.17274-0.22985,0.24963,1.741,0.52545,3.4823,1.0506,5.2236,1.5755-1.7187,2.5036-3.4386,5.0052-5.1529,7.5107zm14.997-19.049c-3.0714,3.6035-6.1751,7.1794-9.2668,10.765-1.6652-0.46778-3.331-0.93501-4.9966-1.4025-0.06018-0.29616,0.15825-0.46611,0.31845-0.6447,4.7706-5.3317,9.5465-10.659,14.322-15.987,0.64219,1.4738,1.2849,2.9474,1.9274,4.4209,0,0.000296,0,0.000296-0.000296,0.000296-0.60346,1.0804-1.5128,1.9185-2.3038,2.8471zm6.3514-7.475c-1.1272,1.3487-2.1587,2.7836-3.5057,3.9364-0.58563-1.4541-1.1061-2.9349-1.8079-4.3404,0.67228-0.90826,1.3437-1.8176,2.2929-2.469v-0.000296c0.9573,0.93919,1.9795,1.8031,3.0343,2.6295-0.0028,0.08275,0.02814,0.19391-0.01365,0.24378zm9.2339,3.2324c-0.83554,0.89823-1.6541,1.8162-2.4197,2.7735-0.5196,0.64999-0.72076,0.01309-1.0281-0.18137-0.33795-0.21286-0.6681-0.42376-0.207-0.87678,0.33294-0.32736,0.58062-0.74138,0.86647-1.1167,0.38838-0.17636,0.55081-0.56502,0.80852-0.86396-0.26496-0.06742-0.52991-0.13513-0.79515-0.20283-0.19475,0.12677-0.38949,0.25353-0.5848,0.38002-0.73357-0.67395-1.607-1.1994-2.1779-2.0464-0.40342-0.0095-0.55777-0.41652-0.88096-0.55359-0.25548,0.21731-0.4558,0.16048-0.70488-0.05823-0.44939-0.39451-0.9417-0.7397-1.4162-1.1058v0.000296c-1.0726-1.113-2.2712-2.0815-3.4759-3.043-0.0195,0.06436-0.03901,0.12872-0.05851,0.19308,0.0195-0.06436,0.03901-0.12872,0.05851-0.19308-0.056-0.06185-0.1081-0.1276-0.16884-0.18416-1.4309-1.3365-1.4471-1.3521-0.056-2.7838,0.63383-0.65222,1.1353-1.4566,2.0007-1.8622,1.2574,0.06882,2.5008-0.11646,3.7423-0.25298,1.4387-0.15825,1.7731,0.01922,2.0099,1.4588,0.25688,1.5635,0.45469,3.1368,0.67813,4.7062-0.46054,0.81103-1.2445,1.359-1.7463,2.1366v0.000296c-0.33795,0.28502-0.67897,0.56808-0.86313,0.98766,0.32318,0.13708,0.47753,0.54412,0.88096,0.55359,0.24211-0.08748,0.37389-0.39423,0.68454-0.34547,0.11869,0.10754,0.23793,0.21481,0.3569,0.32207,0.1407,0.01505,0.25381,0.06603,0.2892,0.21982,0.40398,0.56167,1.1387,0.80044,1.432,1.4694,0.26496,0.0677,0.52991,0.1354,0.79515,0.2031,0.15936-0.15463,0.35968-0.28446,0.47029-0.46862,0.47029-0.78205,0.91383-0.64358,1.4568-0.05489,0.2761,0.29895,0.36916,0.4494,0.05294,0.7893zm-5.5669-3.5684c-0.0092,0.34046,0.25966,0.51737,0.47419,0.72661-0.21453-0.20924-0.48338-0.38615-0.47419-0.72661zm6.574,0.27415c-1.4953-0.81158-2.7546-1.9377-4.0432-3.0251,0.0053-0.75698-0.18388-1.4886-0.28084-2.2322-0.0312-0.24044-0.23375-0.65083,0.37974-0.48868,0.45357,0.1198,0.52378-0.30006,0.60876-0.62492,0.49258-1.8859,0.98516-3.7718,1.4741-5.6585,0.2552-0.98321,1.2092-1.244,1.8736-1.7995,0.17218-0.14404,0.26189,0.12147,0.33294,0.25548,1.2434,2.371,2.4777,4.7466,3.7317,7.112,0.19363,0.36525-0.02034,0.56307-0.19001,0.8166-1.2691,1.8998-2.7047,3.6849-3.8869,5.6449,0.10504,0.1967,0.24295,0.35077,0.43519,0.43379-0.19224-0.08302-0.33015-0.23682-0.43519-0.43379zm3.6381,1.7887c-0.16828,0.21509-0.33015,0.12816-0.50289,0.03566-0.83025-0.44299-1.6597-0.88792-2.4896-1.332,1.2824-1.8452,2.5754-3.6832,3.8378-5.5421,0.297-0.43686,0.48143-0.28752,0.75252-0.0072,0.71324,0.73803,1.4421,1.4602,2.1648,2.1885-1.1203,1.6605-2.5337,3.0845-3.7626,4.6572zm15.311-14.345c-3.4951,2.9349-6.9917,5.8678-10.492,8.7956-0.16522,0.13763-0.32151,0.31845-0.57115,0.31483-0.72717-0.76617-1.4421-1.5454-2.1887-2.2924-0.28-0.28028-0.30285-0.43491,0.01393-0.71324,2.9666-2.6106,5.9243-5.2323,8.8681-7.869,0.29922-0.26802,0.53409-0.17469,0.82607-0.07745,1.2874,0.42961,2.5197,1.0205,3.8548,1.3095,0.0808,0.28474-0.14738,0.39562-0.31065,0.53214zm1.018-1.0373c-0.05544,0.01031-0.11144,0.02062-0.16716,0.03065-1.2989-0.64442-2.6994-1.02-4.0487-1.5315-0.43909-0.16633-0.62241-0.37556-0.67841-0.87817-0.3243-2.9039-1.3362-5.6178-2.4849-8.2741-0.3555-0.82217-0.41708-1.424,0.30675-2.0447,0.34798-0.29867,0.57477-0.73775,0.85644-1.1133-0.05405-0.27526-0.24545-0.34882-0.45218-0.39952,0.20673,0.05071,0.39813,0.12426,0.45218,0.39952,0.14878,0.02313,0.24685,0.10922,0.31901,0.23932,2.3453,4.2424,4.716,8.4733,5.9126,13.229,0.13234,0.12064,0.18806,0.23737-0.0156,0.34297z"/></svg>
