<?xml version="1.0" encoding="UTF-8" standalone="no"?>
<!-- Generator: Adobe Illustrator 16.0.0, SVG Export Plug-In . SVG Version: 6.00 Build 0)  -->
<svg id="sword_smith" xmlns:rdf="http://www.w3.org/1999/02/22-rdf-syntax-ns#" xmlns="http://www.w3.org/2000/svg" enable-background="new 0 0 100 100" xml:space="preserve" height="100" viewBox="0 0 100 100" width="100" version="1.1" y="0px" x="0px" xmlns:cc="http://creativecommons.org/ns#" xmlns:dc="http://purl.org/dc/elements/1.1/"><metadata id="metadata3356"><rdf:RDF><cc:Work rdf:about=""><dc:format>image/svg+xml</dc:format><dc:type rdf:resource="http://purl.org/dc/dcmitype/StillImage"/><dc:title/></cc:Work></rdf:RDF></metadata><path id="icon_sword_smith" clip-rule="evenodd" d="m79.16,28.077c-0.16491-0.27581-0.14107-0.56943-0.0813-0.8665-0.0103-0.11205-0.0207-0.22381-0.0313-0.33586-0.0784-0.89868-0.16262-1.7968-0.23358-2.6957-0.0557-0.70848-0.15198-1.3989-0.67746-1.9416-0.39302-0.35051-0.86707-0.37206-1.363-0.37033-4.9603,0.02126-9.9199,0.04367-14.718,1.5724-0.40368,0.12842-0.51831,0.0339-0.56974-0.3982-0.1698-1.4129-0.47204-2.813-0.58351-4.2291-0.09941-1.2569-0.7036-2.0562-1.7859-2.5785-0.34534-0.16233-0.69039-0.32523-1.0357-0.48755-1.0705-0.29017-2.1134-0.69786-3.2387-0.74641-0.86104,0.0072-1.7218,0.01465-2.5826,0.02241-0.40366,0.01839-0.80732,0.04051-1.19,0.1922-0.6878,0.22697-1.3759,0.45451-2.0637,0.68119-0.33873,0.29937-0.67746,0.59874-1.0162,0.89782-0.22697,1.0193-0.45394,2.0387-0.6809,3.058-0.27552,1.5287-0.57977,3.0532-0.81134,4.5888-0.07872,0.52289-0.25714,0.6404-0.76106,0.58897-2.5127-0.25484-5.0289-0.47434-7.544-0.7059-2.9589-0.07441-5.8618-0.43181-8.5826-1.7057-0.27926-0.01695-0.55851-0.0339-0.83777-0.05114-0.60707,0.02097-1.0231,0.43009-1.4905,0.73492-0.28788,0.34189-0.57575,0.68435-0.86392,1.0265-1.0774,1.9634-0.9277,4.0182-0.46227,6.0994,0.18215,0.8145,0.63838,1.3681,1.4471,1.6129,0.74813,0.000574,1.496,0.0011,2.2438,0.0017,0.6289-0.01494,1.2578-0.02931,1.8867-0.04367,2.6308-0.41343,5.245,0.01867,7.8646,0.16031,0.73578,0.03994,0.72314,0.76049,1.0225,1.1957,0.7309,1.1805,1.4672,2.3585,2.0571,3.6197,0.2603,0.2353,0.38757,0.54961,0.51312,0.86449,1.2894,1.8887,1.2865,1.8798-0.86937,2.5576-2.1743,0.6832-4.3431,1.3845-6.5125,2.0829-1.0452,0.33614-1.7724,1.1857-1.6888,1.9562,0.09998,0.92109,0.88977,1.6146,2.0157,1.7827,1.5141,0.22582,3.0224,0.49301,4.612,0.55306-0.81076,1.3951-1.9752,2.2941-3.3514,2.954-0.08878,0.06924-0.17008,0.15083-0.2669,0.20571-0.64327,0.36056-1.2636,0.93114-1.9419,1.0124-0.70102,0.08447-1.0877-0.79611-1.6488-1.2072-0.80272-0.58696-1.8718-0.53898-2.5452,0.20944-1.3483,1.4994-2.6722,3.0215-3.9872,4.5506-0.1968,0.22869-0.28845,0.54731-0.42923,0.82427-0.0034,0.76911,0.33815,1.3492,0.9231,1.8376,1.0058,0.84122,1.9743,1.7281,2.9762,2.5739,0.44331,0.37407,0.62976,1.0202,1.2664,1.1828,0.6605,0.53754,1.327,1.0685,1.9795,1.6152,0.37665,0.31603,0.23042,0.58581-0.11664,0.81278-0.85242,1.2067-1.7468,2.3794-2.7345,3.4795-0.27926,0.49531-0.62632,0.93919-1.0239,1.344-1.3575,1.7212-2.3702,3.7809-4.5819,4.6629-0.55334,0.40826-1.1205,0.79381-1.7652,1.0475-0.39188,0.35654-0.84869,0.60707-1.3308,0.8168-0.35884,0.3393-0.82886,0.5634-1.0624,1.0314-0.1517,0.68694-0.07757,1.3515,0.19623,1.9962,0.50737,0.8619,1.0145,1.7238,1.5215,2.5854,0.50306,0.56254,1.0064,1.1248,1.5092,1.687,1.56,1.3078,3.2721,2.3389,5.2565,2.867,1.4604,0.38843,2.274-0.02069,2.8325-1.3983,0.14739-0.36344,0.32838-0.71394,0.49387-1.0702,0.25915-0.84352,0.59184-1.6569,0.99722-2.4406,0.08734-0.78088,0.69441-1.2153,1.1682-1.7336,0.84323-0.92224,1.6347-1.8945,2.6058-2.6932,1.302-1.5615,2.7047-3.029,4.1452-4.4618,0.05057-0.05258,0.10142-0.10458,0.15227-0.15687,0.29132-0.59356,0.60965-0.69872,1.1302-0.18186,0.73492,0.73032,1.5382,1.392,2.3125,2.0826,0.34246,0.29218,0.68493,0.5838,1.0277,0.87598,0.36085,0.31919,0.72141,0.63867,1.0826,0.95815,0.84725,0.68866,1.6942,1.3779,2.5415,2.0666,0.2784,0.03361,0.55679,0.06665,0.83518,0.10027,0.62574-0.02097,1.026-0.41544,1.4066-0.84582,1.19-1.3431,2.3817-2.6851,3.5729-4.0277,0.4933-0.53984,0.55535-1.2012,0.53151-1.8867-0.15112-0.63206-0.62976-1.0076-1.115-1.3541-0.53668-0.38355-0.61885-0.72256-0.36344-1.4049,0.90184-2.4041,2.4061-4.3167,4.2098-6.1152,3.8128-3.8019,7.5006-7.7304,11.242-11.605,0.19738-0.20485,0.41199-0.39303,0.61827-0.58926,0.32781-0.45509,0.73003-0.83892,1.1601-1.1946,0.17095-0.28357,0.38614-0.52548,0.66453-0.7082,0.62201-0.62862,1.2446-1.2572,1.8672-1.8861,0.92224-1.0803,1.8928-2.1148,2.9219-3.0939,0.32724-0.3304,0.5384-0.72917,0.6516-1.1751,0.32695-1.2917,0.5792-2.5972,0.75445-3.9199,0.39131-2.9647,0.33844-5.9443,0.32293-8.9236zm-18.037-1.846c3.6533-1.3989,7.4466-1.9864,11.348-1.9315-0.2106,0.97137-0.4956,1.9338-0.60736,2.9164-0.0847,0.74239-0.47261,0.9231-1.0949,1.0038-2.3725,0.30712-4.6945,0.84754-6.9745,1.5681-0.45738,0.14451-0.90845,0.30942-1.3851,0.47261-0.09653-0.52892-0.0072-1.0004,0.08676-1.4733,0.11607-0.58207-0.05516-1.005-0.71912-0.93861-0.90356,0.09079-1.217-0.34907-1.2093-1.1639,0.02931-0.3393,0.33557-0.36947,0.55507-0.45365zm-8.7176,21.505c0.12009-0.34878-0.19278-0.88144,0.40969-0.80962,0.57776,0.06924,0.86679,0.64298,0.91534,1.0892,0.04367,0.40395-0.60218,0.53783-0.91879,0.55047-0.70848,0.02701-0.13474-0.63666-0.40624-0.83001zm1.6319,1.3604c0.55966-0.33902,0.66079,0.25081,0.86248,0.53496,0.74411,1.0464,1.4503,2.1191,2.193,3.1663,0.18043,0.25455,0.2761,0.68148,0.74411,0.57259,0.4275-0.09969,0.42779-0.49444,0.51456-0.81134,0.49674-1.8132,0.99378-3.6257,1.4652-5.4455,0.1379-0.53266,0.39159-0.87684,0.91764-1.1144,2.4165-1.0915,4.8123-2.2286,7.2187-3.3425,0.16778-0.07786,0.3304-0.25282,0.66309-0.05057-5.1424,5.4702-10.265,10.919-15.45,16.435-0.36976-1.5204-0.1741-2.977-0.34419-4.4072-0.16721-1.4118-0.13618-2.8463-0.22151-4.269-0.06349-1.0584,0.88948-0.93689,1.4368-1.2681zm9.8317-5.5992c-0.17123,0.07901-0.33586,0.23588-0.61856,0.02902,2.4599-1.9131,4.8982-3.8099,7.3785-5.7391,0.129,1.5365-0.56024,2.8181-1.7985,3.4019-1.65,0.7783-3.3066,1.5411-4.9614,2.3082zm6.4944-6.9892c-2.1657,0.44589-4.3127,0.98573-6.6143,1.5253,1.7393-2.3122,3.3812-4.4951,5.0235-6.678,0.06838-0.09136,0.15083-0.17324,0.21117-0.2692,0.14911-0.23817,0.37033-0.48008,0.1606-0.776-0.20743-0.2919-0.49674-0.19565-0.77658-0.10515-1.2475,0.40107-2.4966,0.79611-3.7441,1.1966-0.80646,0.25828-1.6115,0.52145-2.4412,0.79037-0.11348-0.60276,0.1017-0.86765,0.6131-1.065,2.6756-1.0311,5.4725-1.5437,8.2795-2.0252,0.53208-0.09108,0.78261,0.03333,0.76623,0.64988-0.054,1.9985-0.34763,3.9688-0.61396,5.9437-0.07039,0.5226-0.32206,0.7013-0.86392,0.81278zm-9.5255-7.431c0.01753-0.25857,0.17956-0.32954,0.4051-0.30684,0.21806,0.02183,0.27552,0.18474,0.25915,0.36257-0.05861,0.64212-0.12296,1.284-0.20255,1.9238-0.03218,0.26202-0.2488,0.26547-0.45422,0.25397-0.27179-0.01523-0.32551-0.15744-0.24966-0.39906,0.04166-0.13273,0.04855-0.2761,0.07298-0.42808-0.08102-0.4775,0.13704-0.93028,0.16922-1.4063zm-13.845-1.544c0.10228-0.025,0.20341-0.16664,0.30856-0.0037,0.28213,0.0046,0.56426,0.0095,0.84639,0.01437,0.59184-1.8465,0.77945-3.7772,1.1825-5.6636,0.21346-0.99952,0.37493-2.0102,0.54616-3.0181,0.09912-0.58207,0.37119-0.92252,0.98171-1.1162,2.5001-0.79468,4.8795-0.50134,7.2041,0.62603,0.43497,0.21088,0.48468,0.56713,0.54214,0.97884,0.33183,2.3903,0.68464,4.7781,1.03,7.1667-0.18531,0.56771,0.4999,1.2006-0.03247,1.6902-0.44503,0.40912-1.0966,0.16003-1.6531,0.22007-2.1895,0.23645-4.3819,0.4413-6.5726,0.66855-0.86966,0.09021-1.7379,0.19852-2.6041,0.31804-0.63005,0.08705-0.96332-0.08734-0.7286-0.77571,0.12354-0.36286,0.10056-0.72716,0.10429-1.0949-0.28184-0.0049-0.56397-0.0098-0.8461-0.01437-0.08878,0.78261-0.46083,1.5276-0.33126,2.3358,0.03534,0.22122-0.03936,0.3439-0.21634,0.38039-0.30396,0.06206-0.64212,0.12411-0.90586-0.06665-0.20485-0.14882-0.02815-0.36258,0.05832-0.53208,0.35913-0.70619,0.72371-1.4089,1.0866-2.1131-0.23329-0.08562-0.46773-0.16003-0.7105-0.13934,0.2422-0.02069,0.47663,0.05344,0.71021,0.13877zm12.792,2.4765c-0.39332,2.9161-0.7941,5.8314-1.1998,8.746-0.07441,0.53266-0.32293,0.89839-0.85444,1.1641-1.2021,0.60132-2.4326,0.95585-3.7547,0.8122-1.785,0.18359-3.3169-0.48496-4.8169-1.2768-0.26144-0.1379-0.46744-0.28242-0.50105-0.62488-0.25943-2.6481-0.52864-5.2955-0.80933-7.9413-0.04137-0.38872,0.17554-0.40826,0.45307-0.43727,1.548-0.16319,3.0939-0.34361,4.6425-0.50105,2.0559-0.20973,4.1193-0.362,6.1678-0.62833,0.69699-0.0905,0.73923,0.19853,0.67286,0.68722zm-31.209-0.27c-0.25742,0.03074-0.36803-0.1198-0.4028-0.33413-0.2172-1.3334-0.32063-2.6532,0.42808-3.8846,0.25282-0.4163,0.51197-0.59787,1.0323-0.37665,0.98688,0.41975,2.0657,0.59759,3.0247,1.1032,0.15888,1.0693,0.45308,2.1071,0.74497,3.1457-1.5937,0.32925-3.2238,0.15428-4.8272,0.34649zm7.2704-0.18043c-0.47606-0.03562-0.96447,0.0227-1.4196-0.18014-0.23559-0.9909-0.47204-1.9821-0.70734-2.9741-0.20427-0.03045-0.40883-0.06091-0.61339-0.09136,0.20456,0.03045,0.40912,0.06062,0.61396,0.09107,2.3774,0.1879,4.7568,0.36545,7.1343,0.56541,1.7273,0.14509,3.4519,0.3189,5.1775,0.48037-0.40337,0.71078-0.8257,1.4121-1.2032,2.1367-0.19709,0.3778-0.44101,0.49761-0.87081,0.48927-0.93172-0.01896-1.8528-0.25168-2.7888-0.13072-1.7744-0.12842-3.5487-0.25483-5.3225-0.38642zm2.5538,14.562c0.10774-0.2511,0.36746-0.23674,0.57661-0.30368,2.5426-0.81709,5.0864-1.6307,7.6284-2.4498,0.82886-0.2669,0.89322-0.43756,0.44819-1.2193-1.7425-3.0621-3.4901-6.121-5.2361-9.1813,1.5529,0.06723,3.137-0.15859,4.6014,0.64557,0.4548,0.24995,0.6539,0.50278,0.70015,1.0297,0.19077,2.1869,0.44359,4.3687,0.66309,6.5531,0.03361,0.33528,0.14394,0.57489,0.44675,0.76537,3.3775,2.1249,6.83,2.5297,10.432,0.55191,0.55104-0.30253,0.74038-0.699,0.80847-1.2805,0.19307-1.6416,0.43239-3.2778,0.65045-4.9166,0.03735-0.27897,0.02356-0.53783,0.39877-0.6562,2.2487-0.70992,4.4882-1.4477,6.8421-2.0464-0.80703,1.0734-1.6129,2.147-2.4208,3.2195-0.85817,1.1397-1.7229,2.2751-2.5734,3.4209-0.15859,0.21404-0.44331,0.43095-0.23932,0.74641,0.21059,0.32551,0.56282,0.24708,0.86162,0.18014,1.556-0.34965,3.1086-0.71768,4.662-1.0817,0.26978-0.06321,0.53553-0.1787,0.83346-0.03591-0.07987,0.35309-0.4005,0.47175-0.63206,0.65332-2.6521,2.0752-5.3073,4.1463-7.9769,6.1988-0.4094,0.3146-0.64384,0.68004-0.77342,1.1731-0.49071,1.8663-1.0113,3.7246-1.5632,5.7417-1.2486-1.8252-2.413-3.5094-3.5548-5.2096-0.23472-0.35022-0.47922-0.62517-0.91764-0.67746-2.7722-0.3304-5.53-0.79037-8.3223-0.9435-2.1079-0.29161-4.2156-0.58322-6.3433-0.87742zm13.017,17.392c-0.65591,1.0331-1.2308,2.1217-1.783,3.2149-0.29851,0.59127-0.58092,0.57604-1.0245,0.18387-1.9436-1.7178-3.8958-3.4249-5.8472-5.1332-1.3506-1.1822-2.6989-2.3671-4.0604-3.537-0.40136-0.34447-0.56081-0.56052,0.05545-0.88259,1.0349-0.54013,2.0105-1.1929,3.0336-1.7577,1.483-0.81881,2.2461-2.3185,3.3462-3.4959,0.99033-1.0599,1.8672-2.2266,2.7842-3.354,0.21605-0.26575,0.45595-0.40596,0.80789-0.36717,0.7352,0.08131,1.4721,0.14767,2.2088,0.21375,0.35855,0.03218,0.43411,0.25915,0.4999,0.57403,0.27236,1.2943,0.13589,2.6127,0.24852,3.9182,0.22208,2.5794,0.25828,5.1752,0.37464,7.8379,0.19106,0.91017-0.11463,1.7508-0.64413,2.5849zm-15.577-8.341c0.24564-0.1448,0.48382-0.30856,0.7444-0.41946,3.0833-1.3118,5.4102-3.5062,7.3104-6.2123,0.20284-0.28845,0.38269-0.6539,0.80703-0.71452,0.61942,0.07958,1.2371,0.17726,1.8586,0.23156,0.44474,0.0385,0.6924,0.0905,0.28874,0.56857-1.5055,1.7827-2.979,3.5921-4.5023,5.3593-0.28385,0.32953-0.73291,0.52404-1.1202,0.75646-1.0734,0.64327-2.1841,1.2299-3.2209,1.9275-0.55162,0.37091-0.90069,0.27092-1.3285-0.1336-0.36717-0.34735-0.7013-0.74986-1.1957-0.9412-0.02126-0.2603,0.19163-0.32408,0.35855-0.42233zm-5.6288,29.003c-0.13273,0.35051-0.28931,0.40222-0.63752,0.28127-2.7081-0.93804-4.7218-2.6713-6.0379-5.2148-0.1379-0.2669-0.35654-0.5226,0.07901-0.77456,1.5-0.8665,2.9839-1.7603,4.4741-2.6432,1.2176,1.4905,2.4352,2.981,3.6522,4.471v0.000575c-0.39906,1.3371-1.0372,2.5797-1.5299,3.8797zm4.5681-7.3451c-1.3147-1.4201-2.6294-2.8414-3.9438-4.2615-0.3304,0.18531-0.43957,0.55765-0.68924,0.81191,0.98544,0.7579,1.7663,1.7195,2.5774,2.6449,0.4729,0.53926,1.1297,0.93948,1.3664,1.6732-0.67545,0.54444-1.0619,1.3946-1.8835,1.7839-0.01666,0.13388-0.07326,0.24478-0.14279,0.34821,0.06953-0.10343,0.12612-0.21461,0.14279-0.34821-1.0883-1.3776-2.1562-2.7719-3.4134-4.005,0.08418-0.93574,0.93632-1.3759,1.3532-2.0976,0.24966-0.25369,0.35884-0.62632,0.68924-0.81134,0.56225-0.85242,1.1811-1.6597,1.8858-2.4001,1.6462,1.2018,3.2928,2.4024,4.939,3.6039-0.91592,1.061-1.8175,2.1358-2.8811,3.0577zm5.1232-5.4605c-0.50536,0.64011-1.0073,1.2837-1.6994,1.7422-1.6457-1.2118-3.2913-2.4234-4.937-3.6349,0.56052-0.75273,1.121-1.5055,1.6819-2.2582,0.13877-0.20025,0.29276-0.38498,0.48726-0.52662-0.1945,0.14164-0.3485,0.32638-0.48726,0.52691,0.31172,0.03649,0.48152,0.28788,0.69297,0.46974,1.4233,1.2239,2.8417,2.453,4.2615,3.6809,0.23501-0.12814,0.4413-0.27954,0.50881-0.54185-0.06752,0.26259-0.2738,0.41371-0.50881,0.54185zm13.416,1.6569c-0.84811,0.91793-1.6482,1.8818-2.4421,2.8483-0.29506,0.35913-0.51542,0.32925-0.83834,0.04453-1.8152-1.596-3.6243-3.2002-5.476-4.7534-0.77916-0.65304-1.4247-1.4793-2.3774-1.9189,0,0-0.000288,0.000574-0.000288,0.000574-0.09309-0.14049-0.16031-0.31115-0.28299-0.41716-1.6781-1.4483-3.364-2.8877-5.0485-4.3291-0.06464,0.29247-0.12928,0.58408-0.19364,0.87656,1.5172,1.5224,3.1824,2.879,4.8137,4.273-0.26748,0.43153-0.54271,0.85501-1.042,1.0576-1.5422-1.4425-3.1284-2.8345-4.7873-4.142,0.17698-0.53438,0.3913-1.0366,1.0156-1.1886,0.06464-0.29247,0.129-0.58408,0.19364-0.87656-1.654-1.4721-3.3068-2.946-4.9628-4.4161-0.85012-0.75445-1.6931-1.5178-2.5665-2.2447-0.30483-0.25369-0.26662-0.39475-0.02672-0.65936,0.87771-0.96878,1.7468-1.9465,2.5826-2.9509,0.27983-0.33586,0.44302-0.30885,0.73865-0.0385,0.62517,0.57087,1.2161,1.1889,1.9646,1.6115,1.0165,1.1934,2.3148,2.0746,3.4686,3.1158,1.6431,1.4822,3.3353,2.9104,5.0077,4.3607,2.4872,2.1571,4.972,4.3161,7.467,6.464,0.38383,0.33011,0.65677,0.79812,1.1731,0.96792v0.000287c0.41975,0.54472,0.95556,0.96677,1.4991,1.3739,0.38556,0.28845,0.51513,0.51283,0.12038,0.94062zm0.70475-7.6526c-0.73233,1.4727-1.244,3.0488-2.1079,4.4586-0.5272-0.47979-1.0389-0.97769-1.5876-1.4316-0.27322-0.22553-0.31747-0.39935-0.13934-0.71222,0.81766-1.4365,1.612-2.8859,2.4492-4.3931,0.59356,0.43239,0.7783,1.1403,1.2865,1.5669,0.05114,0.11262,0.10199,0.22467,0.15313,0.337,0.0055,0.04597,0.01638,0.0928,0.01264,0.13819-0.0014,0.01379-0.04338,0.02442-0.06665,0.0362zm0.99837-1.4595c-0.15715,0.16232-0.2669,0.37608-0.52749,0.39561-0.03017-0.30626-0.2669-0.49732-0.42319-0.72802-0.82628-1.2184-0.8372-1.221,0.13762-2.2579,5.3277-5.6682,10.659-11.334,15.99-17,0.09711-0.10314,0.20226-0.27954,0.30741-0.28242,1.2814-0.03649,2.5527-0.46773,3.8435-0.10831-6.443,6.6596-12.887,13.32-19.328,19.982zm21.573-25.756c-0.13647,1.3012-0.37292,2.5831-0.68177,3.8539-0.0802,0.32982-0.24363,0.56455-0.51197,0.74555-1.25,0.06866-2.505,0.08562-3.7464,0.22582-0.72917,0.08245-0.74899-0.09998-0.55736-0.71509,1.1254-3.6094,1.6954-7.3296,1.6847-11.092-0.005-1.6755,0.44187-3.2301,0.61339-4.8479,0.0514-0.01408,0.0911-0.04396,0.11866-0.08935,0.50795-0.26173,1.0406-0.10918,1.5652-0.09567,1.4443,0.02586,1.4066,0.02873,1.5224,1.4624,0.28415,3.5189,0.362,7.0349-0.007,10.553z"/></svg>
