<?xml version="1.0" encoding="UTF-8" standalone="no"?>
<!-- Generator: Adobe Illustrator 16.0.0, SVG Export Plug-In . SVG Version: 6.00 Build 0)  -->
<svg id="tailor" xmlns:rdf="http://www.w3.org/1999/02/22-rdf-syntax-ns#" xmlns="http://www.w3.org/2000/svg" enable-background="new 0 0 100 100" xml:space="preserve" height="100" viewBox="0 0 100 100" width="100" version="1.1" y="0px" x="0px" xmlns:cc="http://creativecommons.org/ns#" xmlns:dc="http://purl.org/dc/elements/1.1/"><metadata id="metadata3374"><rdf:RDF><cc:Work rdf:about=""><dc:format>image/svg+xml</dc:format><dc:type rdf:resource="http://purl.org/dc/dcmitype/StillImage"/><dc:title/></cc:Work></rdf:RDF></metadata><path id="icon_tailor" clip-rule="evenodd" d="m84.7,70.957c-0.73622-2.2984-2.0301-4.2822-3.4627-6.1917-1.5-1.9992-3.3198-3.6967-5.0867-5.4444-0.43566-0.3468-0.8716-0.69304-1.3075-1.0396-0.56881-0.35683-0.11254-0.78887-0.08719-1.1894,0.5443-2.8842,1.0619-5.7739,1.7315-8.6324-0.0022-0.34402,0.0058-0.68608,0.16685-1.0031,0.12981-0.6638,0.25961-1.327,0.38914-1.9906,0.2131-1.3437,0.44792-2.6828,0.8092-3.9964,0.05293-0.27493,0.10641-0.54959,0.15933-0.82424,0.16128-0.89193,0.32257-1.7839,0.48357-2.6758-0.1039-0.69694-0.48218-1.1788-1.0925-1.5343-0.70446-0.40975-1.3736-0.87968-2.058-1.3237-0.83288-0.36491-1.4663-1.2151-2.5382-1.0059-0.26518,0.05181-0.27438-0.21087-0.27688-0.40725-0.01031-0.91004-0.01755-1.8204-0.02646-2.731-0.10529-2.5137-0.21476-5.0276-0.31421-7.5419-0.04541-1.144-0.54235-1.6997-1.6964-1.8412-0.41198-0.0507-0.82731-0.07354-1.2401-0.10892-2.6452-0.22619-5.2909-0.4521-7.9355-0.678-2.4619-0.35739-4.8368,0.26212-7.2357,0.6312-0.51031,0.07827-1.0382,0.0454-1.558,0.06379-0.25516,0.36324-0.64652,0.29972-1.0109,0.32034-0.5287,0.23984-1.1103,0.18357-1.6619,0.29861-1.4744,0.24067-2.9493,0.48023-4.4237,0.72174-0.88608,0.14513-1.3741,0.67522-1.4215,1.5697-0.01866,0.3585,0.02061,0.72034,0.0078,1.08-0.01616,0.4365,0.19694,1.0167-0.51254,1.1047-0.6351,0.07911-1.3426,0.32034-1.7282-0.51449-0.1156-0.24959-0.30975-0.46129-0.43427-0.70753-0.2702-0.5351-0.67271-0.93176-1.1933-1.217-0.58357-0.08969-1.1112,0.11198-1.6387,0.31338-1.7429,0.8482-3.5165,1.6265-5.3229,2.3293-0.2585,0.16602-0.52313,0.31755-0.83455,0.35934-0.34402,0.17048-0.6833,0.35042-1.0329,0.5092-2.4106,1.0958-4.8747,2.0613-7.1018,3.5535-2.6878,1.8017-5.4742,3.4563-8.2137,5.182-1.0412,0.656-1.2554,1.4463-0.71115,2.5387,0.23399,0.46825,0.47549,0.93288,0.71366,1.3992,0.18022,0.31505,0.35989,0.63009,0.54068,0.94542,0.16852,0.33176,0.33677,0.66296,0.50558,0.99444,0.5326,0.87076,1.0858,1.7307,1.4379,2.6975,0.76881,1.105,1.3393,2.3237,1.9819,3.5003,0.32897,0.60196,0.72731,1.0917,1.3741,1.3507,0.65349,0.0415,1.2234-0.1766,1.7858-0.49833,1.1167-0.63789,2.2574-1.2334,3.3881-1.8468,0.74068-0.42508,1.485-0.84486,2.2201-1.2783,0.28385-0.16686,0.48385-0.22591,0.59109,0.1883,0.39221,1.5192,0.80084,3.034,1.2028,4.5502,0.17521,0.31811,0.23816,0.66742,0.28635,1.0209,1.1554,4.1209,2.3112,8.2424,3.4669,12.364,0.36156,1.317,0.72313,2.6335,1.085,3.9502,0.21087,0.42257,0.24123,0.88915,0.3312,1.3415,0.2727,0.58246,0.4,1.2075,0.5365,1.8298,0.65739,1.1914,1.1903,1.405,2.5574,1.0451,0.9014-0.23789,1.8073-0.45878,2.7109-0.68775,0.23649-0.16825,0.50892-0.20112,0.78803-0.20669,2.0412-0.68692,4.1257-1.2192,6.2098-1.7529,0.2688-0.10808,0.53009-0.24513,0.83539-0.2117l0.01003,0.0045c0.07855-0.11337,0.18635-0.1454,0.317-0.11476,0.11282-0.01866,0.22619-0.03705,0.33956-0.05599,0.62396-0.36686,1.3527-0.40446,2.019-0.64207,0.45432-0.1624,0.69026,0.25404,0.9975,0.45154,0.29666,0.19081,0.55655,0.43928,0.83232,0.6624,0.61366,0.4429,1.2276,0.88553,1.841,1.3279,0.93093,0.58246,1.861,1.1649,2.7914,1.7465,0.25348,0.11059,0.5014,0.22786,0.66992,0.46101,1.9477,0.93929,3.7792,2.1036,5.7666,2.9652,0.34736,0.1507,0.71199,0.2624,1.0685,0.3922,1.5479,0.57466,3.1003,1.1343,4.6984,1.5568,0.12089,0.03175,0.21922,0.15153,0.32786,0.23009,1.3173,0.07382,2.5791,0.50558,3.9017,0.58302,0.57661,0.0337,1.1593,0.05265,1.7365,0.11365,0.56017-0.0014,1.1201-0.0033,1.6805-0.0047,1.3095-0.12173,2.485-0.65265,3.6544-1.2011,0.16658-0.27995,0.40251-0.48636,0.67995-0.64931,0.24958-0.33594,0.49945-0.67104,0.74876-1.0064,0.43399-0.73706,0.80502-1.502,1.0268-2.3323,0.14708-1.0702-0.03454-2.1165-0.24624-3.1596zm-12.207-13.992c-2.3268-0.60251-4.2588-1.9195-6.1154-3.3744-1.0933-0.85767-1.9981-1.9009-2.9209-2.9293-0.31839-0.35404-0.33844-0.62173-0.04345-1.0064,0.78831-1.0284,1.5379-2.0867,2.3028-3.1329h0.000558c0.14652-0.14067,0.29443-0.2819,0.44123-0.42257,2.8282,0.02006,5.6566,0.04039,8.4851,0.06017,0.03036-0.14206,0.061-0.28413,0.09137-0.42619-0.03036,0.14206-0.06072,0.28413-0.09137,0.42619-0.66937,3.6117-1.3521,7.2199-2.1499,10.805zm-0.30669,1.9933c-0.51533,2.6081-1.0496,5.2126-1.5329,7.8263-0.13371,0.72313-0.33928,0.92034-1.1254,0.71561-5.0173-1.305-9.27-3.7471-12.4-7.982-0.41031-0.5546-0.37716-0.8872,0.02284-1.41,1.6699-2.1794,3.3112-4.3828,4.9157-6.6109,0.38663-0.53594,0.57438-0.56574,0.99555-0.05404,2.358,2.8688,5.2906,4.9463,8.7692,6.2488,0.15404,0.05738,0.31727,0.08802,0.47633,0.13148,0.09721,0.39276-0.12173,0.75238-0.12117,1.1348zm-6.5296-18.974c-0.10334-0.39555-0.20697-0.79082-0.31031-1.1866-0.11671-0.33287-0.24903-0.66157-0.34708-1-0.43956-1.5075-0.43594-1.512,1.1125-1.4351,0.46352,0.02312,0.92592,0.0727,1.3892,0.11031,0.27438,0.0059,0.54903,0.0117,0.82424,0.01755,0.52201-0.0033,1.0449-0.000557,1.5669-0.0117,0.39443-0.0081,0.53232,0.11226,0.25906,0.46491-0.2688,0.34569-0.54151,0.68747-0.81338,1.0312-0.16853,0.30864-0.3429,0.61366-0.6287,0.83455-0.78218,1.0969-1.5644,2.1936-2.4674,3.4602-0.22758-0.88915-0.40641-1.5872-0.58496-2.2853zm7.2508-3.1343c0.2727-0.37298,0.50474-0.42424,0.88246-0.16825,0.66408,0.45014,1.3429,0.88107,2.0351,1.2875,0.32284,0.1897,0.39053,0.43343,0.32452,0.76185-0.44095,2.1919-0.88274,4.3839-1.324,6.5758-2.3786-0.01031-4.7572-0.01783-7.1355-0.03538-0.29527-0.0022-0.61198,0.09081-0.87995-0.12646,2.0348-2.7635,4.0753-5.5223,6.0973-8.2951zm-12.41-13.899c2.9791,0.23677,5.9577,0.48385,8.9391,0.70029,0.45516,0.03315,0.64151,0.18635,0.65321,0.63789,0.08189,3.183,0.17075,6.3658,0.27131,9.5486,0.0097,0.32312-0.0039,0.5092-0.41226,0.49304-2.4602-0.09805-4.9215-0.17493-7.3823-0.25906-0.24179,0.07326-0.48385,0.14624-0.72564,0.21894,0.74486,2.7323,1.4875,5.4658,2.2351,8.1973,0.31978,1.1674,0.65098,2.3321,0.97717,3.4978-1.2181,1.6816-2.4435,3.358-3.6471,5.0499-0.24959,0.3507-0.48274,0.23371-0.7833,0.12145-1.1914-0.44597-2.361-1.0056-3.5925-1.2777-2.5502-0.56352-4.8265-1.7418-7.1313-2.88-0.30362-0.15014-0.5858-0.28218-0.67828-0.65934-0.2234-0.91422-0.47911-1.8204-0.70001-2.7349-0.0351-0.14596-0.20724-0.4468,0.11616-0.45098,0.39833-0.0053,0.55293-0.14513,0.54987-0.52814-0.0033-0.45126-0.38998-0.35349-0.61031-0.38357-0.5521-0.07521-0.639-0.49499-0.69806-0.88915-0.06184-0.41783,0.35376-0.33259,0.58859-0.4131,0.2766-0.09499,0.50586-0.16462,0.38608-0.56268-0.10919-0.36296-0.26212-0.3858-0.60363-0.30335-0.23984,0.05794-0.72452,0.46101-0.76018-0.1468-0.02981-0.50474-0.89082-1.0371-0.02201-1.5287,0.26686-0.15126,0.22841-0.34207,0.1961-0.56101-0.03566-0.24206-0.1649-0.33538-0.4078-0.24986-0.4429,0.15627-0.49109-0.15961-0.58552-0.46741-0.37159-1.2162-0.28858-2.4699-0.32173-3.7126-0.04568-1.6928-0.03148-1.6933,1.5368-2.2855,0.51756-0.19555,1.0343-0.3936,1.5532-0.58608,3.2159-1.1942,6.4318-2.3883,9.65-3.5766,0.20418-0.07577,0.46017-0.33928,0.62508,0.03649,0.09944,0.22869,0.23956,0.42675-0.10724,0.69472-0.37354,0.2883-0.24067,0.63928,0.28078,0.74012,0.51811,0.1,0.35516,0.6014,0.50808,0.91617,0.13315,0.27354-0.0097,0.41059-0.27466,0.46602-0.24429,0.05098-0.32396,0.20028-0.22312,0.42619,0.08329,0.18524,0.0766,0.47104,0.41031,0.41087,0.75934-0.13677,0.52981,0.53678,0.69054,0.8702,0.17298,0.35906-0.0031,0.56574-0.38831,0.63148-0.3078,0.05237-0.28134,0.2883-0.23984,0.51839,0.04958,0.27772,0.22702,0.39806,0.47633,0.2883,0.52508-0.23176,0.60446,0.08663,0.69193,0.48246,0.06379,0.29109,0.19889,0.56714,0.30223,0.84959,0.24179-0.0727,0.48385-0.14568,0.72564-0.21894-0.06546-0.2961-0.13566-0.59109-0.19582-0.88831-0.05933-0.29137-0.20752-0.62619,0.28134-0.69527,0.34847-0.04903,0.24568-0.27911,0.22229-0.49917-0.02953-0.27298-0.14318-0.41616-0.42786-0.33789-0.33566,0.0922-0.56157-0.01365-0.58608-0.3663-0.02563-0.36491-0.50753-0.78998,0.06351-1.0869,0.29945-0.15627,0.19889-0.32591,0.1546-0.54123-0.05348-0.26156-0.13872-0.32201-0.44234-0.29471-0.56212,0.0507-0.38663-0.52814-0.55126-0.81728-0.15432-0.27103-0.04903-0.48636,0.27493-0.54095,0.31449-0.05265,0.51171-0.14206,0.4092-0.54067-0.1-0.38998-0.32897-0.40446-0.61616-0.29053-0.29109,0.1156-0.46881,0.09137-0.52591-0.2585-0.15293-0.92341-0.80586-1.7649-0.44485-2.7772,0.03983-0.11086,0.0033-0.31532-0.07716-0.3897-0.2092-0.19165-0.62006-0.30446-0.44318-0.65628,0.15571-0.3117,0.56101-0.02786,0.83622-0.13983-0.6755-0.21783-1.3518-0.21003-2.0284-0.07382,0.67689-0.13594,1.3529-0.14401,2.0284,0.07382zm-14.673,14.433c0.39165,0.46742-0.71561,1.0599-0.01281,1.3315,0.69082,0.26769,0.5273,0.81032,0.7404,1.2301,0.20752,0.40836,0.1493,0.66714-0.3702,0.7468-0.23399,0.03593-0.53678,0.06713-0.39722,0.52368,0.13816,0.45237,0.35014,0.39638,0.66909,0.28162,0.28023-0.10084,0.52619-0.11839,0.64625,0.26073,0.10056,0.31532,0.10641,0.52786-0.27716,0.61477-0.24318,0.05487-0.38747,0.19109-0.27521,0.48023,0.09805,0.25376,0.2546,0.33371,0.51477,0.26825,0.16713-0.04234,0.39137-0.19638,0.44903,0.13203,0.04819,0.27521,0.36184,0.58413,0.000279,0.82285-0.46379,0.30558-0.11755,0.77383,0.01114,0.7833,0.71422,0.05181,0.65405,0.6248,0.69694,1.0201,0.12173,1.1073,0.7638,1.7031,1.7421,2.0649,0.38218,0.14151,0.73984,0.34931,1.093,0.67327-0.69472,0-1.3889-0.01114-2.0836,0.0022-1.3889,0.02591-2.6984,0.34151-3.7984,1.2298-0.36101,0.29165-0.47104,0.19666-0.6351-0.15683-0.82508-1.783-1.6624-3.5599-2.5053-5.3343-0.11699-0.24708-0.11894-0.45293,0.01839-0.69193,1.2114-2.1103,2.4148-4.2248,3.6613-6.409,0.07549,0.0844,0.09471,0.10446,0.11226,0.12591zm0.33371-11.976c-0.02033-0.43371,0.12034-0.5482,0.54123-0.61421,3.8296-0.59917,7.6538-1.2293,11.48-1.8499,0.68803,0.08273,0.78915,0.50391,0.4741,1.0011-0.25042,0.39499-0.03705,0.74541,0.18134,0.79778,0.65015,0.15543,0.48441,0.70335,0.55098,1.0619,0.06685,0.36463-0.42814,0.35627-0.68079,0.45154-3.8833,1.4641-7.7803,2.8936-11.66,4.3694-0.66965,0.2546-0.80502,0.01616-0.81644-0.56519-0.01616-0.8028-0.05098-1.6059-0.07744-2.4084,0.0064-0.7482,0.04206-1.4975,0.0072-2.244zm-0.81728,2.7694v6.1015c-0.50196-0.80335-1.0468-1.6719-1.5883-2.5426-0.50948-0.81951-1.0209-1.6387-1.5195-2.4652-0.08329-0.13816-0.32619-0.2858-0.06212-0.48079,1.1293,0.17131,2.1825-0.04875,3.17-0.61282zm-6.5719-1.4479c0.54402-0.24346,0.80725-0.21198,1.0917,0.32953,0.26602,0.50697,0.53009,1.0379,0.97661,1.4318,1.3992,2.2906,2.7803,4.592,4.2109,6.863,0.31393,0.49861,0.29945,0.85238,0.0097,1.3451-1.1791,2.0062-2.3332,4.0273-3.451,6.068-0.29332,0.53566-0.58023,0.57717-1.1187,0.39917-3.0204-0.99945-6.0549-1.9574-9.0834-2.9354-0.45237-0.14596-0.77772-0.29276-1.0112-0.87383-0.18914-0.47131-0.26769-0.75516-0.07103-1.1858,0.12869-0.28134-0.08579-0.37271-0.33092-0.43176-0.69416-0.16825-0.50697-0.83149-0.69332-1.2819-0.2-0.48301,0.24346-0.44959,0.48914-0.56324,0.29388-0.13677,0.1819-0.35154,0.12563-0.56435-0.05877-0.22396-0.15488-0.31616-0.41338-0.24624-0.20975,0.0571-0.53037,0.25321-0.62313-0.12284-0.07605-0.30948-0.4365-0.64068-0.01922-0.97383,0.34012-0.27215,0.1546-0.70112-0.04123-0.76324-0.9482-0.30028-0.66602-1.1206-0.83483-1.7493,3.5975-1.5761,7.2026-3.1385,10.788-4.7449zm-9.0366,16.72c-2.2485,1.2496-4.5084,2.48-6.7466,3.7482-0.43594,0.24708-0.61338,0.22089-0.86018-0.24151-1.4855-2.7825-3.0059-5.5463-4.5207-8.3124-0.16769-0.30474-0.33538-0.52452,0.10334-0.79555,3.0853-1.9067,6.1536-3.8402,9.2296-5.7616,0.06574-0.04095,0.15571-0.04262,0.23426-0.06295,0.07939,0.34986,0.32702,0.78051,0.2053,1.0346-0.35544,0.74458-0.25348,1.2203,0.4624,1.6538,0.15153,0.09192,0.35906,0.53009-0.02925,0.86268-0.26268,0.22452-0.07605,0.66463,0.19666,0.72508,0.56714,0.12591,0.54485,0.5741,0.48886,0.88803-0.05515,0.30947-0.42312,0.09109-0.64012,0.04847-0.28329-0.05515-0.3273,0.08914-0.36964,0.30335-0.04457,0.23036-0.09415,0.44374,0.21198,0.52647,0.26658,0.07215,0.52953,0.17075,0.80084,0.21226,0.32563,0.04986,0.53817,0.21783,0.52591,0.53371-0.02591,0.70474,0.56463,1.3242,0.49917,1.8975-0.09638,0.85377,0.11616,1.4471,0.64235,2.0268,0.05125,0.05682,0.06212,0.15098,0.09109,0.2273-0.04652,0.30028-0.31532,0.36908-0.52535,0.4858zm19.787,23.833c-1.9312,0.75934-3.9675,1.1663-5.9477,1.7605-1.3769,0.41365-2.7794,0.74513-4.1491,1.18-0.57912,0.18412-0.76157,0.02201-0.90976-0.51672-2.3819-8.6388-4.7797-17.273-7.1786-25.908-0.0805-0.29053-0.20724-0.56797-0.31198-0.85154-0.03426-0.21727-0.06992-0.43399-0.10195-0.65154-0.11783-0.81394,0.31978-1.2139,1.073-0.96993,2.8705,0.93009,5.7374,1.873,8.6138,2.7855,0.35488,0.11254,0.56881,0.28496,0.71951,0.60892,0.87773,1.8814,1.7688,3.7558,2.644,5.6382,0.10892,0.23454,0.26908,0.45126,0.09415,0.7716-0.9223,1.6878-0.617,3.3822,0.06797,5.0488,1.1889,2.8942,3.1198,5.285,5.2215,7.5483,0.37549,0.40446,0.52619,0.77912,0.4234,1.3301-0.13566,0.73232-0.17633,1.4825-0.25822,2.2254,0.22284,0.02451,0.43594,0,0.63761-0.078-0.20167,0.078-0.41477,0.10251-0.63761,0.078zm0.83511-0.17438c0.07939-0.64151,0.15822-1.2825,0.25488-2.063,0.63483,0.5287,1.1669,0.97188,1.6986,1.4148h-0.000278c-0.56491,0.47633-1.2914,0.46296-1.9532,0.6482zm2.067-0.656c0.02479-0.000557,0.04986,0.000279,0.07521,0.0011-0.02535-0.000836-0.05042-0.0017-0.07521-0.0011zm3.7337,2.0635c-1.0281-0.69639-1.9833-1.5017-2.9708-2.2594-1.8672-1.7724-3.7917-3.4872-5.3519-5.56-1.322-1.7566-2.5794-3.5432-3.1986-5.6886-0.71978-2.4928,0.15822-4.4012,2.3825-5.1689,0.6546-0.22563,1.3293-0.34513,2.0337-0.36658,3.8463-0.11755,7.4313,0.95934,10.968,2.3101,0.57271,0.21811,0.58524,0.38329,0.23148,0.84207-1.4042,1.8209-2.7702,3.6716-4.1538,5.5093-0.2961,0.3936-0.49193,0.72675-0.11393,1.2432,1.6003,2.1883,3.4162,4.1535,5.699,5.6399,0.48914,0.31867,0.53872,0.57661,0.26546,1.0635-0.83956,1.4992-1.6373,3.0218-2.4516,4.5346-1.3078-0.38691-2.2513-1.363-3.3393-2.0992zm26.539,4.6081c-0.03733,1.6828-0.85461,2.8844-2.4382,3.4998-1.8279,0.71032-3.7026,0.53984-5.5683,0.25711-5.0379-0.76408-9.5505-2.9034-13.927-5.3864-0.21588-0.12229-0.45544-0.2195-0.52118-0.49806-0.20195-0.03649-0.41728-0.04568-0.57689-0.16379,0.15961,0.11811,0.37521,0.1273,0.57744,0.16323,0.82954-1.4989,1.68-2.9869,2.4747-4.504,0.25822-0.49276,0.478-0.5404,0.95349-0.28775,2.085,1.1081,4.292,1.875,6.6101,2.3502,0.67522,0.13816,0.93372-0.10112,1.0451-0.68218,0.15683-0.81143,0.30112-1.6248,0.45237-2.4376,0.35794-1.9223,0.71728-3.8454,1.0752-5.768,0.8287,0.24903,1.3521,0.92118,1.9585,1.4588,2.7947,2.4777,5.2814,5.2184,6.9862,8.5831,0.53984,1.066,0.92619,2.1825,0.8989,3.4156z"/></svg>
