<?xml version="1.0" encoding="UTF-8" standalone="no"?>
<!-- Generator: Adobe Illustrator 16.0.0, SVG Export Plug-In . SVG Version: 6.00 Build 0)  -->
<svg id="wand_carver" xmlns:rdf="http://www.w3.org/1999/02/22-rdf-syntax-ns#" xmlns="http://www.w3.org/2000/svg" enable-background="new 0 0 100  100" xml:space="preserve" height="100" viewBox="0 0 100 100" width="100" version="1.1" y="0px" x="0px" xmlns:cc="http://creativecommons.org/ns#" xmlns:dc="http://purl.org/dc/elements/1.1/"><metadata id="metadata3400"><rdf:RDF><cc:Work rdf:about=""><dc:format>image/svg+xml</dc:format><dc:type rdf:resource="http://purl.org/dc/dcmitype/StillImage"/><dc:title/></cc:Work></rdf:RDF></metadata><g id="icon_wand_carver" clip-rule="evenodd" transform="matrix(0.29995704,0,0,0.29995704,4.5067152,4.8844044)"><path id="path3392" d="m267.38,99.75c-6.029-6.853-11.908-13.837-17.848-20.77-1.198-0.746-1.341-1.755-0.732-2.95,1.073-3.538,2.146-7.076,3.221-10.614,0.484-1.711,0.968-3.423,1.452-5.135,1.087-3.521,2.175-7.041,3.263-10.561,1.743-5.636-0.146-9.077-5.818-9.971-1.184,0.348-2.365,0.697-3.548,1.044-8.559,3.646-17.133,7.257-25.659,10.974-1.414,0.615-2.355,0.212-3.45-0.557-7.394-5.183-14.868-10.253-22.188-15.536-2.604-1.879-5.196-2.443-8.19-1.506-2.243,1.716-3.179,4.032-3.123,6.802,0.464,5.425,0.928,10.85,1.392,16.273,0.437,0.565,0.488,1.186,0.273,1.847,0.021,0.361,0.042,0.723,0.063,1.083,0.057,1.189,0.112,2.377,0.17,3.566,1.427,4.895,0.916,8.947-4.229,11.588-2.459,1.261-4.549,3.237-6.805,4.89-0.788,0.999-1.832,1.669-2.925,2.279-3.137,2.443-6.225,4.952-9.426,7.308-2.378,1.75-3.38,4.006-2.826,6.836,0.547,2.802,2.581,4.226,5.221,4.858,3.386,0.811,6.781,1.573,9.48,2.196-7.542,7.943-15.228,16.038-23.471,24.721,0.492-4.316-2.479-5.735-4.195-7.947-1.144-0.815-2.29-1.628-3.435-2.442-0.987-0.517-1.973-1.035-2.959-1.554-6.316-2.137-12.646-2.585-19.101-0.492-8.58,2.783-17.96,12.984-17.093,24.232,0.104,1.351,0.038,2.714,0.049,4.072,0.35,0.326,0.439,0.715,0.286,1.165,0.939,3.769,0.939,3.769-2.593,4.744-1.981,0.988-3.98,1.946-5.94,2.974-2.397,1.255-4.019,3.134-3.983,5.959,0.033,2.667,1.476,4.467,3.813,5.744,3.738,2.043,7.393,4.239,10.699,6.149-2.544,2.791-5.069,5.561-7.595,8.33-1.352,1.366-2.701,2.734-4.053,4.103-0.794,0.772-1.589,1.545-2.382,2.317-5.008,5.634-10.785,10.481-16.087,15.813-1.374,1.475-3.081,2.469-4.851,3.377-1.106,0.71-2.214,1.42-3.322,2.129-4.482,3.072-8.922,6.206-13.463,9.188-2.41,1.583-3.523,3.672-3.722,6.514-0.276,3.971,0.383,7.733,1.893,11.381,1.003,1.535,2.006,3.069,3.009,4.601,4.704,5.336,10.911,8.508,17.085,11.688,4.681,2.41,7.816,1.536,11.141-2.697,1.134-1.444,2.36-2.818,3.543-4.222,0.123-0.185,0.246-0.371,0.37-0.557,0.129-0.15,0.259-0.301,0.388-0.451,1.724-2.193,3.448-4.387,5.172-6.581,1.242-1.935,2.418-3.932,4.931-5.093-0.1,1.86-0.191,3.521-0.281,5.181-0.006,2.398,0.86,4.638,1.252,6.962,1.674,3.328,3.576,6.506,6.17,9.223,2.089,1.385,4.18,2.768,6.268,4.152,2.97,0.969,6.001,1.463,9.131,1.201,1.048-0.086,1.728,0.317,2.446,1.155,4.403,5.154,9.899,8.208,16.814,8.357,3.998,0.016,7.738-0.792,11.34-2.693,2.534-1.337,4.098-3.787,6.615-5.046,2.563-3.353,4.674-6.933,5.583-11.117,0.979-4.138,0.096-8.144-0.835-12.146-0.548-1.193-1.097-2.387-1.646-3.58-0.624-0.944-1.248-1.889-1.872-2.832-0.678-0.668-1.369-1.319-2.029-2.002-3.303-3.412-5.897-3.646-9.798-0.873-0.525,0.92-1.051,1.839-1.576,2.76-0.525,3.089,1.361,5.739,1.624,8.713,0.105,1.161,0.013,2.04-0.538,2.966-2.416,3.333-5.678,4.442-8.778,2.985-3.197-1.502-4.711-4.574-3.942-7.887,0.43-1.854,1.094-3.263,3.432-3.128,0.781,0.045,1.602-0.604,2.404-0.937,0.772-0.903,1.546-1.807,2.319-2.71,0.096-0.387,0.191-0.774,0.287-1.161-0.05-1.846-0.272-3.648-1.293-5.255-0.441-0.729-0.884-1.458-1.327-2.188-1.333-1.41-2.666-2.82-3.998-4.232-0.786-0.573-1.57-1.147-2.354-1.721-6.406-3.174-13.109-3.884-20.606-2.238,4.649-5.444,9.268-10.217,14.155-14.738,1.167-1.177,2.333-2.353,3.5-3.529,0.092-0.167,0.154-0.36,0.28-0.499,5.18-5.684,5.182-5.687,11.814-1.882,5.225,2.995,10.871,5.452,15.567,9.123,7.782,6.084,16.707,10.195,24.84,15.625,0.226,0.159,0.451,0.318,0.675,0.477,1.559,0.959,3.117,1.918,4.676,2.877,1.562,0.697,3.093,1.439,4.224,2.789,3.264,1.724,5.878,4.32,8.776,6.534,1.574,0.65,2.836,1.734,4.051,2.887,5.404,3.977,10.806,7.949,16.21,11.92,4.052,2.37,7.196,0.15,10.349-2.041,1.289-1.114,2.258-2.674,4.138-2.973,0.153-1.304,1.313-1.85,2.072-2.683,4.705-5.175,8.644-10.757,8.737-18.101,0.082-6.391-1.449-12.06-6.583-13.577-1.162-0.391-2.325-0.783-3.488-1.174-1.052-0.148-2.067-0.397-2.951-1.027-1.268-0.088-2.438-0.469-3.502-1.165-0.982-0.292-1.964-0.583-2.946-0.875-2.489-0.856-5.114-1.343-7.428-2.688-0.72,0.075-1.354-0.117-1.885-0.621-3.825-0.748-6.804-3.162-10.025-5.098-6.767-3.798-13.527-7.605-20.307-11.383-1.009-0.561-1.216-1.464-1.272-2.447-0.396-6.929-4.211-11.325-10.236-14.272-2.958-1.447-5.695-3.34-8.588-4.931-1.282-0.707-1.762-1.138-0.455-2.434,8.071-8.015,16.063-16.111,24.081-24.181,1.407-1.681,2.859-3.319,4.628-4.642,0.042-0.085,0.065-0.188,0.129-0.253,0.953-0.989,1.64-2.561,3.37-2.131,1.777,0.443,1.354,2.22,1.772,3.472,0.925,2.515,1.932,5.004,2.751,7.553,0.878,2.724,2.479,4.63,5.404,4.943,2.966,0.317,5.214-0.969,6.684-3.599,0.471-0.838,1.037-1.621,1.56-2.429,1.129-1.792,2.256-3.583,3.384-5.375,0.219-0.357,0.437-0.714,0.655-1.073,3.101-5.214,6.146-10.462,9.327-15.627,1.422-2.307,3.82-1.023,5.807-1.209,7.96-0.227,15.919-0.528,23.88-0.639,3.232-0.044,6.066-0.641,7.561-3.793,1.513-3.208,0.044-5.684-2.105-8.129zm-125.78,32.479c1.297,0.575,2.486,1.388,3.503,1.353-3.808,4.088-7.625,8.292-11.573,12.368-1.514,1.563-2.76,0.621-3.716-0.912-2.067-3.313-1.722-7.471,0.893-10.513,2.532-2.947,7.118-3.968,10.893-2.296zm0.646,16.921c0.198,1.211,1.575,2.574,0.745,3.49-1.084,1.193-2.723-0.062-4.129-0.176-1.403,1.563-2.983,2.322-4.716,2.456,1.733-0.134,3.313-0.894,4.715-2.456,0.741-1.5,1.999-2.473,3.385-3.314zm-24.156-21.557c3.982-4.064,11.144-6.523,18.648-3.917-4.19,0.24-7.631,1.484-10.453,4.11-2.848,2.65-4.714,5.873-5.441,9.732-1.231,6.527,1.76,13.367,7.369,16.791,2.338,2.102,5.318,2.521,8.651,3.192-7.465,1.946-13.69,0.491-19.103-4.436-7.613-8.235-5.832-19.183,0.329-25.472zm23.91,124.99c7.819-0.026,12.197-4.426,14.664-11.883,1.234,7.43-1.688,12.589-7.213,16.24-4.866,3.214-10.212,3.183-15.152,0.091-5.747-3.599-8.433-8.901-7.338-15.858,2.693,6.932,7.111,11.436,15.039,11.41zm-12.107-30.656c-7.765-0.479-13.305,2.379-15.827,9.414-2.67,7.45-0.023,13.423,6.753,18.35-5.884,0.027-10.798-3.814-12.944-9.559-2.099-5.623-0.238-12.84,4.311-16.717,5.056-4.308,11.389-4.951,17.707-1.488zm0.943-38.09c-9.4,9.661-18.854,19.271-28.293,28.896-0.94,1.13-1.878,2.261-2.819,3.393-6.595,8.39-13.246,16.736-19.74,25.198-1.395,1.814-2.552,2.136-4.543,1.081-4.126-2.186-8.248-4.321-11.406-7.897-1.431-1.619-2.583-3.411-3.347-5.417-1.717-4.51-1.235-5.926,2.761-8.591,5.085-3.391,10.171-6.783,15.262-10.166,0.882-0.586,1.685-1.335,2.812-1.454,0.255-0.212,0.51-0.426,0.765-0.638-0.255,0.212-0.51,0.426-0.764,0.638,3.995,1.471,8.024,2.854,11.972,4.448,2.104,0.85,4.531,1.035,6.229,2.798,0.94-1.132,1.878-2.263,2.819-3.395-1.584-0.05-2.982-0.757-4.448-1.239-4.676-1.538-9.157-3.651-13.974-4.781,0.469-1.48,1.78-2.267,2.791-3.27,10.466-10.381,20.967-20.725,31.46-31.079,4.885,2.739,9.771,5.479,14.654,8.217-0.035,1.546-1.295,2.336-2.191,3.258zm80.404,18.899c1.19,0.633,2.382,1.265,3.573,1.896,7.459,2.469,14.896,5.005,22.391,7.356,1.849,0.579,2.394,1.652,2.557,3.355,0.404,4.261-0.819,8.071-3.087,11.594-2.347,3.642-5.482,6.528-8.866,9.188-0.804,0.631-1.395,0.846-2.264,0.191-8.915-6.724-17.845-13.428-26.77-20.137-0.572-0.165-1.077-0.428-1.537-0.756,0.46,0.328,0.965,0.591,1.537,0.756,5.346-3.85,10.692-7.698,16.038-11.548-1.19-0.63-2.381-1.262-3.572-1.895-0.37,0.998-1.306,1.385-2.085,1.946-4.411,3.181-8.815,6.369-13.223,9.554-6.365-3.138-12.28-7.034-18.238-10.853-0.773-0.038-1.4-0.295-1.898-0.747,0.498,0.452,1.125,0.709,1.898,0.747,2.805-4.896,5.607-9.793,8.411-14.689,8.378,4.681,16.757,9.361,25.135,14.042zm-28.378-15.863c0.893,0.089,1.596,0.513,2.254,1.017-0.658-0.504-1.362-0.928-2.256-1.016-0.069,1.211-0.751,2.162-1.32,3.168-2.179,3.853-4.339,7.717-6.506,11.575-2.253-1.194-4.994-1.638-6.39-4.15,2.021-3.417,4.049-6.831,6.067-10.25,2.252-3.817,2.249-3.818,6.133-2.026,0.654,0.584,0.748,1.836,2.018,1.682zm-8.685-15.641c3.239,1.94,5.41,4.213,5.539,8.092-0.119,0.715-0.331,1.516-1.237,0.882-2.371-1.657-3.371-0.188-4.409,1.682-2.568,4.629-5.222,9.213-7.839,13.814-6.25-2.893-11.96-6.745-17.972-10.056-4.154-2.287-8.272-4.634-12.405-6.954-5.227-3.435-10.684-6.47-16.21-9.388,0.059,0.621-0.101,1.154-0.353,1.646,0.252-0.491,0.412-1.024,0.353-1.646-5.63-3.325-11.261-6.65-17.074-10.083,4.17-2.181,8.378-3.463,12.748-4.269,6.073,7.469,19.799,8.614,27.023,3.119,1.268-0.964,2.343-0.841,3.729-0.326,2.796,1.039,5.496,2.382,8.468,2.906,0.102-0.233,0.204-0.467,0.306-0.7-0.102,0.232-0.203,0.467-0.305,0.7,6.664,3.306,13.245,6.749,19.638,10.581zm19.817-51.605c-12.224,12.384-24.472,24.745-36.721,37.104-0.47,0.473-1.048,0.837-1.577,1.253-0.797-0.311-1.567-0.739-2.394-0.916-4.088-0.872-6.789-3.038-7.416-7.406-0.145-1.009-0.739-1.954-1.126-2.929-0.888,0.336-1.533,0.923-2.042,1.651,0.509-0.728,1.154-1.315,2.042-1.651,5.375-6.129,11.455-11.562,17.217-17.309,8.658-8.637,17.465-17.125,26.213-25.671,0.484-0.474,1.011-0.903,1.517-1.353,0.469,0.105,0.937,0.291,1.407,0.303,5.895,0.164,9.498,3.002,10.491,8.92-2.535,2.671-5.025,5.385-7.611,8.004zm57.18-15.615c-6.894,0.265-13.792,0.433-20.69,0.489-1.768,0.015-2.59,0.876-3.388,2.201-4.952,8.232-9.945,16.439-15.204,25.114-2.107-6.175-4.054-11.927-6.044-17.664-0.441-1.271-0.699-2.638-1.633-3.697-0.194-2.824-1.646-5.258-2.46-7.891-0.242-0.782-0.916-1.213-1.721-1.372-3.091-0.609-6.186-1.208-9.276-1.812-6.564-1.64-13.128-3.28-19.919-4.977,1.532-1.944,3.576-3.075,5.368-4.464,5.686-4.407,11.396-8.781,17.183-13.054,1.653-1.222,2.378-2.467,2.167-4.613-0.937-9.472-1.695-18.961-2.522-28.473,1.131-0.269,1.657,0.57,2.309,1.019,7.118,4.91,14.253,9.797,21.288,14.825,1.812,1.294,3.368,1.45,5.377,0.581,7.833-3.392,15.718-6.665,23.587-9.974,0.856-0.36,1.731-0.673,2.962-1.149-2.826,9.461-5.484,18.552-8.296,27.594-0.585,1.884-0.443,3.204,0.904,4.732,6.36,7.209,12.6,14.525,19.068,22.02-3.144,0.923-6.134,0.452-9.06,0.565z"/><path id="path3394" d="m68.718,196.89c1.166-0.559,2.334-1.118,3.503-1.677,6.057-3.76,10.034-9.118,12.187-15.874,0.184-1.563-0.052-3.184,0.642-4.678,0.136-7.741-1.903-14.629-7.535-20.277-2.046-2.051-4.237-3.018-6.998-2.253-2.727,0.756-3.99,2.85-4.444,5.519,0.304,2.01,0.889,3.886,1.737,5.775,1.378,3.064-0.249,7.488-3.102,9.611-3.191,2.374-7.522,2.358-10.868-0.042-3.182-2.281-4.36-5.697-3.235-9.375-0.172-1.271,0.758-2.149,1.157-3.218,1.028-2.744,0.145-5.829-2.171-7.501-2.158-1.558-5.702-1.389-7.772,0.518-1.487,1.369-2.817,2.91-4.219,4.375-0.688,1.189-1.378,2.378-2.067,3.567-5.574,13.354-0.449,26.094,8.957,32.58,7.558,5.214,15.744,5.311,24.228,2.95zm-26.623-29.48c2.313,11.654,10.753,15.729,18.788,15.15,7.556-0.544,13.562-6.154,15.176-14.748,2.76,7.084-0.635,14.952-5.472,18.769-6.332,4.998-15.438,5.367-21.913,0.555-6.596-4.903-9.336-13.122-6.579-19.726z"/></g></svg>
