<svg xmlns="http://www.w3.org/2000/svg" height="90" width="90"><g clip-rule="evenodd"><path d="M75.881 70.467c-.802-2.734-1.671-5.449-2.348-8.219-.928-3.127-1.878-6.249-2.771-9.387-.322-1.13-.805-2.222-.887-3.416-.161-.39-.706-.773-.028-1.184l-.016-.012c.244-1.85.445-3.698-.111-5.532-.628-.875-1.569-.849-2.484-.82-.706.022-1.146-.045-.882-.95.175-.596.179-1.242.26-1.866l.142-.9c.025-.43.022-.864.083-1.289.179-1.265-.299-2.064-1.523-2.419-.497-.144-1.016-.213-1.525-.315l-.269-.094-.048.023-.048-.024-3.652-.387c-.407-.021-.856.206-1.198-.2-2.945-2.806-6.382-4.766-10.251-5.993-2.275-.721-4.603-1.113-6.987-1.187-.765.057-1.529.106-2.295.025-.923.051-1.84.152-2.748.341-.37.077-.704.129-.929-.35-.6-1.279-1.258-2.53-1.893-3.792-.598-.933-.6-.937.368-1.449.327-.174.668-.322 1.003-.481 1.397-.945 1.581-1.667.794-3.2-.554-1.081-1.124-2.152-1.687-3.228l-1.022-.533c-.747-.091-1.35.302-1.928.658-.621.382-.84.152-1.038-.427-.298-.874-.634-1.736-.984-2.59-.425-1.035-1.205-1.445-2.287-1.201-.646.146-1.281.346-1.922.521l-1.021.327c-2.952 1.094-5.672 2.614-8.205 4.476-.281.371-.638.653-1.036.887-1.053 1.168-1.094 1.82-.194 3.15l.879 1.293c.894 1.336.894 1.337-.509 2.089-1.103.591-1.387 1.488-.823 2.609.558 1.109 1.122 2.215 1.684 3.322.95.894 1.666.997 2.813.397.436-.228.873-.454 1.299-.699.31-.178.492-.151.671.203.732 1.444 1.485 2.88 2.259 4.302.204.375.125.596-.137.904-.488.576-1.098 1.008-1.587 1.606-2.05 2.499-3.527 5.28-4.547 8.326-.914 2.848-1.516 5.747-1.411 8.758.139 3.986 1.094 7.756 2.962 11.29l.114.32c.42.531.713 1.137 1.015 1.739l.355.535.923 1.373.682.871.722.867 1.173 1.2 3.654 2.812 2.783 1.584-.001-.002 2.466.993c.64.18 1.281.356 1.92.54 3.087.894 6.215 1.31 9.434.931.545-.065 1.136-.393 1.688-.029.91.601 1.958.836 2.968 1.174.314.044.633.069.942.139 2.939.669 5.919 1.003 8.927 1.103 3.069.104 6.111-.209 9.131-.72 2.652-.449 5.28-1.005 7.622-2.438.694-.663 1.376-1.335 1.799-2.219.516-1.424.091-2.778-.302-4.136zm-16.992-34.37c1.565-.092 3.103.146 4.647.351.781.104 1.038.36.901 1.21-.296 1.848-.447 3.717-.657 5.578l.021.891c1.043.016 2.089.077 3.131.032.676-.029.883.21.809.846-.043.372-.042.758.001 1.13.058.508-.171.68-.632.66-5.247-.013-10.493-.025-15.739-.037-1.327-.003-1.327 0-1.327-1.323 0-1.252 0-1.252 1.239-1.252 3.856 0 7.712.001 11.568-.003.317-.001.634-.035.951-.053l-.02-.891c-3.185.018-6.369.03-9.554.056-.416.004-.525-.175-.569-.563-.204-1.779-.44-3.555-.671-5.331-.065-.492-.007-.78.619-.847 1.372-.148 2.731-.404 4.097-.615.384.142.78.183 1.187.16zm-9.71 10.862c0 .204 0 .407.171.561.177.161.653.012.512.507-.182.637-.303 1.296-.544 1.907-.091.231-.481.098-.733.098-4.152.006-8.304.005-12.456.005-4.094 0-8.188-.037-12.281.025-1.013.015-1.571-.628-2.277-1.087-.235-.153-.115-.426-.068-.646 1.017-4.65 3.105-8.658 7.016-11.539.653-.481.801-.867.392-1.626-1.438-2.678-2.778-5.408-4.201-8.093-.291-.55-.205-.751.331-1.008 1.122-.537 2.221-1.126 3.298-1.749.511-.296.705-.181.958.323 1.38 2.741 2.816 5.454 4.195 8.196.319.634.641.797 1.353.588 5.88-1.73 11.396-.821 16.589 2.359.43.263.558.612.612 1.055.24 1.956.475 3.913.737 5.867.069.514-.104.662-.599.641-.753-.033-1.51-.008-2.265-.005-.493.002-.747.236-.744.746.008.957.003 1.915.004 2.874zm-6.178 17.155c-.537.401-.671 1.431-.287 1.987.469.677 1.403.711 2.444.032-.432 1.686-.852 3.302-1.257 4.922-.089.36-.329.406-.642.445-7.231.903-13.153-1.496-17.84-7.038-2.366-2.797-3.783-6.02-4.248-9.642-.208-1.622-.368-3.264.019-4.882l.107-.027c1.122 1.138 2.545 1.016 3.971 1.012 7.665-.02 15.331-.004 22.996-.02.639-.001.916.039.704.819-1.204 4.437-2.356 8.89-3.535 13.374-.501-.254-.355-.993-.945-1.166-.541-.158-1.037-.152-1.487.184zm1.464 1.175c-.053.412-.332.511-.618.525-.362.016-.492-.225-.477-.566.015-.323.105-.558.495-.554.436.005.43.389.6.595zm-27.962-47.658c2.981-2.389 6.305-4.094 9.991-5.113.528-.146.587.132.711.463.508 1.357 1.018 2.712 1.528 4.068-3.247 1.7-6.494 3.399-9.741 5.1-.856-1.24-1.702-2.486-2.574-3.716-.229-.323-.237-.544.083-.801zm1.296 9.208c-.329.173-.499.199-.725-.197-1.101-1.935-1.116-1.922.887-2.948.409-.21.803-.449 1.204-.675.567-.281 1.142-.549 1.7-.845 2.831-1.503 5.658-3.012 8.487-4.521.848-.419 1.698-.837 2.545-1.261.986-.496.906.532 1.032.879.167.461 1.294.95.2 1.561-1.029.575-2.083 1.103-3.126 1.652-3.054 1.578-6.139 3.097-9.13 4.797-1.025.519-2.055 1.028-3.074 1.559zm19.509 48.296c-5.879-1.01-10.97-3.502-14.75-8.23-8.67-10.845-6.1-25.101 2.651-32.455.429-.36.441-.649.198-1.103-1.31-2.447-2.598-4.907-3.893-7.362.107-.095.2-.216.323-.281 2.612-1.361 5.228-2.716 7.844-4.071.202-.105.395-.257.648-.173 1.26 2.468 2.528 4.931 3.775 7.406.24.477.56.461 1.004.363 8.016-1.759 15.106.154 21.344 5.413.194.163.345.376.516.566-1.12.151-2.244.278-3.358.467-.465.079-.825.002-1.208-.272-1.954-1.393-4.126-2.342-6.414-3.014-3.66-1.074-7.332-.942-10.982.061-.489.134-.675.044-.9-.403-1.409-2.79-2.88-5.55-4.273-8.348-.369-.74-.723-.816-1.408-.43-1.437.81-2.894 1.589-4.379 2.308-.705.342-.749.683-.405 1.337 1.443 2.74 2.827 5.511 4.263 8.256.271.517.256.782-.238 1.194-6.155 5.135-8.497 11.842-7.133 19.566 1.41 7.983 6.498 13.116 14.094 15.761 2.613.909 5.336 1.043 8.074.706.624-.076.914.008.815.728-.096.713.194 1.364.525 1.986-2.244.463-4.494.409-6.734.022zm35.893-.39c-1.257 1.021-2.776 1.404-4.305 1.738-4.441.974-8.938 1.343-13.475 1.056-2.689-.17-5.331-.688-7.949-1.331-.947-.233-1.695-.812-2.533-1.231-.678-1.251-.537-2.489-.179-3.832 2.017-7.534 3.972-15.086 5.911-22.64.175-.682.397-.909 1.129-.906 4.984.034 9.969.009 14.954.004.934 2.61 1.597 5.304 2.386 7.958 1.647 5.539 3.158 11.117 4.881 16.634.319 1.019.01 1.875-.821 2.55z"/><path d="M65.552 50.173c-.178-.714-.495-.923-1.187-.909-1.8.037-3.6.011-5.4.011-1.771 0-3.543.032-5.312-.014-.753-.019-1.051.255-1.215.985-1.464 6.554-2.964 13.098-4.459 19.645-.549 2.407.417 3.918 2.818 4.495 4.042.971 8.123 1.311 12.247.733 2.029-.285 4.075-.587 5.929-1.553 1.513-.788 2.004-1.931 1.598-3.53-1.681-6.619-3.371-13.236-5.02-19.863zm-14.268 9.009c.648-2.819 1.311-5.634 1.945-8.456.11-.486.327-.629.821-.627 3.277.023 6.554.028 9.831-.003.584-.006.802.202.931.733.653 2.698 1.333 5.389 2.008 8.081.248.988-.306 1.724-1.345 1.731-2.059.011-4.118.003-6.176.003-2.002.001-4.004-.036-6.004.019-.784.021-1.287-.432-1.873-.779-.3-.177-.195-.458-.138-.702zm17.11 13.651c-1.797.874-3.766 1.13-5.713 1.393-4.133.557-8.21.156-12.24-.852-1.248-.313-1.938-1.349-1.668-2.618.709-3.34 1.448-6.673 2.222-10.23 1.07 1.134 2.3 1.018 3.518 1.013 3.368-.016 6.735 0 10.103-.008.91-.002 1.891.245 2.597-.88.326 1.228.602 2.227.858 3.232.529 2.077 1.054 4.155 1.568 6.235.325 1.313-.018 2.119-1.245 2.715z"/><path d="M31.771 58.993c-1.199-.026-2.143.855-2.149 2.002-.005 1.17.899 2.082 2.073 2.09 1.11.008 2.116-1.003 2.096-2.105-.019-1.032-.966-1.965-2.021-1.987zm-.056 3.218c-.685.003-1.225-.511-1.234-1.173-.009-.672.514-1.17 1.224-1.167.61.004 1.192.539 1.211 1.114.021.633-.557 1.221-1.201 1.225z"/><path d="M30.632 57.721c.111-.7-.667-1.329-1.503-1.337-.838-.008-1.476.617-1.49 1.458-.014.832.673 1.447 1.61 1.443.943.045 1.246-.696 1.384-1.564zm-1.501.706c-.388-.061-.676-.229-.615-.669.052-.373.323-.516.689-.507.413.01.509.296.586.565-.136.356-.223.68-.66.611z"/><path d="M37.187 52.548c-.789.014-1.433.663-1.428 1.438.005.763.758 1.456 1.559 1.434.67-.02 1.385-.7 1.385-1.316-.001-.897-.658-1.571-1.516-1.556zm.04 1.991c-.378.005-.579-.278-.578-.62.001-.336.266-.48.43-.494.591-.027.701.311.723.611.026.345-.278.5-.576.503z"/><path d="M57.228 66.115c-1.079-.008-1.996.903-1.993 1.98.002 1.149.876 1.995 2.061 1.996 1.011.001 1.94-.859 1.968-1.821.033-1.156-.904-2.149-2.035-2.156zm.029 3.084c-.687.006-1.162-.486-1.136-1.144.024-.59.546-1.059 1.157-1.039.598.017 1.169.62 1.094 1.206-.082.63-.475.973-1.116.977z"/><path d="M56.306 64.964c-.018-.779-.658-1.353-1.503-1.346-.907.006-1.478.579-1.462 1.463.016.787.673 1.462 1.429 1.464.787.001 1.554-.788 1.536-1.582zm-1.46.666c-.31-.043-.58-.174-.598-.511-.021-.361.182-.587.566-.617.352-.029.576.143.588.473.014.349-.19.59-.557.656z"/><path d="M63.047 68.293c-.706-.013-.929.515-.937 1.019-.009.533.313 1.042.947 1.042.615 0 1.033-.331 1.079-.964-.035-.73-.386-1.082-1.088-1.097z"/><path d="M66.302 64.519c-.565.013-.946.326-.945.908.002.572.369.931.935.922.54-.008.791-.404.872-.921-.128-.453-.267-.922-.862-.91z"/></g></svg>