<svg xmlns="http://www.w3.org/2000/svg" height="90" width="90"><path clip-rule="evenodd" d="M78.561 43.714c-1.472-1.765-3.063-3.414-4.828-4.891l-.693-.566c-1.545-1.106-3.109-2.186-4.626-3.33-.618-.466-1.265-.734-2.019-.845-1.024-.151-1.947-.569-2.791-1.174-.355-.255-.383-.452-.075-.783.619-.666 1.225-1.357 1.196-2.359l-.47-.977c-1.728-1.529-3.454-3.06-5.184-4.586-.308-.272-.634-.523-.952-.783-.202-.138-.416-.262-.606-.415-.854-.689-1.93-.593-2.62.242-.779.944-.778.943-1.802.271-.509-.334-1.002-.689-1.354-1.193-.187-.267-.464-.581-.449-.86.098-1.845-1.313-2.729-2.359-3.85-.281-.301-.544-.62-.815-.93-.377-.284-.71-.611-.991-.991l-2.944-2.845-.83-.635c-.45-.202-.817-.519-1.18-.843-.383-.269-.773-.529-1.148-.809-1.052-.787-1.744-.746-2.709.128-1.21 1.096-2.375 2.233-3.397 3.509-.209.261-.423.366-.77.35-2.857-.136-5.298.842-7.361 2.802l-.845 1.146-.012.824c.398 1.082.522 2.23.802 3.341.169.77.306 1.548.516 2.306.168.609.009.922-.634.952l-.834.225c-1.066.355-2.121.751-3.202 1.058-2.793.793-5.474 2.009-8.48 1.981-1.629-.015-2.155.552-2.594 2.133-.493 1.778.596 4.985 2.073 6.075.593.438 1.236.413 1.883.136.453-.194.898-.41 1.345-.616.616-.424 1.3-.713 1.988-.992.559-.198.992-.677 1.616-.732 1.263-.437 2.53-.861 3.785-1.32.309-.113.508-.042.739.147.718.588 1.449 1.161 2.176 1.74l.648.497c.635.484 1.276.962 1.904 1.455.442.347.462.676-.008 1.06-1.71 1.395-3.401 2.814-5.1 4.222-.805.668-1.018 1.382-.643 2.167.41.86 1.204 1.212 2.212.943 3.618-.962 7.232-1.939 10.85-2.9.263-.07.706-.375.779.012.088.467.667.892.124 1.482-2.27 2.472-4.5 4.98-6.745 7.475-.493.591-1.527 1.773-1.828 2.057l-4.362 4.907c-1.131 1.314-2.238 2.65-3.481 3.864-.276.428-.581.832-.992 1.144l-.818.852c-.924 1.152-2.286 1.686-3.471 2.471-.343.349-.765.583-1.185.82-.665.507-1.48.877-1.673 1.819.058 1.033.316 2.02.672 2.986.639 1.127 1.375 2.185 2.27 3.126 1.503 1.293 3.086 2.469 4.826 3.435 1.102.611 2.086.444 2.765-.593.646-.987 1.272-1.988 1.907-2.982l2.151-3.505c.436-.955 1.132-1.719 1.838-2.474.737-.913 1.454-1.843 2.286-2.674.198-.396.489-.711.843-.971.988-1.339 2.101-2.574 3.191-3.829.099-.213.252-.377.457-.493.654-.945 1.426-1.791 2.183-2.651l1.442-1.666c1.877-2.24 3.756-4.479 5.631-6.723.134-.16.272-.28.489-.23 1.046.239 1.637-.407 2.214-1.112.201-.245.354-.557.751-.712.685 1.905.675 3.69-.482 5.427-.798 1.198-.214 2.452 1.185 2.724l1.205.282c1.383.248 2.771.468 4.178.541.052-.024.102-.02.149.011l1.816.016.174.003.656.007 2.673-.245 2.653-.629 3.284-1.202 1.545-.802c.393-.34.846-.579 1.309-.804.067-.121.169-.191.309-.2l3.157-2.511 1.814-1.811 2.724-3.467c.474-.831 1.256-1.548.98-2.656zm-11.567-7.117c1.927 1.418 3.928 2.738 5.753 4.293-2.376 2.918-5.083 5.45-8.446 7.214-.856.449-1.745.824-2.653 1.16-.405.15-.544.051-.554-.378-.034-1.573-.08-3.145-.147-4.716-.019-.449.259-.712.498-1.004l4.891-5.953c.155-.19.278-.406.416-.61.082-.004.19-.043.241-.005zm-1.07-.347c-1.056 1.551-2.348 2.913-3.504 4.384-.545.694-1.135 1.351-1.676 2.048-.292.377-.586.376-1.005.228-1.585-.557-3.175-1.102-4.781-1.591-.714-.217-.645-.469-.219-.919 2.066-2.183 3.897-4.568 5.866-6.834l.176-.273c.079.011.196-.008.23.037 1.241 1.644 2.979 2.448 4.913 2.922zm-9.823-10.993c.25-.308.421-.316.721-.05 1.726 1.532 3.462 3.052 5.214 4.553.342.293.313.481.044.79-.521.6-1.004 1.232-1.503 1.85-1.407 1.621-2.828 3.23-4.213 4.869-.409.484-.596.536-.967-.065-1.184-1.922-2.407-3.823-3.686-5.683-.42-.61-.323-.968.128-1.458 1.024-1.113 1.998-2.271 2.993-3.411.52-.376.873-.907 1.269-1.395zm-2.565.962c.179.079.35.169.361.402-1.534 1.696-3.066 3.395-4.608 5.083-.189.207-.313.528-.756.533l2.539-4.546c.143-.257.426-.539.136-.811-.311-.292-.615-.016-.884.167-1 .681-1.908 1.493-2.972 2.082l-.085.096c-.087-.065-.046-.115.026-.157.453-1.978 1.212-3.863 1.756-5.813l.123-.554c1.098 1.615 2.592 2.739 4.364 3.518zm-4.768-5.73c.182.181.201.375.116.598-.796 2.464-1.588 4.929-2.393 7.389-.097.297-.085.658-.502.932.108-1.237.531-2.307.777-3.413.18-.807.408-1.602.619-2.402.091-.341.311-.735-.055-.99-.393-.274-.647.14-.903.352-1.317 1.088-2.621 2.191-4.035 3.378-.254-.938-.506-1.766-.697-2.608-.152-.669-.442-.98-1.152-.689-.292.119-.662.33-.857-.112-.224-.508-.868-.866-.448-1.614 1.224-2.182 2.756-4.125 4.446-5.954 1.787 1.619 3.374 3.436 5.084 5.132zm-7.658 5.583c-.19.047-.314-.035-.361-.227-.122-.502-.23-1.008-.37-1.505-.065-.229-.036-.356.208-.42.249-.066.277.128.318.269.144.496.269.998.413 1.547.016.126-.004.286-.208.337zm-5.022-9.914c1.014-1.244 2.121-2.398 3.3-3.487.293-.27.509-.28.828-.036.919.704 1.863 1.377 2.797 2.062-.417.852-1.175 1.428-1.749 2.154-1.003 1.268-1.911 2.599-2.78 4.004l-2.574-4.181c-.072-.218.054-.362.179-.515zm-7.34 2.401c1.892-1.566 4.027-2.184 6.456-1.678.415 1.211 1.235 2.199 1.827 3.314.581 1.095 1.246 2.145 1.891 3.206.227.374.241.61-.209.841-1.4.718-2.776 1.479-4.167 2.216-1.171.621-2.36 1.209-3.517 1.853-.626.349-.97.348-.976-.489-.001-.241-.105-.482-.162-.723l-.826.416c.108.564.156 1.149.34 1.687.245.717-.169.761-.727.834l.24-2.387.147-.133.825-.416c-.504-2.473-.98-4.951-1.533-7.413-.12-.536.025-.825.39-1.127zm-13.517 16.682c-.356.179-.57.176-.787-.215-.502-.905-.917-1.816-.806-2.891.056-.543.266-.851.87-.861.824-.013 1.648-.092 2.472-.143.564.811 1.288 1.513 1.667 2.45-1.14.551-2.285 1.093-3.416 1.66zm5.099-2.356c-.283.087-.553.258-.872.2l-1.488-1.987c.07-.079.126-.203.212-.23 3.289-1.018 6.58-2.027 9.871-3.037-.02.192-.076.388-.054.575.212 1.78-.796 2.5-2.361 2.757-.131.021-.25.112-.375.17-1.68.404-3.285 1.046-4.934 1.552zm7.853 10.386c-.174.047-.342.172-.569.035l4.98-4.206c1.143-.856 1.146-.961.038-1.8-.215-.162-.447-.302-.672-.451-1.813-1.432-3.627-2.863-5.437-4.299-.232-.184-.442-.398-.662-.598 1.273-.401 2.466-1.119 3.898-.869.391.068.632.17.821.534.79 1.516 1.641 3.002 2.409 4.529.315.626.694.931 1.42 1.028 3.227.43 5.862-.557 7.928-3.084.33-.404.421-.769.27-1.283-.389-1.321-.701-2.666-1.073-3.993-.101-.36-.084-.6.231-.857 1.283-1.047 2.542-2.125 3.816-3.183.139-.116.277-.355.479-.252.261.133.102.399.053.588-.495 1.922-1.008 3.838-1.509 5.759-.087.333-.311.726.086.975.356.223.613-.128.869-.311 1.255-.893 2.501-1.8 3.85-2.63-1.032 1.837-1.892 3.802-3.138 5.48-1.709 2.303-2.031 4.716-1.409 7.391.105.451.122.924.2 1.555l-3.357-2.109c-.336-.238-.691-.452-1.002-.718-.449-.384-.911-.371-1.452-.223-3.686 1.009-7.378 1.997-11.068 2.991zm-.685 26.098c-.173.207-.304.465-.582.564l-5.729-3.164-.879.625c.375.016.672.23.983.4 1.712.935 3.422 1.875 5.132 2.813-.696 1.532-1.724 2.866-2.568 4.311-.458.785-.953 1.548-1.428 2.322-.152.247-.295.477-.645.27-2.398-1.418-4.635-3.003-5.826-5.657-.552-1.228-.526-1.281.613-2.026 1.244-.815 2.494-1.622 3.741-2.432l.878-.625c1.201-1.655 2.662-3.083 4.005-4.614 2.623-2.989 5.284-5.946 7.94-8.907.205-.229.336-.6.756-.553.314.667.635 1.331.94 2.002.576 1.269 1.351 2.444 1.775 3.784l.213-.19-.214.19c-3.033 3.63-6.066 7.261-9.103 10.888zm17.043-20.265c-2.386 2.809-4.784 5.608-7.182 8.407l-.148.049-2.8-5.521c.236-.714.868-1.117 1.327-1.649 1.493-1.731 3.025-3.428 4.547-5.133.158-.177.293-.419.597-.379l4.061 3.48c.127.386-.223.534-.401.745zm2.822-1.345c-.756.858-.756.858-1.624.201-1.508-1.426-3.093-2.762-4.709-4.062.041.155.02.302-.017.445.037-.144.058-.29.017-.446-.862-.754-.867-.759-.075-1.555.159-.16.262-.432.57-.377 1.214.81 2.427 1.623 3.642 2.431.211.14.439.266.685.086s.168-.451.14-.69c-.188-1.587-.338-3.181-.598-4.756-.16-.964.102-1.746.704-2.438l4.21-4.78c.295-.339.438-.371.698.037 1.333 2.094 2.679 4.179 4.052 6.245.269.404.143.617-.136.909-1.979 2.075-3.78 4.304-5.593 6.522l-1.967 2.226zm6.062-5.799c.181-.227.35-.18.577-.103 1.878.634 3.757 1.266 5.643 1.876.399.129.471.376.479.741.032 1.515.06 3.031.144 4.543.028.52-.141.738-.629.853-2.103.498-4.224.76-6.387.564l-1.401-.115c-.25-1.564-.87-2.974-1.764-4.272.964-1.483 2.24-2.713 3.338-4.087zm10.398 12.788c-4.175 1.382-8.406 1.382-12.669.482l-.263-.119c.453-.934.939-1.857.946-2.928l.002-.212c.044-.801.601-.798 1.329-.72 2.272.243 4.523.018 6.723-.578.549-.148.844-.019 1.202.359 1.063 1.12 2.166 2.204 3.254 3.301.01.368-.322.349-.525.416zm12.312-10.038c-2.799 4.033-6.194 7.389-10.731 9.445l-.164.009c-1.113-1.151-2.223-2.304-3.341-3.45-.278-.285-.413-.479.105-.666 4.683-1.704 8.319-4.793 11.378-8.64.987.837 1.84 1.81 2.741 2.733.204.208.156.361.012.569z"/></svg>