<svg xmlns="http://www.w3.org/2000/svg" height="90" width="90"><path clip-rule="evenodd" d="M77.268 59.059c-.379-.538-1.031-.653-1.538-.992-.327-.12-.669-.21-.938-.451-.924-.341-1.815-.752-2.67-1.244-.578-.253-1.145-.541-1.739-.748-.45-.156-.521-.418-.403-.815l.145-.933c-.014-.327-.046-.656.078-.972.007-.259-.002-.52.023-.777.146-1.481-.616-2.389-1.87-2.99l-.925-.579-12.489-7.689-1.622-1.042c-2.529-1.538-5.06-3.075-7.587-4.618-.441-.27-.865-.568-1.297-.853-.676-.28-1.237-.748-1.849-1.133l-5.158-3.168c-1.551-.945-3.103-1.888-4.652-2.836-.266-.162-.509-.364-.824-.429-1.266-.109-2.114.764-3.098 1.317l-.976.737c-.932.89-.898.828-2.019.22-2.433-1.32-4.41-3.198-6.349-5.112-.91-.898-1.87-1.002-2.987-.644-1.109.355-1.963 1.044-2.587 2.019-.906 1.413-1.293 2.992-1.43 4.64-.063.759.309 1.295.989 1.614.845.397 1.704.765 2.541 1.177 2.023.994 4.178 1.72 6.056 3.004.393.186.787.37 1.066.725-.126.862-.229 1.727-.384 2.583-.233 1.285.05 2.298 1.348 2.856.18.078.324.24.485.364 1.841.969 3.563 2.136 5.334 3.222 3.436 2.107 6.857 4.238 10.284 6.36l1.135.715 13.74 8.475c.946.535 1.887 1.079 2.761 1.729.793.385 1.547.835 2.245 1.376.439.227.895.385 1.397.361.957-.201 1.763-.76 2.653-1.119l.939-.625.785-.6c.344-.011.565.203.78.427 1.411 1.068 2.662 2.318 3.938 3.535.746.713 1.578.864 2.51.65 1.127-.258 2.055-.86 2.746-1.798.803-1.091 1.209-2.341 1.469-3.655.153-.77.329-1.53-.056-2.283zm-55.319-25.838l-.808-.346c-2.033-.929-4.067-1.858-6.101-2.784-.268-.122-.525-.229-.454-.612.254-1.375.624-2.698 1.729-3.663.912-.797 1.394-.791 2.239.045 1.015 1.005 2.164 1.87 3.096 2.962.219.086.416.204.594.352-.178-.148-.375-.266-.594-.352l-.509 4.052.808.346.466-3.889c1.677.884 3.211 2.003 4.835 2.974l.564.407c.465.319 1.136.434 1.021 1.265-.088.633-.207 1.228-.661 1.706-.642.677-1.087.728-1.881.234-.197-.123-.408-.223-.612-.334l-3.732-2.362zm3.458 3.144c.411.044.686.353 1.025.536.28.151.549.288.882.237 1.084-.163 1.978-1.113 2.259-2.411.306-1.412.122-1.841-1.123-2.603l-.537-.314c.956-1.222 2.086-2.222 3.557-2.788 1.042 2.157 1.011 4.26-.337 6.284-.504.756-1.007 1.518-1.574 2.226-1.211 1.514-2.661 2.573-4.755 2.232.057-1.159.28-2.287.604-3.399zm1.502 4.857l-.603-.357c.02-.138.083-.218.232-.265 3.596-1.153 5.1-4.146 6.345-7.322.472-1.206.036-2.454-.174-3.673-.351-.192-.653-.488-1.059-.565.406.077.708.373 1.06.565 3.32 2.045 6.642 4.087 9.959 6.138.194.12.348.303.521.457.237.042.444.138.639.257-.194-.119-.401-.215-.639-.257 1.149 1.968 2.293 3.939 3.451 5.902.169.287.228.521.089.856-1.147 2.778-2.27 5.565-3.401 8.35l.279.139-.279-.139c-5.472-3.362-10.945-6.724-16.418-10.086zm34.947 21.056c-.31.136-.563.175-.869-.015-5.54-3.438-11.085-6.867-16.627-10.303-.127-.078-.225-.203-.336-.307 1.035-2.523 2.07-5.047 3.109-7.569.074-.18.07-.463.325-.468.193-.003.244.241.334.394 1.168 1.968 2.353 3.925 3.489 5.911.277.485.645.791 1.114 1.035 4.223 2.194 8.444 4.392 12.665 6.59.437.228 1.08.366 1.249.724.2.424-.488.758-.675 1.201l-.073.137c-1.06 1.133-2.277 2.044-3.706 2.67zm4.466-2.45c.567-.698 1.14-1.392 1.504-2.249.073 1.073-.072 2.106-.245 3.138-.442-.264-.958-.425-1.258-.889zm9.088.741c-.294 1.384-.652 2.733-1.826 3.68-.889.718-1.212.715-2.038-.05-1.064-.986-2.123-1.977-3.184-2.967.106-1.343.358-2.672.364-4.024l-1.285-.851c-.594 1.204-.596 1.207-1.796.58-4.286-2.238-8.57-4.481-12.858-6.715-.384-.2-.657-.475-.877-.85-1.476-2.509-2.988-4.997-4.447-7.516-.923-1.594-1.989-3.107-2.743-4.796l.001.001c4.189 2.566 8.382 5.133 12.573 7.704 3.349 2.054 6.685 4.128 10.049 6.156.634.382.919.804.857 1.557-.11 1.326-.247 2.637-.76 3.879l1.285.852c.546-.007.965.333 1.427.543 1.606.725 3.201 1.475 4.802 2.212.265.122.535.224.454.606z"/></svg>