<svg xmlns="http://www.w3.org/2000/svg" enable-background="new 0 0 300 300" height="90" width="90"><g clip-rule="evenodd"><path d="M77.704 26.608l-5.727-3.31-1.076-.656c-6.181-3.453-12.615-6.408-18.892-9.672l-1.823-.954c-.302-.064-.57-.196-.808-.392-1.038-.424-2.035-.93-2.986-1.524-1.34-.345-2.215.217-2.766 1.415-.175.479-.395.934-.708 1.341-2.249 4.468-4.618 8.873-7.015 13.263-.248.558-.449 1.14-.866 1.607-.432 1.041-.965 2.031-1.567 2.984l-.54 1.043-6.474 12.248c-.96 2.316-2.076 4.56-3.161 6.819-.443.826-.541 1.644.084 2.429.202.253.137.476-.006.716l-4.064 6.871-.905 1.539-.214.469c-1.493 2.692-3.77 4.749-5.728 7.064-.413.638-1.094 1.103-1.239 1.915.159 1.082.412 2.137.889 3.13.748 1.094 1.633 2.049 2.771 2.748 1.641.817 3.386 1.281 5.189 1.584 1.854.312 2.58-.048 3.331-1.764l.24-.45c.294-.842.599-1.68 1.056-2.453.341-.96.715-1.906 1.211-2.8.289-.986.744-1.9 1.214-2.808.065-.315.155-.617.378-.863.202-.885.67-1.631 1.216-2.337-.029-.197.101-.324.204-.463l.531-1.046 2.753-4.919c.108-.358.312-.253.521-.106l.909.642c2.137 1.28 4.261 2.581 6.3 4.013.32.131.619.295.864.546.402.142.754.364 1.059.662 1.089.574 2.125 1.234 3.116 1.963l.553.339 2.266 1.418 1.592 1.037c.479.197.904.42.52 1.045.038.66-.203 1.26-.419 1.86-.357.991-.578 2.008-.658 3.057l.323 1.552.371.555c2.754 2.653 4.843 2.676 7.507.282.215-.445.538-.841.603-1.353.195-.658.136-1.331.12-2.001l-.911-3.039-.328-.702c-.474-.562-.323-1.047.182-1.488.528-.971 1.545-1.555 2.021-2.565 1.979-2.787 3.957-5.574 5.935-8.361l.647-.923 1.22-2.083c1.829-3.404 3.797-6.733 5.518-10.196.134-.434.312-.845.596-1.205l2.349-5.261.468-1.025c.047-.164.082-.334.144-.493 1.092-2.797 2.185-5.593 3.023-8.483.349-1.201.133-1.857-.915-2.463zm-16.282-6.248c.309.156.64.274.86.563.199.909.867 1.568 1.274 2.368.715 1.409.581 2.683-.428 3.886-.525.627-1.089 1.21-1.699 1.756-.957.857-1.872 1.76-2.466 2.921-.523 1.022-1.737 1.199-2.546.363-.48-.496-1.008-.913-1.767-.637-.732.266-1.39 1.705-1.169 2.527.197.731.918 1.104 1.907.986.649-.078 1.017-.489 1.291-1.044.359-.726 1.032-.249 1.551-.365.418-.093.514.207.621.547.345 1.089.885 2.091 1.526 3.031.296.435.335.785.082 1.266-1.288 2.446-2.563 4.9-3.787 7.379-.302.612-.707.81-1.334.899-1.525.218-3.067.406-4.55.801-1.755.467-2.165 1.289-1.87 3.058.135.809.319 1.617.266 2.665l-1.584-2.427-.189-.294c-.128-.182-.118-.37-.08-.582.315-1.75-.088-2.399-1.772-2.879-.917-.261-1.356-1.137-.992-1.98 3.82-8.84 7.639-17.68 11.462-26.518.123-.284.163-.635.52-.764 1.624.824 3.248 1.649 4.874 2.472zm-6.35 13.816c-.311.032-.693-.07-.66-.39.051-.493.18-1.026.698-1.322.403.118.728.408.757.761.04.484-.229.893-.795.951zm6.261 4.826c2.522 4.152.017 6.656-3.779 7.303l1.892-3.654 1.887-3.649zm-15.906 12.038c-1.551.96-2.629.616-3.098-1-.396-1.363.253-2.055 1.915-2.036l.437.002c.783.061 1.642.202 1.791 1.081.135.793-.312 1.501-1.045 1.953zm-13.056-13.081c4.319-8.2 8.669-16.383 12.976-24.588.373-.71.703-.872 1.362-.414.585.407 1.362.498 1.829 1.104-.315.76-.411 1.576-.541 2.374-.183 1.125-.305 2.169-1.884 2.035-.544-.046-.945.441-1.082.989-.139.559.082 1.008.529 1.384.555.467 1.232.658 1.889.874.846.277 1.5-.001 1.858-.696.457-.884.347-1.601-.321-2.199-.159-.142-.489-.184-.4-.498.368-1.304.371-2.698.967-3.945 1.752.878 3.504 1.752 5.252 2.637.272.138.624.184.734.546-.133.258-.28.509-.395.775-2.163 4.994-4.323 9.988-6.481 14.984l-4.946 11.464c-.136.316-.238.661-.728.581-.631-.101-1.27-.156-1.906-.219-3.938-.387-7.876-.771-11.814-1.156.892-2.084 2.05-4.031 3.104-6.031zm16.18-17.685c-.121.39-.32.673-.724.57-.473-.121-.928-.334-1.364-.559-.216-.111-.515-.276-.451-.578.072-.339.389-.391.699-.382l.437.001c.38-.011.75-.008 1.107.169.361.179.412.405.296.779zm-18.104 37.262c-1.515 2.684-2.906 5.439-4.532 8.061l-.366.981c-1.397 3.255-2.795 6.51-4.19 9.766-.14.326-.242.637-.723.572-2.015-.272-3.94-.76-5.493-2.182-.233-.214-.437-.468-.622-.726-.977-1.366-.976-1.713.094-2.966 1.379-1.614 2.783-3.206 4.173-4.809.133-.153.238-.337.48-.322v-.001c.258.182.558.109.84.137 1.813.18 3.627.355 5.44.531l.366-.981c-.98-.088-1.967-.128-2.937-.278-1.079-.166-2.207.02-3.244-.44 2.07-3.531 4.14-7.064 6.215-10.593.143-.244.219-.547.512-.682 1.473.982 2.938 1.976 4.488 2.835-.011.436-.305.748-.501 1.096zm1.136-1.687c-1.576-1.152-3.238-2.17-4.912-3.169-1.178-.9-1.177-.9-.536-2.263.738-1.569 1.468-3.142 2.217-4.707.146-.303.196-.678.542-.86 1.571.325 3.174.372 4.763.54 3.095.327 6.194.61 9.292.91.375.036.681.16.763.635-.918.124-1.832.344-2.209 1.303-.516 1.313-.174 2.521.68 3.591.751.942 1.737.776 2.725.504.482-.132.958-.316 1.301-.684.403-.433.609-.221.847.153.609.959 1.23 1.911 1.853 2.861.865 1.316.304 2.971-1.195 3.424-.697.21-1.415.274-2.157.188-1.589-.184-3.189-.277-4.775-.478-1.498-.19-2.35.572-2.949 1.801-1.272-.517-2.325-1.405-3.498-2.089-.926-.539-1.835-1.106-2.752-1.661zm23.004 21.314c-.821.481-1.649.432-2.464-.112-.747-.498-.893-1.232-.748-1.992.206-1.08.562-2.131.826-3.203.097-.391.123-.802.162-1.206.11-1.133-.235-1.92-1.308-2.573-3.954-2.405-7.834-4.931-11.741-7.413-.265-.169-.575-.282-.75-.572.638-.995 1.371-1.496 2.722-1.307 1.741.243 3.506.498 5.285.458.502-.011 1.022-.024 1.446-.246.652-.342 1.269-.266 1.93-.121 1.721.376 3.447.729 5.269 1.111-1.569 2.557-.504 4.994.138 7.444-.295.396-.605.783-.884 1.191-.77 1.123-.956 2.253-.191 3.498.565.919.856 1.974 1.032 3.041.129.785.036 1.555-.727 2.002zm2.155-11.471c-.19.259-.277.663-.71.684-.155-1.198-.829-2.279-.719-3.55.072-.836.232-1.64.76-2.268 1.525-1.812 3.463-2.761 5.879-2.583.126.009.212.075.249.199-1.817 2.508-3.629 5.019-5.458 7.517zm6.341-8.821c-.054.095-.158.16-.239.238-1.624-.41-3.16-.114-4.645.581-.21.098-.443.187-.605.343-1.138 1.091-2.416 1.107-3.848.676-1.135-.342-2.328-.493-3.494-.738-.246-.052-.543-.072-.356-.487.924-2.045.261-4.125.109-6.192l-.098-.602c-.176-1.535.215-2.042 1.769-2.328 2.312-.425 4.67-.608 6.942-1.242 1.413-.394 2.758-.963 3.73-2.129.338-.406.563-.097.808.04 1.648.928 3.288 1.871 4.93 2.808-1.575 3.061-3.311 6.033-5.004 9.029zm13.088-27.631c-1.989 5.961-4.468 11.711-7.337 17.297-.094.183-.163.375-.379.449-1.609-.934-3.219-1.868-4.827-2.803-.266-.155-.586-.239-.461-.7.542-1.997-.289-3.702-1.211-5.373-.603-1.094-1.26-2.16-1.856-3.258-.755-1.389-.604-2.679.532-3.813.947-.944 1.934-1.85 2.849-2.824 1.826-1.945 1.977-3.794.558-6.001-.124-.191-.211-.406-.316-.609 1.839.801 3.526 1.889 5.285 2.84 2.249 1.216 4.458 2.508 6.702 3.733.483.263.662.465.463 1.061z"/><path d="M70.657 65.392c-.791.969-1.473 2.011-1.727 3.272l-.035.893.046.326c.486 1.931 1.89 2.759 3.709 3.088 2.063.323 3.57-.375 4.368-2.376l.082-.356.097-.178c.234-1.236.358-2.464-.168-3.668-1.252-2.862-4.436-3.374-6.372-1zm4.294 3.517c-.09.64-.174 1.352-.851 1.609-.764.289-1.544.019-2.263-.297-.294-.129-.448-.455-.526-.773-.223-.918 1.115-2.816 2.05-2.922 1.031-.117 1.632.574 1.619 1.985l-.03.398z"/><path d="M70.25 30.565c-.872-.697-1.87-1.151-2.984-1.333-.382-.062-.688-.014-.895.347-.522.908-1 1.843-1.206 2.875-.346 1.733.177 2.448 1.74 2.46 1.615.013 3.134-.875 3.651-2.198.294-.751.439-1.555-.305-2.151zm-.511 1.511c-.326 1.035-1.509 1.913-2.647 1.926-.921.011-1.139-.228-.999-1.142.048-.312.133-.625.251-.918.243-.606.337-1.56.928-1.654.792-.127 1.575.449 2.263.94.305.218.314.499.204.848z"/></g></svg>