<svg xmlns="http://www.w3.org/2000/svg" height="90" width="90"><g clip-rule="evenodd" transform="matrix(.295 0 0 .295 .441 .989)"><polygon points="213.32,191.81,213.33,191.8,213.32,191.8"/><path d="M240.96 31.051c-1.042.169-2.044.066-2.992-.423-4.605-.575-7.325 1.541-9.366 5.637-2.9 5.825-6.409 11.343-9.553 17.051-.887 1.611-1.733 2.062-3.661 1.616-10.151-2.352-20.394-4.221-30.712-5.744-4.287-.632-8.731-.461-12.867-2.075-.685.853-1.605.447-2.418.393-5.084-.337-10.164-.718-15.245-1.085l-5.87.002-3.5.026c-6.078.311-12.156.623-18.232.935-14.839 2.099-29.257 5.625-42.625 12.672-1.223.661-2.321 1.586-3.765 1.784-1.331 1.639-3.37 2.283-4.96 3.553-2.273 1.809-5.297 2.95-6.547 5.71-4.394 9.705-7.851 19.758-9.954 30.217-1.068 5.313-1.72 10.709-2.559 16.067-.618 9.177-.844 18.362-.632 27.558l.24 6.51c.368.725.395 1.494.29 2.277.44 3.853.893 7.7 1.314 11.555.202 1.848.481 3.726-1.698 4.769-1.934.923-3.739.86-5.45-.481-1.798-1.41-2.954-3.118-2.292-5.521.281-1.021.825-1.968 1.125-2.983.647-2.189.119-4.215-1.039-6.114-4.244-3.446-6.254-3.128-11.66 1.853-.143.71-.449 1.311-1.134 1.65-3.941 6.855-4.923 13.985-1.32 21.214 1.177 2.361 1.072 3.666-1.045 5.229-2.278 1.681-3.303 4.094-2.424 6.986.816 2.689 2.76 4.022 5.432 4.731 8.569 2.268 17.101 4.67 25.649 7.02l2.995.805c2.431 1.877 2.678 4.158.611 5.639-1.051.727-1.991 1.644-3.288 1.965-5.741 4.631-12.018 8.505-18.141 12.582-2.871 1.912-4.836 4.123-5.079 7.638-.248 4.402.561 8.645 1.923 12.804 2.477 5.076 6.087 9.234 10.377 12.841 4.647 3.034 9.431 5.835 14.418 8.277 3.673 1.053 7.395 3.137 10.869-.47l4.099-7.632c1.945-4.606 3.884-9.216 6.386-13.559 1.288-2.959 2.266-6.063 4.159-8.731.753-2.545 2.083-4.815 3.375-7.103.241-1.046.546-2.061 1.332-2.854l.765-2.327-.367-4.072c-1.096-1.83-1.616-3.868-2.137-5.907-.204-.645-1.289-1.771.619-1.347 1.391.309 2.729.844 4.091 1.28 1.295.03 2.508.366 3.633 1.008 6.708 2.086 13.41 4.19 20.126 6.244 2.419.738 4.718 1.891 7.275 2.167 1.07-.18 1.966.402 2.934.671 1.47.305 3.081.257 4.146 1.608l1.703.1c.192-.018.376.012.552.085 3.142.667 6.073 1.904 8.933 3.33 2.691 1.026 5.38 2.052 8.072 3.076.735-.088 1.222.415 1.781.749 1.962.83 4.099 1.266 5.846 2.584 4.104.891 7.806 2.876 11.727 4.27 1.365.484 2.763.88 4.144 1.314 1.831.011 3.234-1.009 4.666-1.947l4.829-6.406 2.186-3.531c.534-1.229 1.146-2.433 1.59-3.692.706-2.008 1.472-3.023 2.94-.519.239.411.605.751.912 1.123 4.12 3.508 8.819 6.035 14.132 6.846 2.847.437 5.881-.31 8.825-.561.861-.073 1.712-.28 2.567-.426 1.087-.843 2.342-1.291 3.666-1.58 15.068-7.993 18.123-24.718 10.564-37.596-2.109-2.387-3.81-5.168-6.647-6.845l-4.278.039c-2.712 1.196-3.904 3.443-4.303 6.235.597 1.963 1.193 3.927 1.793 5.891.793 1.327.644 2.685.131 4.053-1.49 5.995-6.921 8.563-12.471 5.897-2.668-1.09-4.332-3.015-4.871-5.871-.859-2.101-.43-4.13.417-6.1.663-1.543 1.505-2.882 3.593-2.529 1.446.243 2.406-1.077 3.712-1.353 2.434-2.987 2.404-6.075.373-9.245l-.363-.681-3.377-4.188c-13.037-11.964-32.923-9.466-41.283 5.148-2.039 3.561-2.834 7.451-3.256 11.421-.187 1.742-.539 2.241-2.427 2.022-8.271-.952-16.028-3.972-24.084-5.778-3.221-.72-6.369-1.763-9.583-2.531-1.481-.354-2.501-.981-2.763-2.551-1.242-1.824-2.208-3.787-2.965-5.855l-.602-.955c-5.98-3.494-12.743-4.676-19.302-6.406-4.787-1.266-9.642-2.511-14.62-2.604-3.042-.056-3.975-1.352-4.036-4.17-.248-11.24.511-22.394 2.578-33.446 1.109-5.926 2.294-11.841 4.354-17.535.001-1.274.497-2.406 1.013-3.532 1.26-5.308 3.465-10.281 5.447-15.332.462-1.174 1.462-1.78 2.444-2.408 7.988-5.106 16.545-8.93 25.719-11.349 3.795-1.238 7.672-2.119 11.624-2.66 1.137-.68 2.406-.372 3.62-.485 5.379-1.156 10.817-1.819 16.323-1.875.958-.723 2.018-.372 3.053-.289l2.301-.053.624.014 2.284.048c11.588-.447 23.128.159 34.633 1.576 1.226-.015 2.457-.068 3.594.535 8.073.615 16.063 1.812 23.98 3.502 2.231-.05 4.331.582 6.425 1.245 5.094 1.468 9.352-.139 13.643-2.991 6.813-4.53 13.945-8.582 20.941-12.836 1.145-1.192 1.603-2.753 2.263-4.206-2.199-16.465-11.47-29.749-30.937-32.302zm-200.9 136.46c.917 3.663 2.816 6.271 5.495 8.359 2.778 2.163 5.94 2.741 9.346 2.481 4.671-.357 9.456-4.452 10.845-9.294l.873-1.474c1.604 10.809-7.981 20.109-19.634 15.268-6.234-4.476-8.53-9.341-6.925-15.34zm48.024 55.373c-5.52 11.729-11.045 23.458-16.551 35.195-.445.947-.763 1.729-2.107 1.143-7.313-3.197-14.239-6.925-18.998-13.655-2.427-3.433-3.693-7.269-3.748-11.496-.013-1.124.122-2.026 1.194-2.752 8.498-5.726 16.96-11.505 25.427-17.275.507-.347 1.016-.578 1.635-.366l.713-2.563c-.904-3.038-1.809-6.075-2.714-9.111 3.415-.137 6.433 1.498 9.667 2.171 1.512 4.636 3.024 9.27 4.537 13.905-4.191-1.725-7.517-4.879-11.49-6.965l-.712 2.563c.915.683 1.82 1.378 2.743 2.049 3.408 2.471 7.267 4.287 10.404 7.157.2-.455.252-.881.216-1.291.036.41-.016.836-.216 1.291zm101.06-24.54c-.34-3.847.788-6.017 4.14-7.897-1.365 2.616-2.891 5.153-4.14 7.897zm24.392 18.121c9.817.066 15.523-5.268 17.673-16.521 3.046 7.678.528 16.111-6.353 21.286-6.253 4.702-15.1 4.689-21.275-.029-6.914-5.282-9.391-13.659-6.292-21.277 1.829 10.231 7.97 16.483 16.247 16.541zm-33.72-34.557c6.789-5.189 15.796-5.595 21.214-.955-11.865.479-17.34 4.145-19.482 13.043-1.923 7.986 1.592 14.834 10.786 20.038h-4.721c.002.703-.163 1.359-.443 1.98.28-.621.444-1.277.441-1.98-5.866-1.585-10.079-5.209-12.945-10.494-3.382-7.403-1.137-16.827 5.15-21.632zm-7.627 22.942c3.003 6.273 7.547 10.627 14.663 11.775-.457 6.069-4.083 10.587-7.465 15.22-.465.634-1.055.21-1.588-.004-10.4-4.167-20.804-8.333-31.207-12.5l12.291-15.113c4.464-.389 8.885.132 13.306.622zm-35.29-6.553c6.321 1.707 12.821 2.789 18.937 5.243l-12.276 14.659c-6.875-1.724-13.728-3.517-20.421-5.869 1.385-5.365 3.262-10.604 4.216-16.085 3.358-.152 6.41 1.206 9.544 2.052zm-11.388-2.941l-.843.017.843-.017zm-1.257-.003c-.729 5.627-2.706 10.931-4.207 16.358l-6.285-1.729c.368-5.354 2.366-10.34 3.517-15.518.238-1.058 1.055-.981 1.843-.858.95.145 1.892.341 2.837.515.634.653 1.148 1.531 2.295 1.232zm-11.422-12.744c4.48 1.242 6.137 4.132 7.17 8.012-4.321-1.549-4.696-1.357-5.738 2.903-1.194 4.879-2.388 9.757-3.581 14.636-8.05-1.577-15.855-4.104-23.813-6.046-1.211-.297-2.438-.537-3.657-.804-3.654-1.202-7.327-2.339-11.131-2.978l.283 1.223-.284-1.223c-8.379-2.867-17.066-4.636-25.566-7.072-2.147-.614-4.31-1.175-6.706-1.825 1.453-2.038 3.529-2.931 5.279-4.213.54-.376 1.158-.69 1.539-1.197-.38.507-.999.821-1.539 1.197 1.012.33 2.03.647 3.038.989 6.259 2.122 14.348.32 17.287-4.871 2.317-4.09 5.431-4.665 9.324-4.636 1.261.011 2.525-.103 3.788-.158 11.778.108 23.042 2.945 34.307 6.063zm-26.867-75.55c-6.851 20.56-9.607 41.684-8.505 63.318.054 1.066.23 2.126.35 3.189-1.845.109-3.745-.018-5.524.387-2.315.521-2.703-.349-2.514-2.378.485-5.269-1.031-9.805-5.219-13.26-3.178-27.926-.808-55.176 9.907-81.412.252-.533.476-1.095.816-1.542-.34.447-.564 1.01-.816 1.543.874-.028 1.372.613 1.963 1.098 5.143 4.202 10.292 8.4 15.438 12.601-1.972 5.483-4.054 10.93-5.896 16.456zm176.55-44.291c-6.991 4.275-13.963 8.586-20.924 12.909-.91.564-1.744.492-2.765.289-12.415-2.467-24.909-4.555-37.482-5.897-16.308-1.74-32.688-1.972-49.076-.848-13.611.934-26.768 3.823-39.434 8.888-6.176 2.471-12.006 5.62-17.506 9.366-.626.426-1.116 1.15-2.037.938-5.243-4.956-10.911-9.387-16.503-13.911 2.533-3.401 6.393-4.968 9.922-6.873 11.968-6.461 24.858-9.983 38.301-11.865 13.035-1.825 26.123-1.536 39.145-.868 18.1.928 35.951 4.093 53.558 8.424 3.007.74 4.479.164 5.949-2.617 3.549-6.725 7.557-13.207 11.265-19.852.949-1.705 2.09-2.209 3.994-2.122 11.831.543 22.227 9.524 24.696 21.398.265 1.27-.044 1.983-1.117 2.641z"/><path d="M147.18 116.38c2.214-.975 4.599-.812 6.448 1.164 1.359 1.452 2.975 2.105 4.973 1.838 5.091-.678 7.343-5.625 4.561-10.38-3.462-5.917-8.981-8.929-15.454-10.47l-.621-.047h-4.633l-3.607.587-5.728 2.548-4.574 3.496c-4.284 5.537-6.582 11.707-5.1 18.718 1.834 8.679 6.846 14.755 15.511 17.484 2.525.08 5.052.159 7.578.238 2.929-.124 5.42-1.657 8.118-2.511 1.32-.829 2.783-1.471 3.643-2.878l.956-3.442c-1.311-5.051-2.647-6.086-8.1-6.256-.875-.028-1.755.043-2.625-.024-2.753-.215-4.445-2.063-4.403-4.8.037-2.317.982-4.351 3.057-5.265zm-4.681 16.594c-3.678.811-8.88-3.541-10.698-8.291-1.967-5.134-.465-11.474 3.697-14.949 4.938-4.124 10.605-4.708 15.642-1.614-6.667-.297-11.61 2.596-13.779 8.062-2.49 6.275-.908 11.441 5.138 16.792z"/></g></svg>