<svg xmlns="http://www.w3.org/2000/svg" height="90" width="90"><path clip-rule="evenodd" d="M76.099 18.124c-.177-.545-.59-.867-1.067-1.133l-2.37-.704-1.177-.11c-1.658-.131-3.322-.337-4.967-.134-3.455.424-5.803 2.394-7.27 5.497-.134.298-.123.763-.613.81l-.536.351c-.783.579-1.565 1.159-2.344 1.739.151-1.559.513-3.014.997-4.437.124-1.948-.655-2.681-2.511-2.362l-.707.502c-.984.837-1.978 1.667-2.959 2.513-.303.26-.425.129-.504-.18l-.243-.894c-.377-1.333-.903-1.711-2.26-1.539-.354.043-.513-.06-.658-.337-.422-.762-.864-1.515-1.3-2.271l-.511-.844c-.676-1.085-1.369-2.162-1.916-3.322-.322-.362-.562-.795-.995-1.047l-.316-.091-.229-.091c-.924-.009-1.851-.072-2.778-.017-2.9.172-5.348 1.357-7.353 3.459-.568.592-.753 1.252-.566 2.08.401 1.749.72 3.514 1.071 5.273l.208 1.004c.312.536.217.876-.435 1.02-.709.16-1.4.362-2.108.547l-1.886.603c-.83.254-1.664.504-2.504.755l-1.201.335c-2.311.959-4.715 1.506-7.221 1.461-1.467-.023-2.223.695-2.685 1.965-.321.905-.364 1.815-.183 2.746.296 1.504 1.097 2.759 1.94 3.997.505.518 1.115.772 1.843.72 1.744-.828 3.493-1.658 5.242-2.479.271-.128.565-.225.853-.338l1.737-.608c.897-.302 1.809-.564 2.693-.911.592-.238 1.011-.132 1.357.383 2.049 1.526 4.089 3.05 6.199 4.624l-6.607 5.421c-.322.267-.614.573-.919.864-.437 1.892.655 2.953 2.537 2.462 1.459-.388 2.919-.777 4.559-1.21-1.31 1.952-2.309 3.909-3.692 5.61-.988 1.224-2.321 1.834-3.903 1.886-.467.289-.779.708-1.02 1.19l-.061.639c.045.659.472 1.127.793 1.641.56.877 1.132 1.744 1.73 2.59.263.383.267.685-.001 1.058-.481.658-.922 1.338-1.379 2.011-.198.379-.366.779-.752 1.019-.206.26-.146.673-.5.845-.71 1.232-1.495 2.423-2.343 3.57-.172.381-.386.73-.696 1.018-.116.314-.31.583-.537.824-.435 1.161-1.397 1.826-2.339 2.515l-1.543 1.126c-.633.571-.943 1.25-.729 2.109.419 1.075 1.019 2.03 1.837 2.85l1.592 1.367 3.727 1.668c1.414.49 2.14.36 3.026-.801.264-.87.503-1.747.938-2.55.275-.742.353-1.567.887-2.203.865-1.511 1.726-3.023 2.726-4.445.123-.297.244-.595.515-.796.948-1.748 1.989-3.442 3.124-5.076.298-.967.958-.386 1.487-.35l1.31.081c.803.136 1.635-.012 2.424.248 1.946-.03 2.602-.762 2.306-2.691-.305-2.065.074-3.939 1.201-5.724 2.018-3.222 3.96-6.493 5.912-9.752.305-.506.465-.877 1.256-.503 1.156.553 2.365-.391 2.352-1.685-.004-.42-.025-.861-.142-1.258-.498-1.706.208-2.981 1.505-4.231-.209 1.502-.358 2.88-.593 4.239-.205 1.243-.214 2.527-.729 3.721-.422.989-1.04 1.78-1.953 2.356-1.344.838-1.335 2.357.009 3.213 1.093.696 2.194 1.384 3.317 2.04.39.232.538.494.451.955-.255 1.467-.484 2.945-.722 4.415-.104.626-.212 1.247-.322 1.871-.201 1.312-.411 2.625-.609 3.94.003 1.63-.684 3.017-1.512 4.366-.325.549-.61 1.131-.915 1.695l-.014.845c.083.386.299.703.538 1.007 1.069.98 2.258 1.763 3.713 2.063 1.78.466 3.609.28 5.424.34 1.172-.01 1.827-.671 2.173-1.728l.007-.287c-.159-.22-.154-.464-.111-.716-.036-.511-.071-1.022-.115-1.534-.111-1.18-.415-2.356-.072-3.544.179-1.708.335-3.418.642-5.111l.041-.486.044-.35c-.043-.134-.017-.257.075-.365l.092-.958c.038-.348.083-.694.135-1.039l.328-2.706c-.023-.463.013-.873.64-.847 1.329-.547 2.681-1.013 4.072-1.369l.841-.349.199-.16c.879-1.117.898-1.572.14-2.794-.844-1.376-1.498-2.817-1.445-4.484-.048-.914.085-1.81.277-2.701.063-1.534.35-3.044.554-4.562.046-.28.092-.559.129-.84.02-.808.102-1.613.314-2.398l.038-.329c.35-2.927.69-5.852 1.038-8.779.306-2.556 1.25-4.82 3.079-6.674.222-.226.384-.48.467-.787l-.007-1.039zm-15.63 7.394c.186-1.764.838-3.328 1.937-4.687 1.411-1.739 3.218-2.669 5.522-2.543 1.122.061 2.253-.02 3.367.204-.824.405-1.723.667-2.509 1.171-1.603 1.039-2.929 2.309-3.337 4.274-.441 2.18-.841 4.369-1.267 6.553-.263 1.357-.549 2.712-.838 4.153l-3.663-2.679c.272-2.146.564-4.292.788-6.446zm-4.541 5.372c.646.195 1.187.599 1.735.969h-2.067c-.105-.451.315-.633.332-.969zm-22.258-16.364c2.05-1.826 4.473-2.381 7.136-2.159.275.024.396.179.517.374l4.392 7.502c.071.116.079.269.107.407.422.268.846.177 1.271.01.365-.334.61-.34.741.216.112.464.259.915.406 1.369.172.546-.031.811-.6.809l-.547-2.393c-.425.167-.849.258-1.272-.009-2.995 1.554-6.003 3.11-9.002 4.658-1.267.653-1.268.64-1.612-.79l-.143-.483v-.001c-.575-2.805-1.125-5.616-1.737-8.413-.103-.497-.011-.786.341-1.097zm13.783 11.075c.411 1.602.808 3.204 1.235 4.804.094.335.241.688-.015.962-.649.669-1.24 1.38-2.019 1.909-1.747 1.178-3.692 1.442-5.735 1.268-.41-.034-.917-.008-1.175-.489-1.216-2.218-2.438-4.436-3.664-6.651-.194-.342-.138-.553.22-.738 3.155-1.627 6.306-3.255 9.458-4.899.374-.199.544-.109.668.273.174.5.18 1.053.486 1.507.001.73.298 1.386.542 2.054zm-13.723 1.395c.061-.811.134-1.617.204-2.425l.283-.028c.164.677.324 1.358.485 2.038.116.505-.291.917-.792.853-.357-.041-.193-.276-.18-.438zm-15.857 6.384c-.172.09-.299.092-.421-.099-.71-1.11-1.269-2.26-1.098-3.628.062-.506.292-.791.864-.796 1.037-.013 2.072-.096 3.109-.151.537.881 1.157 1.699 1.851 2.463-1.321.968-2.889 1.448-4.304 2.212zm5.414-2.508c-.773-.673-1.209-1.62-1.904-2.352 2.27-.884 4.642-1.468 6.973-2.189 1.549-.481 3.078-1.044 4.683-1.353-.112.718-.282 1.429-.322 2.15-.02.571-.307.753-.771.9-.769.239-1.524.532-2.284.804-2.126.682-4.25 1.361-6.375 2.041zm6.773 22.783c1.847-.53 3.173-1.78 4.186-3.363 1.685-2.633 3.343-5.28 5.013-7.921.169-.258.368-.487.556-.732.682-.168 1.39-.259 2.043-.512.94-.372 1.774-.176 2.672.178.607.239.62.439.298.945-1.925 3.013-3.824 6.044-5.738 9.07-1.677 2.664-3.373 5.323-5.038 8.002-.38.615-.613.596-.961.006-.259-.432-.576-.825-.876-1.232-.793-1.229-1.583-2.457-2.392-3.675-.257-.385-.424-.575.237-.765zm14.792-13.252c.407-.268.862-.265 1.361-.431-.279.922-.757.874-1.361.431zm-16.521 32.597c-.059.267-.125.532-.377.689-.161 1.299-.834 2.428-1.197 3.659-.071.25-.255.258-.471.172-1.944-.786-3.797-1.689-5.099-3.441-.336-.456-.368-.753.161-1.06.893-.514 1.523-1.408 2.556-1.708 1.276.913 2.641 1.688 4.049 2.379.253-.157.318-.422.378-.689-1.286-.9-2.658-1.679-4.065-2.384 1.626-2.457 3.24-4.914 4.859-7.368.11-.16.246-.294.37-.442.077-.218.154-.434.301-.593-.148.159-.224.375-.301.593 1.06 1.098 1.817 2.417 2.741 3.615-1.193 2.253-2.488 4.453-3.906 6.578zm4.515-7.444c-1.013-1.091-1.813-2.349-2.691-3.553.349-1.061 1.026-1.905 1.741-2.737.324.452.695.88.979 1.362.383.68.822 1.187 1.707 1.051.206-.032.435.088.658.136-.795 1.247-1.594 2.494-2.394 3.74zm9.193-4.451c.04.623-.463.34-.724.319-1.855-.135-3.693-.412-5.546-.434-.419-.308-.943-.067-1.386-.248-.068-.293.151-.465.279-.669 1.513-2.408 3.052-4.801 4.536-7.223.403-.643.586-.578.92.032.701 1.251 1.45 2.466 2.182 3.699-.217 1.497-.37 3.002-.26 4.523zm1.46-6.63c-.22.358-.412.732-.615 1.099-1.047-1.265-1.676-2.78-2.518-4.16-.16-.272.06-.484.187-.69l1.579-2.498c1.569-2.476 3.14-4.948 4.719-7.413.174-.273.303-.751.809-.39 1.012.716 2.122 1.274 3.053 2.103-2.404 3.982-4.817 7.964-7.215 11.95zm9.715-16.007c-.286.443-.561.89-.837 1.331l.264 2.664c-.515-.049-.812-.537-1.293-.639-1.341-.912-2.689-1.823-4.034-2.744-.281-.191-.544-.233-.876-.142-2.264.618-4.545 1.225-6.814 1.838.189.145.217.328.211.518.006-.19-.022-.373-.211-.518-2.096.535-4.191 1.072-6.287 1.615-.287.071-.569.208-.923.057 2.002-1.644 3.98-3.267 5.953-4.88 1.176-.956 1.181-.967.008-1.855-2.444-1.863-4.886-3.725-7.318-5.591-.241-.184-.548-.304-.667-.626.743-.24 1.517-.432 2.241-.73.813-.336 1.644-.29 2.486-.212.4.037.634.202.834.572.953 1.815 1.955 3.611 2.932 5.412.198.379.41.694.907.786 3.938.743 7.223-.325 9.783-3.466.255-.32.342-.641.244-1.016-.481-1.756-.974-3.511-1.463-5.267.51-.76 1.309-1.213 1.988-1.794 1.187-1.021 2.406-2.003 3.801-3.156-.666 2.481-1.264 4.726-1.864 6.971-.087.351-.188.706-.265 1.059-.063.276-.147.589.138.77.288.176.515-.013.759-.187 1.569-1.141 3.157-2.261 4.933-3.525-.903 1.653-1.693 3.113-2.483 4.571-1.241 1.766-2.258 3.672-3.341 5.545-.112.195-.185.405-.143.643.163 1.105.329 2.219.502 3.324.276-.441.551-.889.837-1.332-.375-1.02-.588-2.018.13-3.015.405-.569.751-1.191 1.041-1.829.34-.741.801-1.045 1.639-.914.834.128 1.685.126 2.526.176.211.011.434-.005.228.309-2.405 1.17-4.163 3.037-5.564 5.273zm1.743 11.443c2.367-1.799 2.811-4.421 3.156-7.095.382-2.873.796-5.735 1.203-8.604.028-.155.131-.296.203-.444-.115-.234-.225-.471-.459-.551.234.08.344.316.459.55.551-.27.992-.118 1.427.283.433.396.91.762 1.411 1.065.637.382.893.847.704 1.583-.117.457-.122.945-.173 1.422-.525 5.024-1.043 10.052-1.56 15.076-.041.467-.148.633-.608.34-.391-.259-.819-.471-1.235-.703-1.484-.955-2.972-1.916-4.528-2.922zm8.036 9.371l-4.027-2.193c.038-1.101.138-2.189.522-3.233.363.217.781.38 1.079.664.91.866 1.893.83 2.946.364l-.521 4.398zm-4.21-1.715l.033-.25-.033.25zm3.134 15.214c-2.186.108-4.325-.012-6.245-1.251-.203-.133-.476-.243-.27-.576.566-.955.952-2.025 1.688-2.888 1.569.266 3.148.478 4.749.548.377 1.246.258 2.551.445 3.821.047.279-.174.337-.367.345zm.066-5.026c-1.569-.174-3.135-.346-4.7-.516.304-2.019.574-4.038.922-6.049.176-1.041.229-2.106.587-3.11l.009-.126-.009.126 4.051 2.228c-.281 2.48-.566 4.964-.859 7.447zm1.731-13.874c-1.568.389-1.562.39-1.38-1.332.151-1.477.31-2.954.434-4.437.047-.516.22-.711.777-.67 1.455.099 2.914.137 4.371.202.433 1.411.803 2.85 1.742 4.138-2.029.712-3.984 1.403-5.945 2.098zm6.236-24.953c-.516 4.76-1.177 9.502-1.769 14.257-.139 1.168-.374 2.339-.268 3.53-.933-.036-1.861-.053-2.781-.119-.668-.044-1.516.255-1.962-.182-.48-.462.02-1.274.015-1.935l.01-.254c.347-3.044.589-6.106 1.053-9.136.477-3.078 1.169-6.129 1.794-9.185.252-1.248.271-2.558 1.166-3.637 1.616-1.935 3.75-2.802 6.127-3.244-2.414 2.866-2.989 6.335-3.387 9.903z"/></svg>