<svg xmlns="http://www.w3.org/2000/svg" width="1172.312" height="248"><g fill="#37322C"><g fill-rule="evenodd" clip-rule="evenodd"><path d="M178.731 145.867c-1.235-14.082-4.656-27.659-10.083-40.725-4.491-10.813-9.932-21.134-15.885-31.208-7.672-12.983-16.266-25.269-26.383-36.487-3.823-4.24-7.72-8.392-11.771-12.409-5.961-5.907-12.387-11.226-19.578-15.586l.004.004-.014-.01.01.006c-.312-.309-.585-.679-.945-.915-4.888-3.204-10.209-5.154-15.958-6.359-2.882-.604-5.799-.964-8.659-1.252-4.774-.479-9.282 1.423-13.309 3.736-5.546 3.185-10.45 7.366-14.677 12.199-6.449 7.371-11.553 15.636-16.286 24.212-5.777 10.47-10.234 21.472-14.431 32.608-1.496 3.973-2.374 8.152-3.627 12.196-2.913 9.399-4.593 19.022-5.506 28.757-1.119 11.938-1.024 23.897.208 35.859 1.53 14.85 4.296 29.364 9.944 43.267 5.223 12.854 12.218 24.454 22.905 33.549 3.013 2.563 6.296 4.701 9.75 6.679 5 2.861 10.095 5.461 15.489 7.437 12.43 4.55 25.362 4.745 38.318 3.85 7.988-.553 15.849-2.123 23.565-4.421 8.714-2.595 16.946-6.284 24.17-11.704 15.965-11.979 25.874-28.086 30.345-47.439 2.721-11.776 3.46-23.794 2.404-35.844zm-8.179 31.626c-4.141 17.921-13.315 32.835-28.099 43.928-6.689 5.019-14.312 8.435-22.381 10.837-7.145 2.128-14.424 3.582-21.82 4.094-11.997.83-23.972.648-35.481-3.564-4.995-1.828-9.712-4.237-14.342-6.886-3.199-1.832-6.24-3.811-9.029-6.185-9.896-8.421-16.373-19.163-21.209-31.065-5.23-12.873-7.791-26.313-9.208-40.063-1.141-11.076-1.229-22.151-.193-33.204.845-9.015 2.4-17.926 5.098-26.629 1.161-3.744 1.974-7.615 3.359-11.293 3.886-10.313 8.014-20.5 13.363-30.195 4.383-7.942 9.109-15.595 15.08-22.42 3.915-4.475 8.456-8.346 13.591-11.295 3.729-2.142 7.903-3.903 12.324-3.459 2.648.266 5.35.599 8.018 1.159 5.324 1.117 10.25 2.923 14.777 5.889.334.219.586.562.877.849 6.658 4.037 12.607 8.961 18.126 14.432 3.751 3.719 7.359 7.564 10.899 11.489 9.368 10.388 17.326 21.764 24.431 33.787 5.512 9.329 10.55 18.885 14.709 28.897 5.025 12.099 8.193 24.671 9.336 37.71.978 11.155.293 22.284-2.226 33.187z"/><polygon points="95.278,17.99 95.276,17.988 95.265,17.98"/></g><path d="M167.822 134.644c-4.953-5.167-9.885-10.358-14.878-15.487-.827-.851-1.072-1.317-.076-2.279 1.783-1.721 1.694-3.868-.007-5.688-1.002-1.072-2.025-2.125-3.038-3.186l-1.735-1.82c-1.162-.722-1.946-1.842-2.897-2.781-1.984-1.953-4.053-2.104-6.137-.266-.686.605-1 .546-1.572-.097-1.462-1.646-3.104-3.137-4.495-4.839-1.667-2.046-3.607-2.219-5.893-1.366-1.939.725-3.914 1.333-6.015 1.38-7.106 1.32-13.369-.625-18.966-4.99-1.139-.888-2.285-1.605-3.75-1.697-.845.113-1.585.496-2.317.905-1.892 1.817-3.783 3.637-5.674 5.455l-2.697 2.435c-.348.58-.789 1.053-1.524 1.36l-1.002-2.729-.918-1.92c-1.995-3.618-4.066-7.18-7.354-9.834l-1.704-1.239c-4.586-2.679-9.562-4.004-14.844-4.17-2.071-.066-4.148.068-6.223.112l-2.226.253c-.854.507-1.601 1.139-2.167 1.963-.645 1.39-.412 2.754.126 4.107l1.365 1.923 2.294 3.177c2.167 3.126 4.336 6.249 6.505 9.375 2.632 3.267 4.918 6.781 7.291 10.234.268.932-.365 1.524-.824 2.183-.085.68-.377 1.266-.821 1.779-2.115 4.531-4.239 9.058-6.335 13.597-.272.588-.679.806-1.277.846-4.078.271-8.154.553-12.23.828l-1.871.204-2.253.168c-2.08.642-3.313-.273-4.341-2.059-1.263-2.195-2.771-4.249-4.174-6.363-.322-.185-.591-.41-.637-.812-3.463-5.039-6.957-10.056-10.37-15.128-.939-1.393-2.163-1.938-3.728-1.814-1.512.119-2.512.934-3.221 2.338-2.743 5.428-4.383 11.114-4.353 17.234.311.594.288 1.225.191 1.863l.493 2.282c.757 2.873 2.038 5.516 3.582 8.039.392.416.806.82.87 1.433 2.127 2.695 4.525 5.128 7.143 7.344 4.09 2.957 8.424 5.416 13.317 6.83 2.42.697 4.898 1.056 7.352 1.559.112-.048.228-.06.347-.038 1.391-.282 2.751-.001 4.114.23 3.004.011 5.973-.321 8.876-1.08.958-.249 1.434.049 1.931.829 1.831 2.868 3.727 5.69 5.6 8.53.742.609 1.178 1.428 1.576 2.275 2.658 3.476 2.677 3.497-.488 6.36-1.354 1.226-2.504 2.684-4.082 3.66-.555.776-1.152 1.512-2.008 1.985l-2.914 2.758c-.514.709-1.105 1.326-1.932 1.677-1.058.92-2.205 1.697-3.514 2.217-3.275 2.37-6.683 4.536-10.153 6.605-.726.568-1.217 1.312-1.597 2.137l-.317 3.971c.345 1.795.655 3.598 1.403 5.285 1.466 2.295 3.265 4.292 5.375 6.011 1.787 1.017 3.548 2.077 5.362 3.043 4.538 2.413 5.87 2.173 9.19-1.547.2-.225.45-.403.677-.602 1.567-2.189 3.288-4.25 5.15-6.191 2.983-3.801 5.82-7.727 9.367-11.051.706-.924 1.455-1.808 2.46-2.427.458-.626.904-1.262 1.6-1.658.402-.541.771-1.005 1.339-.117 1.479 2.31 2.99 4.598 4.487 6.894.58.541 1.049 1.157 1.326 1.91.922.951 1.552 2.107 2.236 3.228 1.137 1.64 2.378 3.215 3.26 5.022 1.672 1.936 3.027 4.087 4.273 6.313.556.303.863.785 1.021 1.382 1.653 1.892 2.903 4.064 4.26 6.157.861 1.325 1.882 1.881 3.501 2.149 4.847.805 9.198.017 13.067-3.077l4.066-4.201c1.293-1.967 2.589-3.93 3.883-5.894.342-1.662-.033-3.099-1.101-4.46-1.279-1.634-2.405-3.387-3.599-5.09l-3.268-4.689c-1.174-1.325-2.216-2.746-3.104-4.278-.75-.838-1.447-1.71-1.896-2.756-1.007-.891-1.612-2.078-2.333-3.182l-1.226-1.657c-3.047-4.222-6.081-8.451-9.148-12.656-.564-.77-.584-1.291.158-2.009 6.562-6.34 13.086-12.722 19.612-19.098.53-.519.911-.872 1.607-.125 4.338 4.651 8.719 9.262 13.088 13.887l.633 1.047c.507.424.989.884 1.525 1.27 2.107 1.505 3.868 1.422 5.771-.349 2.959-2.753 5.877-5.551 8.812-8.328l1.978-1.975c2.493-2.449 4.911-4.979 7.63-7.191.911-.939 1.707-2.003 2.829-2.725 1.078-1.078 2.15-2.163 3.236-3.234 1.882-1.862 1.907-3.875.069-5.789zm-26.319-27.042c.375-.512.719-.137 1.029.178 1.877 1.897 3.757 3.793 5.641 5.684.461.462.347.846-.105 1.217-.649.534-1.119 1.289-1.956 1.589-2.062-2.2-4.062-4.46-6.339-6.447.1-1.111 1.177-1.463 1.73-2.221zm-4.225 2.176l-.048-.039.048.039zm-.183-.152l-.05-.047.05.047zm-.349-.363c-.112-.134-.221-.28-.326-.438.105.158.213.304.326.438zm-46.918-4.14c2.666-2.438 5.29-4.923 7.867-7.455.709-.696 1.116-.734 1.94-.112 8.657 6.547 18.162 7.567 28.279 4.123.948-.324 1.514-.252 2.194.491 2.062 2.255 4.201 4.441 6.312 6.655.038.822-.582 1.327-.984 1.91-5.041 7.284-10.104 14.556-15.169 21.822-.838 1.198-1.589 3.162-2.618 3.333-1.166.192-2.024-1.83-3.09-2.815-.133-.122-.284-.225-.426-.335-3.146-3.84-6.781-7.223-10.188-10.813-4.681-4.932-9.412-9.815-14.19-14.651-.898-.909-.783-1.37.073-2.153zm-5.274 27.78c1.598-3.471 2.616-7.128 3.447-10.844.242-2.861.607-5.712.521-8.753 1.149.585 1.783 1.558 2.548 2.346 5.157 5.304 10.247 10.669 15.44 15.933.998 1.013 1.012 1.593-.091 2.383-.74.531-1.401 1.168-2.097 1.758-.484.893-1.317 1.431-2.07 2.05l-2.057 1.958c-3.685 3.502-7.384 6.99-11.041 10.52-.718.694-1.119.714-1.611-.193-.493-.91-1.114-1.75-1.678-2.623-.848-.866-1.424-1.914-1.991-2.972l-.143-.111c-1.003-1.457-2.44-2.795-2.884-4.406-.461-1.676 1.519-2.822 2.22-4.315.436-.94.985-1.822 1.487-2.731zm-28.52-44.558c-.275-.392-.514-.809-.909-1.432 8.508-.622 16.423.298 21.801 7.486 4.161 5.562 6.496 12.053 6.623 19.144.037 2.079-.12 4.161-.188 6.242.042.328.019.63-.323.803l-.036.025c-4.117-.853-8.284-1.468-12.341-2.604 2.585-3.617 2.077-6.634-.764-10.195-4.959-6.219-9.278-12.949-13.863-19.469zm-35.405 48.941c-5.947-7.42-5.923-16.06-1.633-24.76 1.434 1.487 2.415 3.234 3.516 4.877 3.307 4.928 6.893 9.666 9.931 14.774-2.609 2.997-5.149 6.051-7.403 9.33-2.04-.809-3.14-2.637-4.411-4.221zm40.892 12.875c-.373-.576-.579-1.281-1.262-1.616-4.767 1.409-9.547 2.312-14.606 1.866-7.153-.631-13.55-2.989-19.268-7.28-.453-.31-.822-.688-1.1-1.143.277.455.646.833 1.1 1.143.455-1.738 1.84-2.851 2.913-4.139 1.465-1.761 2.545-3.871 4.522-5.188 1.42 3.458 3.834 4.254 7.536 3.749 6.343-.863 12.775-1.085 19.175-1.521 1.209-.081 1.843-.619 2.34-1.676 2.047-4.365 4.164-8.697 6.256-13.04.26-.54.394-1.166.976-1.498 4.166 1.155 8.436 1.816 12.668 2.656-1.195 6.332-4.073 11.814-8.374 16.578-4.326 3.737-8.749 7.334-14.139 9.493.684.334.89 1.039 1.263 1.616.233-.186.44-.441.705-.547 4.194-1.679 7.772-4.271 11.061-7.316.607-.563 1.146-1.296 2.076-1.411 1.75 2.592 3.502 5.182 5.249 7.776.268.396.684.729.591 1.292.413.254.754.559.93.983-.176-.426-.518-.729-.93-.981-.702.175-1.41.334-2.106.531-4.838 1.368-9.675 2.744-14.513 4.117l-3.063-4.444zm7.571 42.184c-4.054 4.91-8.16 9.78-12.174 14.724-.86 1.058-1.531 1.173-2.739.572-2.821-1.405-5.503-2.941-7.513-5.447-.657-.821-1.222-1.689-1.611-2.662-1.298-3.263-.991-4.246 1.897-6.112 3.652-2.358 7.309-4.709 10.965-7.064.629.212 1.267.406 1.888.639 3.399 1.268 6.793 2.545 10.189 3.819.051.716-.53 1.081-.902 1.531zm37.227-6.335c.163.239.205.561.301.842-3.202 4.194-6.391 8.396-9.626 12.562-.4.516-.572 1.435-1.558 1.287.319.681.81 1.211 1.431 1.631 3.763-4.604 7.282-9.394 10.738-14.23 2.384 2.467 4.149 5.411 6.246 8.101 2.366 3.037 4.556 6.211 6.921 9.248.742.952.723 1.598.051 2.547-1.775 2.504-3.574 4.96-6.191 6.68-1.397.917-2.871 1.635-4.548 1.823-2.197.247-4.06.091-5.436-2.206-2.197-3.662-4.765-7.103-7.159-10.649-.269-.397-.419-.875-.625-1.313-.619-.418-1.11-.949-1.429-1.63-4.264-6.284-8.529-12.567-12.793-18.854-.247-.838.443-1.181.89-1.635 3.617-3.668 7.244-7.327 10.867-10.989.439-.057.648.227.866.544 3.684 5.412 7.377 10.821 11.054 16.241zm-5.312-26.197c-1.376 2.343-3.664 3.832-5.448 5.793-.612.673-1.364 1.224-1.819 2.039-4.385 4.057-8.562 8.325-12.736 12.598.783.089.972.783 1.345 1.292-.373-.509-.562-1.203-1.345-1.292-2.685 2.628-5.365 5.263-8.07 7.872-.515.495-.944 1.12-1.681 1.353-3.796-1.459-7.592-2.916-11.389-4.373l-.57.368.57-.368c1.065-1.893 2.909-3.037 4.396-4.519 3.444-3.428 7.001-6.738 10.513-10.095 4.371-4.183 8.741-8.364 13.111-12.543-.95.107-1.202-.717-1.672-1.254.004.478-.312.766-.623 1.064-3.568 3.415-7.129 6.833-10.696 10.249-.303.29-.579.655-1.089.498-2.265-3.396-4.548-6.776-6.779-10.194-.443-.679-1.248-1.227-1.058-2.22 5.499-1.318 10.881-3.044 16.289-4.679 1.631 1.524 2.517 3.608 3.955 5.28.47.537.723 1.361 1.675 1.253 2.7-2.511 5.394-5.031 8.109-7.527.481-.439.862-1.029 1.551-1.21 1.153 3.54 2.307 7.078 3.461 10.615.265-.088.494-.217.698-.376-.204.159-.433.288-.698.376zm13.812-13.039c-3.838 3.851-7.796 7.584-11.714 11.355-.211.206-.498.331-.751.493-1.099-3.484-2.197-6.97-3.296-10.457.621-1.876 2.413-2.681 3.69-3.939 3.042-2.999 6.187-5.894 9.304-8.813.428-.4.803-.971 1.536-.843 2.015 2.386 3.953 4.845 6.386 6.838-1.304 2.181-3.405 3.611-5.155 5.366zm47.79-8.161c-7.023 6.643-14.002 13.333-20.945 20.058-.98.949-1.504 1.085-2.536-.006-5.67-5.999-11.438-11.907-17.171-17.848-.667-.712-1.275-1.49-2.014-2.118-.856-.726-.748-1.309-.15-2.162 5.762-8.226 11.5-16.466 17.196-24.737.71-1.03 1.104-1.12 1.984-.169 2.032 2.2 4.187 4.284 6.292 6.415 5.789 6.059 11.551 12.144 17.395 18.148.968.996.949 1.477-.051 2.419z"/></g><g fill="#37322C"><path d="M291.42 124.378c0 13.895-3.857 24.517-11.572 31.866-7.714 7.35-18.826 11.025-33.334 11.025h-23.547v-84.169h26.022c13.395 0 23.815 3.608 31.262 10.823 7.446 7.216 11.169 17.368 11.169 30.455zm-14.508.461c0-20.15-9.423-30.225-28.268-30.225h-11.917v61.084h9.787c20.266 0 30.398-10.286 30.398-30.859zM364.537 135.317c0 10.402-2.668 18.52-8.002 24.353-5.335 5.834-12.762 8.751-22.28 8.751-5.95 0-11.208-1.343-15.774-4.03-4.568-2.686-8.08-6.543-10.536-11.572-2.457-5.027-3.685-10.861-3.685-17.502 0-10.324 2.648-18.384 7.945-24.18 5.296-5.795 12.761-8.693 22.396-8.693 9.211 0 16.503 2.965 21.877 8.895 5.372 5.93 8.059 13.923 8.059 23.978zm-46.346 0c0 14.701 5.431 22.05 16.293 22.05 10.746 0 16.12-7.35 16.12-22.05 0-14.546-5.412-21.819-16.235-21.819-5.681 0-9.797 1.881-12.349 5.642-2.553 3.761-3.829 9.153-3.829 16.177zM412.034 113.843h-15.544v53.427h-13.587v-53.427h-10.478v-6.333l10.478-4.145v-4.145c0-7.522 1.765-13.098 5.296-16.725 3.531-3.627 8.924-5.441 16.178-5.441 4.759 0 9.442.787 14.048 2.361l-3.57 10.248c-3.339-1.074-6.525-1.612-9.557-1.612-3.071 0-5.307.95-6.707 2.85-1.402 1.9-2.102 4.75-2.102 8.549v4.146h15.544v10.247zM467.763 167.27l-1.9-8.348h-.691c-1.881 2.956-4.558 5.278-8.031 6.966-3.474 1.688-7.437 2.533-11.889 2.533-7.714 0-13.472-1.918-17.271-5.757-3.8-3.837-5.7-9.652-5.7-17.444v-41.625h13.645v39.264c0 4.875.998 8.531 2.994 10.968 1.995 2.438 5.124 3.656 9.384 3.656 5.68 0 9.854-1.698 12.522-5.095 2.667-3.397 4.001-9.086 4.001-17.07v-31.722h13.587v63.674h-10.651zM540.477 149.134c0 6.218-2.265 10.987-6.794 14.307-4.529 3.32-11.016 4.98-19.459 4.98-8.483 0-15.295-1.286-20.438-3.857v-11.687c7.484 3.455 14.45 5.182 20.898 5.182 8.328 0 12.493-2.514 12.493-7.542 0-1.612-.46-2.955-1.382-4.03-.921-1.074-2.438-2.188-4.548-3.339s-5.047-2.456-8.808-3.915c-7.332-2.84-12.292-5.68-14.882-8.521-2.591-2.84-3.886-6.524-3.886-11.054 0-5.45 2.197-9.681 6.592-12.695 4.395-3.013 10.372-4.52 17.934-4.52 7.484 0 14.566 1.517 21.244 4.548l-4.375 10.19c-6.871-2.84-12.647-4.26-17.329-4.26-7.139 0-10.708 2.035-10.708 6.103 0 1.996.93 3.685 2.792 5.066 1.861 1.381 5.92 3.281 12.176 5.699 5.258 2.035 9.077 3.896 11.457 5.584 2.379 1.689 4.145 3.637 5.296 5.844 1.15 2.209 1.727 4.847 1.727 7.917zM623.898 87.187c-10.556 0-18.865 3.378-24.929 10.133-6.065 6.755-9.096 16.005-9.096 27.75 0 12.014 2.859 21.34 8.578 27.98 5.718 6.641 13.894 9.96 24.525 9.96 7.062 0 13.548-.901 19.459-2.706v5.182c-5.565 1.958-12.513 2.936-20.841 2.936-11.822 0-21.129-3.818-27.922-11.457-6.793-7.638-10.19-18.308-10.19-32.01 0-8.558 1.621-16.1 4.865-22.625 3.243-6.525 7.906-11.562 13.99-15.113 6.083-3.55 13.155-5.325 21.215-5.325 8.213 0 15.563 1.535 22.05 4.605l-2.36 5.297c-6.141-3.071-12.589-4.607-19.344-4.607zM697.763 167.27l-1.439-9.902h-.46c-3.147 4.03-6.381 6.88-9.701 8.549-3.32 1.669-7.245 2.504-11.773 2.504-6.142 0-10.92-1.573-14.335-4.721-3.417-3.147-5.124-7.503-5.124-13.069 0-6.103 2.542-10.842 7.628-14.22 5.085-3.377 12.444-5.162 22.079-5.354l11.917-.345v-4.145c0-5.949-1.209-10.439-3.627-13.472-2.418-3.031-6.314-4.548-11.687-4.548-5.796 0-11.802 1.612-18.02 4.836l-2.13-4.951c6.87-3.224 13.664-4.836 20.38-4.836 6.87 0 12.004 1.785 15.4 5.354 3.397 3.569 5.095 9.135 5.095 16.696v41.625h-4.203zm-23.029-4.031c6.678 0 11.946-1.909 15.804-5.728 3.857-3.819 5.786-9.125 5.786-15.919v-6.16l-10.938.461c-8.79.422-15.055 1.794-18.797 4.116-3.742 2.323-5.613 5.94-5.613 10.852 0 3.915 1.199 6.958 3.598 9.125 2.397 2.17 5.784 3.253 10.16 3.253zM727.931 167.27h-5.7v-89.582h5.7v89.582zM773.873 168.421c-8.943 0-15.947-2.821-21.014-8.463s-7.6-13.51-7.6-23.604c0-10.363 2.629-18.432 7.888-24.209 5.258-5.776 12.454-8.665 21.589-8.665 5.411 0 10.593.941 15.544 2.821l-1.555 5.066c-5.41-1.804-10.113-2.706-14.104-2.706-7.678 0-13.492 2.371-17.444 7.11-3.954 4.741-5.931 11.563-5.931 20.467 0 8.444 1.977 15.055 5.931 19.833 3.952 4.778 9.479 7.167 16.58 7.167 5.681 0 10.958-1.016 15.833-3.051v5.297c-3.991 1.958-9.232 2.937-15.717 2.937zM809.855 104.689v40.531c0 6.295 1.324 10.872 3.972 13.73 2.648 2.86 6.755 4.289 12.32 4.289 7.446 0 12.926-1.88 16.438-5.642 3.512-3.761 5.268-9.883 5.268-18.366v-34.543h5.642v62.581h-4.836l-1.036-8.636h-.346c-4.068 6.525-11.304 9.787-21.704 9.787-14.24 0-21.359-7.618-21.359-22.856v-40.876h5.641zM880.15 167.27h-5.699v-89.582h5.699v89.582zM939.104 167.27l-1.439-9.902h-.461c-3.147 4.03-6.381 6.88-9.7 8.549-3.32 1.669-7.245 2.504-11.773 2.504-6.142 0-10.92-1.573-14.336-4.721-3.416-3.147-5.124-7.503-5.124-13.069 0-6.103 2.543-10.842 7.629-14.22 5.085-3.377 12.444-5.162 22.079-5.354l11.917-.345v-4.145c0-5.949-1.209-10.439-3.627-13.472-2.418-3.031-6.314-4.548-11.688-4.548-5.796 0-11.802 1.612-18.02 4.836l-2.131-4.951c6.87-3.224 13.664-4.836 20.381-4.836 6.87 0 12.004 1.785 15.4 5.354s5.096 9.135 5.096 16.696v41.625h-4.203zm-23.028-4.031c6.678 0 11.945-1.909 15.803-5.728 3.857-3.819 5.786-9.125 5.786-15.919v-6.16l-10.938.461c-8.79.422-15.055 1.794-18.797 4.116-3.742 2.323-5.613 5.94-5.613 10.852 0 3.915 1.198 6.958 3.598 9.125 2.398 2.17 5.785 3.253 10.161 3.253zM980.095 163.354c3.607 0 6.755-.307 9.442-.921v4.605c-2.764.921-5.95 1.382-9.558 1.382-5.526 0-9.605-1.477-12.233-4.433-2.63-2.955-3.944-7.599-3.944-13.932v-40.415h-9.269v-3.339l9.269-2.591 2.879-14.163h2.937v15.142h18.365v4.951h-18.365v39.609c0 4.798.844 8.348 2.533 10.651 1.688 2.303 4.336 3.454 7.944 3.454zM1054.824 135.893c0 10.21-2.476 18.184-7.427 23.921-4.951 5.738-11.783 8.607-20.496 8.607-5.488 0-10.325-1.324-14.508-3.972-4.184-2.648-7.389-6.448-9.614-11.399-2.227-4.951-3.34-10.67-3.34-17.156 0-10.209 2.476-18.164 7.427-23.864 4.952-5.7 11.745-8.549 20.381-8.549 8.598 0 15.343 2.888 20.236 8.665 4.894 5.775 7.341 13.691 7.341 23.747zm-49.396 0c0 8.598 1.89 15.305 5.671 20.121 3.779 4.817 9.125 7.225 16.033 7.225 6.909 0 12.253-2.408 16.034-7.225 3.779-4.816 5.671-11.523 5.671-20.121 0-8.636-1.91-15.333-5.729-20.093-3.819-4.759-9.183-7.139-16.092-7.139-6.908 0-12.233 2.371-15.976 7.11-3.741 4.741-5.612 11.448-5.612 20.122zM1096.794 103.48c2.648 0 5.488.269 8.521.806l-1.094 5.47c-2.61-.652-5.316-.979-8.118-.979-5.335 0-9.711 2.265-13.126 6.793-3.417 4.529-5.124 10.248-5.124 17.157v34.543h-5.699v-62.581h4.836l.575 11.284h.403c2.571-4.606 5.315-7.839 8.232-9.701 2.917-1.861 6.448-2.792 10.594-2.792zM1156.841 150.977c0 5.604-2.13 9.913-6.391 12.925-4.26 3.014-10.305 4.52-18.135 4.52-8.367 0-15.007-1.286-19.92-3.857v-6.16c6.294 3.147 12.934 4.721 19.92 4.721 6.179 0 10.871-1.026 14.076-3.08 3.204-2.053 4.808-4.788 4.808-8.204 0-3.147-1.276-5.795-3.829-7.945-2.553-2.149-6.745-4.26-12.579-6.333-6.257-2.264-10.65-4.212-13.184-5.844-2.533-1.631-4.443-3.473-5.729-5.527-1.286-2.053-1.929-4.557-1.929-7.513 0-4.682 1.966-8.386 5.901-11.111 3.934-2.725 9.432-4.087 16.494-4.087 6.755 0 13.164 1.267 19.229 3.8l-2.13 5.181c-6.142-2.533-11.841-3.8-17.099-3.8-5.105 0-9.154.845-12.147 2.533-2.994 1.689-4.491 4.03-4.491 7.024 0 3.263 1.161 5.873 3.483 7.83 2.321 1.958 6.86 4.146 13.615 6.563 5.643 2.035 9.749 3.867 12.321 5.498 2.57 1.632 4.499 3.483 5.785 5.556s1.931 4.508 1.931 7.31z"/></g></svg>