<svg xmlns="http://www.w3.org/2000/svg" height="90" width="90"><path clip-rule="evenodd" d="M78.006 55.114l-.524-5.264c-.619-3.789-1.409-7.533-2.73-11.153-1.9-5.209-4.643-9.914-8.454-13.944-2.142-2.265-4.756-3.982-7.324-5.732-.405-.276-.744-.473-.407-1.033.103-.17.135-.495.041-.654-.496-.836-.252-1.626.063-2.425-.06-.867-.517-1.444-1.277-1.839-.569-.296-1.108-.649-1.661-.977l-1.224-.712c-.64-.343-1.285-.677-1.919-1.03-1.089-.607-1.98-.433-2.677.593-.203.297-.407.43-.752.387-.764-.096-1.269.312-1.688.881l-.635 1.039c-1.362 2.411-2.809 4.77-4.318 7.091-.137.403-.372.747-.644 1.069-.674 1.133-1.337 2.272-2.027 3.396-.49.799-.613 1.581.063 2.319.232.252.165.43.029.654l-2.479 4.103-.686 1.199c-1.247 2.236-2.586 4.416-3.898 6.613-2.237 3.746-4.408 7.529-6.609 11.295-.112.193-.246.372-.37.559-.498 1.002-1.044 1.975-1.692 2.888l-.546.998-.455.702c-1.277 2.363-2.648 4.669-4.084 6.938-1.402 2.486-3.529 4.369-5.383 6.479-.143.357-.43.595-.702.844-.416.525-.858 1.035-1.076 1.687.01 1.333.464 2.538 1.068 3.699.775.985 1.685 1.827 2.707 2.55.163.036.345.037.486.112 1.4.753 2.905 1.148 4.469 1.36 1.93.261 2.811.602 3.823-1.484.313-.941.697-1.851 1.174-2.721.671-1.775 1.427-3.514 2.241-5.229.708-1.874 1.456-3.729 2.555-5.419.219-.428.462-.148.683-.013 1.02.626 2.034 1.261 3.051 1.892.476.113.741.491 1.04.827 1.017.855 2.066 1.674 3.039 2.576.642.595 1.351.85 2.195.831l1.873-.647.127-.053 1.049-1 .644-.875.403-.839c.398-1.172.676-2.372.794-3.604.117-1.216-.167-1.683-1.266-2.177-.869-.39-1.735-.787-2.602-1.181-.355-.133-.738-.202-1.039-.458-.298-.074-.59-.161-.833-.363-.426-.105-.825-.273-1.192-.514-1.212-.373-2.284-1.039-3.4-1.615-.303-.156-.316-.322-.151-.593.407-.668.794-1.348 1.19-2.023.138-.307.248-.63.511-.863 1.774-3.177 3.544-6.356 5.326-9.527.635-1.13 1.301-2.241 1.953-3.361.327-.724.679-1.432 1.163-2.067 1.219-2.189 2.437-4.378 3.657-6.566.094-.169.17-.365.425-.339 1.01.101 1.648-.42 2.167-1.343-.253 1.651.958 2.15 1.995 2.785 1.561.957 3.119 1.919 4.679 2.879.262.162.547.295.72.569.387.215.732.482 1.004.836 2.216 1.669 4.127 3.661 5.99 5.698 1.253 1.369 2.443 2.798 3.467 4.354.344.396.665.807.886 1.286.55.628.954 1.348 1.326 2.088 1.315 1.968 2.39 4.061 3.271 6.256.217.332.494.607.809.844l.842.2.846-.186.831-.847c.18-.9-.011-1.805.046-2.706zm-25.321-42.112c.929.514 1.824 1.095 2.776 1.558.71.344.774.715.311 1.292-.104.129-.162.292-.339.347l-4.433-2.63c.568-1.173.572-1.181 1.684-.567zm-3.899 1.35c.323-.606.646-.749 1.188-.302.102.084.249.114.375.168 1.648 1.033 3.353 1.967 5.069 2.882.853.357.876.882.342 1.556-.15.189-.22.442-.327.666l-1.948 3.376c-.584-.473-1.144-.901-1.675-1.363-1.572-1.367-3.285-2.568-4.764-4.043.585-.977 1.207-1.935 1.741-2.939zm-16.732 43.256c-.095.17-.156.359-.232.538v.001c-.761 1.143-1.416 2.345-2.012 3.582l.824.176 1.729-3.047 3.05 1.687.43.188-.43-.188-.357 4.06.828.516c.217-1.376.144-2.789.51-4.147v.001c1.997.851 3.985 1.726 5.998 2.539.633.256.851.537.687 1.248-.27 1.171-.562 2.307-1.439 3.188-.927.932-1.418.969-2.397.133-1.135-.969-2.241-1.973-3.359-2.962l-.828-.516c-1.503-.852-3.039-1.651-4.422-2.7l-.824-.176-2.374 3.939-6.772-.561-.539.766 6.967.606c-.779 2.204-1.821 4.295-2.715 6.451-.593 1.43-1.232 2.841-1.841 4.265-.115.268-.199.549-.569.506-2.53-.294-4.952-.841-6.707-2.914-.199-.235-.373-.497-.52-.768-.694-1.278-.683-1.285.293-2.385 1.7-1.917 3.394-3.84 5.091-5.761l.539-.765c.608-1.495 1.549-2.804 2.356-4.187 3.781-6.481 7.593-12.944 11.397-19.412.142-.241.316-.464.475-.695.065-.249.192-.456.362-.634-.17.178-.297.385-.362.634 1.292 1.704 2.432 3.512 3.589 5.306-2.143 3.828-4.287 7.658-6.428 11.488zm12.919-22.909c-1.834 3.275-3.711 6.526-5.575 9.785-.124.218-.291.412-.438.618l-3.522-5.093c.746-1.642 1.768-3.127 2.67-4.681 1.415-2.434 2.839-4.861 4.266-7.288.141-.239.323-.454.486-.679v-.001c1.546.921 3.059 1.899 4.683 2.686l.001-.001c-.709 1.633-1.704 3.108-2.57 4.654zm4.91-5.75c-.644 1.095-.636 1.099-1.748.546l-5.106-3.006c-1.148-.736-1.143-.734-.41-1.933 1.176-1.925 2.339-3.858 3.527-5.776.145-.235.174-.635.603-.605 1.857 1.557 3.689 3.143 5.584 4.651.56.445.78.801.346 1.407-.933 1.572-1.871 3.14-2.797 4.716zm4.134 2.738c-.397-.236-.24-.484-.131-.779.485-1.306.823-2.626.544-4.047-.168-.858-.634-1.552-1.051-2.28 1.042-1.504 1.763-3.193 2.738-4.736 2.529 1.564 4.946 3.286 7.24 5.178.214.178.404.385.606.579l-4.811 9.175c-1.711-1.032-3.417-2.073-5.136-3.09zm5.944 3.755c-.011-.484.311-.832.513-1.223 1.365-2.642 2.744-5.277 4.118-7.914 1.022.694 1.685 1.721 2.413 2.674 4.104 5.377 6.46 11.509 7.739 18.097.473 2.437.802 4.894.928 7.419-3.813-7.534-9.144-13.806-15.712-19.054z"/></svg>