<svg xmlns="http://www.w3.org/2000/svg" height="90" width="90"><path clip-rule="evenodd" d="M74.48 15.665c-.322-.959.37-1.799.319-2.727-.157-.432-.398-.808-.73-1.128-.321-.183-.602-.414-.82-.715-.14-.093-.289-.174-.418-.279-1.302-1.06-1.726-1.073-3.138-.123-2.672 1.797-5.222 3.762-7.81 5.674l-5.508 4.569-1.334 1.19-1.735 1.532-.973.868c-2.555 2.513-5.111 5.025-7.666 7.537-.368.575-.876 1.022-1.368 1.484-2.896 3.18-5.572 6.547-8.214 9.933-2.33 2.986-4.439 6.144-6.647 9.225-.147.205-.311.398-.467.597l-.554.861c-.307.78-1.097.568-1.665.812l-.859.37-.827.541c-2.325 1.817-3.238 4.213-2.914 7.115.236.394.18.739-.175 1.033-.998 1.808-2.122 3.538-3.25 5.265l-.848 1.359-.335.52c-.177.313-.326.647-.537.936-.651.891-1.096 1.813-.616 2.937.983 2.066 2.796 3.165 4.76 4.088.586.194 1.187.353 1.755.588 1.073.442 2.025.405 2.807-.556.542-1.254 1.082-2.51 1.63-3.762.062-.142.096-.337.323-.326.338-1.534 1.123-2.884 1.777-4.287l.624-1.551c.098-.245.233-.419.529-.468 1.248-.206 2.294-.842 3.283-1.59l.842-.807c1-1.237 1.587-2.645 1.692-4.234.022-.334.149-.494.439-.621 1.337-.583 2.667-1.182 3.999-1.776l.838-.363c.38-.268.768-.522 1.215-.669 1.564-1.018 3.102-2.061 4.489-3.328 1.714-1.566 2.66-3.544 3.372-5.695.774-2.337 1.261-4.746 1.873-7.124.038-.645.182-1.27.36-1.889.256-1.412.527-2.821.759-4.237.069-.424.231-.624.674-.692 3.094-.475 6.123-1.227 9.097-2.205l.193-.129c1.698-.593 3.09-1.588 4.079-3.11 1.381-2.093 2.39-4.377 3.422-6.65l.114-.216.039-.115.619-1.59c.194.951.219 1.87.1 2.792.087 2.111-.036 4.218-.145 6.324-.061 1.179-.192 2.354-.291 3.531.025.197.045.393-.099.561.006 1.357-.242 2.687-.431 4.023l-.144.891c-.151.902-.173 1.827-.474 2.703-.017.587-.126 1.157-.334 1.707-.25 2.169-.86 4.26-1.393 6.366-.381 1.505-.861 2.986-1.292 4.479-.087.304-.141.557-.571.601-2.337.241-4.014 1.565-5.336 3.401-.293.407-.589.693-1.079.866-1.292.457-2.307 1.299-3.065 2.445-1.051 1.591-.789 2.971.796 4.188.452.155.895.36 1.359.45.341.066.393.257.428.517.438.701.493 1.316-.287 1.859-.313.218-.517.592-.771.895-.49 1.078-.844 2.186-.733 3.394.013.675.414 1.23.572 1.861l.507.834c1.063.991 2.208 1.166 3.455.353.253-.165.463-.258.717.063 1.621 2.054 2.23 2.179 4.44.967.681-.66 1.315-1.357 1.759-2.206.549-1.421.679-2.849.06-4.285-.127-.295-.121-.568.151-.758.347-.241.559.076.802.243.541.259 1.125.204 1.698.236 1.353-.672 1.954-1.813 2.018-3.274.03-.678.016-1.356.022-2.034-.246-1.012-.475-2.018-1.086-2.909-.285-.415-.103-.992-.161-1.493-.3-1.284-.783-2.492-1.502-3.602l-.335-.333c-.545-.293-.601-.699-.389-1.262.551-1.463.777-3.031 1.415-4.468-.033-.692.259-1.312.425-1.96l1.451-6.819c-.056-.464.094-.898.194-1.34.512-3.494.859-7.005 1.109-10.527.07-.976-.122-1.976.223-2.93l.035-4.419v-.863l-.331-7.142zm-20.196 10.147c3.323-3.038 6.749-5.947 10.31-8.695 1.97-1.52 4.032-2.922 6.052-4.377.309-.223.559-.367.965-.05.538.419.525.706.034 1.119-2.056 1.73-4.109 3.463-6.144 5.216-1.329 1.145-2.645 2.305-3.931 3.496-3.266 3.024-6.446 6.14-9.516 9.362-2.555 2.682-5.038 5.434-7.372 8.316l-.205.146c-.44-1.157-.83-2.329-1.052-3.551 3.435-3.84 7.05-7.5 10.859-10.981zm13.506-5.69l-.467 1.02c-.809 2.113-1.692 4.191-2.922 6.103-.799 2.124-2.556 2.951-4.596 3.396l-.861.293-3.424.809c.658-.949 1.394-1.755 2.23-2.465l.341-.345 3.576-3.401c1.706-1.656 3.424-3.299 5.278-4.792l.607-.786.238.166zm-19.863 22.477c-.06.277.022.588-.199.827-.482 2.563-1.124 5.083-2.28 7.431-.721 1.466-2.042 2.396-3.337 3.319-.904.725-1.89 1.319-2.934 1.821-1.156.681-2.326 1.33-3.711 1.645l1.174-1.792.543-.862c2.499-4.173 5.281-8.154 8.148-12.078.225-.49.58-.876.981-1.225l2.069-2.51c.164 1.221-.153 2.321-.456 3.424zm-23.422 31.605c-.396.908-.846 1.794-1.185 2.723-.258.706-.605.788-1.269.531-1.465-.566-2.873-1.191-3.953-2.39-.543-.603-.743-1.109-.208-1.92 1.668-2.526 3.222-5.126 4.835-7.688.175-.279.284-.628.622-.784.032-.265.265-.457.344-.706-.079.248-.311.44-.344.706.973 1.504 2.292 2.495 4.097 2.765-.979 2.255-1.957 4.51-2.94 6.763zm4.455-7.577l-.06.055-.067-.044-.732-.003c-.247.134-.42.327-.545.56.125-.233.299-.426.546-.561-.893-.009-1.69-.272-2.453-.761-.863-.553-1.411-1.346-1.94-2.176-.751-2.184-.42-4.114 1.337-5.713.883-.803 1.943-1.114 3.107-1.151.106-.059.198-.133.285-.211-.088.078-.18.152-.286.212 1.696-.084 3.043.579 4.078 1.908l.334-.812c-.913-1.165-2.109-1.801-3.583-1.915 1.357-2.323 2.984-4.463 4.539-6.649 2.803-3.941 5.841-7.703 8.892-11.453l.196-.161c.594 1.027.597 2.268 1.196 3.293-.38.992-1.125 1.745-1.722 2.591-3.127 4.431-6.141 8.935-8.949 13.576-.156.258-.256.577-.569.717l-.334.812c2.372 3.516.03 7.423-3.27 7.886zm29.219-2.319c-.252-.716.534-1.224 1.06-1.683.408-.356.884-.607 1.435-.682-.258.962-.628 1.904-.545 2.929-.726.03-1.665.249-1.95-.565zm7.398 11.667c-.643.484-.92.414-1.156-.355-.243-.787-.345-1.602-.384-2.427-.018-.383.061-.89-.373-1.051-.473-.175-.652.338-.886.623-.594.723-1.185 1.444-1.935 2.017-.512.391-.822.282-1.096-.308-.838-1.812.447-4.201 2.427-4.456.98 1.044 2.213.84 3.433.695 1.764 1.759 1.752 3.919-.03 5.262zm5.595-8.116c-.125.954-.423 1.058-1.169.451-.192-.156-.348-.357-.52-.538.708-.908.861-2.068 1.381-3.062.353 1.025.448 2.082.309 3.149zm-1.153-4.009c-.257 1.264-.668 2.472-1.324 3.589-.845.985-1.704 1.953-2.942 2.469-.181.141-.28.296-.274.471-.006-.174.093-.33.274-.471-1.109-.004-2.265.238-3.219-.602-1.116-1.136-1.551-2.538-1.596-4.092-.003-1.188.363-2.297.719-3.408.459-.979 1.042-1.85 1.835-2.615 1.857-1.793 5.041-1.719 6.163 1.213-.671-.047-1.092.429-1.544.789-.449.359-.769.396-1.076-.133-.084-.144-.213-.264-.327-.389-.239-.262-.419-.633-.869-.213-.446.416-.003.594.175.809.718.87.724.857-.199 1.505-.28.196-.786.366-.47.817.283.404.653.093.959-.109l.139-.097c.599-.569 1.135-.643 1.572.185l.225.253c.21.281.385.104.566-.034.176-.134.285-.284.115-.495-.124-.154-.237-.324-.386-.45-.489-.415-.375-.692.127-1.014.37-.236.796-.439 1.028-.855.585.905.262 1.913.33 2.878zm3.2-33.139c-.09 3.262-.489 6.517-1.048 9.74-.404 2.33-.807 4.663-1.313 6.973-.688 3.143-1.551 6.244-2.48 9.325-.081.267-.074.705-.562.54-.457-.155-.337-.487-.234-.839 1.266-4.334 2.436-8.695 3.226-13.141.537-3.019 1.036-6.047 1.284-9.115.166-2.057.159-4.128.367-6.169.267-2.618-.107-5.198-.08-7.796.014-1.358-.236-2.719-.367-4.078l-.154-.04c-.613 1.47-1.219 2.942-1.841 4.408-1.316 3.101-2.61 6.211-4.407 9.081-.893 1.426-2.23 2.197-3.746 2.749-3.114 1.134-6.349 1.777-9.599 2.348-.436.076-.59.195-.672.651-.601 3.383-1.173 6.776-2.023 10.108-.614 2.408-1.136 4.886-2.515 6.997-1.255 1.92-3.072 3.328-5.019 4.5-2.331 1.402-4.771 2.609-7.316 3.585-.219.085-.589.47-.769-.022-.151-.414.108-.624.522-.798 2.818-1.181 5.589-2.437 8.16-4.133 3.235-2.133 4.888-5.195 5.769-8.852.945-3.921 1.712-7.872 2.385-11.845.09-.529.311-.94.957-1.011 2.698-.297 5.322-.962 7.929-1.689.786-.219 1.553-.506 2.327-.766 2.249-.758 3.286-2.671 4.29-4.58 1.845-3.513 3.191-7.248 4.73-10.896.221-.525.553-.913.945-1.28.425-.397.706-.302.768.278.127 1.176.256 2.353.347 3.533.313 4.074.25 8.16.137 12.235z"/></svg>