<svg xmlns="http://www.w3.org/2000/svg" height="100" width="100"><path clip-rule="evenodd" d="M82.465 43.521c-2.287-2.091-4.576-4.179-6.856-6.277-.275-.253-.541-.493-.923-.552l-.193-.006-.473-.012c-.833.012-1.154.781-1.795 1.269-.24-.868-.286-1.761-1.002-2.334-1.086-.799-1.086-.799.069-2.089.215-.26.412-.538.649-.775.762-.765.934-1.635.519-2.627l-.513-.505c-1.483-1.499-2.966-2.998-4.448-4.498-.868-.878-1.976-.837-2.786.094-.404.464-.825.914-1.238 1.37l-.03.077c-.798.98-.85 1.028-1.684.115-.717-.785-1.634-.702-2.706-.795.903-.893 1.532-1.772 1.067-2.978-1.534-1.707-3.342-3.131-4.958-4.753l-1.578-1.502-1.155-1.054c-1.116-.398-2.06-.239-2.781.794-.201.288-.509.501-.768.748l-.824.865-.07.149c-.539.557-.998 1.603-1.611 1.561-.632-.043-.831-1.183-1.242-1.829-.252-.397-.446-.831-.666-1.249l-.132-.198c-.393-.62-.747-1.28-1.588-1.397-3.641-.502-6.832.384-9.438 3.063-.585.601-.829 1.274-.623 2.156.456 1.949.812 3.921 1.232 5.878.121.565.001.87-.61 1.025-1.091.276-2.159.635-3.238.959l-.837.238c-3.226 1.071-6.401 2.331-9.889 2.326-1.399-.002-2.295 1.002-2.477 2.417-.251 1.946.447 3.597 1.473 5.168.887 1.358 1.371 1.537 2.892 1.059 1.13-.665 2.346-1.143 3.547-1.655 1.366-.851 2.915-1.218 4.429-1.679l.812-.274c.576-.404 1.083-.309 1.579.17.383.37.812.693 1.22 1.036l.953.737 3.426 2.603-6.41 5.225c-.802.878-.937 1.548-.472 2.348.476.82 1.234 1.078 2.354.774 4.569-1.24 9.135-2.485 13.702-3.731.267-.073.525-.199.799-.115.104.128.055.227-.022.313-3.209 3.607-6.418 7.212-9.629 10.816l-.138.093c-.272.352-.507.736-.877 1.003-.605.7-1.159 1.447-1.861 2.061-.085.234-.262.388-.462.52-1.306 1.566-2.631 3.115-4.079 4.553-.175.446-.533.739-.872 1.047l-3.746 4.206c-.304.414-.762.611-1.193.845-.501.422-1.061.749-1.651 1.029-.391.378-.854.64-1.352.848-.389.265-.761.558-1.169.787-.641.359-1.085.854-1.263 1.573.16.977.366 1.944.684 2.884l.109.168.041.171c.236.298.434.616.548.982.756 1.025 1.616 1.959 2.486 2.885 1.555 1.087 3.029 2.298 4.771 3.103 1.036.479 1.911.278 2.542-.672.527-.791 1.028-1.6 1.54-2.4.467-.969 1.088-1.841 1.692-2.725.369-.782.852-1.493 1.355-2.192.887-1.611 2.232-2.856 3.39-4.25.067-.156.175-.271.339-.327 1.012-1.365 2.154-2.621 3.268-3.9.095-.232.26-.398.477-.518.714-.976 1.453-1.93 2.357-2.743.109-.363.387-.592.657-.828 2.106-2.506 4.209-5.016 6.319-7.518 1.365-1.619 2.74-3.23 4.117-4.84.184-.216.357-.592.71-.187.609.702 1.42.869 2.311.842-.003.364-.286.497-.459.692-.799.898-.802 1.775.069 2.597 1.54 1.453 3.104 2.88 4.655 4.321.121.112.217.252.325.379.61.536 1.23 1.061 1.826 1.613.359.332.785.532 1.218.728.835.086 1.45-.271 1.994-.887.709-.802 1.477-1.552 2.219-2.325l.801-.835c1.999-2.179 3.993-4.36 5.997-6.534.667-.724 1.357-1.427 2.036-2.14l.804-.875c.786-1.027 1.73-1.906 2.612-2.844l.297-.35.212-.644c.053-.733-.182-1.356-.711-1.867zm-16.464-16.324c.234-.272.402-.012.55.138 1.129 1.146 2.254 2.296 3.377 3.447.192.196.462.385.16.7-.838.873-1.502 1.901-2.405 2.717l-4.256-3.912c.614-1.233 1.701-2.074 2.575-3.091zm-5.911 1.312c.761.351 1.262 1.015 1.873 1.546.252.22.455.507.792.619 1.43 1.514 2.963 2.917 4.577 4.233l.071-.143-.071.142c.619.908 1.609 1.453 2.267 2.322l-3.397 3.664c-.213.23-.42.438-.788.408l-6.653-.532c-.379-.032-.642-.211-.817-.612-.568-1.292-1.148-2.584-1.816-3.826-.377-.701-.307-1.259.098-1.886 1.281-1.983 2.235-4.179 3.863-5.937-.384-.443-.928-.225-1.401-.302.473.076 1.016-.141 1.401.302zm5.026 13.581l-4.116 4.498c-.744-1.56-1.428-3.009-2.127-4.451-.177-.366-.107-.52.312-.488 1.9.143 3.8.282 5.931.44zm-6.746-13.566l-4.97 3.534c.348-1.502.413-2.865 1.601-3.745.557-.413.729-1.229 1.502-1.406.455.663 1.08 1.057 1.873 1.188.105.144.193.287-.006.428zm-8.566-8.953c.511-.56 1.001-1.451 1.595-1.537.626-.09 1.131.875 1.687 1.377 1.484 1.341 2.929 2.724 4.411 4.065.363.327.341.532.012.859-.478.474-.904 1.002-1.352 1.506l-1.458 1.238c.201-.771.441-1.705.69-2.638.079-.297.259-.617-.056-.855-.383-.289-.634.084-.869.279-1.323 1.094-2.642 2.194-3.93 3.328-.458.403-.65.402-.791-.227-.185-.821-.443-1.626-.645-2.444-.097-.392-.349-.705-.699-.513-1.059.581-1.482-.046-1.858-.855.987-1.286 2.175-2.39 3.264-3.585zm-.493 14.913c.145.518-.02.878-.339 1.224-1.609 1.742-3.597 2.656-6.591 2.743-.708.046-1.611-.406-2.187-1.736-.737-1.701-1.694-3.31-2.603-4.932-.321-.571-.085-.8.377-1.045 1.544-.817 3.077-1.657 4.62-2.477 1.27-.675 2.555-1.322 3.818-2.008.457-.249.653-.119.776.344.701 2.631 1.399 5.264 2.131 7.887zm-1.204-9.503c.357-.005.301.321.326.491.089.613.583 1.183.261 1.827-.073.147-.378.118-.453-.15-.168-.596-.33-1.193-.483-1.793-.074-.287.171-.305.348-.375zm-12.728-5.719c1.828-1.488 3.852-2.27 6.249-1.919.41.06.641.188.847.548.908 1.59 1.853 3.158 2.777 4.739.158.269.298.544.56.73.013.322.13.616.334.851.547.629.303 1.001-.344 1.342-2.614 1.377-5.213 2.783-7.825 4.165-.967.511-.972.493-1.254-.535-.057-.209.002-.466-.228-.61l-.711.252c.138.653.264 1.309.423 1.957.052.213.234.441-.034.584-.236.126-.519.331-.78.209-.241-.113-.061-.405-.046-.606.051-.665.144-1.327.221-1.99l.216-.154.711-.252c-.099-1.777-.637-3.476-.932-5.218-.159-.94-.386-1.87-.57-2.806-.097-.49-.059-.923.387-1.286zm-14.58 17.898c-.4.194-.599.104-.793-.255-.553-1.019-1.054-2.038-.848-3.263.079-.469.258-.671.753-.69.868-.033 1.732-.139 2.598-.214l.753-.055-.754.055c1.081.576 1.52 1.689 2.182 2.614-1.298.599-2.605 1.181-3.89 1.807zm25.875 5.388c-3.907 1.066-7.814 2.132-11.719 3.207-.301.083-.589.19-.951.093 1.942-1.611 3.861-3.207 5.785-4.797.855-.707.86-.784-.046-1.488-2.339-1.813-4.682-3.622-7.02-5.437-.218-.169-.493-.291-.571-.597-.346-.02-.555-.246-.746-.499l-5.679 1.918c-.879-.574-1.246-1.585-1.961-2.301.437-.4 1.022-.426 1.546-.592 3.103-.985 6.213-1.946 9.321-2.914.095.816-.187 1.601-.213 2.408-.011.349-.24.515-.573.623-.821.265-1.628.57-2.441.859.19.253.399.479.746.499.536-.168 1.084-.304 1.604-.511.887-.354 1.79-.422 2.737-.385.506.019.746.209.958.621.891 1.73 1.809 3.446 2.708 5.172.161.31.321.574.711.648 3.649.7 6.687-.285 9.062-3.203.363-.446.444-.864.296-1.399-.377-1.358-.699-2.731-1.097-4.082-.166-.563-.079-.926.393-1.3 1.215-.966 2.383-1.992 3.583-2.978.315-.259.563-.628 1.008-.723.1.314-.045.571-.114.84l-1.646 6.383c-.07.272-.193.569.096.775.293.208.531-.007.761-.17 1.244-.882 2.483-1.77 3.733-2.643.157-.109.295-.372.572-.193-.01.341-.239.572-.389.833-1.529 2.669-3.061 5.336-4.61 7.993-.255.436-.347.851-.276 1.36.241 1.745.434 3.496.662 5.38l-2.461-1.558c-.862-.585-1.741-1.145-2.577-1.765-.414-.308-.79-.187-1.192-.078zm-11.638 30.013c-.522.624-1.068 1.227-1.603 1.84-2.08-1.134-4.16-2.267-6.241-3.4l-.699.624 6.445 3.459-4.412 7.224c-.126.205-.245.35-.53.184-2.64-1.543-5.114-3.255-6.399-6.192-.563-1.286-.557-1.294.65-2.047 1.413-.881 2.831-1.753 4.246-2.629l.699-.624c1.745-1.99 3.478-3.991 5.236-5.969 2.585-2.909 5.186-5.804 7.786-8.701.203-.226.364-.511.687-.604.04-.284.186-.483.423-.606-.238.123-.383.322-.423.606.962 2.072 1.976 4.118 3.065 6.126-2.976 3.57-5.95 7.142-8.93 10.708zm13.698-16.269l-4.108 4.83c-.298-.121-.344-.426-.467-.666-.915-1.792-1.82-3.588-2.728-5.383 1.858-2.116 3.701-4.247 5.58-6.343 1.069-1.193 2.034-2.484 3.254-3.539 1.661 1.14 3.456 2.097 4.873 3.57l-6.404 7.531zm6.945-8.053c-.103-.131-.18-.303-.314-.385-1.495-.915-1.791-2.381-1.889-3.967-.054-.869-.202-1.732-.318-2.597-.103-.77-.068-1.487.392-2.181.568-.858 1.041-1.779 1.633-2.808l1.903 4c1.031 2.162 2.047 4.33 3.11 6.476.178.358.12.528-.12.786-.747.804-1.468 1.631-2.199 2.449-.88-.409-1.324-1.358-2.199-1.773zm16.686 5.902c-1.771 1.976-3.608 3.891-5.407 5.842-.32.347-.526.516-.977.086-1.839-1.753-3.72-3.463-5.605-5.166-.371-.336-.422-.529-.035-.912.615-.61 1.144-1.306 1.709-1.966h-.001c1.319-1.101 2.421-2.418 3.545-3.699.624-.71 1.093-.788 1.923-.434 2.528 1.081 5.094 2.07 7.646 3.095-.769 1.195-1.859 2.108-2.797 3.154zm8.074-8.667c-1.546 1.598-3.049 3.238-4.567 4.862-.149.194-.304.38-.5.523.195-.143.351-.33.5-.524l-.25-.036c-2.657-1.079-5.31-2.167-7.97-3.24-.535-.216-.427-.433-.105-.776 1.594-1.704 3.169-3.426 4.75-5.142l-.843-.176c-.935.697-1.609 1.647-2.396 2.486-2.505 2.669-4.993 5.355-7.487 8.034-.852-.599-1.748-1.093-2.805-1.215 1.305-1.442 2.6-2.893 3.917-4.325 2.198-2.39 4.408-4.768 6.617-7.146.189-.204.419-.369.63-.553.272 1.039.882 1.889 1.526 2.72l.843.176c.521-.552 1.055-1.091 1.556-1.659.297-.337.5-.402.873-.047 1.855 1.767 3.741 3.502 5.619 5.246.259.24.468.406.094.793z"/></svg>