<svg xmlns="http://www.w3.org/2000/svg" enable-background="new 0 0 300 300" height="100" width="100"><path clip-rule="evenodd" d="M90.285 37.61c-2.78-2.449-5.549-4.911-8.346-7.34-.464-.403-.611-.634-.139-1.173.845-.964.706-2.069-.251-2.933-.563-.509-1.137-1.008-1.705-1.51l-.974-.864c-.631-.321-1.084-.865-1.616-1.308-1.108-.921-2.181-.909-3.177.13-.327.342-.492.325-.815.018-.826-.784-1.738-1.483-2.529-2.3-.949-.982-1.957-.988-3.099-.449-.968.458-1.961.858-3.042.973-3.608.991-6.922.259-9.999-1.748-.626-.409-1.248-.729-2.008-.712-.431.095-.797.325-1.156.567l-2.689 3.06-1.285 1.374c-.154.314-.361.577-.727.767l-.636-1.364-.557-.95c-1.186-1.779-2.409-3.526-4.22-4.752l-.932-.565c-2.482-1.182-5.106-1.649-7.837-1.505-1.071.056-2.136.215-3.204.329l-1.137.227c-.419.299-.776.656-1.033 1.106-.272.745-.093 1.438.243 2.113l.788.932 1.321 1.539 3.763 4.552c1.5 1.571 2.831 3.284 4.205 4.962.178.469-.122.802-.33 1.162-.014.354-.14.669-.346.953-.894 2.429-1.792 4.856-2.676 7.288-.115.315-.315.445-.622.491-2.091.317-4.181.639-6.272.959l-.956.187-1.155.184c-1.044.421-1.72.003-2.328-.873-.747-1.077-1.614-2.071-2.429-3.1-.174-.081-.323-.186-.364-.391-2.005-2.447-4.026-4.883-6.006-7.351-.545-.678-1.2-.906-2.002-.774-.775.127-1.255.591-1.56 1.346-1.179 2.919-1.777 5.923-1.495 9.078.187.294.202.62.18.953l.353 1.155c.515 1.45 1.29 2.756 2.197 3.991.22.198.451.387.511.702 1.214 1.297 2.557 2.447 4.003 3.477 2.238 1.347 4.581 2.427 7.166 2.943 1.278.255 2.572.332 3.86.484l.177-.035c.705-.206 1.419-.12 2.131-.06 1.55-.125 3.067-.426 4.531-.943.483-.17.741-.037 1.032.344 1.068 1.399 2.169 2.773 3.259 4.155.409.282.67.686.911 1.105 1.522 1.677 1.533 1.687.025 3.302-.645.691-1.175 1.492-1.946 2.065-.253.425-.529.83-.95 1.112l-1.383 1.549c-.234.388-.512.733-.923.949-.505.52-1.063.971-1.716 1.296-1.586 1.365-3.249 2.63-4.949 3.848-.349.325-.571.729-.731 1.171l.009 2.061c.256.911.494 1.828.953 2.666.856 1.12 1.871 2.072 3.034 2.867.965.446 1.92.916 2.898 1.335 2.445 1.048 3.122.865 4.673-1.197.093-.124.215-.227.323-.34.713-1.197 1.51-2.334 2.386-3.417 1.373-2.09 2.666-4.238 4.35-6.106.324-.508.672-.996 1.164-1.359.209-.342.413-.69.754-.925.184-.296.354-.552.686-.118.862 1.127 1.741 2.241 2.614 3.36.322.254.592.551.766.927.517.451.892 1.02 1.293 1.567.658.797 1.366 1.555 1.9 2.449.946.926 1.739 1.976 2.478 3.07.3.131.479.367.587.668.934.903 1.674 1.97 2.465 2.99.501.646 1.052.889 1.899.957 2.534.204 4.745-.392 6.606-2.156l1.914-2.343 1.747-3.208c.104-.872-.152-1.597-.761-2.252-.731-.787-1.388-1.643-2.078-2.469l-1.889-2.277c-.663-.632-1.262-1.319-1.786-2.071-.423-.399-.821-.818-1.098-1.337-.559-.417-.922-1.003-1.341-1.54l-.704-.802c-1.755-2.044-3.504-4.093-5.269-6.129-.324-.373-.357-.641-.006-1.044 3.108-3.555 6.196-7.129 9.284-10.702.25-.29.432-.489.823-.134 2.44 2.21 4.9 4.398 7.354 6.593l.372.512c.28.197.548.413.842.588 1.152.685 2.057.565 2.962-.43 1.406-1.548 2.789-3.118 4.182-4.678l.934-1.104c1.18-1.372 2.316-2.782 3.622-4.04.43-.525.793-1.107 1.34-1.529.509-.603 1.016-1.209 1.529-1.809.89-1.042.815-2.081-.216-2.989zm-14.75-12.802c.171-.28.364-.102.538.047 1.05.897 2.102 1.793 3.156 2.686.258.218.215.421-.001.632-.312.304-.521.713-.94.904-1.158-1.045-2.288-2.123-3.549-3.05.003-.576.543-.805.796-1.22zm-2.085 1.306l-.026-.018.026.018zm-.101-.07l-.028-.022.028.022zm-.196-.172l-.187-.212.187.212zm-24.378-.095c1.269-1.373 2.514-2.769 3.733-4.187.336-.39.543-.427.996-.142 4.75 3 9.697 3.113 14.764.896.475-.208.77-.196 1.153.158 1.162 1.074 2.36 2.108 3.545 3.158.056.423-.242.71-.425 1.028-2.283 3.976-4.578 7.946-6.875 11.914-.379.655-.682 1.7-1.205 1.834-.592.15-1.123-.856-1.716-1.317l-.235-.155c-1.79-1.843-3.811-3.429-5.725-5.134-2.628-2.34-5.28-4.653-7.955-6.939-.502-.43-.463-.673-.055-1.114zm-1.512 14.556c.673-1.861 1.04-3.79 1.306-5.743 0-1.486.065-2.972-.112-4.537.618.252.987.725 1.417 1.099 2.89 2.511 5.748 5.057 8.656 7.546.558.478.591.777.056 1.233-.358.306-.672.663-1.005.998-.211.481-.617.794-.978 1.147l-.976 1.1c-1.748 1.966-3.505 3.925-5.237 5.905-.34.388-.546.417-.839-.03-.294-.448-.65-.855-.98-1.28-.475-.41-.818-.926-1.156-1.446l-.079-.051c-.581-.708-1.381-1.335-1.68-2.147-.311-.844.66-1.521.957-2.322.185-.502.431-.981.649-1.471zm-16.647-21.74c-.159-.19-.301-.395-.531-.699 4.361-.691 8.483-.561 11.569 2.913 2.388 2.687 3.874 5.934 4.248 9.585.11 1.071.119 2.152.174 3.228.037.167.038.324-.132.427l-.017.015c-2.16-.26-4.336-.397-6.478-.806 1.176-1.978.783-3.512-.837-5.225-2.828-2.991-5.349-6.275-7.996-9.438zm-16.132 26.78c-3.389-3.568-3.753-8.025-1.919-12.698.804.704 1.386 1.563 2.025 2.362 1.92 2.397 3.975 4.686 5.764 7.188-1.215 1.659-2.393 3.344-3.412 5.134-1.087-.329-1.734-1.224-2.458-1.986zm21.65 4.862c-.217-.281-.354-.636-.721-.779-2.397.934-4.823 1.608-7.452 1.598-3.717-.014-7.118-.952-10.254-2.917-.247-.14-.454-.319-.617-.541.163.222.37.401.617.541.159-.916.825-1.551 1.323-2.262.679-.972 1.145-2.107 2.107-2.872.883 1.722 2.162 2.027 4.05 1.606 3.234-.721 6.542-1.116 9.823-1.618.62-.095.923-.4 1.134-.967.866-2.34 1.769-4.666 2.66-6.997.111-.29.153-.619.439-.815 2.199.414 4.43.57 6.649.819-.341 3.318-1.587 6.27-3.598 8.914-2.069 2.116-4.194 4.164-6.879 5.511.366.143.503.498.721.778.112-.106.208-.247.34-.313 2.09-1.048 3.822-2.541 5.387-4.254.289-.317.535-.718 1.009-.818l3.045 3.782c.155.193.384.346.361.64.224.113.414.255.524.466-.11-.211-.3-.353-.524-.466-.354.121-.712.234-1.063.367-2.436.915-4.871 1.836-7.306 2.754l-1.773-2.159zm5.739 21.427c-1.877 2.709-3.783 5.399-5.638 8.123-.397.584-.739.672-1.388.415-1.516-.602-2.966-1.278-4.111-2.483-.375-.394-.704-.818-.947-1.303-.811-1.626-.696-2.147.713-3.235 1.781-1.376 3.565-2.747 5.348-4.121.334.082.671.154 1.002.247 1.808.506 3.614 1.018 5.421 1.528.058.367-.226.58-.399.829zm18.926-4.886c.094.117.13.28.192.422-1.469 2.301-2.931 4.607-4.419 6.897-.184.284-.232.765-.748.732.194.337.471.59.809.778 1.741-2.538 3.348-5.161 4.919-7.806 1.337 1.168 2.376 2.611 3.574 3.907 1.352 1.463 2.62 3.004 3.971 4.468.424.459.442.793.137 1.312-.806 1.369-1.627 2.713-2.902 3.714-.681.534-1.41.968-2.267 1.139-1.122.223-2.09.224-2.899-.9-1.292-1.794-2.766-3.457-4.155-5.182-.156-.193-.254-.433-.379-.65-.338-.189-.614-.441-.808-.778l-7.418-9.166c-.163-.422.177-.629.388-.883 1.706-2.049 3.418-4.094 5.127-6.141.224-.048.344.089.47.243 2.135 2.633 4.275 5.262 6.407 7.897zm-3.88-13.28c-.608 1.269-1.723 2.136-2.558 3.224-.287.374-.65.69-.849 1.131-2.085 2.284-4.054 4.666-6.021 7.052.408.011.535.362.749.608-.214-.246-.341-.597-.75-.608-1.272 1.471-2.539 2.947-3.82 4.41-.244.278-.439.619-.809.771l-6.064-1.76-.278.215.278-.215c.467-1.022 1.368-1.693 2.071-2.521 1.627-1.917 3.318-3.78 4.983-5.665l6.218-7.039c-.485.097-.652-.317-.917-.574.023.247-.127.409-.275.576-1.692 1.916-3.381 3.834-5.072 5.751-.144.163-.27.363-.54.304-1.315-1.652-2.641-3.297-3.939-4.963-.258-.331-.697-.578-.642-1.099 2.779-.919 5.48-2.043 8.198-3.121.908.715 1.456 1.752 2.27 2.551.266.256.432.671.918.574 1.284-1.413 2.563-2.829 3.855-4.235.228-.248.399-.568.747-.691l2.247 5.323c.133-.057.245-.133.344-.223-.098.09-.211.167-.344.223zm6.556-7.325c-1.813 2.152-3.691 4.25-5.547 6.366-.1.115-.243.192-.366.287l-2.154-5.25c.239-.995 1.128-1.488 1.732-2.193 1.439-1.679 2.935-3.308 4.416-4.949.203-.225.371-.535.755-.501 1.143 1.143 2.249 2.326 3.591 3.249-.579 1.181-1.6 2.01-2.426 2.991zm24.293-6.286c-3.334 3.731-6.642 7.484-9.931 11.255-.464.532-.729.624-1.308.107-3.186-2.847-6.417-5.644-9.632-8.459-.375-.338-.723-.713-1.131-1.005-.474-.338-.443-.642-.172-1.109 2.614-4.492 5.215-8.992 7.793-13.505.321-.562.521-.626 1.016-.174 1.144 1.046 2.346 2.027 3.525 3.035 3.249 2.873 6.485 5.76 9.76 8.604.543.472.554.721.08 1.25z"/></svg>