<svg xmlns="http://www.w3.org/2000/svg" enable-background="new 0 0 300 300" height="100" width="100"><path clip-rule="evenodd" d="M86.189 25.868l-2.699-1.292c-1.082-.299-1.529-1.1-1.686-2.13-.263-.527-.452-1.079-.566-1.657-.212-.329-.319-.696-.381-1.078-.949-1.633-2.412-1.748-3.654-.332-1.139 1.299-2.137 2.697-3.093 4.131l-.5.933c-.504 1.318-1.022 2.62-1.16 4.059-.069.716-.818 1.051-1.362 1.46-.331.413-.713.769-1.144 1.073l-4.016 3.659-1.304 1.256c-1.639 1.678-3.294 3.342-4.91 5.041-.504.531-.553.073-.698-.237-1.487-3.179-4.042-5.096-7.306-6.164-1.029-.337-2.105-.293-3.17-.318l-1.294.046-.346.068c-.204.048-.421.067-.61.15-1.461.647-2.747.786-4.343-.075-1.701-.918-3.665-.425-5.537.654.658-1.286 1.354-2.294 2.285-3.175 1.922-1.821 3.787-3.704 5.662-5.575.535-.533 1.077-.877 1.907-.83 1.226.068 2.26-.611 3.325-1.119.131-.205.346-.284.557-.371.492-.443 1.017-.855 1.468-1.337.969-1.037.711-2.731-.614-3.145-1.749-.545-2.503-1.724-2.799-3.375l-.239-.534c-.567-.542-1.254-.703-2.015-.641-.789.064-1.099.796-1.66 1.177-.009.266-.247.37-.382.547-.954 1.477-1.954 2.919-2.209 4.741-.072.522-.686.825-1.075 1.201-2.141 2.07-4.307 4.116-6.446 6.189-.581.563-1.317.868-2.007 1.202-1.441.697-1.987 1.988-2.473 3.334-.256.71-.386 1.465-.573 2.199l.22.866c.563.446.599.769-.115 1.156-.949.514-1.783 1.264-2.25 2.221-.668 1.368-2.105 1.786-3.077 2.769-.537.544-2.242-.202-2.24-.932.004-1.828-1.065-2.741-2.615-3.305l-.969.035c-2.172.088-3.128 1.415-3.446 3.389l-.529 3.312-.009.37-.042 1.662c-.137 2.058.581 3.73 2.241 4.98 1.365.765 1.365.765.405 2.161-1.471 3.498-1.395 6.94.47 10.27.362.648.371.876-.345 1.222-2.567 1.237-4.352 3.016-4.343 6.16.008 3.031.389 4.36 2.906 5.447l.925.439c.396.084.792.165 1.135.399.938.005 1.883.154 2.808-.107.61-.171.556.288.615.62.22 1.254.426 2.511.856 3.717.394.522.558 1.241 1.218 1.537 1.744.782 3.559 1.238 5.475.896 2.145-.382 3.377-1.939 4.422-3.664.258-.426.438-.572.982-.47 1.046.195 2.123.179 3.174-.058.318-.072.583-.08.862.114 1.882 1.312 3.972 1.945 6.267 1.888l1.297-.042c2.008-.385 3.854-1.136 5.479-2.396l1.641-1.647c.121-.358.424-.339.726-.401.677-.138 1.376-.07 2.045-.3.989-.34.997-.315.847.734l-.11 2.34c.221.296.147.641.12.957-.074.874.186 1.593.866 2.155.541.277 1.12.171 1.689.174 1.426-.792 2.83-1.627 4.285-2.363 1.023-.517 1.693-1.208 1.861-2.381.127-.881.424-1.641 1.601-1.479.291.04.621-.201.933-.314.598-.348 1.212-.671 1.792-1.048 1.055-.687 1.823-1.554 1.855-2.922.027-1.126-.122-2.229-.283-3.335-.268-.606-.798-1.256-.706-1.802.057-.341 1.059-.51 1.624-.783.702-.338 1.266-.845 1.671-1.51.553-.909 1.116-1.814 1.622-2.749.47-.869.542-1.774.116-2.715-.416-.919.099-1.833 1.108-2.08l1.414-.36 2.559-1.436c1.589-1.336 2.967-2.855 4.073-4.619.851-1.357.28-2.777-1.291-3.111-.918-.195-1.845-.346-2.769-.517-.89-.06-1.65-.332-2.025-1.235-.58-.773-1.19-1.524-1.653-2.378-.405-.312-.554-.856-1.052-1.098-1.007-.489-2.062-.18-2.66.831-.23.389-.435.791-.651 1.187-.627 1.673-1.365 3.305-1.685 5.087-.245 1.362-.337 2.717-.077 4.076.135.709-.117.945-.811.905-.758-.042-1.527-.107-2.274.069-.509.119-.494-.124-.431-.482.543-3.102-.573-5.405-3.331-6.923-.485-.266-.752-1.948-.357-2.339 1.014-1.006 2.054-1.987 3.083-2.978 1.525-1.481 2.885-3.132 4.576-4.441l3.104-3.072c.305-.431.715-.755 1.122-1.08.746-1.098 1.683-1.7 3.107-1.522.992.123 1.957-.31 2.925-.545l1.269-.553c1.545-.834 2.952-1.861 4.284-3.001 1.323-1.134 1.131-2.622-.458-3.385zm-43.384 11.985c.414.494.689.562 1.27.228 2.294-1.319 4.729-1.842 7.337-1.04.286.087.595.125.799.383-.654.989-1.314 1.974-1.962 2.967-.447.683-.813 1.434-1.8 1.485-.322.017-.492.311-.604.614-.168.454-.359.9-.534 1.352-.248.636-.666.923-1.39.926-1.303.005-2.602.273-3.911.032-.266-.049-.517-.032-.715-.298-1.477-1.973-2.972-3.932-4.456-5.901-.051-.068-.053-.172-.079-.26 1.431-2.316 4.303-2.566 6.047-.49zm-21.573 14.804c.312.233.607.496.941.691.568.332.977.606.746 1.453-.188.692.233 1.378.972 1.664.446.172.497.44.444.84-.084.632-.135 1.267-.202 1.901-.071.671-.16 1.292-.904 1.638-.564.263-.491 1.016-.859 1.459l-2.04 2.443c.174.199.33.407.385.659-.055-.252-.211-.46-.385-.659-3.083-3.349-2.934-8.694.488-11.985.128-.123.262-.132.415-.104zm9.545 4.979c1.763-.131 3.235-2.42 2.627-4.223-.217-.641 0-.694.502-.797 2.364-.481 2.359-.492 2.514 1.89.074 1.148.162 2.297.249 3.523-2.321-.336-4.383.139-6.333 1.179-1.523.812-3.086 1.384-4.866 1.121-.418-.062-.596-.115-.522-.573.097-.6.138-1.208.199-1.814.074-.727.136-1.433.972-1.774.428-.174.497-.662.604-1.072.052-.198-.004-.446.308-.467.354-.024.244.284.307.45.677 1.786 1.864 2.672 3.441 2.554zm-2.666-4.01c.13-1.261 1.214-2.272 2.365-2.207 1.108.062 2.171 1.487 2.145 2.874-.027 1.418-1.044 2.527-2.26 2.465-1.329-.068-2.412-1.576-2.251-3.132zm-2.693 14.853c-.27-.088-.491-.253-.636-.492-1.032-1.709-1.532-3.556-1.321-5.551.087-.826.597-1.195 1.474-1.205.389-.088.517.122.574.534.273 1.985.59 3.964.868 5.948.11.78-.204 1.014-.959.767zm-.62-12.629c-.492-.015-1.021-.323-.972-.984.043-.571.324-.969 1.097-.965.496.096.866.509.867 1.076.002.553-.541.885-.993.873zm-4.066 9.822l1.638-1.885c.792 2.245.497 5.14 3.721 5.848l-.259 1.113c-.541.413-1.2.526-1.828.717-3.002-.787-3.787-1.68-3.857-4.386l.585-1.406zm6.114-4.382c.934.013 1.776-.348 2.623-.685.208-.082.472-.279.557.137.422 2.05.839 4.102 1.257 6.153.047.225-.037.347-.277.344-1.06-.014-1.991.491-2.979.76-.454.123-.677.148-.752-.456-.231-1.868-.543-3.725-.83-5.585-.054-.347-.143-.677.402-.669zm4.112-.55c-.127-.566-.006-.86.556-1.103 1.857-.8 1.858-.826 2.291 1.147.409 1.863.743 3.746 1.211 5.594.202.797-.025.957-.728.868-.179-.023-.364-.003-.546-.003-1.426 0-1.425 0-1.721-1.429-.35-1.693-.685-3.388-1.063-5.073zm3.478-1.405c-.076-.352.056-.47.409-.509 1.122-.123 2.042.202 2.681 1.153.814 1.213 1.191 2.574 1.273 3.727-.003 2.033-.746 2.987-2.283 3.303-.322.066-.421.017-.487-.293-.523-2.462-1.058-4.922-1.593-7.381zm3.932 9.439c-.216-1.018.11-1.631.654-2.3.964-1.186.787-2.634.465-4.021-.303-1.302-.635-2.608-1.669-3.576-.17-.159-.187-.369-.204-.585-.143-1.911-.28-3.824-.448-5.734-.039-.448.047-.703.542-.711.117-.002.231-.073.35-.098 1.617-.347 1.643-.355 2.186 1.192.187.535.478.706 1.007.685 1.126-.046 2.253-.038 3.378-.094.58-.029.978.163 1.297.652 1.13 1.732 2.279 3.451 3.431 5.168.177.263.292.508.227.842-.534 2.775-1.081 5.548-1.56 8.333-.099.574-.37.675-.832.716-2.697.241-5.395.47-8.088.752-1.419.148-.534-.935-.735-1.22zm4.808-16.129h-.366c-1.921.026-1.958-.001-2.149-1.95-.148-1.512.074-2.969.656-4.378.185-.449.379-.674.94-.572 1.456.262 2.913-.07 4.371-.114.636-.019 1.022-.512 1.303-1.026.232-.423.415-.883.555-1.345.194-.642.675-.699 1.219-.71.591-.012.736.445.774.845.232 2.426.039 4.841-.951 7.068-.622 1.399-2.17 1.642-3.536 1.976-.927.227-1.875.175-2.816.205zm6.221-31.22c-.944.854-1.939 1.351-3.072 1.586-.112.163-.233.169-.363.02l-.199-.053c.569-.845 1.458-1.385 2.08-2.18l1.554.626zm-3.227-3.651l.442 1.074c-.697.661-1.243 1.485-2.118 1.954.143-1.196.996-1.976 1.676-3.029zm-2.055 3.871l.034.698-.034-.698zm-.085 1.226l.095-.302c.995-.826 1.863-1.78 2.754-2.709l.345.35-2.756 2.738-.284.08c-.104.105-.242.206-.343.051-.063-.097.08-.175.188-.208zm-1.22 1.329l.173-.249.097.088-.219.226-.251.164-.046-.064.245-.166zm-.624.449l-2.61 2.674c.677-1.077 1.655-1.862 2.61-2.674zm-4.373 4.135l.883-.931.184.182c-.22.077-.616.367-1.067.749l-2.624 2.766c.12-.384 1.538-1.847 2.624-2.766zm-3.454 3.417c.784.652.308 1.134-.109 1.658l-1.127-1.37c.345-.374.628-.795 1.237-.288zm-1.761 1.006l.858 1.265-1.577.435c.178-.673.119-1.312.719-1.7zm-4.59 9.471c.166-.076.274-.32.369-.506 1.21-2.347 3.051-3.565 5.763-3.258.27.03.547-.003.822-.007.302-.029.606-.087.902.04l.223.124c1.406 1.871 2.8 3.751 4.226 5.606.312.407.41.73.174 1.226-.61 1.281-.877 2.654-.8 4.072.022.405-.119.547-.468.618-2.023.414-4.045.831-6.066 1.259-.315.067-.505-.056-.712-.271-1.62-1.686-3.9-1.295-4.876.83-.101.219-.175.452-.255.68-.238.678-.765.862-1.254.375-.463-.463-1.044-.679-1.575-.451-.813.348-1.308-.089-1.889-.457-.375-.238-.676-.616-1.164-.652l-.189-.192c-.058-.134-.1-.278-.175-.402-1.629-2.659-.179-5.463 2.933-5.673.204-.014.432.065.593-.139 1.032-1.069 2.022-2.187 3.42-2.822zm-11.523 4.867c.004-1.987.149-3.947.714-5.869.214-.729.672-.843 1.303-.785.674.062.698.553.736 1.06.136 1.778.569 2.302 2.277 2.854.214.069.5.033.625.302-.575.165-.995.556-1.398.966-1.47 1.495-1.52 3.255-.938 5.129-.739-.224-1.392-.624-1.999-1.079-.848-.636-1.323-1.474-1.322-2.577zm3.936 27.718c-1.436.866-3.9.456-5.065-.791-.122-.13-.236-.287-.292-.453-.694-2.035.095-4.356 1.902-5.537.707-.463 1.415-.947 2.287-1.07-.007.457-.011.908.102 1.361.537 2.136 2.113 3.091 4.068 3.629-.77 1.196-1.798 2.135-3.003 2.861zm8.496 6.694c-.892.641-3.703.535-4.558-.101-.201-.15-.346-.343-.418-.583-.841-2.776-1.096-3.768.958-5.909.838-.875 1.764-1.659 2.937-2.076.273.287.455.599.576.998.525 1.718 1.53 3.081 3.135 3.954-.431 1.554-1.339 2.786-2.63 3.716zm3.493-4.254c-1.555-.863-2.649-2.104-3.129-3.843-.189-.687-.638-1.151-1.254-1.474l-1.309-1.453c.109-1.433 1.032-1.899 2.3-2.302 1.562-.497 3.111-.449 4.686-.482 1.058-.022 2.129.144 3.16-.267.64-.255.525.251.524.59-.006 3.199-.018 6.398-.028 9.597-1.707.652-3.343.347-4.95-.365zm19.878-1.882c-.593.02-.925.223-1.242.699-2.436 3.668-8.376 5.194-12.706 1.706l-.096-.15c.019-2.127.058-4.254.043-6.38-.005-.58.154-.758.748-.806 2.874-.233 5.744-.517 8.613-.81.379-.038.631.07.899.298 2.008 1.716 4.022 3.424 6.035 5.134-.722.402-1.53.284-2.294.31zm4.167-1.08c-.288.198-.541.508-.961.386-2.033-1.743-4.051-3.504-6.111-5.214-.441-.366-.57-.708-.469-1.239.501-2.63.982-5.264 1.471-7.895.068-.362.119-.694.611-.77 4.061-.621 8.119-1.263 12.178-1.899l.557 1.648c-.01.574-.101 1.186.349 1.638 1.331 1.336 1.637 2.851.875 4.579l-1.229 1.345c-.734.438-1.554.455-2.373.51-.904.061-2.401 1.06-2.379 1.637.038 1.032-.28 1.968-.611 2.91-.524.879-1.039 1.766-1.908 2.363zm10.496-5.88c.021.297.287.41.468.588-.18-.179-.447-.291-.469-.589-1.084 1.788-2.19 3.563-3.237 5.372-.311.536-.512.765-1.161.407-.78-.431-.242-.821-.049-1.17.963-1.753 2.051-3.436 2.922-5.241h-.001c.449-.466.681-1.053.917-1.637l.561-.711c.465.315.611.841.953 1.21l-.904 1.771zm.558.696l-.08-.099.08.099zm-3.378-1.516c.096.016.226-.037.247.127-.94 1.667-1.909 3.318-2.798 5.012-.24.458-.683.413-.981.671-.654-.141-1.057-.621-1.469-1.088.426-.675.662-1.42.737-2.208.126-1.329.558-1.757 1.892-1.823.845-.042 1.694-.079 2.374-.69zm-5.503 13.357c-.094-1.425-.114-2.737.352-4.014l2.86 2.165c-.968.728-2.085 1.189-3.211 1.849zm3.807-2.567l-3.039-2.252c-.247.085-.364.237-.407.428.043-.19.16-.343.407-.428.36-.738.966-1.259 1.576-1.773l2.353 1.273c-.295.918-.446 1.883-.891 2.752zm5.959-4.87c-.295 1.101-1.646 1.502-2.801 1.739-.414.085-.846.087-1.27.126-.144-.297-.116-.574.056-.86 1.066-1.761 2.124-3.527 3.185-5.291 1.203 1.246 1.209 2.869.829 4.285zm4.271-11.143c-.7 1.21-1.209 2.593-2.723 3.086.06-.805.638-1.36.997-2.015.48-.877 1.044-1.707 1.572-2.557l-.365-.668.365.667c.434.456.457.963.154 1.486zm9.301-11.295c-1.797 2.41-3.686 4.387-6.647 4.922l3.247-5.455 3.401.534zm-7.363-4.813l1.456 2.075c-.875 1.555-1.741 3.115-2.632 4.66-.202.351-.276.814-.731.982-.174-2.739.691-5.216 1.907-7.717zm-2.651 11.403l1.081.019c.364-.176.469-.526.579-.871l-1.147-.049.584-1.312c1.039-1.778 2.076-3.556 3.121-5.329.177-.301.258-.708.712-.751l.801.614c-.079.463-.366.826-.599 1.214l-2.891 4.836-.579.777c-.11.345-.215.695-.579.871-.143.839-.819 1.417-1.074 2.201l-3.464 5.851-.012.012c-1.164-1.073-1.175-1.193-.344-2.462.982-1.497 1.951-3.004 2.925-4.506l.887-1.114zm-1.752.73c.248.025.409.245.625.34-.216-.096-.377-.315-.625-.34l-3.711 5.774c-.113-1.299-.438-2.428-1.245-3.338-.41-.463-.648-.927-.666-1.525 1.739-1.138 3.615-1.429 5.622-.911zm-7.029-1.645c-2.61.398-5.221.791-7.831 1.195-1.501.233-3.002.468-4.497.736-.406.072-.615-.073-.819-.383-1.087-1.648-2.188-3.288-3.28-4.934-.167-.252-.411-.517.154-.624 2.726-.517 3.973-2.274 4.267-4.942.157-1.422.356-2.833.303-4.267-.023-.619-.068-1.296-.511-1.709-.577-.538-.308-.885.019-1.352.594-.845 1.142-1.722 1.724-2.577.138-.204.202-.549.587-.436 1.918 1.191 3.332 2.796 3.892 5.016.138.547.798.55.836 1.087-.765.43-1.527.868-2.296 1.291-.276.151-.459.353-.623.628-.945 1.587-1.473 3.317-1.894 5.098-.172.731.165.828.714.718.743-.15 1.469-.387 2.215-.522 1.787-.323 3.554-.649 4.213-2.713l.101-.15c.303-.189.21.182.338.244l-.018.456c-.034 1.358-.024 1.331 1.311 1.765 2.465.799 3.635 4.23 1.094 6.374zm-3.079-10.644l.175.185-.033.034c-.394.682-.798 1.36-1.179 2.049-.248.448-.42.274-.639-.026-.574-.788-1.143-1.58-1.756-2.336-.313-.386-.18-.55.181-.746 1.88-1.021 1.232-1.164 2.688.37.167.176.353.336.53.502l.034-.032zm-2.103 3.224c-1.073.274-2.038.512-2.999.767-.467.123-.701.068-.541-.502.312-1.109.599-2.223 1.334-3.211l2.206 2.946zm4.082-5.736c-.561.559-.986 1.302-1.815 1.558-.255-.269-.377-.65-.72-.843-.403.019-.665-.249-.949-.471.285.222.546.49.95.471 2.258-2.406 4.473-4.855 6.908-7.089l.521 1.42c.174-.004.303-.054.402-.137-.098.083-.227.133-.401.137-1.501 1.78-3.252 3.316-4.896 4.955zm5.332-5.113l.015-.024-.015.024zm.51-.533c-.073.073-.221.072-.335.105l-.411-1.606c1.965-1.76 3.931-3.52 5.897-5.279l1.257.337c-2.044 2.239-4.259 4.308-6.408 6.443zm7.16-7.173c-.04.2-.153.326-.29.427.136-.101.249-.227.289-.427l-1.108-.386.918-1.098c1.41-1.289 2.736-2.66 4.038-4.055.325-.348.569-.799 1.094-.905l-.373-1.075-4.61 4.591c.146-1.782 1.007-3.275 1.954-4.721.51-.779 1.05-1.546 1.838-2.282l.818 2.412.373 1.075.88 1.092c-1.776 1.458-3.335 3.14-4.944 4.772l-.879.58zm3.467-.332c-.422.226-.848.204-1.275.015l-.21-.05c1.349-1.599 2.983-2.915 4.414-4.432 1.092.288 2.053.87 3.191 1.351-1.847 1.585-3.772 2.756-6.12 3.115z"/></svg>