<svg xmlns="http://www.w3.org/2000/svg" enable-background="new 0 0 300 300" height="100" width="100"><g><path d="M83.458 52.164c-.229-.67-.732-1.126-1.228-1.587l-.186-.132c-.379-.234-.732-.499-1.004-.858l-.004.009c-1.62-1.194-3.243-2.383-4.575-3.914-.209-.24-.667-.081-.805-.465-.8-.539-1.53-1.161-2.224-1.828-1.456-1.055-2.864-2.167-4.169-3.406-2.621-2.102-5.253-4.192-7.863-6.309-4.088-3.314-8.162-6.645-12.24-9.972-.127-.103-.231-.234-.346-.352-.742-.45-1.371-1.041-2.007-1.622-1.816-1.309-3.506-2.772-5.215-4.213l-.18-.196c-.758-.595-1.531-1.171-2.266-1.792-.377-.318-.782-.489-1.261-.519-1.165-.073-1.807.393-2.275 1.665-1.135 3.081-2.267 6.163-3.399 9.244-.173.765-.395 1.513-.778 2.204-.913 2.941-2.001 5.818-3.105 8.69-.21.65-.376 1.316-.73 1.911-.416 1.515-.984 2.973-1.591 4.419-.081.794-.583 1.443-.765 2.202l-3.064 8.597c-1.048 2.881-2.096 5.762-3.145 8.643-.77 2.194-1.555 4.383-2.306 6.584-.502 1.473-.04 2.518 1.347 3.205.594.293 1.182.597 1.772.896.499.141.947.383 1.363.686l5.575 3.24 1.847 1.156c.691.376 1.433.667 2.036 1.195l1.021.597c1.762 1.049 3.649 1.893 5.24 3.219 1.501.532 2.759 1.738 4.494 1.617l.998.021c2.36-.022 4.725.108 7.06-.417.837-.188 1.702-.253 2.554-.374.951-.166 1.896-.412 2.854-.482 2.013-.148 3.758-1.077 5.584-1.777.751-.415 1.523-.784 2.354-1.013l2.036-.91c1.547-.482 2.561-1.716 3.772-2.672.667-.734 1.382-1.415 2.192-1.992 2.412-2.025 3.271-5.051 4.884-7.59l1.176-2.206c.133-.374.278-.741.569-1.028.111-.436.327-.819.597-1.173 1.633-3.107 3.259-6.218 4.905-9.317.318-.598.583-1.19.499-1.884zm-41.018-30.245c.263-.011.509-.004.403.372.406-.19.573.2.788.375 11.542 9.389 23.075 18.789 34.608 28.19l.05.086-.015-.012.01.013c-.455.103-.849-.126-1.252-.254-1.584-.507-3.215-.918-4.724-1.597-2.164-.974-4.348-.813-6.559-.456-.864.14-1.447.028-2.053-.717-5.086-6.258-10.223-12.476-15.347-18.703-1.673-2.033-3.355-4.058-5.023-6.095-.2-.244-.531-.425-.492-.818-.25-.005-.335-.18-.394-.383l-.171-.34.171.34zm-3.343-2.153l.238.228c3.168 3.824 6.341 7.643 9.5 11.475 4.645 5.632 9.279 11.273 13.916 16.911l.281.37c-.071.297-.301.302-.477.335-4.74.899-9.484 1.778-14.221 2.699-.589.114-.786.03-.946-.58-1.804-6.885-3.722-13.739-5.442-20.649-.8-3.212-1.717-6.414-2.633-9.607-.073-.254-.105-.521-.156-.782-.097-.122-.164-.248-.06-.4zm.881 8.154c2.086 7.802 4.158 15.608 6.28 23.4.208.764.051 1.019-.659 1.295-4.063 1.579-8.105 3.215-12.154 4.829-.238.095-.484.171-.766.269 1.891-12.444 3.394-24.872 5.217-37.562.745 2.778 1.415 5.273 2.083 7.769zm-7.056 30.906c4.394-1.743 8.793-3.474 13.176-5.246.632-.255.777-.036.942.504 1.315 4.293 2.653 8.577 3.984 12.865.207.667.367 1.352.627 1.998.229.568-.028.698-.5.779-6.622 1.131-13.243 2.265-19.862 3.406-.707.122-.972-.083-.708-.611.57-4.437 1.122-8.691 1.654-12.948.057-.454.336-.608.688-.748zm15.211-5.096c-.133-.429-.208-.721.411-.837 5.044-.947 10.082-1.925 15.122-2.893l.131-.022c.356-.096.491.208.667.443 2.505 3.333 5 6.673 7.523 9.991.406.534.19.702-.297.908-6.009 2.545-12.019 5.092-18.016 7.669-.614.264-.792.093-.965-.47-1.512-4.933-3.044-9.861-4.576-14.788zm-14.685-22.577l.003-.006c-.035-.232-.078-.466.199-.592l.003-.008c-.039-.234-.072-.467.201-.597l2.408-6.974c-.073 2.089-.492 4.137-.754 6.202-.535 4.218-1.114 8.431-1.73 12.638-.77 5.257-1.229 10.561-2.339 15.769-.113.531-.331.804-.794 1.006-2.257.986-4.487 2.025-6.672 3.589.291-1.743.769-3.238 1.216-4.739 2.438-8.188 5.068-16.315 7.764-24.422.135-.406.343-.801.3-1.252l.003-.019c-.045-.234-.088-.466.193-.595zm-8.26 22.694l-.176.308c.038-.114-.032-.29.176-.308zm-2.713 7.225c.81-2.316 1.685-4.609 2.531-6.912-.371 2.136-1.201 4.15-1.66 6.264-.205.942-.352 1.905-.606 2.824-.298 1.081-1.07 1.947-1.911 2.708.349-1.695 1.079-3.263 1.646-4.884zm1.327 11.094c-1.302-.66-2.602-1.324-3.909-1.975-.191-.095-.356-.177-.365-.415-.096-.132-.049-.18.099-.169l.011-.01c1.397-1.61 2.578-3.381 3.793-5.124 1.121-1.608 2.815-2.403 4.438-3.303.784-.435 1.631-.754 2.434-1.157.577-.289.764-.151.678.483-.218 1.612-.405 3.229-.621 4.842-.313 2.337-.694 4.667-.933 7.011-.089.869-.47.858-1.098.738-1.367-.26-2.739-.5-4.109-.747l-.152-.068-.265-.105zm26.175 9.62c-2.928.677-5.877.595-8.838.383-.41-.029-.778-.102-1.135-.312-4.159-2.451-8.323-4.895-12.482-7.347-.128-.075-.216-.217-.321-.331-.162.007-.33.022-.368-.202.139.036.312.011.371.195 4.521.695 8.793-.883 13.168-1.481 3.681-.503 7.33-1.241 10.992-1.887.623-.11.941.055 1.155.71 1.008 3.094 2.076 6.168 3.123 9.249-1.853.542-3.796.591-5.665 1.024zm5.944-1.021c.184-.012.361-.05.534-.113-.173.063-.35.101-.534.113zm9.084-3.99c-.144.131-.267.313-.436.386-2.616 1.134-5.239 2.255-7.859 3.378-1.058-3.145-2.11-6.293-3.182-9.434-.169-.495-.21-.805.397-1.061 5.937-2.504 11.861-5.041 17.79-7.564l.252.023c-1.696 3.444-3.386 6.861-5.06 10.286-.597 1.222-1.158 2.462-1.737 3.693h-.001l.018.05c.013.137-.064.206-.182.244zm12.696-18.604c-2.285 4.322-4.578 8.64-6.868 12.959-.783 1.478-2.068 2.463-3.36 3.443-.01.112-.064.18-.185.18l.177-.175c.365-1.469 1.228-2.714 1.845-4.069.951-2.089 2.14-4.079 2.988-6.206.872-2.186 2.722-3.53 4.072-5.297.499-.653.962-1.365 1.67-1.84.119.412-.173.693-.339 1.006zm2.62-5.192l-.092-.075c-2.085 2.248-4.053 4.597-5.991 6.971-.508.623-.773.657-1.284-.043-2.261-3.092-4.587-6.136-6.887-9.2-.177-.235-.336-.484-.562-.812 2.167-.313 4.182-.655 6.294.173 2.753 1.078 5.612 1.887 8.426 2.811l.083-.081c.113.079.109.164.014.255z"/><path d="M42.317 20.289v.007l.007.001.002-.012-.009.004z"/><path d="M25.55 75.92l-.012-.002.008.009h.007l-.003-.007z"/><path d="M68.738 76.347l-.002.002-.007.007-.001.002.009-.007.001-.005z"/></g></svg>