<svg xmlns="http://www.w3.org/2000/svg" height="100" width="100"><path d="M84.069 36.447c-2.479-1.821-5.014-3.548-7.852-4.779-.593-.195-1.153-.46-1.665-.818l.003.006c-.64-.195-1.247-.46-1.799-.841-2.333-1.094-4.673-2.175-6.994-3.292-.629-.302-.545-.921-.405-1.463.071-.272.307-.501.467-.749l.261-.609c.166-.947-.184-1.626-1.019-2.106-1.72-.988-3.423-2.003-5.134-3.007-.418-.242-.882-.121-1.324-.169-.493.132-.809.491-1.119.86l-.546.973c-2.253 1.438-2.831 4.067-4.303 6.06-.209.283-.396.581-.593.871-.082.32-.255.586-.479.823l-3.849 6.552-.943 1.522c-.385.795-.843 1.547-1.343 2.273-.154.368-.35.71-.619 1.006-.344.858-1.114 1.597-.715 2.667.039.104-.124.291-.207.431-2.015 3.379-4.03 6.758-6.05 10.136-.152.254-.325.496-.488.743-.837 1.429-1.673 2.861-2.513 4.289-.246.417-.642.653-1.063.855-.325.354-.722.605-1.155.804-.936.786-1.961 1.447-2.979 2.117l-.977.667c-1.698 1.31-3.472 2.51-5.253 3.703l-.836.587c-2.232 1.571-4.465 3.14-6.695 4.713-1.011.713-1.151 1.609-.416 2.579l.913 1.227c.273.231.492.504.642.83l.278.345c1.111 1.243 2.108 2.578 3.12 3.9.43.562.848 1.152 1.645 1.227l.951-.065c1.14-.918 2.198-1.938 3.408-2.771 1.168-1.118 2.422-2.134 3.692-3.131.148-.243.397-.359.628-.498 1.48-1.397 3.087-2.644 4.658-3.934l.472-.345c2.107-1.788 4.209-3.583 6.327-5.358.402-.337.761-.701 1.074-1.117.207-.525.508-.996.836-1.452.998-1.812 1.98-3.633 2.998-5.435 1.573-2.786 3.17-5.558 4.757-8.336.116-.243.22-.492.35-.727.832-1.522 1.793-1.554 2.763-.095 1.457 2.02 1.907 4.185.71 6.459-.459.873.414 2.346 1.41 2.374 3.048.087 6.059-.118 9.035-.844 2.329-.568 4.506-1.494 6.63-2.574l1.798-1.195.833-.61.827-.663c1.929-1.719 3.634-3.637 5.132-5.742l.959-1.499 1.89-3.646c.19-.45.386-.899.569-1.353.447-1.119.264-1.672-.699-2.379zm-9.509-3.128c1.269.574 2.518 1.192 3.776 1.792-2.425 4.837-5.818 8.776-10.653 11.531-.415-1.98-.811-3.873-1.213-5.765-.077-.365.136-.628.288-.912 1.455-2.726 2.912-5.451 4.368-8.176 1.212.359 2.292 1.016 3.434 1.532zm-8.131-3.886c1.345.656 2.76 1.178 4.008 2.024.138.006.275.015.395.059-.12-.044-.257-.053-.395-.059-.148.225-.314.439-.441.675-1.329 2.453-2.666 4.902-3.963 7.372-.251.478-.542.609-1.038.52-.7-.126-1.406-.214-2.11-.316-1.909-.275-3.818-.55-5.8-.834l.434-.81c1.902-3.353 3.805-6.705 5.709-10.057 1.152.284 2.152.917 3.201 1.428zm-5.7-7.657c.856.473 1.691.984 2.553 1.444.394.21.523.432.269.832-.261.409-.432.877-.812 1.205l-.093.416.093-.416c-1.497-.881-3.076-1.623-4.487-2.648.849-1.726.852-1.732 2.478-.833zm-3.858 1.772c.18-.312.337-.567.731-.294.198-.07.319-.22.433-.375-.115.155-.235.305-.433.375 1.605 1.025 3.265 1.956 4.952 2.838.769.326.415.805.174 1.269-1.183 2.029-2.388 4.046-3.536 6.094-.338.605-.559.653-1.011.127-1.407-1.637-3.067-3.041-4.402-4.745 1.032-1.762 2.07-3.521 3.092-5.288zm-32.343 53.712c-.543.535-1.193.96-1.752 1.481-.335.312-.52.262-.781-.071-1.417-1.807-2.843-3.607-4.28-5.398-.235-.293-.307-.501.073-.714.33-.184.589-.493.984-.566 2.599 1.171 5.232 2.263 7.892 3.288-.52.866-1.443 1.298-2.136 1.98zm3.495-2.92c-.204.172-.36.421-.666.44-.121.197-.256.375-.461.455.205-.081.34-.259.461-.455-2.579-1.233-5.251-2.247-7.898-3.319 2.024-1.583 4.191-2.963 6.284-4.448 1.56-1.107 3.141-2.184 4.713-3.274.339.315.653.663 1.023.937 1.571 1.167 2.247 2.795 2.468 4.669-1.974 1.666-3.948 3.332-5.923 4.996zm20.529-24.175c-.616 1.089-1.131 2.244-1.943 3.217l-3.451-5.281-.368.804c1.103 1.806 2.262 3.576 3.478 5.308l-2.293 4.117-.453.803c-.741 1.341-1.409 2.73-2.246 4.008-.63.963-1.708 1.522-2.571 2.275-1.236 1.08-2.531 2.092-3.801 3.133-.16.294-.439.445-.703.614.264-.168.543-.32.703-.614-.473-.317-.349-.887-.555-1.318-.283-.592-.191-1.1.282-1.604 2.22-2.37 4.415-4.764 6.613-7.154.231-.252.443-.359.774-.16.489.294 1.002.548 1.505.82l.453-.803c-.621-.287-1.271-.524-1.855-.874-.537-.321-.863-.196-1.254.234-2.287 2.508-4.597 4.994-6.898 7.489-.14.151-.284.486-.492.279-.762-.758-1.727-1.336-2.192-2.37 1.584-1.12 3.183-2.221 4.744-3.371.677-.499.955-1.323 1.375-2.02 1.624-2.692 3.219-5.402 4.837-8.098.15-.25.247-.559.55-.695l.369-.803c1.013-1.7 2.024-3.403 3.042-5.101.109-.183.257-.342.387-.512l.096-.347-.096.348 4.765 2.677c-.801 1.74-1.859 3.338-2.8 5zm3.467-5.501c-1.721-1.097-3.496-2.099-5.283-3.08-.529-.247-.238-.543-.058-.844l5.953-9.972c.222-.371.466-.728.7-1.091 1.458 1.517 2.886 3.063 4.387 4.535.54.529.532.892.172 1.517-1.511 2.622-3.048 5.231-4.416 7.933-.143.228-.312.445-.424.687-.234.5-.536.7-1.03.315zm2.164-.656c-.121-.051-.224-.14-.334-.215.11.075.213.164.334.214.716-1.256 1.451-2.501 2.135-3.773.238-.444.522-.544.989-.474 2.537.383 5.076.762 7.62 1.097.508.067.679.255.771.738.296 1.554.599 3.112 1.006 4.639.18.679-.046.901-.6 1.145-2.552 1.12-5.229 1.721-7.983 2.032-.811-2.167-2.265-3.865-3.938-5.404zm15.916 8.435c-3.814 1.838-7.869 2.49-12.142 2.388.516-1.515.704-3.013.341-4.543 3.013-.397 5.968-1.01 8.707-2.396.363-.184.557.013.8.177l4.472 3.022c-.552.73-1.411.983-2.179 1.352zm12.386-13.704c-2.075 4.739-4.985 8.835-9.223 11.899-.106-.009-.237.02-.313-.032-1.567-1.071-3.128-2.15-4.772-3.284 4.905-2.812 8.349-6.847 10.855-11.738 1.266.651 2.334 1.595 3.511 2.377.378.251.046.541-.058.778z"/></svg>