<svg xmlns="http://www.w3.org/2000/svg" height="100" width="100"><path clip-rule="evenodd" d="M80.975 47.971c-.597-3.415-1.865-6.589-3.538-9.611l-.911-1.63c-1.293-1.876-2.652-3.697-4.117-5.447-2.025-2.418-4.555-4.197-7.153-5.902-.453-.297-.897-.535-.448-1.156.031-.043.06-.121.042-.161-.536-1.227.181-2.51-.173-3.744-.288-.481-.805-.688-1.217-1.021l-1.501-.878c-.511-.213-.977-.504-1.419-.836-.664-.262-1.257-.649-1.831-1.066-.689-.312-1.374-.359-2.055.024-.439.572-.805 1.171-1.725 1.084-.464-.044-.867.397-1.127.825-.142.233-.267.331-.541.198-2.079-1.012-4.268-1.688-6.539-2.109-.87-.092-1.732-.228-2.568-.495-.197-.013-.401-.001-.592-.044-3.84-.873-7.74-1.016-11.658-1.001-.436.002-.855.36-1.296.056l-1.012.052c-1.179.133-2.36.248-3.535.406-.925.124-1.533.624-1.778 1.567-.191.736-.46 1.451-.695 2.175l-.172.893c.021.963.665 1.454 1.414 1.865l.326.029c.302-.039.598-.03.876.116.639-.037 1.256.111 1.877.225.58.086 1.181.048 1.74.27.337.051.693-.011 1.008.173 2.833.394 5.615 1.03 8.368 1.799l2.416.722c1.542.464 3.116.828 4.609 1.452.324.038.59.208.857.376 1.316.56 1.319.562.577 1.74-.179.284-.385.552-.579.826-.197.505-.507.94-.844 1.357-.225.539-.383 1.122-.028 1.622.448.63.234 1.148-.098 1.691-.234.383-.48.759-.72 1.138l-.688 1.202c-1.4 2.428-2.88 4.811-4.276 7.237-2.275 3.955-4.625 7.866-6.896 11.824-.127.22-.277.427-.417.64-.158.356-.3.721-.6.991-.09.329-.269.607-.498.856-.885 1.703-1.858 3.351-2.931 4.941.05.255-.122.394-.28.54-1.011 1.931-2.145 3.791-3.294 5.641-.126.3-.386.483-.608.699-.347.638-.937 1.06-1.409 1.587l-.059.1c-.358.799-1.323 1.073-1.648 1.903-.605.71-1.171 1.458-1.825 2.119-.658.665-.908 1.407-.749 2.31.319 1.084.637 2.169 1.336 3.089.339.339.655.704 1.02 1.012 2.204 1.861 4.882 2.446 7.643 2.739 1.187.125 1.814-.358 2.3-1.49.447-1.044.912-2.08 1.37-3.119.456-1.169.899-2.344 1.514-3.442.8-2.098 1.548-4.219 2.744-6.141 1.705-3.137 3.444-6.254 5.297-9.307.257-.657.605-1.264 1.025-1.83 2.451-4.422 4.915-8.838 7.496-13.187.3-.651.613-1.294 1.059-1.862 1.089-1.957 2.181-3.913 3.266-5.872.125-.225.291-.312.548-.315.861-.01 1.408-.487 1.808-1.213l1.488-2.583c.2-.363.368-.485.776-.236 2.108 1.288 4.219 2.57 6.166 4.098l2.043 1.51c.464.29.918.593 1.284 1.008.863.52 1.565 1.236 2.307 1.903.356.22.656.5.904.837.931.712 1.776 1.515 2.533 2.41l.882.972c.467.41.83.905 1.174 1.417l.622.805c.6.781 1.49 1.038 2.335.672.755-.327 1.166-1.101 1-2.046zm-22.103-28.609c.85.505 1.713.987 2.567 1.485 1.11.649 1.109.652.179 1.646l-.412-.285c-1.275-.826-2.69-1.424-3.879-2.39.526-1.071.521-1.063 1.545-.456zm-3.958 1.732c.632-1.04.628-1.043 1.706-.6 1.565 1.029 3.201 1.939 4.834 2.853.092.066.175.156.277.194.632.236.71.577.297 1.117-.253.331-.404.739-.602 1.113.185.096.341.22.454.384-.114-.165-.27-.288-.454-.384-.483.829-.982 1.649-1.442 2.49-.202.37-.345.512-.737.18-1.799-1.523-3.615-3.027-5.441-4.517-.33-.269-.39-.484-.153-.842.297-.447.542-.927.81-1.392.151-.198.322-.384.451-.596zm-23.578-.531c-1.654-.264-3.31-.516-4.971-.719-.466-.057-.51-.208-.353-.569l.015-.084c.401-1.502.403-1.478 1.952-1.632 4.233-.42 8.456-.37 12.672.203.252.034.5.104.749.157l-1.176 4.62c-2.944-.746-5.886-1.497-8.888-1.976zm10.493 2.484c-.265-.084-.559-.101-.751-.342l1.238-4.602c2.243.5 4.552.694 6.753 1.372 1.619.499 3.218 1.082 4.653 2.022-1.081 1.622-2.115 3.274-3.061 4.98-.703-.16-1.279-.592-1.892-.929-2.185-1.202-4.596-1.754-6.94-2.501zm-12.411 59.124c-.159.377-.39.51-.789.455-1.931-.268-3.806-.697-5.393-1.919-.336-.258-.647-.561-.92-.886-1.198-1.422-1.169-2.047.057-3.422 1.569-1.76 3.119-3.537 4.677-5.308l6.832.566c-1.489 3.504-2.982 7.006-4.463 10.513zm15.569-30.532c-2.045 3.676-4.087 7.354-6.136 11.028-1.413 2.531-2.837 5.057-4.259 7.583-.11.196-.245.378-.368.567l-6.65-.556-.262.415.262-.415c2.006-3.44 4.007-6.884 6.021-10.32 2.489-4.246 4.988-8.488 7.488-12.728.142-.24.329-.453.495-.679v-.001c1.103 1.724 2.182 3.464 3.409 5.105.317-.167.462-.434.509-.758-.048.324-.193.591-.509.758zm5.588-9.706c-1.662 2.95-3.373 5.872-5.064 8.806-1.255-1.616-2.34-3.348-3.421-5.083 1.775-3.047 3.539-6.101 5.331-9.138.604-1.022 1.098-2.116 1.882-3.028l4.562 2.572c-.964 2.031-2.19 3.916-3.291 5.87zm5.573-6.891c-.4.79-.786 1.058-1.532.484-1.677-1.038-3.39-2.014-5.146-2.914-1.168-.793-1.165-.791-.388-2.03.709-1.129 1.409-2.265 2.112-3.398.478-.768.99-1.518 1.424-2.311.274-.502.475-.471.872-.13 1.359 1.165 2.748 2.295 4.126 3.438.503.418 1.214.744 1.451 1.279.28.632-.587 1.133-.717 1.793-.741 1.26-1.543 2.488-2.202 3.79zm9.917.75c-2.206-1.578-4.543-2.948-6.854-4.36.919-1.701 1.952-3.342 2.769-5.099.168-.07.32-.057.482.042 2.096 1.285 4.18 2.586 6.049 4.198l-2.128 5.266c-.107-.015-.24.007-.318-.048zm12.09 10.389c-.129.06-.106-.103-.137-.18-2.002-2.134-4.067-4.202-6.374-6.01-1.542-1.208-3.104-2.389-4.656-3.583l2.161-5.151c1.203.932 2.09 2.156 3.008 3.338 2.654 3.415 4.804 7.106 5.959 11.316.088.083.123.231.041.27z"/></svg>