<svg xmlns="http://www.w3.org/2000/svg" height="100" width="100"><path clip-rule="evenodd" d="M83.184 40.176c-3.036-2.054-6.064-4.119-9.096-6.179l-2.174-1.436-1.791-1.279c-1.109-.672-2.205-1.364-3.226-2.167-1.748-1.491-3.976-1.749-6.069-2.35-1.204-.346-2.414-.673-3.63-.974-.395-.098-.55-.279-.419-.652.348-.996.251-1.902-.685-2.496-.934-.592-1.798-.234-2.576.414-.113.147-.211.318-.437.3-1.014 1.062-2.093 1.177-3.02.324l-.363-.456c-.371-.208-.753-.518-1.185-.367-.813.283-1.098-.206-1.409-.79-.507-.951-1.055-1.879-1.587-2.817-.232-.339-.507-.652-.613-1.063-.429-.705-.864-1.406-1.287-2.114-.346-.58-.841-.9-1.517-.977-3.844-.437-7.175.579-9.858 3.453-.503.73-.511 1.506-.292 2.342.163.622.353 1.253.28 1.915.498 1.369.727 2.807.979 4.23.114.645-.581.494-.96.625l-.908.272-.343.133c-.977.314-1.95.641-2.932.94-3.37 1.028-6.653 2.41-10.293 2.292-1.039-.034-1.673.74-2.013 1.695-.873 2.458.081 4.524 1.432 6.488.839 1.219 1.59 1.387 2.938.781 1.687-.758 3.29-1.695 5.035-2.328.198-.199.469-.192.716-.252.411-.261.871-.376 1.342-.459.086-.128.21-.155.353-.133.396-.146.818-.242 1.181-.445 1.074-.601 1.897-.282 2.595.622l.196.118.003-.004c.53.37 1.041.772 1.596 1.102.602.358.677.743.217 1.263-.166.187-.3.403-.449.606l.002.001c-.097.329-.279.607-.524.843l-.188.315-.129.202c-2.022 3.198-3.888 6.494-6.043 9.609-.877 1.099-.693 2.326-.448 3.571.404 2.06.785 4.124 1.176 6.186.185.317.287.66.318 1.025.259.496.38 1.035.486 1.578l.183.517.053.29c.124.101.144.237.127.385l2.589 6.492c.201.189.275.44.335.698l3.108 5.807 2.736 4.177c.427.566.902 1.101 1.27 1.703.549.897 1.307 1.217 2.342 1.238 3.275.07 6.518-.225 9.753-.686l.508-.055c.584-.359 1.29-.228 1.903-.47l2.393-.517.843-.214c2.926-.899 5.759-2.041 8.573-3.239l5.185-2.721c.477-.298.925-.664 1.435-.88 1.241-.525 1.786-1.565 2.19-2.738.166-.599.348-1.193.652-1.74.943-2.567 1.887-5.134 2.831-7.701l.82-2.229.618-1.576.019.011.073-.333.103-.192.377-1.003c-.035-.206.085-.359.176-.522-.012-.14.027-.259.145-.345.751-2.332 1.624-4.619 2.539-6.891l.303-.841c.496-1.584 1.075-3.138 1.727-4.665.153-.518.286-1.045.578-1.51l.17-.568c.629-1.741.485-2.158-1.037-3.188zm-17.164-8.842c2.779 2.051 5.707 3.899 8.568 5.84.227.155.532.244.598.574-.394.824-.844 1.626-1.166 2.478-.259.686-.515.612-1.022.254-3.015-2.123-6.094-4.16-9.057-6.351-1.358-1.004-2.913-1.245-4.434-1.688-.433-.126-.903-.143-1.32-.435l1.661-3.003c2.153.519 4.296.946 6.171 2.331zm-29.334 36.139c3.293-3.529 6.565-7.08 9.808-10.655.546-.601.86-.544 1.434-.034 2.584 2.293 5.195 4.559 7.846 6.774.723.604 1.031 1.422 1.498 2.159.503.792 1.319 1.576 1.295 2.46-.024.848-.952 1.499-1.481 2.237l-4.635 6.375c-.264.367-.612.502-.998.592-2.589.599-5.207.999-8.135 1.098-.993.299-1.698-.31-2.355-1.343-1.691-2.657-3.198-5.405-4.529-8.256-.272-.583-.188-.936.251-1.407zm-.898-.23c-1.681-4.244-2.747-8.371-3.141-12.667-.029-.316.05-.542.206-.793 1.286-2.06 2.57-4.123 3.834-6.197.224-.368.498-.589.91-.7 3.003-.806 6.005-1.617 9.003-2.441.391-.108.692-.05 1.032.18 1.492 1.007 3.007 1.981 4.511 2.972.777.512.825.747.229 1.469-.472.572-.991 1.107-1.494 1.654-4.818 5.238-9.638 10.474-14.453 15.714-.191.208-.352.445-.636.809zm23.442 1.824c.426-.577.452-1.131.12-1.741-.573-1.053-1.122-2.119-1.709-3.164-.223-.397-.201-.693.054-1.087 2.742-4.245 5.462-8.504 8.181-12.766.213-.334.419-.558.87-.543 2.397.077 4.794.128 7.192.179.734.016.309.448.224.679-.928 2.516-1.878 5.023-2.823 7.532-1.478 3.924-2.962 7.846-4.433 11.773-.134.357-.286.654-.627.875-3.826 2.485-7.865 4.523-12.229 5.886l-.396.003c1.905-2.607 3.731-5.124 5.578-7.625zm14.879-20.074c-.999-.037-2.001-.011-3.001-.011v-.171c-1.513 0-3.028.021-4.54-.011-.581-.012-.936.181-1.255.681-2.747 4.316-5.532 8.606-8.271 12.926-.355.56-.536.623-1.051.172-2.579-2.261-5.186-4.49-7.806-6.703-.47-.397-.272-.614.032-.944 1.608-1.744 3.198-3.504 4.8-5.253.254-.277.463-.573.606-.923 1.954-4.784 3.923-9.562 5.854-14.356.261-.649.508-.799 1.247-.678 1.984.325 3.343 1.69 4.886 2.728 3.462 2.33 6.86 4.754 10.302 7.112.504.345.686.628.428 1.24-.487 1.156-.906 2.344-1.305 3.534-.164.488-.408.677-.927.658zm-20.795-8.607c1.316-2.274 2.631-4.55 3.951-6.821.327-.563.951-.672 1.471-.279.327.246.023.457-.055.65-1.114 2.752-2.242 5.498-3.369 8.244-.497 1.212-.999 2.424-1.498 3.635l-.149.028c-.198-1.555-.388-3.111-.599-4.663-.043-.32.106-.549.247-.794zm1.559-12.749c1.307.395 2.701.509 3.921 1.187-1.055.574-1.983 1.335-2.936 2.052-.53.399-.999.419-1.585.233-.367-.116-.421-.249-.327-.605.238-.906.424-1.827.631-2.741v.001c.1-.046.217-.151.296-.128zm-3.47-.873l-1.602 1.257c-.08-.715-.436-1.26-.378-1.903.655.231 1.387.225 1.981.646zm-16.489-7.503c1.677-1.295 3.548-1.909 5.646-1.916.766-.003 1.302.249 1.708.984 1.312 2.374 2.705 4.703 4.067 7.049l1.151.188c.556-.565.699-.085.862.342.08.388.141.781.247 1.162.075.266.163.519-.17.642-.424.156-.366-.214-.433-.436l-.507-1.71-1.151-.188c-2.783 1.479-5.56 2.969-8.351 4.432-1.624.851-1.635.832-2.026-.99-.542-2.651-1.073-5.305-1.634-7.952-.147-.69-.006-1.145.591-1.607zm14.001 15.292c.374 1.174-.093 1.86-.823 2.486-1.603 1.377-3.443 2.207-5.789 2.083-1.248.33-1.956-.383-2.525-1.614-.835-1.808-1.838-3.539-2.791-5.292-.214-.394-.245-.606.229-.844 1.196-.6 2.348-1.285 3.533-1.908 1.741-.917 3.507-1.788 5.235-2.727.578-.313.817-.272.983.4.612 2.482 1.173 4.984 1.948 7.416zm-24.125 1.021l-1.179.311c-1.298.943-2.837 1.421-4.231 2.179-.176.096-.312-.013-.419-.18-.706-1.102-1.234-2.245-1.022-3.613.066-.426.218-.673.68-.711 1.05-.088 2.099-.163 3.153-.105.591.827 1.137 1.688 1.839 2.431l1.18-.311c-.399-.026-.544-.368-.749-.623-.438-.547-.859-1.107-1.287-1.662.612-.511 1.4-.583 2.116-.815 2.822-.914 5.657-1.785 8.489-2.667.187-.059.387-.078.581-.115l1.017-.333.115-.107c.13.605.195 1.234.405 1.811.304.834-.085 1.035-.88 1.071l.36-2.775-1.017.333c-.044.394-.164.798-.12 1.183.175 1.505-.691 2.044-1.974 2.29-.407.078-.786.303-1.178.462-1.996.541-3.921 1.295-5.879 1.949zm7.346-.755c-.225-.178-.604-.252-.586-.658.894-.286 1.786-.576 2.681-.858 1.283-.404 2.23-.026 2.847 1.134.844 1.586 1.688 3.172 2.526 4.761.19.36.381.685.844.762 3.772.63 6.938-.389 9.392-3.402.314-.386.427-.733.278-1.244-.43-1.477-.769-2.979-1.19-4.458-.146-.514-.047-.838.365-1.178 1.076-.887 2.115-1.82 3.168-2.734l1.703-1.229-.304 1.4c-.543 2.097-1.083 4.195-1.634 6.29-.072.274-.095.515.173.679.268.164.489.01.703-.142 1.51-1.072 3.021-2.144 4.647-3.136-.345.632-.678 1.269-1.038 1.892-1.398 2.423-2.79 4.85-4.221 7.253-.331.556-.4 1.084-.31 1.705.243 1.692.442 3.391.662 5.127-.401.017-.617-.237-.86-.394-1.343-.868-2.692-1.727-4-2.645-.521-.365-.984-.427-1.588-.26-3.984 1.102-7.978 2.169-11.966 3.256-.304.083-.596.176-.986.059 2.001-1.667 3.97-3.3 5.931-4.943.825-.693.823-.834-.007-1.479-.832-.646-1.68-1.272-2.522-1.906-1.571-1.215-3.149-2.422-4.71-3.65zm4.367 4.498c.639.515 1.272 1.037 1.919 1.541.245.191.357.323.049.577-2.084 1.716-4.156 3.445-6.234 5.168-.101.084-.215.172-.359.086.076.09.027.173-.047.227l-.17-.067.202-.172c1.454-2.513 2.946-5 4.641-7.361zm2.22 41.468c-5.338-7.46-8.909-15.677-10.566-24.711-.149-.813-.259-1.633-.382-2.45-.039-.256-.036-.5.116-.739.918-1.443 1.825-2.894 2.741-4.338.04-.063.136-.091.206-.135.307.318.631.114.95.031l3.725-.971c-.207.837-.693 1.37-1.047 1.965-.759 1.277-1.533 2.548-2.364 3.779-.385.571-.453 1.14-.382 1.781.477 4.309 1.536 8.463 3.162 12.49 1.45 3.594 3.224 7.004 5.393 10.208.358.529.425.99.224 1.591-.299.89-.5 1.812-.743 2.72-.495-.278-.723-.787-1.032-1.219zm27.476-4.593c-5.636 2.974-11.55 5.122-17.891 5.98-1.354.183-2.719.279-4.08.415-1.2.268-2.403.223-3.608.037l-.05-.052c.24-.851.508-1.696.71-2.556.108-.457.335-.577.778-.576 7.974.019 15.308-2.249 22.135-6.274.614-.361.874-.305 1.206.338.388.752.731 1.546 1.307 2.192.013.351-.298.383-.509.495zm15.744-33.247c-3.728 9.995-7.432 20-11.13 30.007-.197.534-.475.931-.998 1.202-.708.367-1.375.815-2.059 1.228-.9-.792-1.238-1.945-1.85-2.92-.191-.303.191-.447.396-.548.908-.449 1.327-1.213 1.67-2.14 3.121-8.432 6.28-16.85 9.445-25.266.217-.577.179-.948-.387-1.283-.687-.407-1.317-.909-1.989-1.342-.397-.255-.566-.507-.291-.971.516-.872.665-1.94 1.419-2.689 1.796 1.22 3.582 2.455 5.394 3.65.446.294.585.521.379 1.075z"/></svg>