<svg xmlns="http://www.w3.org/2000/svg" height="100" width="100"><path clip-rule="evenodd" d="M75.327 76.095c-.143-.511-.221-1.029-.175-1.561-.466-2.804-1.039-5.577-2.258-8.172l-1.38-2.24c-.286-.069-.387-.323-.532-.533l-1.572-1.373-.188-.135-1.018-.582c-.902-.392-1.852-.629-2.797-.883-2.652 0-5.291-.216-7.932-.43-.508-.042-.67-.237-.79-.691-.654-2.474-1.344-4.939-2.017-7.408-.053-.193-.106-.396-.103-.594.039-2.388-.116-4.778.079-7.164l.004-.847c-.175-2.474-.027-4.952-.079-7.427-.008-.39.233-.364.507-.395 1.571-.181 2.422-1.333 2.169-2.913-.178-1.107-.448-2.2-.497-3.326-.211-.258-.166-.565-.167-.863-.862-2.846-.713-5.689.024-8.531.051-1.208.58-2.397.143-3.625l-.892-1.031c-1.107-.508-2.297-.241-3.444-.364h-.876l-3.818.003-1.909-.006-16.822-.001-1.733.027-1.059.267-.363.224-.699.874-.223.89.016.499.021.182.057 1.535c.211.81.135 1.637.138 2.458.057.689.141 1.377.167 2.066.102 2.666-.396 5.287-.61 7.93-.085 1.044-.22 2.075.485 2.981l.185.174.844.515c1.198.093 1.201.093 1.204 1.308.004 1.894.054 3.79-.161 5.678.164.076.152.226.151.367-.006 4.213-.013 8.425-.02 12.638.008 1.289.083 2.583.002 3.867-.069 1.095-.744 2.026-1.078 3.055l-.177.54-.287.873c-.548 2.173-1.05 4.355-1.234 6.596l-.017.168-.021.533c-.008.41.081.825-.07 1.227l-.006.829c.147.809.141 1.627.138 2.445.209 1.207.467 2.407.497 3.639l.062 3.971c.577 1.205 1.514 1.639 2.859 1.623 4.822-.057 9.647-.09 14.467.017 1.561.034 2.644-.534 3.424-1.725.943-1.439 2.134-2.157 3.873-1.815.265.053.609-.088.681.34.46.329.778.774 1.041 1.265l1.397 1.54c.138.004.262.035.335.168.498.159 1.007.188 1.529.187 5.825-.009 11.649-.021 17.473.006.979.005 1.888-.056 2.644-.75.504-.786.573-1.671.588-2.568l-.178-5.551zm-20.711-13.615l-.099-.192.099.192zm-24.373-18.498c-.045-3.397-.084-6.793.02-10.189h14.278c-.608.917-1.155 1.764-1.723 2.596-1.202 1.761-2.426 3.507-3.619 5.274-.427.633-.842 1.123-1.72 1.22-2.424.269-4.804.858-7.235 1.099zm9.475-1.428c1.909-2.749 3.8-5.51 5.682-8.277.256-.377.546-.515 1-.508 1.762.027 3.524.013 5.286.014.016 1.67.044 3.34.046 5.01.007 3.976.004 7.952 0 11.929 0 .344-.035.688-.054 1.033l.024.11-.024-.11c-1.946.519-3.895 1.028-5.837 1.565-.52.144-.796.041-1.077-.469-1.669-3.033-3.375-6.045-5.098-9.048-.271-.473-.253-.811.051-1.249zm5.92 12.171c.509-.885 1.523-.575 2.257-.936.432-.213.569.124.68.424.21.567.799 1.21-.327 1.529-.302.086-.311.407-.218.737.393 1.385.753 2.78 1.119 4.172.119.453.427.59.852.527.481-.071.773.123.66.605-.106.453.703 1.161-.386 1.362-.648.119-1.275.347-1.912.526-.368-.001-.45-.244-.522-.511-.725-2.698-1.453-5.396-2.177-8.094-.029-.111-.073-.259-.026-.341zm4.825 5.384c-.302.068-.437-.094-.519-.392l-.781-2.727c-.186-.678.399-.664.772-.767.354-.098.788-.303.925.357.157.756.402 1.494.601 2.241.264.992.069 1.247-.998 1.288zm2.02.364c.396-.064.293-.456.225-.723-.355-1.394-.738-2.78-1.095-4.173-.145-.566-.426-.723-1.012-.559-1.05.293-.955-.695-1.174-1.218-.277-.661.394-.521.711-.629.571-.195 1.157-.348 1.736-.519.618 1.46.871 3.025 1.3 4.539.454 1.603.85 3.223 1.271 4.836-.721.199-1.446.383-2.16.603-.346.106-.519.094-.587-.33-.126-.792-.485-1.623.785-1.826zm-24.967-28.212c.193-2.876.773-5.727.594-8.627-.093-1.525-.184-3.051-.313-4.573-.099-1.169-.058-1.244 1.1-1.244 8.041 0 16.081-.001 24.122 0 1.027 0 1.096.074.929 1.086-.264 1.591-.551 3.178-.811 4.77-.225 1.376.21 2.692.411 4.026.222 1.481.491 2.955.754 4.431.101.569-.095.791-.683.751-.576-.039-1.157-.004-1.735-.002-7.232 0-14.465-.001-21.697-.002-.723-.002-1.447-.019-2.169 0-.47.012-.534-.141-.502-.617zm2.494 28.743l.175-.181.081-.92c-.019-1.438-.056-2.876-.054-4.313.003-3.512.024-7.023.038-10.534 2.552-.415 5.108-.804 7.652-1.265.523-.095.703.073.924.47 1.204 2.168 2.474 4.3 3.638 6.489.768 1.445 1.798 2.761 2.22 4.385.376 1.448.773 2.89 1.156 4.336.45 1.7.449 1.674-1.283 1.536-4.762-.381-9.526-.737-14.289-1.103l-.081.92c1.949.174 3.896.366 5.847.518 3.271.256 6.545.488 9.818.728.291.021.677.009.754.307.207.799.568 1.58.504 2.429-.196 2.612-.409 5.222-.622 7.832-.135 1.663-.297 3.325-.411 4.99-.049.714-.325.926-1.067.922-5.633-.031-11.265-.008-16.898-.002-.49-1.003-.529-2.114-.622-3.179-.436-5.003.389-9.803 2.522-14.364zm13.395 20.909c-.21.266-.49.259-.782.259-4.669-.002-9.339-.006-14.008.006-.456.001-.705-.091-.67-.615.043-.66.031-1.324.042-1.986l17.303-.007c-.494.889-1.263 1.557-1.885 2.343zm3.597-3.39c-.118-.032-.224-.045-.321-.043.097-.002.203.011.321.043.06-.949.103-1.898.194-2.847.326-3.412.611-6.829.851-10.248.043-.605.304-.762.79-.888 2.063-.538 4.119-1.099 6.177-1.652 1.556-.095 3.095.165 4.642.257 1.379.082 2.751.283 4.136.263 2.635-.038 4.585 1.161 5.985 3.325 1.409 2.177 2.041 4.628 2.405 7.155.221 1.539.468 3.08.355 4.647-4.305-.003-8.61-.01-12.915-.006-2.687.003-5.373.024-8.059.036h-.001l-4.561-.041zm4.864.251l.283.276-.283-.276zm18.344 3.397c-4.963 0-9.926-.007-14.89.01-.503.002-.859-.099-1.157-.545-.476-.716-1.133-1.302-1.555-2.063l19.936-.017c.208 2.616.208 2.616-2.335 2.616z"/></svg>