<svg xmlns="http://www.w3.org/2000/svg" height="100" width="100"><path clip-rule="evenodd" d="M80.784 41.803c-.475-2.218-1.309-4.308-2.206-6.379-1.03-2.379-2.303-4.634-3.454-6.95l-.488-.839c-.434-.716-.909-1.346-1.772-1.642-1.157-.396-2.269-.92-3.411-1.363-3.581-1.391-7.147-2.839-10.99-3.368-.527-.072-.509-.393-.573-.75-.202-1.145-.134-2.345-.688-3.418l-.825-.704c-.13-.045-.267-.075-.387-.138-2.516-1.302-5.152-1.581-7.88-.867-.967.253-1.954.539-2.513 1.505l-.439 1.848c-.127 1.724-.597 3.39-.856 5.092-.057.373-.328.313-.575.293l-2.99-.255c-.116.037-.223.033-.313-.062l-.017.006-.976-.066c-.664-.048-1.328-.103-1.993-.145-2.933-.183-5.857-.411-8.596-1.621l-.801-.047c-1.01.359-1.628 1.149-2.19 2l-.356 1.027c-.197 1.163-.217 2.324-.018 3.493.337 1.985.643 2.295 2.577 2.505.263-.168.554-.124.841-.113 1.167-.06 2.327-.251 3.5-.19.395-.149.793-.211 1.202-.06 1.365.071 2.729.153 4.095.207.37.015.625.11.795.466.25.526.545 1.031.821 1.545l.257.372c.544.931 1.055 1.882 1.643 2.784.317.486.209.72-.27.928-.327.143-.636.326-.953.491l-1.34.809c-.273.494-.695.738-1.242.881-1.05.274-2.083.612-3.118.938-1.004.316-1.385.868-1.344 1.901.032.807.571 1.393 1.47 1.613 1.138.279 2.331.232 3.482.599-.684 1.642-1.366 3.294-2.061 4.941-.622 1.479-.333 2.234 1.116 2.855.614.264 1.224.538 1.847.783 1.022.401 1.671.241 2.339-.63.438-.573.714-.035 1.031.107.427.191.263.437.023.702-2.245 2.48-4.482 4.967-6.721 7.452l-2.053 2.344c-.044.176-.188.249-.33.324-1.026 1.212-2.047 2.427-3.185 3.538-.285.431-.597.839-.995 1.174-1.086 1.222-2.167 2.45-3.265 3.661-.2.22-.476.37-.718.552l-1.046.825c-.412.361-.804.75-1.309.989-.738.591-1.469 1.19-2.216 1.77-.466.362-.902.743-1.181 1.273l-.031 1.809c.048.779.443 1.445.7 2.156.759 1.102 1.74 1.97 2.846 2.707.631.285 1.252.597 1.896.851 2.799 1.106 3.055.929 4.438-.879.542-.938 1.165-1.82 1.842-2.666l1.63-2.363c.965-1.54 1.991-3.035 3.288-4.322.096-.227.256-.397.463-.527 1.04-1.254 2.064-2.521 3.205-3.688l.659-.834 1.853-2.174c.26-.35.546-.677.905-.931.963-1.406 2.172-2.608 3.252-3.917.887-1.075 1.845-2.092 2.716-3.179.326-.407.546-.413.93-.129.503.372 1.228.315 1.664.87.204.259.261.384.059.692-.592.896-.495 1.675.265 2.393.567.535 1.155 1.052 1.77 1.533.992.776 1.868.693 2.71-.252 1.186-1.333 2.355-2.682 3.518-4.036.298-.347.531-.512 1.032-.256 1.592.812 2.044.655 3.216-.712 1.99-2.32 3.695-4.911 6.279-6.673l2.023-1.683c.23-.288.506-.518.841-.676l.152-.15c1.338-1.256 2.756-2.42 4.206-3.544l1.006-.826c.462-.4.887-.856 1.394-1.187.909-.596 1.105-1.391.891-2.391zm-19.901-17.819c3.698 1.014 7.263 2.411 10.762 3.975-.478.58-.854 1.437-1.463 1.659-.542.198-1.341-.304-2.026-.502-2.791-.808-5.601-1.502-8.534-1.489-.273.001-.538.052-.588-.381-.049-.426-.458-.332-.746-.332-.626-.001-.958-.254-1.024-.916-.085-.858-.25-1.709-.381-2.562 1.385-.197 2.707.193 4 .547zm6.246 10.826c-.244-.522-.716-.182-1.042-.11-1.765.392-3.517.839-5.275 1.265-.156.038-.32.099-.54-.068l3.5-4.666c.351-.468.784-.897 1.037-1.413.323-.661.752-.613 1.315-.441.984.3 1.982.553 2.969.847.435.129.788.354.979.826 1.094 2.713 2.183 5.424 2.675 8.332.129.766.062 1.356-.593 1.923-2.696 2.336-5.347 4.724-8.001 7.109-.483.435-.783.559-1.14-.155-1.07-2.146-2.19-4.266-3.308-6.387-.221-.419-.184-.677.212-.983 2.229-1.718 4.439-3.462 6.647-5.208.279-.221.805-.362.566-.872zm-7.802-6.332c1.523-.075 3.032.04 4.534.61-1.559.497-3.118.995-4.678 1.488-.101.032-.264.07-.317.02-.315-.299-.198-.719-.074-1 .165-.375-.229-1.08.535-1.117zm-1.178-.353l-.261 1.613c-.028.162-.046.352-.291.296-.199-.045-.378-.128-.337-.383l.268-1.631c.035-.217.11-.369.368-.335.339.045.265.286.253.44zm-11.914.996c3.259-.296 6.516-.623 9.772-.961.698-.072.564.408.523.756-.147 1.239-.333 2.473-.512 3.708-.211 1.454-.456 2.903-.629 4.361-.051.427-.221.649-.579.819-1.17.556-2.367.988-3.627.889-1.574.076-2.893-.507-4.196-1.168-.554-.281-.598-.818-.637-1.282-.183-2.157-.407-4.308-.696-6.454-.059-.443.087-.625.582-.669zm1.062-9.363c.362-1.996.329-2.012 2.31-2.38 1.865-.347 3.583.069 5.26.84.339.156.485.355.535.744.191 1.486.437 2.966.663 4.448.14.985.264 1.972.428 2.953.096.57.101.891-.672.957-3.2.271-6.393.631-9.588.962-.336.035-.531.001-.436-.43.101-.457.13-.931.191-1.397.609-2.198.904-4.46 1.31-6.696zm-2.163 6.746c-.116.74-.195 1.487-.357 2.216-.162.726-.654.171-1.135.274l1.347-2.496.145.006zm-9.488 1.973c-.744-.074-1.498-.045-2.237-.191l-.663-2.821-.847-.03c.088.984.487 1.895.668 2.856-1.457.257-2.935.27-4.406.352-.211.012-.399-.02-.44-.271-.21-1.287-.269-2.556.454-3.73.136-.221.281-.45.59-.331 1.037.396 2.147.59 3.134 1.123l.847.031c3.105.249 6.213.479 9.315.761.658.06 1.344-.06 1.977.23-.633 1.842-1.74 2.899-3.841 2.335-.181-.048-.386-.006-.579-.006-1.311-.26-2.649-.176-3.972-.307zm6.14 10.552l.002-.006c.705-.412 1.31-1.015 2.17-1.127.091.308.241.6-.293.691-.632.108-1.202.506-1.879.442l-.046.115-.097-.1.147-.025-.011.01h.007zm-.724.317l-.116.091.116-.091zm-3.835 2.281l-.011-.13 3.412-1.127c1.087-.323 2.177-.637 3.262-.971 1.548-.476 1.573-.556.709-1.937l-.119-.112c-1.274-2.234-2.55-4.466-3.821-6.702-.19-.334-.357-.681-.534-1.022 1.409.068 2.847-.133 4.175.6.434.24.652.459.697.987.171 1.973.419 3.939.626 5.909.03.291.077.537.348.712 3.053 1.985 6.372 2.371 9.638.486.462-.266.545-.653.607-1.107.203-1.492.43-2.981.629-4.473.044-.33.121-.551.488-.664 1.838-.566 3.667-1.162 5.5-1.743.129-.041.272-.055.452.14-.53.713-1.069 1.446-1.617 2.173-.907 1.204-1.825 2.401-2.726 3.61-.156.21-.43.428-.25.736.202.344.548.218.834.151 1.735-.406 3.466-.827 5.265-1.138-1.56 1.226-3.117 2.456-4.682 3.675-1.189.927-2.381 1.851-3.589 2.754-.359.268-.554.583-.66 1.016-.418 1.701-.87 3.394-1.342 5.218-1.145-1.651-2.217-3.176-3.263-4.721-.254-.376-.536-.57-1.002-.625-2.381-.283-4.758-.604-7.136-.912.074.23.199.412.354.569-.155-.157-.281-.34-.354-.569l-5.889-.785zm14.419 4.406c-.021.309-.282.211-.445.227-1.297.128-2.595.24-3.893.358-1.304-.868-2.239-2.115-3.308-3.225 2.009.24 4.019.474 6.027.724.317.04 1.639 1.639 1.62 1.916zm-13.157 4.184c-.417-.216-.6-.36-.364-.855.5-1.051.967-2.121 1.382-3.208.232-.609.522-.648 1.057-.388.463.225.863.35.472.993-.24.395-.339.875-.501 1.317h.001c-.232.237-.368.522-.417.849-.132.273-.314.534-.385.822-.195.798-.602.802-1.245.469zm2.439-1.116l.196-.677c.924.108 1.691.64 2.544.939.187.066.282.164.15.362-.17.256-.319.538-.714.358-.724-.332-1.451-.655-2.177-.982zm-13.963 33.297c-.15.22-.333.291-.571.203-1.577-.584-3.127-1.217-4.168-2.641-.212-.289-.396-.609-.537-.938-.507-1.185-.464-1.341.566-2.141 1.542-1.196 3.093-2.38 4.64-3.57l.23-.25-.23.25 5.224 1.575c-1.719 2.504-3.439 5.005-5.153 7.511zm14.997-19.049c-3.071 3.603-6.175 7.179-9.267 10.765l-4.997-1.403c-.06-.296.158-.466.318-.645 4.771-5.332 9.546-10.659 14.322-15.987l1.927 4.421c-.603 1.08-1.513 1.919-2.304 2.847zm6.351-7.475c-1.127 1.349-2.159 2.784-3.506 3.936-.586-1.454-1.106-2.935-1.808-4.34.672-.908 1.344-1.818 2.293-2.469.957.939 1.98 1.803 3.034 2.63-.003.083.028.194-.014.244zm9.234 3.232c-.836.898-1.654 1.816-2.42 2.773-.52.65-.721.013-1.028-.181-.338-.213-.668-.424-.207-.877.333-.327.581-.741.866-1.117.388-.176.551-.565.809-.864l-.795-.203-.585.38c-.734-.674-1.607-1.199-2.178-2.046-.403-.009-.558-.417-.881-.554-.255.217-.456.16-.705-.058-.449-.395-.942-.74-1.416-1.106-1.073-1.113-2.271-2.082-3.476-3.043l-.059.193.059-.193-.169-.184c-1.431-1.337-1.447-1.352-.056-2.784.634-.652 1.135-1.457 2.001-1.862 1.257.069 2.501-.116 3.742-.253 1.439-.158 1.773.019 2.01 1.459.257 1.563.455 3.137.678 4.706-.461.811-1.244 1.359-1.746 2.137-.338.285-.679.568-.863.988.323.137.478.544.881.554.242-.087.374-.394.685-.345l.357.322c.141.015.254.066.289.22.404.562 1.139.8 1.432 1.469l.795.203c.159-.155.36-.284.47-.469.47-.782.914-.644 1.457-.055.276.299.369.449.053.789zm-5.567-3.568c-.009.34.26.517.474.727-.215-.209-.483-.386-.474-.727zm6.574.274c-1.495-.812-2.755-1.938-4.043-3.025.005-.757-.184-1.489-.281-2.232-.031-.24-.234-.651.38-.489.454.12.524-.3.609-.625.493-1.886.985-3.772 1.474-5.659.255-.983 1.209-1.244 1.874-1.8.172-.144.262.121.333.255 1.243 2.371 2.478 4.747 3.732 7.112.194.365-.02.563-.19.817-1.269 1.9-2.705 3.685-3.887 5.645.105.197.243.351.435.434-.192-.083-.33-.237-.435-.434zm3.638 1.789c-.168.215-.33.128-.503.036l-2.49-1.332c1.282-1.845 2.575-3.683 3.838-5.542.297-.437.481-.288.753-.007.713.738 1.442 1.46 2.165 2.188-1.12 1.661-2.534 3.084-3.763 4.657zm15.311-14.345c-3.495 2.935-6.992 5.868-10.492 8.796-.165.138-.322.318-.571.315-.727-.766-1.442-1.545-2.189-2.292-.28-.28-.303-.435.014-.713 2.967-2.611 5.924-5.232 8.868-7.869.299-.268.534-.175.826-.077 1.287.43 2.52 1.02 3.855 1.31.081.285-.147.396-.311.532zm1.018-1.037l-.167.031c-1.299-.644-2.699-1.02-4.049-1.532-.439-.166-.622-.376-.678-.878-.324-2.904-1.336-5.618-2.485-8.274-.355-.822-.417-1.424.307-2.045.348-.299.575-.738.856-1.113-.054-.275-.245-.349-.452-.4.207.051.398.124.452.4.149.023.247.109.319.239 2.345 4.242 4.716 8.473 5.913 13.229.132.121.188.237-.016.343z"/></svg>