<svg xmlns="http://www.w3.org/2000/svg" height="100" width="100"><path clip-rule="evenodd" d="M79.16 28.077c-.165-.276-.141-.569-.081-.867l-.031-.336c-.078-.899-.163-1.797-.234-2.696-.056-.708-.152-1.399-.677-1.942-.393-.351-.867-.372-1.363-.37-4.96.021-9.92.044-14.718 1.572-.404.128-.518.034-.57-.398-.17-1.413-.472-2.813-.584-4.229-.099-1.257-.704-2.056-1.786-2.579l-1.036-.488c-1.071-.29-2.113-.698-3.239-.746l-2.583.022c-.404.018-.807.041-1.19.192l-2.064.681-1.016.898-.681 3.058c-.276 1.529-.58 3.053-.811 4.589-.079.523-.257.64-.761.589-2.513-.255-5.029-.474-7.544-.706-2.959-.074-5.862-.432-8.583-1.706l-.838-.051c-.607.021-1.023.43-1.49.735l-.864 1.026c-1.077 1.963-.928 4.018-.462 6.099.182.815.638 1.368 1.447 1.613l2.244.002 1.887-.044c2.631-.413 5.245.019 7.865.16.736.04.723.76 1.022 1.196.731 1.181 1.467 2.358 2.057 3.62.26.235.388.55.513.864 1.289 1.889 1.286 1.88-.869 2.558-2.174.683-4.343 1.385-6.513 2.083-1.045.336-1.772 1.186-1.689 1.956.1.921.89 1.615 2.016 1.783 1.514.226 3.022.493 4.612.553-.811 1.395-1.975 2.294-3.351 2.954l-.267.206c-.643.361-1.264.931-1.942 1.012-.701.084-1.088-.796-1.649-1.207-.803-.587-1.872-.539-2.545.209-1.348 1.499-2.672 3.022-3.987 4.551-.197.229-.288.547-.429.824-.003.769.338 1.349.923 1.838 1.006.841 1.974 1.728 2.976 2.574.443.374.63 1.02 1.266 1.183.66.538 1.327 1.069 1.98 1.615.377.316.23.586-.117.813-.852 1.207-1.747 2.379-2.735 3.479-.279.495-.626.939-1.024 1.344-1.357 1.721-2.37 3.781-4.582 4.663-.553.408-1.121.794-1.765 1.048-.392.357-.849.607-1.331.817-.359.339-.829.563-1.062 1.031-.152.687-.078 1.351.196 1.996l1.522 2.585 1.509 1.687c1.56 1.308 3.272 2.339 5.256 2.867 1.46.388 2.274-.021 2.833-1.398.147-.363.328-.714.494-1.07.259-.844.592-1.657.997-2.441.087-.781.694-1.215 1.168-1.734.843-.922 1.635-1.895 2.606-2.693 1.302-1.562 2.705-3.029 4.145-4.462l.152-.157c.291-.594.61-.699 1.13-.182.735.73 1.538 1.392 2.313 2.083l1.028.876 1.083.958 2.542 2.067.835.1c.626-.021 1.026-.415 1.407-.846l3.573-4.028c.493-.54.555-1.201.532-1.887-.151-.632-.63-1.008-1.115-1.354-.537-.384-.619-.723-.363-1.405.902-2.404 2.406-4.317 4.21-6.115 3.813-3.802 7.501-7.73 11.242-11.605.197-.205.412-.393.618-.589.328-.455.73-.839 1.16-1.195.171-.284.386-.525.665-.708l1.867-1.886c.922-1.08 1.893-2.115 2.922-3.094.327-.33.538-.729.652-1.175.327-1.292.579-2.597.754-3.92.391-2.965.338-5.944.323-8.924zm-18.037-1.846c3.653-1.399 7.447-1.986 11.348-1.931-.211.971-.496 1.934-.607 2.916-.085.742-.473.923-1.095 1.004-2.373.307-4.694.848-6.974 1.568-.457.145-.908.309-1.385.473-.097-.529-.007-1 .087-1.473.116-.582-.055-1.005-.719-.939-.904.091-1.217-.349-1.209-1.164.029-.339.336-.369.555-.454zm-8.718 21.505c.12-.349-.193-.881.41-.81.578.069.867.643.915 1.089.044.404-.602.538-.919.55-.708.027-.135-.637-.406-.83zm1.632 1.36c.56-.339.661.251.862.535l2.193 3.166c.18.255.276.681.744.573.427-.1.428-.494.515-.811.497-1.813.994-3.626 1.465-5.446.138-.533.392-.877.918-1.114 2.417-1.091 4.812-2.229 7.219-3.342.168-.078.33-.253.663-.051l-15.45 16.435c-.37-1.52-.174-2.977-.344-4.407-.167-1.412-.136-2.846-.222-4.269-.063-1.058.889-.937 1.437-1.268zm9.832-5.599c-.171.079-.336.236-.619.029l7.378-5.739c.129 1.536-.56 2.818-1.798 3.402-1.65.778-3.307 1.541-4.961 2.308zm6.494-6.989c-2.166.446-4.313.986-6.614 1.525l5.024-6.678.211-.269c.149-.238.37-.48.161-.776-.207-.292-.497-.196-.777-.105l-3.744 1.197c-.806.258-1.611.521-2.441.79-.113-.603.102-.868.613-1.065 2.676-1.031 5.473-1.544 8.28-2.025.532-.091.783.033.766.65-.054 1.998-.348 3.969-.614 5.944-.07.523-.322.701-.864.813zm-9.525-7.431c.018-.259.18-.33.405-.307.218.022.276.185.259.363-.059.642-.123 1.284-.203 1.924-.032.262-.249.265-.454.254-.272-.015-.326-.157-.25-.399.042-.133.049-.276.073-.428-.081-.477.137-.93.169-1.406zm-13.845-1.544c.102-.025.203-.167.309-.004l.846.014c.592-1.847.779-3.777 1.183-5.664.213-1 .375-2.01.546-3.018.099-.582.371-.923.982-1.116 2.5-.795 4.88-.501 7.204.626.435.211.485.567.542.979.332 2.39.685 4.778 1.03 7.167-.185.568.5 1.201-.032 1.69-.445.409-1.097.16-1.653.22-2.189.236-4.382.441-6.573.669-.87.09-1.738.199-2.604.318-.63.087-.963-.087-.729-.776.124-.363.101-.727.104-1.095l-.846-.014c-.089.783-.461 1.528-.331 2.336.035.221-.039.344-.216.38-.304.062-.642.124-.906-.067-.205-.149-.028-.363.058-.532.359-.706.724-1.409 1.087-2.113-.233-.086-.468-.16-.711-.139.242-.021.477.053.71.139zm12.792 2.477c-.393 2.916-.794 5.831-1.2 8.746-.074.533-.323.898-.854 1.164-1.202.601-2.433.956-3.755.812-1.785.184-3.317-.485-4.817-1.277-.261-.138-.467-.282-.501-.625-.259-2.648-.529-5.295-.809-7.941-.041-.389.176-.408.453-.437 1.548-.163 3.094-.344 4.643-.501 2.056-.21 4.119-.362 6.168-.628.697-.09.739.199.673.687zm-31.209-.27c-.257.031-.368-.12-.403-.334-.217-1.333-.321-2.653.428-3.885.253-.416.512-.598 1.032-.377.987.42 2.066.598 3.025 1.103.159 1.069.453 2.107.745 3.146-1.594.329-3.224.154-4.827.346zm7.27-.18c-.476-.036-.964.023-1.42-.18l-.707-2.974-.613-.091.614.091c2.377.188 4.757.365 7.134.565 1.727.145 3.452.319 5.178.48-.403.711-.826 1.412-1.203 2.137-.197.378-.441.498-.871.489-.932-.019-1.853-.252-2.789-.131-1.774-.128-3.549-.255-5.322-.386zm2.554 14.562c.108-.251.367-.237.577-.304 2.543-.817 5.086-1.631 7.628-2.45.829-.267.893-.438.448-1.219-1.742-3.062-3.49-6.121-5.236-9.181 1.553.067 3.137-.159 4.601.646.455.25.654.503.7 1.03.191 2.187.444 4.369.663 6.553.034.335.144.575.447.765 3.377 2.125 6.83 2.53 10.432.552.551-.303.74-.699.808-1.28.193-1.642.432-3.278.65-4.917.037-.279.024-.538.399-.656 2.249-.71 4.488-1.448 6.842-2.046l-2.421 3.22c-.858 1.14-1.723 2.275-2.573 3.421-.159.214-.443.431-.239.746.211.326.563.247.862.18 1.556-.35 3.109-.718 4.662-1.082.27-.063.536-.179.833-.036-.08.353-.401.472-.632.653-2.652 2.075-5.307 4.146-7.977 6.199-.409.315-.644.68-.773 1.173-.491 1.866-1.011 3.725-1.563 5.742-1.249-1.825-2.413-3.509-3.555-5.21-.235-.35-.479-.625-.918-.677-2.772-.33-5.53-.79-8.322-.944l-6.343-.877zm13.017 17.392c-.656 1.033-1.231 2.122-1.783 3.215-.299.591-.581.576-1.024.184-1.944-1.718-3.896-3.425-5.847-5.133-1.351-1.182-2.699-2.367-4.06-3.537-.401-.344-.561-.561.055-.883 1.035-.54 2.01-1.193 3.034-1.758 1.483-.819 2.246-2.318 3.346-3.496.99-1.06 1.867-2.227 2.784-3.354.216-.266.456-.406.808-.367.735.081 1.472.148 2.209.214.359.032.434.259.5.574.272 1.294.136 2.613.249 3.918.222 2.579.258 5.175.375 7.838.191.91-.115 1.751-.644 2.585zm-15.577-8.341c.246-.145.484-.309.744-.419 3.083-1.312 5.41-3.506 7.31-6.212.203-.288.383-.654.807-.715.619.08 1.237.177 1.859.232.445.038.692.09.289.569-1.506 1.783-2.979 3.592-4.502 5.359-.284.33-.733.524-1.12.756-1.073.643-2.184 1.23-3.221 1.927-.552.371-.901.271-1.329-.134-.367-.347-.701-.75-1.196-.941-.021-.26.192-.324.359-.422zm-5.629 29.003c-.133.351-.289.402-.638.281-2.708-.938-4.722-2.671-6.038-5.215-.138-.267-.357-.523.079-.775 1.5-.867 2.984-1.76 4.474-2.643l3.652 4.471v.001c-.399 1.337-1.037 2.58-1.53 3.88zm4.568-7.345l-3.944-4.261c-.33.185-.44.558-.689.812.985.758 1.766 1.72 2.577 2.645.473.539 1.13.939 1.366 1.673-.675.544-1.062 1.395-1.883 1.784-.017.134-.073.245-.143.348.07-.103.126-.215.143-.348-1.088-1.378-2.156-2.772-3.413-4.005.084-.936.936-1.376 1.353-2.098.25-.254.359-.626.689-.811.562-.852 1.181-1.66 1.886-2.4l4.939 3.604c-.916 1.061-1.817 2.136-2.881 3.058zm5.123-5.46c-.505.64-1.007 1.284-1.699 1.742l-4.937-3.635 1.682-2.258c.139-.2.293-.385.487-.527-.195.142-.348.326-.487.527.312.036.482.288.693.47 1.423 1.224 2.842 2.453 4.261 3.681.235-.128.441-.28.509-.542-.068.263-.274.414-.509.542zm13.416 1.657c-.848.918-1.648 1.882-2.442 2.848-.295.359-.515.329-.838.045-1.815-1.596-3.624-3.2-5.476-4.753-.779-.653-1.425-1.479-2.377-1.919v.001c-.093-.14-.16-.311-.283-.417-1.678-1.448-3.364-2.888-5.048-4.329l-.194.877c1.517 1.522 3.182 2.879 4.814 4.273-.267.432-.543.855-1.042 1.058-1.542-1.442-3.128-2.834-4.787-4.142.177-.534.391-1.037 1.016-1.189l.194-.877c-1.654-1.472-3.307-2.946-4.963-4.416-.85-.754-1.693-1.518-2.567-2.245-.305-.254-.267-.395-.027-.659.878-.969 1.747-1.946 2.583-2.951.28-.336.443-.309.739-.038.625.571 1.216 1.189 1.965 1.611 1.016 1.193 2.315 2.075 3.469 3.116 1.643 1.482 3.335 2.91 5.008 4.361 2.487 2.157 4.972 4.316 7.467 6.464.384.33.657.798 1.173.968.42.545.956.967 1.499 1.374.386.288.515.513.12.941zm.705-7.653c-.732 1.473-1.244 3.049-2.108 4.459-.527-.48-1.039-.978-1.588-1.432-.273-.226-.317-.399-.139-.712.818-1.437 1.612-2.886 2.449-4.393.594.432.778 1.14 1.286 1.567l.153.337.013.138-.067.036zm.998-1.46c-.157.162-.267.376-.527.396-.03-.306-.267-.497-.423-.728-.826-1.218-.837-1.221.138-2.258 5.328-5.668 10.659-11.334 15.99-17 .097-.103.202-.28.307-.282 1.281-.036 2.553-.468 3.844-.108-6.443 6.66-12.887 13.32-19.328 19.982zm21.573-25.756c-.136 1.301-.373 2.583-.682 3.854-.08.33-.244.565-.512.746-1.25.069-2.505.086-3.746.226-.729.082-.749-.1-.557-.715 1.125-3.609 1.695-7.33 1.685-11.092-.005-1.675.442-3.23.613-4.848l.119-.089c.508-.262 1.041-.109 1.565-.096 1.444.026 1.407.029 1.522 1.462.284 3.519.362 7.035-.007 10.553z"/></svg>