<svg xmlns="http://www.w3.org/2000/svg" height="100" width="100"><path clip-rule="evenodd" d="M84.244 23.071c-.678-2.434-1.774-4.601-3.875-6.142-.973-.714-2.096-1.102-3.195-1.546l-2.066-.351c-.399-.003-.802.033-1.195-.017-.867-.11-1.477.368-1.828 1.005-.499.904-1.079 1.768-1.513 2.702-1.458 3.139-3.464 5.857-6.082 8.122-.226.341-.49.643-.846.855-1.142 1.257-2.321 2.476-3.566 3.631-.228.397-.528.731-.898 1-1.4 1.45-2.807 2.894-4.196 4.354-.25.262-.406.271-.683.025-1.991-1.764-4.263-2.085-6.745-1.263-.755.414-1.428.946-2.103 1.475-1.568 1.917-2.139 4.06-1.419 6.47.133.446-.148.491-.406.568-.769.228-1.498.552-2.211.911-.702.353-1.241.871-1.215 1.712.025.796.432 1.353 1.174 1.742 1.334.698 1.316.737.257 1.792-1.091 1.088-2.186 2.174-3.279 3.26l-.191.068c-.104-.095-.029-.174.057-.239 1.826-3.142.967-6.256-.868-7.988-.299-.282-.612-.5-.995-.628l-.995.029c-.845.292-1.215.925-1.274 1.779.033.052.039.107.016.164l.205.691c.497.926.412 1.585-.283 2.185-.62.535-1.479.581-2.106.111-.691-.518-.895-1.342-.504-2.199.167-.366.276-.739.342-1.13-.178-.79-.57-1.396-1.399-1.626l-.998.023-.341.095c-2.344 1.98-2.887 4.462-2.046 7.332.207.324.428.642.495 1.033.455.802 1.155 1.357 1.888 1.881l1.512.738 1.055.309 1.888.006c.972-.188 1.85-.611 2.711-1.077.109-.161.216-.327.638-.226l-.489.365-1.639 1.619-.901.989-1.344 1.247c-.086.236-.277.374-.474.507l-3.952 3.956c-1.024 1.319-2.295 2.4-3.462 3.58l-1.214.828-.842.55c-2.006 1.394-4.007 2.794-6.02 4.176-.502.345-.949.719-1.193 1.292l-.06.871c.012 1.098.082 2.188.4 3.247.528 1.207 1.262 2.277 2.159 3.238 1.736 1.481 3.669 2.623 5.785 3.485 1.46.594 2.126.453 3.085-.793.743-.966 1.523-1.903 2.287-2.853.724-1.004 1.436-2.016 2.287-2.92.389-.617.823-1.199 1.342-1.715.231-.47.596-.838.941-1.221.807-1.045 1.498-2.187 2.521-3.053 1.485-1.663 2.987-3.309 4.613-4.838.171-.326.394-.607.711-.804l2.014-2.137-.297 3.66c.22.431.107.919.238 1.365l.651 1.71c.539.757.979 1.59 1.689 2.217.951.671 1.838 1.464 3.069 1.594.818.075 1.6.402 2.444.32.328-.032.49.243.635.495.726.732 1.536 1.358 2.411 1.901l1.689.564c1.335.192 2.66.161 3.971-.183.861-.322 1.639-.793 2.401-1.297l1.862-2.025c.719-1.384 1.105-2.848 1.075-4.414l-.054-.853c-.197-.304-.147-.661-.209-.994-.352-.867-.747-1.712-1.304-2.47l-1.046-1.177c-.661-.258-1.336-.283-2.02-.11l-.884.961-.035.171c-.003.598.042 1.187.363 1.716.2.249.23.539.207.842.206 1.924-1.285 3.179-3.425 2.881-.34-.073-.641-.218-.877-.481-.496-.3-.852-.692-.859-1.313-.444-.922-.152-1.751.295-2.577.154-.286.38-.186.589-.206 1.496-.147 2.219-1.329 1.543-2.671-1.246-2.475-3.371-3.71-6.063-4.018-1.492-.17-2.942.078-4.314.766l-.112-.191c.858-.911 1.713-1.824 2.574-2.732.766-.807 1.571-1.581 2.292-2.426.392-.459.683-.414 1.142-.134 3.184 1.94 6.382 3.857 9.576 5.782l.702.527 1.727 1.319c.444.213.811.532 1.173.855l1.202.911.369.301c.313.181.627.361.857.653.457.214.828.545 1.195.881l.683.352.848-.021c2.247-1.362 4.132-3.035 4.878-5.686l.081-1.661-.539-1.719c-.436-.514-1.005-.787-1.638-1.003-1.798-.614-3.65-1.076-5.38-1.882-2.011-1.127-4.02-2.259-6.037-3.377-.295-.164-.401-.426-.409-.702-.041-1.545-.835-2.554-2.199-3.171-.406-.183-.404-.357-.097-.669 1.961-1.992 3.906-4.001 5.856-6.004l.512-.515c.22-.348.5-.636.844-.863 1.339-1.468 2.688-2.928 4.126-4.301l.33-.323c2.138-2.312 4.137-4.761 7.046-6.224 1.418-.713 2.722-1.651 4.091-2.465.528-.314.975-.683 1.244-1.244.074-.642.022-1.274-.152-1.897zm-48.499 29.533c-1.353 1.272-3.14 1.568-4.651.771-1.68-.886-2.469-2.484-2.146-4.578.921 2.701 2.734 3.421 4.382 3.288 1.504-.122 2.936-1.351 3.462-3.109.482 1.061.034 2.612-1.047 3.628zm10.798-13.356c1.072-1.881 3.552-2.527 5.479-1.369-.949-.093-1.788.026-2.548.525-.738.484-1.303 1.103-1.617 1.935-.658 1.744-.152 3.34 1.539 4.854-.465.078-.873-.133-1.298-.254-2.058-1.164-2.731-3.628-1.554-5.691zm3.438 2.352c-.105-.851.372-1.369 1.627-1.466l-1.627 1.466zm-.07 3.485c-.101.066-.21.114-.341.122.13-.007.24-.055.341-.122zm-12.066 8.618c.057-.067.092-.198.209-.071l-.125.138c-.029.14-.155.218-.233.127-.114-.134.069-.148.149-.194zm12.644 14.956c-.44-1.283.167-2.481 1.68-3.175-.809 1.045-1.346 2.008-1.68 3.175zm6.827 4.86c3.054.273 5.37-1.968 5.571-4.662.948 1.504.341 4.17-1.296 5.69-1.991 1.85-4.74 2.024-6.886.439-2.001-1.479-2.798-4.254-1.753-6.402.244 2.744 2.117 4.734 4.364 4.935zm-9.943-9.901c1.738-1.688 4.218-1.972 6.493-.657-3.559.463-5.119 1.581-5.663 3.986-.522 2.308.399 4.086 3.013 5.816-1.666.397-3.819-.794-4.866-2.69-1.148-2.081-.724-4.758 1.023-6.454zm1.602-8.127c-4.807 5.096-9.635 10.172-14.458 15.254-.115.121-.255.219-.383.328l-7.284-2.753c-.29.125-.492.336-.62.622 2.176.833 4.355 1.661 6.527 2.503.275.107.639.1.761.469-2.656 3.392-5.322 6.776-7.958 10.183-.372.481-.668.611-1.251.342-1.749-.807-3.415-1.718-4.728-3.166-1.072-1.183-1.7-2.552-1.726-4.17-.005-.291-.011-.552.28-.748 2.62-1.777 5.232-3.564 7.849-5.345l.246-.068c.128-.286.33-.498.62-.622.983-1.226 2.158-2.266 3.257-3.379 3.974-4.024 7.983-8.015 11.974-12.023 1.027-1.032 2.032-2.086 3.055-3.123.196-.198.356-.457.666-.511 1.911 1.127 3.8 2.295 5.78 3.302-.678 1.139-1.715 1.958-2.608 2.903zm24.832 3.336c.357.114.45.367.478.715.13 1.596-.628 2.805-1.719 3.827-1.232 1.153-1.256 1.121-2.586.113-1.474-1.116-2.953-2.225-4.431-3.336-.203-.152-.441-.266-.541-.524-.273-.062-.468-.226-.626-.437.158.212.353.375.626.437l3.611-2.467c1.729.557 3.458 1.118 5.188 1.672zm-6.169-2.15l-3.322 2.415c-1.475-.635-2.821-1.492-4.141-2.394l1.782-3.205c1.978.91 3.813 2.075 5.68 3.184zm-7.14-5.271l.197 1.187.222.312c.157.624-1.001 2.816-1.746 3.305l-.996-.567c.21-.998.934-1.735 1.333-2.634.263-.593.627-.747 1.188-.416l-.198-1.188c-.75-.261-1.172.04-1.497.735-.358.764-.836 1.472-1.262 2.205-.141.242-.251.525-.619.465l-4.585-2.627-6.543-3.739-3.015-1.823c1.564-.707 3.086-1.077 4.701-1.055.675.555 1.481.56 2.278.487 1.435-.132 2.774.192 4.077.746l2.592 1.109c.811.473 1.605.977 2.437 1.41.865.451 1.44 1.06 1.437 2.088zm21.154-26.907c-1.464.888-2.902 1.822-4.396 2.656-1.514.845-2.807 1.922-4 3.174-3.624 3.803-7.309 7.549-10.934 11.35-1.768 1.854-3.538 3.705-5.368 5.498-1.019-.621-2.137-1.024-3.243-1.447-.412-.158-.875-.189-.926-.79-.017-.196-.283-.326-.477-.246-.625.258-1.224.016-1.833-.037.991-1.486 2.379-2.605 3.604-3.871 4.825-4.986 9.665-9.958 14.536-14.9 1.576-1.598 2.465-3.616 3.615-5.478.525-.849 1.03-1.714 1.485-2.602.234-.458.527-.608 1.016-.549 4.067.489 6.312 2.612 7.381 6.452.126.456-.163.609-.46.79z"/></svg>