<svg xmlns="http://www.w3.org/2000/svg" height="100" width="100"><path clip-rule="evenodd" d="M84.7 70.957c-.736-2.298-2.03-4.282-3.463-6.192-1.5-1.999-3.32-3.697-5.087-5.444l-1.308-1.04c-.569-.357-.113-.789-.087-1.189.544-2.884 1.062-5.774 1.732-8.632-.002-.344.006-.686.167-1.003l.389-1.991c.213-1.344.448-2.683.809-3.996l.159-.824.484-2.676c-.104-.697-.482-1.179-1.093-1.534-.704-.41-1.374-.88-2.058-1.324-.833-.365-1.466-1.215-2.538-1.006-.265.052-.274-.211-.277-.407l-.026-2.731c-.105-2.514-.215-5.028-.314-7.542-.045-1.144-.542-1.7-1.696-1.841-.412-.051-.827-.074-1.24-.109l-7.936-.678c-2.462-.357-4.837.262-7.236.631-.51.078-1.038.045-1.558.064-.255.363-.647.3-1.011.32-.529.24-1.11.184-1.662.299l-4.424.722c-.886.145-1.374.675-1.421 1.57l.008 1.08c-.016.436.197 1.017-.513 1.105-.635.079-1.343.32-1.728-.514l-.434-.708c-.27-.535-.673-.932-1.193-1.217-.584-.09-1.111.112-1.639.313-1.743.848-3.517 1.627-5.323 2.329-.259.166-.523.318-.835.359-.344.17-.683.35-1.033.509-2.411 1.096-4.875 2.061-7.102 3.554-2.688 1.802-5.474 3.456-8.214 5.182-1.041.656-1.255 1.446-.711 2.539.234.468.475.933.714 1.399l.541.945.506.994c.533.871 1.086 1.731 1.438 2.697.769 1.105 1.339 2.324 1.982 3.5.329.602.727 1.092 1.374 1.351.653.042 1.223-.177 1.786-.498 1.117-.638 2.257-1.233 3.388-1.847.741-.425 1.485-.845 2.22-1.278.284-.167.484-.226.591.188.392 1.519.801 3.034 1.203 4.55.175.318.238.667.286 1.021 1.155 4.121 2.311 8.242 3.467 12.364l1.085 3.95c.211.423.241.889.331 1.341.273.582.4 1.208.536 1.83.657 1.191 1.19 1.405 2.557 1.045.901-.238 1.807-.459 2.711-.688.236-.168.509-.201.788-.207 2.041-.687 4.126-1.219 6.21-1.753.269-.108.53-.245.835-.212l.01.004c.079-.113.186-.145.317-.115l.34-.056c.624-.367 1.353-.404 2.019-.642.454-.162.69.254.998.452.297.191.557.439.832.662l1.841 1.328 2.791 1.746c.253.111.501.228.67.461 1.948.939 3.779 2.104 5.767 2.965.347.151.712.262 1.069.392 1.548.575 3.1 1.134 4.698 1.557.121.032.219.152.328.23l3.902.583c.577.034 1.159.053 1.736.114l1.681-.005c1.31-.122 2.485-.653 3.654-1.201.167-.28.403-.486.68-.649l.749-1.006c.434-.737.805-1.502 1.027-2.332.147-1.07-.035-2.116-.246-3.16zm-12.207-13.992c-2.327-.603-4.259-1.919-6.115-3.374-1.093-.858-1.998-1.901-2.921-2.929-.318-.354-.338-.622-.043-1.006.788-1.028 1.538-2.087 2.303-3.133h.001l.441-.423 8.485.06.091-.426-.091.426c-.669 3.612-1.352 7.22-2.15 10.805zm-.307 1.993c-.515 2.608-1.05 5.213-1.533 7.826-.134.723-.339.92-1.125.716-5.017-1.305-9.27-3.747-12.4-7.982-.41-.555-.377-.887.023-1.41 1.67-2.179 3.311-4.383 4.916-6.611.387-.536.574-.566.996-.054 2.358 2.869 5.291 4.946 8.769 6.249l.476.131c.097.393-.122.752-.121 1.135zm-6.53-18.974l-.31-1.187c-.117-.333-.249-.662-.347-1-.44-1.508-.436-1.512 1.113-1.435.464.023.926.073 1.389.11l.824.018c.522-.003 1.045-.001 1.567-.012.394-.008.532.112.259.465l-.813 1.031c-.169.309-.343.614-.629.835l-2.467 3.46-.585-2.285zm7.251-3.134c.273-.373.505-.424.882-.168.664.45 1.343.881 2.035 1.288.323.19.391.433.325.762l-1.324 6.576c-2.379-.01-4.757-.018-7.136-.035-.295-.002-.612.091-.88-.126 2.035-2.764 4.075-5.522 6.097-8.295zm-12.41-13.899c2.979.237 5.958.484 8.939.7.455.033.642.186.653.638.082 3.183.171 6.366.271 9.549.01.323-.004.509-.412.493-2.46-.098-4.921-.175-7.382-.259l-.726.219c.745 2.732 1.488 5.466 2.235 8.197.32 1.167.651 2.332.977 3.498-1.218 1.682-2.443 3.358-3.647 5.05-.25.351-.483.234-.783.121-1.191-.446-2.361-1.006-3.592-1.278-2.55-.564-4.827-1.742-7.131-2.88-.304-.15-.586-.282-.678-.659l-.7-2.735c-.035-.146-.207-.447.116-.451.398-.005.553-.145.55-.528-.003-.451-.39-.353-.61-.384-.552-.075-.639-.495-.698-.889-.062-.418.354-.333.589-.413.277-.095.506-.165.386-.563-.109-.363-.262-.386-.604-.303-.24.058-.725.461-.76-.147-.03-.505-.891-1.037-.022-1.529.267-.151.228-.342.196-.561-.036-.242-.165-.335-.408-.25-.443.156-.491-.16-.586-.467-.372-1.216-.289-2.47-.322-3.713-.046-1.693-.031-1.693 1.537-2.285l1.553-.586c3.216-1.194 6.432-2.388 9.65-3.577.204-.076.46-.339.625.036.099.229.24.427-.107.695-.374.288-.241.639.281.74.518.1.355.601.508.916.133.274-.01.411-.275.466-.244.051-.324.2-.223.426.083.185.077.471.41.411.759-.137.53.537.691.87.173.359-.003.566-.388.631-.308.052-.281.288-.24.518.05.278.227.398.476.288.525-.232.604.087.692.482.064.291.199.567.302.85l.726-.219-.196-.888c-.059-.291-.208-.626.281-.695.348-.049.246-.279.222-.499-.03-.273-.143-.416-.428-.338-.336.092-.562-.014-.586-.366-.026-.365-.508-.79.064-1.087.299-.156.199-.326.155-.541-.053-.262-.139-.322-.442-.295-.562.051-.387-.528-.551-.817-.154-.271-.049-.486.275-.541.314-.053.512-.142.409-.541-.1-.39-.329-.404-.616-.291-.291.116-.469.091-.526-.259-.153-.923-.806-1.765-.445-2.777.04-.111.003-.315-.077-.39-.209-.192-.62-.304-.443-.656.156-.312.561-.028.836-.14-.675-.218-1.352-.21-2.028-.074.677-.136 1.353-.144 2.028.074zm-14.673 14.433c.392.467-.716 1.06-.013 1.331.691.268.527.81.74 1.23.208.408.149.667-.37.747-.234.036-.537.067-.397.524.138.452.35.396.669.282.28-.101.526-.118.646.261.101.315.106.528-.277.615-.243.055-.387.191-.275.48.098.254.255.334.515.268.167-.042.391-.196.449.132.048.275.362.584 0 .823-.464.306-.118.774.011.783.714.052.654.625.697 1.02.122 1.107.764 1.703 1.742 2.065.382.142.74.349 1.093.673-.695 0-1.389-.011-2.084.002-1.389.026-2.698.342-3.798 1.23-.361.292-.471.197-.635-.157-.825-1.783-1.662-3.56-2.505-5.334-.117-.247-.119-.453.018-.692 1.211-2.11 2.415-4.225 3.661-6.409l.112.126zm.334-11.976c-.02-.434.12-.548.541-.614 3.83-.599 7.654-1.229 11.48-1.85.688.083.789.504.474 1.001-.25.395-.037.745.181.798.65.155.484.703.551 1.062.067.365-.428.356-.681.452-3.883 1.464-7.78 2.894-11.66 4.369-.67.255-.805.016-.816-.565-.016-.803-.051-1.606-.077-2.408.006-.748.042-1.498.007-2.244zm-.817 2.769v6.101c-.502-.803-1.047-1.672-1.588-2.543-.509-.82-1.021-1.639-1.52-2.465-.083-.138-.326-.286-.062-.481 1.129.171 2.183-.049 3.17-.613zm-6.572-1.448c.544-.243.807-.212 1.092.33.266.507.53 1.038.977 1.432 1.399 2.291 2.78 4.592 4.211 6.863.314.499.299.852.01 1.345-1.179 2.006-2.333 4.027-3.451 6.068-.293.536-.58.577-1.119.399-3.02-.999-6.055-1.957-9.083-2.935-.452-.146-.778-.293-1.011-.874-.189-.471-.268-.755-.071-1.186.129-.281-.086-.373-.331-.432-.694-.168-.507-.831-.693-1.282-.2-.483.243-.45.489-.563.294-.137.182-.352.126-.564-.059-.224-.155-.316-.413-.246-.21.057-.53.253-.623-.123-.076-.309-.436-.641-.019-.974.34-.272.155-.701-.041-.763-.948-.3-.666-1.121-.835-1.749 3.598-1.576 7.203-3.139 10.788-4.745zm-9.037 16.72c-2.248 1.25-4.508 2.48-6.747 3.748-.436.247-.613.221-.86-.242-1.486-2.783-3.006-5.546-4.521-8.312-.168-.305-.335-.525.103-.796 3.085-1.907 6.154-3.84 9.23-5.762l.234-.063c.079.35.327.781.205 1.035-.355.745-.253 1.22.462 1.654.152.092.359.53-.029.863-.263.225-.076.665.197.725.567.126.545.574.489.888-.055.309-.423.091-.64.048-.283-.055-.327.089-.37.303-.045.23-.094.444.212.526.267.072.53.171.801.212.326.05.538.218.526.534-.026.705.565 1.324.499 1.897-.096.854.116 1.447.642 2.027l.091.227c-.047.3-.315.369-.525.486zm19.787 23.833c-1.931.759-3.967 1.166-5.948 1.76-1.377.414-2.779.745-4.149 1.18-.579.184-.762.022-.91-.517-2.382-8.639-4.78-17.273-7.179-25.908-.081-.291-.207-.568-.312-.852l-.102-.652c-.118-.814.32-1.214 1.073-.97 2.87.93 5.737 1.873 8.614 2.785.355.113.569.285.72.609.878 1.881 1.769 3.756 2.644 5.638.109.235.269.451.094.772-.922 1.688-.617 3.382.068 5.049 1.189 2.894 3.12 5.285 5.221 7.548.375.404.526.779.423 1.33-.136.732-.176 1.482-.258 2.225.223.025.436 0 .638-.078-.202.078-.415.103-.638.078zm.835-.174l.255-2.063 1.699 1.415c-.565.476-1.291.463-1.953.648zm2.067-.656l.075.001-.075-.001zm3.734 2.063c-1.028-.696-1.983-1.502-2.971-2.259-1.867-1.772-3.792-3.487-5.352-5.56-1.322-1.757-2.579-3.543-3.199-5.689-.72-2.493.158-4.401 2.382-5.169.655-.226 1.329-.345 2.034-.367 3.846-.118 7.431.959 10.968 2.31.573.218.585.383.231.842-1.404 1.821-2.77 3.672-4.154 5.509-.296.394-.492.727-.114 1.243 1.6 2.188 3.416 4.154 5.699 5.64.489.319.539.577.265 1.063-.84 1.499-1.637 3.022-2.452 4.535-1.308-.387-2.251-1.363-3.339-2.099zm26.539 4.608c-.037 1.683-.855 2.884-2.438 3.5-1.828.71-3.703.54-5.568.257-5.038-.764-9.55-2.903-13.927-5.386-.216-.122-.455-.22-.521-.498-.202-.036-.417-.046-.577-.164.16.118.375.127.577.163.83-1.499 1.68-2.987 2.475-4.504.258-.493.478-.54.953-.288 2.085 1.108 4.292 1.875 6.61 2.35.675.138.934-.101 1.045-.682.157-.811.301-1.625.452-2.438l1.075-5.768c.829.249 1.352.921 1.958 1.459 2.795 2.478 5.281 5.218 6.986 8.583.54 1.066.926 2.183.899 3.416z"/></svg>