<svg xmlns="http://www.w3.org/2000/svg" height="100" width="100"><g clip-rule="evenodd"><path d="M84.709 34.805c-1.808-2.056-3.572-4.151-5.354-6.23-.359-.224-.402-.526-.22-.885l.966-3.184.436-1.54.979-3.168c.523-1.691-.044-2.723-1.745-2.991l-1.064.313c-2.567 1.094-5.139 2.177-7.697 3.292-.424.184-.706.064-1.035-.167-2.218-1.555-4.46-3.075-6.655-4.66-.781-.564-1.559-.733-2.457-.452-.673.515-.954 1.209-.937 2.04l.418 4.881c.131.169.146.356.082.554l.019.325.051 1.07c.428 1.468.275 2.684-1.269 3.476-.738.378-1.365.971-2.041 1.467-.236.3-.55.501-.877.684-.941.733-1.867 1.485-2.827 2.192-.713.525-1.014 1.202-.848 2.051.164.84.774 1.268 1.566 1.457 1.016.243 2.034.472 2.844.659l-7.04 7.415c.148-1.295-.744-1.72-1.258-2.384l-1.03-.732-.888-.466c-1.895-.641-3.793-.775-5.729-.148-2.574.835-5.387 3.895-5.127 7.269.031.405.011.814.015 1.221.105.098.132.214.086.349.282 1.131.282 1.131-.778 1.423-.594.296-1.194.584-1.782.892-.719.376-1.206.94-1.195 1.787.01.8.443 1.34 1.144 1.723 1.121.613 2.218 1.272 3.209 1.844l-2.278 2.499-1.216 1.231-.714.695c-1.502 1.69-3.235 3.144-4.825 4.743-.412.442-.924.741-1.455 1.013l-.996.639c-1.344.921-2.676 1.862-4.038 2.756-.723.475-1.057 1.101-1.116 1.954-.083 1.191.115 2.32.568 3.414l.903 1.38c1.411 1.601 3.273 2.552 5.125 3.506 1.404.723 2.344.461 3.342-.809.34-.433.708-.845 1.063-1.266l.111-.167.116-.135 1.551-1.974c.373-.58.725-1.179 1.479-1.528l-.084 1.554c-.002.719.258 1.391.376 2.088.502.998 1.073 1.952 1.851 2.767l1.88 1.245c.891.291 1.8.439 2.739.36.314-.026.518.095.734.346 1.321 1.546 2.969 2.462 5.043 2.507 1.199.005 2.321-.238 3.402-.808.76-.401 1.229-1.136 1.984-1.514.769-1.006 1.402-2.08 1.675-3.335.294-1.241.029-2.443-.25-3.643l-.494-1.074-.562-.849-.609-.601c-.991-1.023-1.769-1.094-2.939-.262l-.473.828c-.157.927.408 1.721.487 2.614.031.348.004.612-.161.89-.725 1-1.703 1.332-2.633.895-.959-.451-1.413-1.372-1.182-2.366.129-.556.328-.979 1.029-.938.234.013.481-.181.721-.281l.696-.813.086-.348c-.015-.554-.082-1.094-.388-1.576l-.398-.656-1.199-1.269-.706-.516c-1.922-.952-3.932-1.165-6.181-.671 1.395-1.633 2.78-3.065 4.246-4.421l1.05-1.059.084-.15c1.554-1.705 1.554-1.706 3.544-.565 1.567.898 3.261 1.635 4.669 2.737 2.334 1.825 5.011 3.058 7.451 4.687l.202.143 1.403.863c.469.209.928.432 1.267.837.979.517 1.763 1.296 2.632 1.96.472.195.851.52 1.215.866 1.621 1.193 3.241 2.384 4.862 3.575 1.215.711 2.158.045 3.104-.612.387-.334.677-.802 1.241-.892.046-.391.394-.555.622-.805 1.411-1.552 2.593-3.227 2.621-5.43.025-1.917-.435-3.617-1.975-4.073l-1.046-.352c-.316-.044-.62-.119-.885-.308-.38-.026-.731-.141-1.05-.349l-.884-.262c-.747-.257-1.534-.403-2.228-.806-.216.022-.406-.035-.565-.186-1.147-.224-2.041-.948-3.007-1.529-2.03-1.139-4.058-2.281-6.091-3.414-.303-.168-.365-.439-.382-.734-.119-2.078-1.263-3.397-3.07-4.281-.887-.434-1.708-1.002-2.576-1.479-.385-.212-.529-.341-.136-.73 2.421-2.404 4.818-4.833 7.223-7.253.422-.504.858-.996 1.388-1.392l.039-.076c.286-.297.492-.768 1.011-.639.533.133.406.666.532 1.041.277.754.58 1.501.825 2.266.263.817.744 1.389 1.621 1.483.89.095 1.564-.291 2.005-1.08.141-.251.311-.486.468-.729l1.015-1.612.196-.322c.93-1.564 1.844-3.138 2.798-4.687.427-.692 1.146-.307 1.742-.363 2.388-.068 4.775-.158 7.163-.192.969-.013 1.82-.192 2.268-1.138.454-.962.013-1.705-.631-2.438zm-37.729 9.742c.389.172.746.416 1.051.406-1.142 1.226-2.287 2.487-3.471 3.71-.454.469-.828.186-1.115-.274-.62-.994-.517-2.241.268-3.153.759-.884 2.135-1.19 3.267-.689zm.194 5.076c.059.363.472.772.223 1.047-.325.358-.817-.019-1.239-.053-.421.469-.895.697-1.415.737.52-.04.994-.268 1.414-.737.222-.45.6-.742 1.015-.994zm-7.246-6.466c1.194-1.219 3.343-1.957 5.594-1.175-1.257.072-2.289.445-3.135 1.233-.854.795-1.414 1.762-1.632 2.919-.369 1.958.528 4.01 2.21 5.037.701.631 1.595.756 2.595.957-2.239.584-4.106.147-5.73-1.331-2.284-2.47-1.749-5.754.099-7.641zm7.172 37.492c2.345-.008 3.659-1.328 4.399-3.564.37 2.229-.506 3.776-2.164 4.871-1.46.964-3.063.955-4.545.027-1.724-1.08-2.53-2.67-2.201-4.757.808 2.079 2.133 3.43 4.511 3.423zm-3.632-9.195c-2.329-.144-3.991.714-4.747 2.824-.801 2.235-.007 4.026 2.026 5.504-1.765.008-3.239-1.144-3.883-2.867-.63-1.687-.071-3.851 1.293-5.014 1.517-1.292 3.416-1.485 5.311-.446zm.283-11.425c-2.82 2.898-5.655 5.78-8.487 8.668l-.846 1.018c-1.978 2.517-3.973 5.02-5.921 7.558-.418.544-.765.641-1.363.324-1.238-.656-2.474-1.296-3.421-2.369-.429-.486-.775-1.023-1.004-1.625-.515-1.353-.37-1.778.828-2.577 1.525-1.017 3.051-2.035 4.578-3.049.265-.176.505-.4.843-.436l.229-.191-.229.191c1.198.441 2.407.856 3.591 1.334.631.255 1.359.31 1.868.839l.846-1.018c-.475-.015-.894-.227-1.334-.372-1.403-.461-2.747-1.095-4.192-1.434.141-.444.534-.68.837-.981 3.139-3.114 6.289-6.217 9.437-9.322l4.396 2.465c-.01.464-.388.701-.657.977zm24.118 5.669l1.072.569c2.237.741 4.468 1.501 6.716 2.206.555.174.718.496.767 1.006.121 1.278-.246 2.421-.926 3.478-.704 1.092-1.644 1.958-2.659 2.756-.241.189-.418.254-.679.057-2.674-2.017-5.353-4.028-8.03-6.04-.172-.049-.323-.128-.461-.227.138.098.289.177.461.227l4.811-3.464-1.071-.568c-.111.299-.392.415-.625.584-1.323.954-2.644 1.91-3.966 2.866-1.909-.941-3.683-2.11-5.471-3.255-.232-.011-.42-.088-.569-.224.149.136.337.213.569.224l2.523-4.406 7.539 4.212zm-8.512-4.758c.268.027.479.154.676.305-.197-.151-.409-.278-.677-.305-.021.363-.225.649-.396.95-.654 1.156-1.302 2.315-1.952 3.472-.676-.358-1.498-.491-1.917-1.245l1.82-3.075c.676-1.145.675-1.145 1.84-.608.196.175.224.551.605.505zm-2.605-4.692c.972.582 1.623 1.264 1.661 2.427-.036.214-.099.455-.371.265-.711-.497-1.011-.056-1.323.505-.77 1.389-1.566 2.764-2.351 4.144-1.875-.868-3.587-2.023-5.391-3.016-1.246-.686-2.481-1.39-3.721-2.086-1.568-1.03-3.205-1.941-4.862-2.816.018.186-.03.346-.106.494.076-.147.124-.307.106-.494l-5.121-3.024c1.251-.654 2.513-1.039 3.824-1.281 1.822 2.24 5.939 2.584 8.106.936.38-.289.703-.252 1.119-.098.839.312 1.649.714 2.54.872l.092-.21-.091.21c1.999.992 3.973 2.024 5.891 3.174zm5.944-15.479c-3.667 3.715-7.341 7.422-11.015 11.13-.141.142-.314.251-.473.376-.239-.093-.47-.222-.718-.275-1.226-.262-2.036-.911-2.224-2.221-.043-.303-.222-.586-.338-.879-.266.101-.46.277-.613.495.153-.218.346-.394.613-.495 1.612-1.838 3.436-3.468 5.164-5.192 2.597-2.591 5.239-5.137 7.863-7.7l.455-.406c.141.031.281.087.422.091 1.768.049 2.849.9 3.147 2.676-.76.801-1.507 1.615-2.283 2.401zm17.152-4.684c-2.068.079-4.137.13-6.206.147-.53.004-.777.263-1.016.66-1.485 2.469-2.983 4.931-4.561 7.533-.632-1.852-1.216-3.578-1.813-5.298-.132-.381-.21-.791-.49-1.109-.058-.847-.494-1.577-.738-2.367-.073-.235-.275-.364-.516-.412l-2.782-.544-5.975-1.493c.46-.583 1.073-.922 1.61-1.339 1.706-1.322 3.418-2.634 5.154-3.916.496-.367.713-.74.65-1.384-.281-2.841-.508-5.687-.756-8.541.339-.081.497.171.693.306 2.135 1.473 4.275 2.939 6.385 4.447.544.388 1.01.435 1.613.174 2.35-1.017 4.715-1.999 7.075-2.992l.888-.345c-.848 2.838-1.645 5.565-2.488 8.277-.175.565-.133.961.271 1.419 1.908 2.162 3.779 4.357 5.72 6.605-.943.277-1.84.136-2.718.169z"/><path d="M25.119 63.943l1.051-.503c1.817-1.128 3.01-2.735 3.656-4.762.055-.469-.016-.955.193-1.403.041-2.322-.571-4.388-2.26-6.082-.614-.615-1.271-.905-2.099-.676-.818.227-1.197.855-1.333 1.655.091.603.267 1.166.521 1.732.413.919-.075 2.246-.93 2.883-.957.712-2.256.707-3.26-.013-.954-.684-1.308-1.709-.97-2.812-.052-.381.227-.645.347-.965.308-.823.043-1.748-.651-2.25-.647-.467-1.71-.417-2.331.155-.446.411-.845.873-1.266 1.312l-.62 1.07c-1.672 4.006-.135 7.827 2.687 9.773 2.267 1.564 4.723 1.593 7.267.885zm-7.986-8.843c.694 3.496 3.225 4.718 5.636 4.544 2.266-.163 4.068-1.846 4.552-4.424.828 2.125-.19 4.485-1.641 5.63-1.899 1.499-4.631 1.61-6.573.166-1.979-1.471-2.8-3.936-1.973-5.917z"/></g></svg>