<?xml version="1.0" encoding="UTF-8" standalone="no"?>
<!-- Generator: Adobe Illustrator 16.0.0, SVG Export Plug-In . SVG Version: 6.00 Build 0)  -->
<svg id="alchemist" xmlns:rdf="http://www.w3.org/1999/02/22-rdf-syntax-ns#" xmlns="http://www.w3.org/2000/svg" enable-background="new 0 0 90 90" xml:space="preserve" height="90" viewBox="0 0 90 90" width="90" version="1.1" y="0px" x="0px" xmlns:cc="http://creativecommons.org/ns#" xmlns:dc="http://purl.org/dc/elements/1.1/"><metadata id="metadata3075"><rdf:RDF><cc:Work rdf:about=""><dc:format>image/svg+xml</dc:format><dc:type rdf:resource="http://purl.org/dc/dcmitype/StillImage"/><dc:title/></cc:Work></rdf:RDF></metadata><g id="icon_alchemist" clip-rule="evenodd" transform="matrix(0.28206773,0,0,0.28206773,2.4081539,2.68937)"><path id="path3053" d="m260.48,240.29c-2.842-9.691-5.923-19.317-8.324-29.139-3.291-11.086-6.657-22.153-9.825-33.279-1.143-4.006-2.855-7.877-3.144-12.111-0.572-1.384-2.504-2.741-0.101-4.198l-0.058-0.041c0.864-6.558,1.579-13.112-0.393-19.614-2.225-3.101-5.561-3.011-8.805-2.907-2.503,0.077-4.063-0.159-3.126-3.367,0.619-2.112,0.634-4.404,0.922-6.617,0.166-1.063,0.335-2.126,0.503-3.189,0.09-1.525,0.079-3.063,0.293-4.571,0.636-4.484-1.061-7.319-5.399-8.575-1.763-0.51-3.601-0.755-5.405-1.118-0.317-0.113-0.635-0.222-0.954-0.333l-0.17,0.08-0.169-0.085c-4.315-0.457-8.631-0.912-12.946-1.371-1.443-0.076-3.035,0.732-4.248-0.71-10.439-9.949-22.626-16.897-36.344-21.246-8.066-2.555-16.319-3.947-24.769-4.207-2.711,0.202-5.419,0.375-8.135,0.09-3.274,0.182-6.525,0.54-9.742,1.209-1.313,0.274-2.495,0.457-3.292-1.24-2.127-4.533-4.46-8.97-6.71-13.443-2.119-3.309-2.128-3.323,1.304-5.137,1.16-0.616,2.369-1.141,3.555-1.706,4.954-3.351,5.604-5.911,2.814-11.344-1.964-3.831-3.985-7.628-5.98-11.443-1.208-0.629-2.412-1.261-3.622-1.891-2.648-0.322-4.785,1.07-6.835,2.334-2.203,1.354-2.979,0.539-3.679-1.515-1.057-3.098-2.248-6.154-3.489-9.183-1.506-3.671-4.271-5.122-8.107-4.259-2.292,0.517-4.542,1.227-6.815,1.848-1.207,0.386-2.414,0.775-3.621,1.16-10.465,3.88-20.108,9.269-29.087,15.87-0.995,1.315-2.261,2.315-3.673,3.145-3.733,4.141-3.877,6.452-0.688,11.167,1.034,1.53,2.088,3.048,3.115,4.583,3.171,4.737,3.169,4.739-1.805,7.405-3.909,2.096-4.917,5.274-2.917,9.248,1.98,3.93,3.979,7.853,5.97,11.777,3.367,3.171,5.907,3.533,9.973,1.408,1.544-0.809,3.096-1.61,4.607-2.477,1.1-0.63,1.743-0.537,2.378,0.718,2.596,5.119,5.264,10.209,8.009,15.253,0.723,1.331,0.442,2.113-0.486,3.206-1.73,2.041-3.891,3.574-5.628,5.694-7.266,8.86-12.503,18.72-16.12,29.518-3.241,10.096-5.375,20.373-5.004,31.049,0.493,14.13,3.88,27.497,10.501,40.026,0.184,0.347,0.272,0.751,0.405,1.133,1.49,1.884,2.526,4.032,3.599,6.164,0.42,0.634,0.838,1.264,1.258,1.897,1.091,1.621,2.179,3.244,3.271,4.867,0.807,1.029,1.614,2.06,2.418,3.089,0.856,1.025,1.708,2.049,2.56,3.074,1.387,1.416,2.773,2.837,4.159,4.253,4.317,3.322,8.636,6.649,12.953,9.971,3.286,1.87,6.577,3.745,9.865,5.616l-0.002-0.006c2.913,1.173,5.828,2.347,8.744,3.52,2.268,0.639,4.542,1.263,6.806,1.915,10.943,3.169,22.032,4.645,33.447,3.3,1.933-0.229,4.028-1.394,5.983-0.104,3.225,2.131,6.94,2.964,10.521,4.163,1.113,0.156,2.244,0.246,3.338,0.494,10.419,2.373,20.984,3.557,31.647,3.911,10.882,0.368,21.666-0.741,32.372-2.554,9.401-1.591,18.719-3.564,27.021-8.644,2.461-2.352,4.88-4.733,6.377-7.867,1.829-5.049,0.321-9.848-1.071-14.664zm-60.24-121.85c5.548-0.326,11.002,0.517,16.474,1.244,2.77,0.37,3.68,1.275,3.196,4.29-1.048,6.55-1.584,13.179-2.33,19.776,0.023,1.051,0.047,2.103,0.074,3.158,3.699,0.055,7.405,0.272,11.099,0.113,2.396-0.104,3.129,0.745,2.869,2.999-0.151,1.32-0.15,2.688,0.002,4.007,0.206,1.8-0.607,2.409-2.241,2.34-18.601-0.045-37.2-0.09-55.799-0.131-4.705-0.009-4.705,0-4.705-4.692,0-4.438,0-4.439,4.392-4.439,13.671,0,27.341,0.005,41.012-0.009,1.124-0.002,2.246-0.125,3.37-0.188-0.025-1.056-0.049-2.107-0.072-3.158-11.291,0.063-22.581,0.107-33.87,0.2-1.476,0.015-1.86-0.62-2.019-1.995-0.725-6.308-1.559-12.604-2.38-18.899-0.23-1.746-0.025-2.765,2.195-3.002,4.863-0.526,9.683-1.431,14.524-2.18,1.362,0.503,2.765,0.649,4.209,0.566zm-34.425,38.508c0,0.723,0,1.443,0.605,1.99,0.628,0.571,2.316,0.041,1.815,1.799-0.645,2.258-1.074,4.594-1.929,6.761-0.323,0.819-1.706,0.347-2.598,0.347-14.721,0.022-29.441,0.019-44.161,0.019-14.513,0-29.029-0.131-43.54,0.089-3.592,0.054-5.568-2.226-8.072-3.852-0.834-0.544-0.409-1.511-0.241-2.289,3.607-16.484,11.007-30.695,24.875-40.909,2.315-1.706,2.839-3.073,1.391-5.766-5.098-9.495-9.85-19.173-14.893-28.693-1.032-1.95-0.726-2.663,1.173-3.574,3.976-1.905,7.874-3.993,11.692-6.199,1.813-1.048,2.499-0.643,3.398,1.144,4.891,9.719,9.984,19.335,14.871,29.057,1.13,2.247,2.272,2.827,4.797,2.086,20.845-6.132,40.403-2.909,58.812,8.365,1.525,0.934,1.979,2.171,2.17,3.739,0.852,6.935,1.683,13.873,2.613,20.801,0.245,1.823-0.368,2.347-2.125,2.271-2.671-0.117-5.353-0.027-8.03-0.019-1.748,0.008-2.648,0.836-2.636,2.645,0.029,3.393,0.012,6.79,0.013,10.188zm-21.903,60.819c-1.904,1.421-2.378,5.075-1.016,7.043,1.662,2.401,4.974,2.522,8.666,0.112-1.531,5.979-3.021,11.707-4.458,17.451-0.317,1.277-1.165,1.438-2.275,1.578-25.635,3.2-46.63-5.305-63.247-24.953-8.389-9.917-13.412-21.341-15.06-34.184-0.737-5.749-1.306-11.571,0.067-17.308,0.194-0.049,0.342-0.13,0.378-0.094,3.976,4.033,9.024,3.601,14.077,3.588,27.175-0.072,54.351-0.014,81.526-0.072,2.264-0.005,3.247,0.14,2.497,2.903-4.269,15.729-8.353,31.519-12.531,47.414-1.777-0.899-1.257-3.521-3.351-4.132-1.918-0.561-3.677-0.538-5.273,0.654zm5.19,4.167c-0.187,1.461-1.178,1.812-2.191,1.86-1.282,0.058-1.744-0.796-1.69-2.005,0.054-1.146,0.373-1.978,1.755-1.964,1.546,0.018,1.525,1.38,2.126,2.109zm-99.131-168.96c10.569-8.471,22.352-14.516,35.422-18.127,1.873-0.516,2.082,0.469,2.522,1.642,1.8,4.811,3.609,9.615,5.417,14.422-11.513,6.027-23.023,12.052-34.533,18.079-3.036-4.396-6.035-8.815-9.124-13.175-0.813-1.146-0.84-1.928,0.296-2.841zm4.595,32.644c-1.166,0.613-1.769,0.707-2.569-0.7-3.903-6.86-3.958-6.815,3.146-10.451,1.45-0.745,2.846-1.593,4.267-2.394,2.009-0.995,4.048-1.945,6.028-2.996,10.038-5.327,20.06-10.679,30.089-16.027,3.008-1.487,6.02-2.968,9.021-4.472,3.495-1.758,3.212,1.886,3.657,3.115,0.591,1.636,4.587,3.367,0.71,5.533-3.648,2.037-7.386,3.911-11.083,5.858-10.828,5.596-21.765,10.981-32.367,17.006-3.634,1.839-7.286,3.646-10.899,5.528zm69.164,171.22c-20.841-3.582-38.892-12.415-52.292-29.176-30.739-38.448-21.627-88.988,9.4-115.06,1.521-1.277,1.564-2.302,0.703-3.911-4.644-8.676-9.211-17.396-13.803-26.1,0.38-0.337,0.708-0.766,1.146-0.995,9.259-4.824,18.534-9.628,27.808-14.432,0.717-0.373,1.4-0.91,2.299-0.613,4.468,8.748,8.964,17.482,13.383,26.257,0.852,1.69,1.984,1.633,3.558,1.287,28.42-6.236,53.556,0.545,75.668,19.192,0.687,0.577,1.222,1.333,1.828,2.005-3.971,0.537-7.957,0.986-11.905,1.656-1.65,0.279-2.924,0.007-4.282-0.963-6.926-4.937-14.628-8.302-22.74-10.685-12.976-3.808-25.993-3.338-38.933,0.218-1.733,0.475-2.394,0.155-3.191-1.428-4.994-9.892-10.209-19.676-15.15-29.595-1.308-2.623-2.562-2.893-4.99-1.525-5.095,2.873-10.26,5.632-15.524,8.182-2.501,1.211-2.656,2.422-1.436,4.739,5.115,9.714,10.024,19.539,15.115,29.268,0.96,1.833,0.908,2.771-0.845,4.232-21.821,18.204-30.124,41.984-25.287,69.366,4.999,28.303,23.037,46.499,49.966,55.877,9.265,3.224,18.919,3.699,28.625,2.504,2.214-0.27,3.239,0.027,2.891,2.58-0.339,2.526,0.688,4.837,1.863,7.04-7.955,1.642-15.934,1.45-23.875,0.078zm127.25-1.384c-4.456,3.619-9.842,4.977-15.261,6.162-15.746,3.453-31.688,4.762-47.771,3.744-9.532-0.601-18.898-2.44-28.18-4.719-3.359-0.827-6.008-2.877-8.979-4.365-2.403-4.434-1.905-8.824-0.634-13.585,7.15-26.711,14.081-53.482,20.955-80.265,0.619-2.419,1.409-3.224,4.002-3.211,17.671,0.122,35.344,0.032,53.017,0.015,3.313,9.252,5.662,18.804,8.459,28.213,5.839,19.636,11.196,39.411,17.303,58.971,1.131,3.613,0.037,6.647-2.911,9.04z"/><path id="path3055" d="m223.86,168.34c-0.631-2.53-1.756-3.272-4.209-3.223-6.38,0.13-12.762,0.04-19.143,0.04-6.279,0-12.56,0.112-18.833-0.049-2.671-0.068-3.727,0.903-4.307,3.492-5.19,23.236-10.508,46.437-15.807,69.647-1.945,8.532,1.479,13.89,9.992,15.936,14.331,3.443,28.797,4.649,43.418,2.598,7.194-1.011,14.448-2.08,21.021-5.507,5.363-2.795,7.105-6.845,5.666-12.514-5.959-23.466-11.951-46.926-17.798-70.42zm-50.583,31.939c2.296-9.993,4.648-19.973,6.896-29.979,0.389-1.723,1.161-2.23,2.911-2.222,11.617,0.081,23.236,0.099,34.854-0.009,2.072-0.022,2.843,0.715,3.299,2.599,2.315,9.565,4.727,19.104,7.119,28.649,0.878,3.501-1.085,6.112-4.769,6.136-7.298,0.04-14.6,0.009-21.897,0.009-7.098,0.005-14.195-0.129-21.285,0.067-2.779,0.076-4.564-1.533-6.639-2.76-1.064-0.629-0.69-1.622-0.489-2.49zm60.659,48.397c-6.37,3.099-13.351,4.007-20.254,4.938-14.651,1.974-29.108,0.553-43.394-3.021-4.426-1.11-6.87-4.782-5.914-9.283,2.513-11.84,5.134-23.658,7.879-36.269,3.792,4.02,8.153,3.609,12.472,3.592,11.939-0.055,23.879,0,35.818-0.027,3.227-0.007,6.704,0.868,9.206-3.119,1.155,4.352,2.133,7.894,3.041,11.459,1.874,7.362,3.737,14.73,5.559,22.104,1.151,4.655-0.064,7.513-4.413,9.626z"/><path id="path3057" d="m104.1,199.61c-4.249-0.093-7.597,3.031-7.617,7.099-0.016,4.149,3.187,7.381,7.35,7.408,3.936,0.027,7.503-3.556,7.431-7.462-0.066-3.659-3.426-6.968-7.164-7.045zm-0.2,11.41c-2.43,0.01-4.343-1.811-4.374-4.157-0.032-2.383,1.823-4.148,4.34-4.136,2.164,0.013,4.226,1.91,4.293,3.951,0.074,2.243-1.975,4.329-4.259,4.342z"/><path id="path3059" d="m100.06,195.1c0.394-2.482-2.364-4.712-5.33-4.739-2.971-0.027-5.233,2.186-5.284,5.17-0.049,2.948,2.385,5.129,5.707,5.115,3.344,0.158,4.416-2.468,4.907-5.546zm-5.323,2.503c-1.377-0.215-2.396-0.813-2.18-2.373,0.185-1.322,1.146-1.83,2.443-1.798,1.463,0.034,1.805,1.05,2.077,2.004-0.481,1.263-0.791,2.409-2.34,2.167z"/><path id="path3061" d="m123.3,176.76c-2.796,0.05-5.082,2.352-5.064,5.098,0.019,2.705,2.689,5.161,5.528,5.083,2.375-0.072,4.911-2.48,4.911-4.665-0.005-3.179-2.332-5.571-5.375-5.516zm0.141,7.057c-1.34,0.018-2.052-0.985-2.048-2.198,0.004-1.191,0.942-1.703,1.526-1.753,2.097-0.095,2.484,1.101,2.563,2.166,0.092,1.223-0.986,1.771-2.041,1.785z"/><path id="path3063" d="m194.35,224.86c-3.827-0.027-7.075,3.201-7.065,7.021,0.007,4.074,3.105,7.071,7.305,7.076,3.584,0.004,6.879-3.044,6.976-6.455,0.116-4.098-3.204-7.619-7.216-7.642zm0.103,10.934c-2.435,0.022-4.118-1.723-4.026-4.055,0.086-2.091,1.934-3.754,4.103-3.682,2.12,0.062,4.146,2.197,3.878,4.274-0.291,2.235-1.683,3.448-3.955,3.463z"/><path id="path3065" d="m191.08,220.78c-0.063-2.76-2.334-4.796-5.328-4.773-3.214,0.022-5.241,2.054-5.184,5.188,0.055,2.791,2.386,5.184,5.066,5.192,2.791,0.004,5.511-2.792,5.446-5.607zm-5.177,2.362c-1.099-0.152-2.055-0.616-2.119-1.813-0.074-1.281,0.646-2.081,2.006-2.189,1.248-0.104,2.041,0.508,2.086,1.677,0.05,1.237-0.674,2.09-1.973,2.325z"/><path id="path3067" d="m214.98,232.58c-2.503-0.045-3.292,1.826-3.322,3.611-0.031,1.888,1.109,3.694,3.356,3.694,2.179,0,3.664-1.173,3.825-3.417-0.125-2.587-1.369-3.837-3.859-3.888z"/><path id="path3069" d="m226.52,219.2c-2.004,0.046-3.354,1.156-3.351,3.219,0.007,2.028,1.308,3.3,3.315,3.27,1.916-0.027,2.806-1.431,3.091-3.264-0.454-1.606-0.947-3.27-3.055-3.225z"/></g></svg>
