<?xml version="1.0" encoding="UTF-8" standalone="no"?>
<!-- Generator: Adobe Illustrator 16.0.0, SVG Export Plug-In . SVG Version: 6.00 Build 0)  -->
<svg id="axe-smith" xmlns:rdf="http://www.w3.org/1999/02/22-rdf-syntax-ns#" xmlns="http://www.w3.org/2000/svg" enable-background="new 0 0 90 90" xml:space="preserve" height="90" viewBox="0 0 90 90" width="90" version="1.1" y="0px" x="0px" xmlns:cc="http://creativecommons.org/ns#" xmlns:dc="http://purl.org/dc/elements/1.1/"><metadata id="metadata3108"><rdf:RDF><cc:Work rdf:about=""><dc:format>image/svg+xml</dc:format><dc:type rdf:resource="http://purl.org/dc/dcmitype/StillImage"/><dc:title/></cc:Work></rdf:RDF></metadata><g id="icon_axe-smith" transform="matrix(0.29216684,0,0,0.29216684,0.88261886,1.2968226)"><path id="path3102" clip-rule="evenodd" d="m265.87,145.18c-5.039-6.042-10.485-11.686-16.524-16.741-0.782-0.655-1.58-1.291-2.371-1.937-5.288-3.785-10.642-7.482-15.833-11.397-2.115-1.595-4.329-2.512-6.911-2.893-3.505-0.517-6.664-1.949-9.553-4.019-1.214-0.872-1.31-1.548-0.258-2.681,2.12-2.279,4.193-4.644,4.092-8.074-0.536-1.115-1.073-2.23-1.61-3.344-5.913-5.233-11.821-10.473-17.743-15.695-1.055-0.93-2.17-1.789-3.258-2.681-0.692-0.471-1.424-0.896-2.074-1.42-2.923-2.358-6.606-2.03-8.966,0.828-2.667,3.231-2.663,3.226-6.166,0.926-1.741-1.143-3.43-2.359-4.636-4.083-0.639-0.914-1.589-1.989-1.538-2.945,0.334-6.315-4.493-9.339-8.074-13.177-0.962-1.031-1.861-2.121-2.79-3.183-1.29-0.971-2.431-2.09-3.391-3.391-3.359-3.246-6.72-6.491-10.078-9.737-0.947-0.725-1.895-1.45-2.842-2.175-1.54-0.692-2.798-1.777-4.038-2.887-1.312-0.921-2.646-1.81-3.929-2.769-3.599-2.692-5.969-2.553-9.271,0.438-4.142,3.75-8.129,7.643-11.626,12.009-0.714,0.892-1.447,1.254-2.634,1.197-9.777-0.466-18.132,2.883-25.194,9.59-0.963,1.308-1.927,2.616-2.891,3.923-0.013,0.94-0.026,1.881-0.04,2.821,1.363,3.704,1.788,7.632,2.746,11.434,0.578,2.634,1.048,5.298,1.765,7.894,0.576,2.085,0.032,3.155-2.17,3.26-0.952,0.256-1.903,0.513-2.854,0.769-3.65,1.216-7.261,2.569-10.958,3.62-9.558,2.715-18.736,6.875-29.023,6.779-5.574-0.051-7.377,1.888-8.877,7.299-1.688,6.087,2.04,17.061,7.095,20.794,2.029,1.5,4.23,1.413,6.445,0.466,1.552-0.664,3.072-1.404,4.605-2.11,2.109-1.45,4.448-2.44,6.803-3.396,1.915-0.678,3.394-2.317,5.53-2.505,4.322-1.496,8.66-2.948,12.954-4.517,1.057-0.387,1.739-0.145,2.528,0.502,2.459,2.013,4.961,3.974,7.447,5.955,0.739,0.566,1.479,1.134,2.217,1.701,2.174,1.657,4.366,3.292,6.517,4.979,1.514,1.187,1.581,2.315-0.028,3.627-5.854,4.774-11.64,9.631-17.455,14.451-2.755,2.285-3.486,4.729-2.202,7.417,1.405,2.942,4.12,4.149,7.57,3.229,12.383-3.294,24.753-6.635,37.136-9.926,0.901-0.24,2.415-1.284,2.665,0.042,0.301,1.597,2.282,3.052,0.425,5.072-7.769,8.461-15.403,17.046-23.085,25.585-1.686,2.023-5.227,6.068-6.257,7.041-4.977,5.6-9.954,11.196-14.93,16.796-3.872,4.498-7.66,9.071-11.916,13.226-0.945,1.466-1.99,2.846-3.394,3.916-0.933,0.973-1.867,1.945-2.8,2.917-3.161,3.942-7.826,5.772-11.881,8.458-1.173,1.194-2.618,1.995-4.057,2.805-2.277,1.736-5.067,3.002-5.727,6.225,0.2,3.535,1.08,6.915,2.299,10.219,2.188,3.858,4.706,7.478,7.768,10.699,5.143,4.426,10.561,8.45,16.519,11.757,3.771,2.091,7.139,1.521,9.464-2.031,2.212-3.378,4.355-6.803,6.528-10.206,2.455-3.998,4.909-7.996,7.363-11.995,1.494-3.27,3.873-5.883,6.29-8.468,2.521-3.125,4.975-6.309,7.825-9.152,0.676-1.356,1.673-2.435,2.887-3.324,3.382-4.583,7.192-8.81,10.922-13.105,0.339-0.729,0.861-1.292,1.563-1.686,2.237-3.233,4.882-6.129,7.472-9.072,1.645-1.901,3.289-3.803,4.934-5.703,6.426-7.668,12.857-15.331,19.272-23.011,0.458-0.549,0.931-0.958,1.672-0.788,3.581,0.817,5.602-1.393,7.579-3.805,0.689-0.84,1.211-1.905,2.571-2.438,2.346,6.52,2.309,12.631-1.65,18.576-2.731,4.101-0.731,8.392,4.055,9.323,1.386,0.271,2.737,0.717,4.126,0.965,4.735,0.849,9.485,1.601,14.299,1.851,0.177-0.083,0.348-0.07,0.511,0.036,2.072,0.018,4.144,0.038,6.215,0.056,0.199,0.004,0.396,0.007,0.594,0.009,0.749,0.008,1.496,0.016,2.245,0.024,3.05-0.279,6.101-0.559,9.15-0.839,3.027-0.717,6.053-1.436,9.079-2.153,3.747-1.372,7.494-2.744,11.24-4.115,1.763-0.915,3.526-1.83,5.288-2.744,1.344-1.164,2.896-1.983,4.482-2.752,0.23-0.414,0.577-0.653,1.058-0.686,3.602-2.865,7.204-5.73,10.806-8.595,2.07-2.066,4.14-4.132,6.209-6.198,3.108-3.955,6.217-7.909,9.324-11.865,1.622-2.845,4.299-5.3,3.354-9.092zm-39.592-24.358c6.597,4.854,13.443,9.372,19.69,14.693-8.134,9.988-17.397,18.655-28.907,24.693-2.931,1.537-5.973,2.82-9.079,3.97-1.386,0.513-1.862,0.173-1.896-1.294-0.118-5.383-0.273-10.765-0.502-16.143-0.065-1.536,0.887-2.438,1.705-3.438,5.569-6.801,11.168-13.576,16.74-20.375,0.532-0.649,0.952-1.39,1.423-2.088,0.281-0.012,0.652-0.148,0.826-0.018zm-3.662-1.188c-3.613,5.309-8.038,9.97-11.994,15.004-1.865,2.374-3.886,4.625-5.735,7.009-1.001,1.291-2.005,1.286-3.441,0.781-5.424-1.905-10.867-3.772-16.364-5.447-2.445-0.744-2.209-1.605-0.751-3.146,7.071-7.471,13.337-15.635,20.077-23.391,0.241-0.278,0.404-0.623,0.604-0.936,0.269,0.037,0.672-0.028,0.787,0.125,4.247,5.628,10.195,8.378,16.817,10.001zm-33.62-37.627c0.854-1.054,1.442-1.082,2.469-0.172,5.906,5.242,11.848,10.445,17.846,15.582,1.171,1.002,1.07,1.646,0.152,2.704-1.782,2.053-3.437,4.216-5.145,6.333-4.816,5.547-9.68,11.055-14.421,16.666-1.399,1.655-2.04,1.835-3.31-0.223-4.054-6.578-8.237-13.086-12.617-19.45-1.437-2.087-1.106-3.312,0.439-4.992,3.505-3.809,6.84-7.774,10.244-11.675,1.779-1.288,2.988-3.105,4.343-4.773zm-8.778,3.291c0.614,0.27,1.199,0.58,1.236,1.376-5.252,5.804-10.493,11.619-15.772,17.398-0.647,0.709-1.07,1.807-2.587,1.826,2.955-5.292,5.823-10.426,8.689-15.561,0.491-0.879,1.459-1.844,0.467-2.776-1.063-0.998-2.106-0.056-3.027,0.571-3.422,2.33-6.529,5.109-10.171,7.127-0.101,0.114-0.28,0.335-0.291,0.328-0.299-0.224-0.159-0.392,0.089-0.537,1.549-6.77,4.149-13.221,6.011-19.896,0.174-0.623,0.281-1.264,0.42-1.896,3.758,5.528,8.87,9.375,14.936,12.04zm-16.32-19.612c0.624,0.619,0.688,1.283,0.397,2.048-2.725,8.433-5.436,16.87-8.19,25.292-0.331,1.015-0.29,2.251-1.717,3.191,0.371-4.234,1.817-7.897,2.661-11.68,0.615-2.761,1.398-5.484,2.12-8.22,0.31-1.168,1.065-2.516-0.189-3.389-1.345-0.937-2.215,0.48-3.091,1.204-4.507,3.724-8.97,7.5-13.812,11.562-0.87-3.209-1.733-6.044-2.387-8.927-0.519-2.291-1.513-3.354-3.942-2.358-0.998,0.409-2.265,1.131-2.934-0.384-0.768-1.74-2.972-2.963-1.535-5.524,4.19-7.468,9.432-14.12,15.218-20.379,6.118,5.54,11.548,11.761,17.401,17.564zm-26.21,19.108c-0.649,0.162-1.075-0.12-1.234-0.776-0.418-1.718-0.788-3.45-1.268-5.151-0.221-0.784-0.123-1.217,0.712-1.439,0.851-0.225,0.947,0.439,1.087,0.92,0.493,1.699,0.919,3.417,1.415,5.294,0.055,0.431-0.015,0.978-0.712,1.152zm-17.19-33.934c3.471-4.257,7.258-8.209,11.294-11.936,1.002-0.925,1.743-0.958,2.833-0.122,3.146,2.411,6.376,4.712,9.573,7.056-1.427,2.915-4.022,4.887-5.988,7.371-3.432,4.339-6.542,8.895-9.514,13.705-3.021-4.907-5.917-9.608-8.811-14.31-0.246-0.745,0.186-1.24,0.613-1.764zm-25.124,8.217c6.475-5.36,13.783-7.475,22.096-5.743,1.419,4.144,4.226,7.528,6.252,11.343,1.989,3.747,4.265,7.343,6.471,10.972,0.778,1.28,0.826,2.088-0.714,2.877-4.791,2.456-9.503,5.063-14.261,7.585-4.008,2.125-8.077,4.137-12.039,6.343-2.141,1.193-3.32,1.19-3.339-1.672-0.005-0.826-0.359-1.649-0.554-2.475-0.942,0.475-1.884,0.949-2.826,1.423,0.371,1.931,0.533,3.933,1.164,5.774,0.839,2.454-0.58,2.604-2.489,2.854,0.286-2.835,0.555-5.504,0.823-8.171,0.167-0.152,0.335-0.304,0.502-0.456,0.941-0.474,1.883-0.948,2.825-1.423-1.724-8.463-3.355-16.947-5.247-25.372-0.41-1.834,0.085-2.823,1.336-3.859zm-46.264,57.096c-1.22,0.611-1.952,0.601-2.692-0.735-1.718-3.097-3.14-6.217-2.759-9.896,0.193-1.857,0.911-2.912,2.979-2.946,2.822-0.046,5.64-0.315,8.46-0.49,1.929,2.776,4.408,5.179,5.705,8.386-3.902,1.887-7.82,3.74-11.693,5.681zm17.454-8.064c-0.969,0.297-1.894,0.884-2.985,0.685-1.697-2.267-3.396-4.534-5.093-6.8,0.239-0.271,0.431-0.694,0.726-0.787,11.257-3.484,22.522-6.938,33.787-10.396-0.068,0.656-0.261,1.328-0.185,1.968,0.725,6.092-2.726,8.557-8.08,9.436-0.448,0.073-0.857,0.383-1.284,0.583-5.751,1.382-11.245,3.58-16.886,5.311zm26.877,35.549c-0.595,0.161-1.17,0.587-1.946,0.119,5.709-4.822,11.376-9.61,17.044-14.396,3.911-2.931,3.924-3.29,0.129-6.161-0.736-0.556-1.531-1.032-2.299-1.545-6.206-4.902-12.415-9.798-18.61-14.713-0.795-0.63-1.512-1.362-2.265-2.046,4.356-1.372,8.44-3.831,13.342-2.973,1.339,0.234,2.163,0.582,2.811,1.827,2.703,5.19,5.615,10.274,8.246,15.5,1.079,2.142,2.374,3.187,4.861,3.518,11.045,1.471,20.063-1.907,27.134-10.554,1.13-1.382,1.441-2.631,0.923-4.39-1.333-4.523-2.4-9.125-3.672-13.668-0.346-1.233-0.288-2.052,0.79-2.932,4.393-3.583,8.699-7.274,13.061-10.896,0.476-0.396,0.947-1.214,1.64-0.862,0.893,0.455,0.35,1.364,0.182,2.014-1.695,6.577-3.449,13.138-5.165,19.71-0.298,1.141-1.066,2.485,0.296,3.338,1.218,0.762,2.098-0.439,2.974-1.063,4.297-3.058,8.561-6.16,13.176-9-3.533,6.288-6.477,13.013-10.74,18.758-5.848,7.882-6.953,16.14-4.822,25.296,0.36,1.545,0.416,3.162,0.683,5.324-4.117-2.586-7.804-4.903-11.49-7.219-1.149-0.813-2.365-1.547-3.431-2.459-1.538-1.314-3.119-1.271-4.97-0.764-12.617,3.455-25.253,6.835-37.882,10.237zm-2.343,89.327c-0.592,0.708-1.039,1.59-1.993,1.932-6.537-3.61-13.073-7.221-19.61-10.831-1.003,0.712-2.005,1.426-3.009,2.138,1.284,0.054,2.299,0.786,3.365,1.369,5.86,3.2,11.711,6.417,17.565,9.629-2.382,5.244-5.902,9.811-8.791,14.754-1.569,2.687-3.261,5.298-4.888,7.949-0.52,0.847-1.008,1.632-2.208,0.923-8.207-4.852-15.863-10.28-19.941-19.363-1.888-4.203-1.799-4.385,2.097-6.936,4.258-2.791,8.535-5.552,12.803-8.325,1.002-0.712,2.004-1.426,3.006-2.138,4.109-5.663,9.112-10.552,13.708-15.791,8.979-10.232,18.086-20.352,27.175-30.487,0.703-0.783,1.151-2.054,2.586-1.893,1.075,2.282,2.173,4.554,3.216,6.851,1.971,4.343,4.623,8.366,6.076,12.951,0.236-0.221,0.487-0.433,0.73-0.649-0.244,0.217-0.495,0.429-0.731,0.649-10.382,12.426-20.762,24.853-31.156,37.268zm58.332-69.36c-8.167,9.615-16.374,19.195-24.583,28.775-0.099,0.115-0.334,0.113-0.505,0.168v0.001c-3.194-6.298-6.388-12.598-9.583-18.897,0.807-2.444,2.97-3.822,4.541-5.643,5.109-5.925,10.352-11.732,15.563-17.568,0.542-0.606,1.003-1.433,2.042-1.297,4.632,3.969,9.265,7.939,13.899,11.911,0.434,1.321-0.762,1.829-1.374,2.55zm9.659-4.603c-2.589,2.936-2.587,2.938-5.557,0.689h0.001c-5.16-4.88-10.586-9.453-16.117-13.903,0.142,0.532,0.069,1.033-0.058,1.524,0.127-0.492,0.2-0.992,0.058-1.525-2.949-2.582-2.966-2.598-0.256-5.321,0.543-0.546,0.898-1.479,1.952-1.291,4.155,2.774,8.308,5.555,12.467,8.32,0.721,0.478,1.503,0.911,2.345,0.295s0.575-1.545,0.479-2.36c-0.644-5.432-1.156-10.888-2.046-16.28-0.546-3.298,0.35-5.976,2.408-8.345,4.765-5.486,9.644-10.875,14.408-16.362,1.01-1.162,1.498-1.271,2.389,0.128,4.561,7.166,9.171,14.302,13.869,21.376,0.919,1.384,0.488,2.111-0.465,3.111-6.774,7.102-12.938,14.733-19.143,22.324h-0.001c-2.246,2.54-4.494,5.077-6.733,7.62zm20.749-19.848c0.62-0.776,1.199-0.615,1.976-0.353,6.428,2.17,12.858,4.333,19.314,6.42,1.366,0.441,1.611,1.288,1.638,2.535,0.111,5.185,0.205,10.373,0.492,15.548,0.097,1.781-0.483,2.526-2.152,2.92-7.198,1.704-14.457,2.602-21.861,1.932-1.598-0.144-3.196-0.262-4.796-0.392v0.001c-0.855-5.353-2.979-10.18-6.036-14.623,3.301-5.077,7.666-9.286,11.425-13.988zm35.589,43.77c-14.289,4.731-28.77,4.729-43.361,1.65-0.27-0.056-0.514-0.229-0.899-0.407,1.552-3.196,3.214-6.357,3.239-10.023,0.002-0.241,0.005-0.483,0.007-0.725,0.149-2.74,2.058-2.731,4.549-2.465,7.776,0.831,15.481,0.06,23.012-1.979,1.879-0.508,2.888-0.065,4.114,1.228,3.64,3.835,7.414,7.542,11.136,11.298,0.033,1.26-1.103,1.193-1.797,1.423zm42.14-34.357c-9.58,13.804-21.199,25.289-36.729,32.328-0.159,0.072-0.373,0.024-0.561,0.032-3.809-3.939-7.607-7.887-11.434-11.81-0.952-0.976-1.414-1.638,0.358-2.281,16.029-5.831,28.475-16.404,38.943-29.572,3.378,2.866,6.297,6.194,9.383,9.354,0.697,0.711,0.535,1.235,0.04,1.949z"/></g></svg>
