<?xml version="1.0" encoding="UTF-8" standalone="no"?>
<!-- Generator: Adobe Illustrator 16.0.0, SVG Export Plug-In . SVG Version: 6.00 Build 0)  -->
<svg id="baker" xmlns:rdf="http://www.w3.org/1999/02/22-rdf-syntax-ns#" xmlns="http://www.w3.org/2000/svg" enable-background="new 0 0 90 90" xml:space="preserve" height="90" viewBox="0 0 90 90" width="90" version="1.1" y="0px" x="0px" xmlns:cc="http://creativecommons.org/ns#" xmlns:dc="http://purl.org/dc/elements/1.1/"><metadata id="metadata3138"><rdf:RDF><cc:Work rdf:about=""><dc:format>image/svg+xml</dc:format><dc:type rdf:resource="http://purl.org/dc/dcmitype/StillImage"/><dc:title/></cc:Work></rdf:RDF></metadata><path id="icon_baker" clip-rule="evenodd" d="m77.268,59.059c-0.37914-0.53764-1.0306-0.65278-1.5377-0.99229-0.32692-0.12022-0.66884-0.21018-0.9382-0.45116-0.92374-0.34085-1.8154-0.75238-2.6695-1.2437-0.57834-0.25303-1.1446-0.54113-1.739-0.74837-0.45009-0.15609-0.52131-0.41849-0.40323-0.81503,0.04873-0.31085,0.09693-0.62171,0.14512-0.93285-0.01419-0.32745-0.04632-0.65625,0.07845-0.9722,0.007-0.25918-0.0024-0.51997,0.02329-0.77727,0.14566-1.4807-0.61556-2.3886-1.8702-2.9903-0.30791-0.19331-0.61636-0.38609-0.92454-0.57914-4.163-2.5629-8.3257-5.1258-12.489-7.6885-0.54086-0.34728-1.0812-0.69481-1.622-1.0421-2.5294-1.5385-5.0597-3.0749-7.5867-4.6179-0.44072-0.26963-0.86484-0.56763-1.2967-0.85252-0.67607-0.2798-1.237-0.74756-1.8486-1.1326-1.7192-1.056-3.4387-2.1123-5.158-3.1683-1.5511-0.9449-3.103-1.8882-4.6524-2.836-0.26561-0.16226-0.50899-0.36415-0.8244-0.42948-1.2659-0.10925-2.1142,0.76416-3.0981,1.3173-0.32532,0.24579-0.65064,0.49159-0.97595,0.73739-0.93177,0.88973-0.8983,0.82761-2.0191,0.21981-2.4333-1.32-4.4101-3.1983-6.3494-5.1119-0.91009-0.89776-1.8702-1.0019-2.9873-0.64447-1.1093,0.35476-1.9626,1.0442-2.5875,2.0186-0.90607,1.4132-1.293,2.9918-1.4303,4.6401-0.06319,0.75907,0.30925,1.2948,0.98854,1.614,0.84502,0.3968,1.7037,0.76496,2.5412,1.1765,2.0226,0.99363,4.1777,1.7203,6.056,3.0042,0.39306,0.18636,0.78746,0.3703,1.0659,0.72508-0.12611,0.86161-0.22866,1.7272-0.38396,2.5835-0.23268,1.2847,0.05033,2.2976,1.3476,2.8556,0.18046,0.0776,0.32398,0.24043,0.4849,0.36386,1.8413,0.96899,3.5635,2.1364,5.3339,3.2224,3.4358,2.1069,6.8568,4.2382,10.284,6.3599,0.3786,0.23803,0.7572,0.47606,1.1355,0.71463,4.5799,2.8248,9.1598,5.6501,13.74,8.4746,0.94623,0.5355,1.8871,1.079,2.7613,1.7294,0.79308,0.38503,1.5471,0.83484,2.2448,1.376,0.43858,0.22651,0.89456,0.38502,1.3974,0.36145,0.95694-0.2008,1.7634-0.75961,2.6531-1.1195,0.313-0.20804,0.626-0.41688,0.93927-0.62493,0.26159-0.20001,0.52292-0.40029,0.78478-0.60029,0.34352-0.0105,0.56469,0.20268,0.77969,0.42705,1.4113,1.0683,2.6622,2.3177,3.9378,3.5351,0.74596,0.71275,1.5784,0.8635,2.5099,0.6501,1.1272-0.25838,2.0555-0.85974,2.7463-1.7982,0.80299-1.0911,1.2086-2.3412,1.4689-3.6548,0.15342-0.77033,0.32853-1.5305-0.0557-2.2828zm-55.319-25.838c-0.26962-0.11518-0.53898-0.23026-0.80834-0.34567-2.0333-0.92856-4.0666-1.8576-6.101-2.7835-0.26829-0.12209-0.52533-0.22865-0.45437-0.61207,0.25436-1.3746,0.62386-2.6979,1.7289-3.6634,0.91196-0.79656,1.3944-0.79148,2.2389,0.0447,1.0153,1.0051,2.1642,1.8702,3.0963,2.9619,0.21875,0.086,0.41609,0.2043,0.59414,0.35156-0.17805-0.14753-0.37512-0.26588-0.59414-0.35156-0.16949,1.3508-0.33897,2.7013-0.50873,4.0521,0.26936,0.11542,0.53872,0.23081,0.80834,0.34594,0.15556-1.2962,0.31086-2.5926,0.46616-3.8888,1.6775,0.88411,3.2106,2.0028,4.8345,2.9739,0.18796,0.13574,0.37324,0.27524,0.56442,0.40698,0.46455,0.31889,1.1361,0.43376,1.0209,1.2646-0.08782,0.6335-0.20724,1.2282-0.66054,1.7058-0.64233,0.67741-1.0871,0.72801-1.8812,0.23428-0.19707-0.12263-0.40752-0.22331-0.61181-0.33442-1.2442-0.78745-2.4882-1.5749-3.7325-2.3624zm3.458,3.1437c0.411,0.0442,0.68571,0.35317,1.025,0.53551,0.28007,0.15074,0.54862,0.28756,0.88197,0.23749,1.0839-0.16307,1.9779-1.1128,2.2593-2.4111,0.30631-1.4118,0.12156-1.8408-1.1235-2.6033-0.17725-0.10821-0.35825-0.20965-0.53738-0.31434,0.95587-1.222,2.0863-2.2218,3.5565-2.7876,1.0421,2.1567,1.0113,4.2596-0.33656,6.2836-0.50364,0.7564-1.007,1.5176-1.5738,2.2261-1.2113,1.5144-2.6614,2.5734-4.7555,2.2322,0.0565-1.1586,0.28034-2.2874,0.60405-3.3986zm1.5018,4.8575c-0.19894-0.12237-0.40189-0.2383-0.60297-0.35691,0.02008-0.13817,0.08327-0.21768,0.2316-0.26535,3.5962-1.1535,5.1004-4.1461,6.3446-7.3222,0.47231-1.2057,0.03615-2.4539-0.17377-3.673-0.35102-0.19198-0.65304-0.48838-1.0592-0.56496,0.40591,0.0766,0.7082,0.37298,1.0595,0.56496,3.3198,2.0446,6.6416,4.0872,9.9585,6.1382,0.19358,0.11967,0.34808,0.30282,0.52078,0.45651,0.2375,0.0418,0.44447,0.13842,0.63859,0.25677-0.19439-0.11862-0.40109-0.215-0.63859-0.25677,1.1487,1.9685,2.2928,3.9394,3.4513,5.9023,0.16922,0.2873,0.22759,0.52104,0.08889,0.85627-1.147,2.7779-2.2703,5.5649-3.401,8.3496,0.09317,0.0463,0.18582,0.0926,0.27873,0.13897-0.09291-0.0463-0.18582-0.0926-0.27873-0.1387-5.472-3.3624-10.945-6.7243-16.418-10.086zm34.947,21.056c-0.31032,0.13629-0.56254,0.17538-0.86858-0.0148-5.54-3.4382-11.085-6.8673-16.627-10.303-0.12691-0.0782-0.22464-0.20322-0.33603-0.30684v-0.00027c1.0354-2.5233,2.0703-5.0474,3.1089-7.5693,0.0739-0.18019,0.07041-0.46347,0.32532-0.46802,0.19305-0.003,0.24392,0.2415,0.33442,0.39413,1.1682,1.9677,2.3533,3.9252,3.4885,5.9109,0.27712,0.48543,0.64474,0.79067,1.1144,1.0346,4.2227,2.194,8.4443,4.3919,12.665,6.5902,0.43724,0.22786,1.0798,0.36601,1.2488,0.72427,0.19974,0.42357-0.48811,0.75799-0.67473,1.2006-0.02008,0.0477-0.04899,0.0916-0.07337,0.13736-1.06,1.1334-2.2775,2.0443-3.7057,2.6703zm4.4664-2.4499c0.5671-0.69803,1.1398-1.3923,1.5037-2.2491,0.07255,1.0726-0.07229,2.1061-0.24526,3.138-0.44232-0.26426-0.95775-0.42465-1.2584-0.88893zm9.0885,0.74086c-0.29372,1.3837-0.65224,2.7335-1.8263,3.6805-0.88893,0.71757-1.2121,0.71489-2.0381-0.0504-1.0643-0.98559-2.1227-1.9774-3.1838-2.9667,0.10603-1.343,0.35825-2.6721,0.36441-4.0243-0.42813-0.28409-0.85627-0.56789-1.2847-0.85145-0.59441,1.2043-0.59575,1.2068-1.7955,0.58022-4.2859-2.2384-8.5696-4.4808-12.858-6.7152-0.38395-0.20001-0.65706-0.47499-0.87742-0.84984-1.4756-2.5094-2.9884-4.9965-4.4468-7.5155-0.92267-1.5942-1.9894-3.1067-2.7431-4.796,0.000267,0.00028,0.000535,0.00055,0.000802,0.00055,4.1895,2.5661,8.3822,5.133,12.573,7.7035,3.3485,2.0536,6.6852,4.1276,10.049,6.1561,0.6343,0.38236,0.91919,0.80406,0.85734,1.5567-0.10951,1.3256-0.2466,2.6368-0.75988,3.8789,0.4284,0.28382,0.85654,0.56762,1.2849,0.85171,0.54648-0.007,0.96498,0.33335,1.4274,0.54273,1.606,0.72535,3.201,1.475,4.8021,2.2119,0.26534,0.12236,0.5355,0.22384,0.45437,0.60645z"/></svg>
