<?xml version="1.0" encoding="UTF-8" standalone="no"?>
<!-- Generator: Adobe Illustrator 16.0.0, SVG Export Plug-In . SVG Version: 6.00 Build 0)  -->
<svg id="bow-carver" xmlns:rdf="http://www.w3.org/1999/02/22-rdf-syntax-ns#" xmlns="http://www.w3.org/2000/svg" enable-background="new 0 0 90 90" xml:space="preserve" height="90" viewBox="0 0 90 90" width="90" version="1.1" y="0px" x="0px" xmlns:cc="http://creativecommons.org/ns#" xmlns:dc="http://purl.org/dc/elements/1.1/"><metadata id="metadata3195"><rdf:RDF><cc:Work rdf:about=""><dc:format>image/svg+xml</dc:format><dc:type rdf:resource="http://purl.org/dc/dcmitype/StillImage"/><dc:title/></cc:Work></rdf:RDF></metadata><g id="icon_bow-carver" clip-rule="evenodd" transform="matrix(0.29508817,0,0,0.29508817,0.44122468,0.98949262)"><polygon id="polygon3185" points="213.32,191.81,213.33,191.8,213.32,191.8"/><path id="path3187" d="m240.96,31.051c-1.042,0.169-2.044,0.066-2.992-0.423-4.605-0.575-7.325,1.541-9.366,5.637-2.9,5.825-6.409,11.343-9.553,17.051-0.887,1.611-1.733,2.062-3.661,1.616-10.151-2.352-20.394-4.221-30.712-5.744-4.287-0.632-8.731-0.461-12.867-2.075-0.685,0.853-1.605,0.447-2.418,0.393-5.084-0.337-10.164-0.718-15.245-1.085-1.958,0-3.913,0.001-5.87,0.002-1.167,0.008-2.333,0.017-3.5,0.026-6.078,0.311-12.156,0.623-18.232,0.935-14.839,2.099-29.257,5.625-42.625,12.672-1.223,0.661-2.321,1.586-3.765,1.784-1.331,1.639-3.37,2.283-4.96,3.553-2.273,1.809-5.297,2.95-6.547,5.71-4.394,9.705-7.851,19.758-9.954,30.217-1.068,5.313-1.72,10.709-2.559,16.067-0.618,9.177-0.844,18.362-0.632,27.558,0.08,2.169,0.159,4.34,0.24,6.51,0.368,0.725,0.395,1.494,0.29,2.277,0.44,3.853,0.893,7.7,1.314,11.555,0.202,1.848,0.481,3.726-1.698,4.769-1.934,0.923-3.739,0.86-5.45-0.481-1.798-1.41-2.954-3.118-2.292-5.521,0.281-1.021,0.825-1.968,1.125-2.983,0.647-2.189,0.119-4.215-1.039-6.114-4.244-3.446-6.254-3.128-11.66,1.853-0.143,0.71-0.449,1.311-1.134,1.65-3.941,6.855-4.923,13.985-1.32,21.214,1.177,2.361,1.072,3.666-1.045,5.229-2.278,1.681-3.303,4.094-2.424,6.986,0.816,2.689,2.76,4.022,5.432,4.731,8.569,2.268,17.101,4.67,25.649,7.02,0.998,0.267,1.997,0.537,2.995,0.805,2.431,1.877,2.678,4.158,0.611,5.639-1.051,0.727-1.991,1.644-3.288,1.965-5.741,4.631-12.018,8.505-18.141,12.582-2.871,1.912-4.836,4.123-5.079,7.638-0.248,4.402,0.561,8.645,1.923,12.804,2.477,5.076,6.087,9.234,10.377,12.841,4.647,3.034,9.431,5.835,14.418,8.277,3.673,1.053,7.395,3.137,10.869-0.47,1.367-2.543,2.732-5.088,4.099-7.632,1.945-4.606,3.884-9.216,6.386-13.559,1.288-2.959,2.266-6.063,4.159-8.731,0.753-2.545,2.083-4.815,3.375-7.103,0.241-1.046,0.546-2.061,1.332-2.854,0.255-0.775,0.509-1.552,0.765-2.327-0.123-1.357-0.245-2.715-0.367-4.072-1.096-1.83-1.616-3.868-2.137-5.907-0.204-0.645-1.289-1.771,0.619-1.347,1.391,0.309,2.729,0.844,4.091,1.28,1.295,0.03,2.508,0.366,3.633,1.008,6.708,2.086,13.41,4.19,20.126,6.244,2.419,0.738,4.718,1.891,7.275,2.167,1.07-0.18,1.966,0.402,2.934,0.671,1.47,0.305,3.081,0.257,4.146,1.608,0.568,0.033,1.135,0.066,1.703,0.1,0.192-0.018,0.376,0.012,0.552,0.085,3.142,0.667,6.073,1.904,8.933,3.33,2.691,1.026,5.38,2.052,8.072,3.076,0.735-0.088,1.222,0.415,1.781,0.749,1.962,0.83,4.099,1.266,5.846,2.584,4.104,0.891,7.806,2.876,11.727,4.27,1.365,0.484,2.763,0.88,4.144,1.314,1.831,0.011,3.234-1.009,4.666-1.947,1.61-2.136,3.219-4.271,4.829-6.406,0.729-1.177,1.456-2.354,2.186-3.531,0.534-1.229,1.146-2.433,1.59-3.692,0.706-2.008,1.472-3.023,2.94-0.519,0.239,0.411,0.605,0.751,0.912,1.123,4.12,3.508,8.819,6.035,14.132,6.846,2.847,0.437,5.881-0.31,8.825-0.561,0.861-0.073,1.712-0.28,2.567-0.426,1.087-0.843,2.342-1.291,3.666-1.58,15.068-7.993,18.123-24.718,10.564-37.596-2.109-2.387-3.81-5.168-6.647-6.845-1.425,0.013-2.853,0.026-4.278,0.039-2.712,1.196-3.904,3.443-4.303,6.235,0.597,1.963,1.193,3.927,1.793,5.891,0.793,1.327,0.644,2.685,0.131,4.053-1.49,5.995-6.921,8.563-12.471,5.897-2.668-1.09-4.332-3.015-4.871-5.871-0.859-2.101-0.43-4.13,0.417-6.1,0.663-1.543,1.505-2.882,3.593-2.529,1.446,0.243,2.406-1.077,3.712-1.353,2.434-2.987,2.404-6.075,0.373-9.245-0.121-0.226-0.243-0.454-0.363-0.681-1.126-1.396-2.251-2.792-3.377-4.188-13.037-11.964-32.923-9.466-41.283,5.148-2.039,3.561-2.834,7.451-3.256,11.421-0.187,1.742-0.539,2.241-2.427,2.022-8.271-0.952-16.028-3.972-24.084-5.778-3.221-0.72-6.369-1.763-9.583-2.531-1.481-0.354-2.501-0.981-2.763-2.551-1.242-1.824-2.208-3.787-2.965-5.855-0.201-0.32-0.401-0.638-0.602-0.955-5.98-3.494-12.743-4.676-19.302-6.406-4.787-1.266-9.642-2.511-14.62-2.604-3.042-0.056-3.975-1.352-4.036-4.17-0.248-11.24,0.511-22.394,2.578-33.446,1.109-5.926,2.294-11.841,4.354-17.535,0.001-1.274,0.497-2.406,1.013-3.532,1.26-5.308,3.465-10.281,5.447-15.332,0.462-1.174,1.462-1.78,2.444-2.408,7.988-5.106,16.545-8.93,25.719-11.349,3.795-1.238,7.672-2.119,11.624-2.66,1.137-0.68,2.406-0.372,3.62-0.485,5.379-1.156,10.817-1.819,16.323-1.875,0.958-0.723,2.018-0.372,3.053-0.289,0.766-0.018,1.533-0.036,2.301-0.053,0.207,0.005,0.416,0.01,0.624,0.014,0.762,0.015,1.523,0.031,2.284,0.048,11.588-0.447,23.128,0.159,34.633,1.576,1.226-0.015,2.457-0.068,3.594,0.535,8.073,0.615,16.063,1.812,23.98,3.502,2.231-0.05,4.331,0.582,6.425,1.245,5.094,1.468,9.352-0.139,13.643-2.991,6.813-4.53,13.945-8.582,20.941-12.836,1.145-1.192,1.603-2.753,2.263-4.206-2.199-16.465-11.47-29.749-30.937-32.302zm-200.9,136.46c0.917,3.663,2.816,6.271,5.495,8.359,2.778,2.163,5.94,2.741,9.346,2.481,4.671-0.357,9.456-4.452,10.845-9.294,0.252-0.427,0.506-0.853,0.873-1.474,1.604,10.809-7.981,20.109-19.634,15.268-6.234-4.476-8.53-9.341-6.925-15.34zm48.024,55.373c-5.52,11.729-11.045,23.458-16.551,35.195-0.445,0.947-0.763,1.729-2.107,1.143-7.313-3.197-14.239-6.925-18.998-13.655-2.427-3.433-3.693-7.269-3.748-11.496-0.013-1.124,0.122-2.026,1.194-2.752,8.498-5.726,16.96-11.505,25.427-17.275,0.507-0.347,1.016-0.578,1.635-0.366,0.239-0.855,0.477-1.711,0.713-2.563-0.904-3.038-1.809-6.075-2.714-9.111,3.415-0.137,6.433,1.498,9.667,2.171,1.512,4.636,3.024,9.27,4.537,13.905-4.191-1.725-7.517-4.879-11.49-6.965-0.236,0.853-0.474,1.708-0.712,2.563,0.915,0.683,1.82,1.378,2.743,2.049,3.408,2.471,7.267,4.287,10.404,7.157,0.2-0.455,0.252-0.881,0.216-1.291,0.036,0.41-0.016,0.836-0.216,1.291zm101.06-24.54c-0.34-3.847,0.788-6.017,4.14-7.897-1.365,2.616-2.891,5.153-4.14,7.897zm24.392,18.121c9.817,0.066,15.523-5.268,17.673-16.521,3.046,7.678,0.528,16.111-6.353,21.286-6.253,4.702-15.1,4.689-21.275-0.029-6.914-5.282-9.391-13.659-6.292-21.277,1.829,10.231,7.97,16.483,16.247,16.541zm-33.72-34.557c6.789-5.189,15.796-5.595,21.214-0.955-11.865,0.479-17.34,4.145-19.482,13.043-1.923,7.986,1.592,14.834,10.786,20.038h-4.721c0.002,0.703-0.163,1.359-0.443,1.98,0.28-0.621,0.444-1.277,0.441-1.98-5.866-1.585-10.079-5.209-12.945-10.494-3.382-7.403-1.137-16.827,5.15-21.632zm-7.627,22.942c3.003,6.273,7.547,10.627,14.663,11.775-0.457,6.069-4.083,10.587-7.465,15.22-0.465,0.634-1.055,0.21-1.588-0.004-10.4-4.167-20.804-8.333-31.207-12.5,4.097-5.037,8.194-10.076,12.291-15.113,4.464-0.389,8.885,0.132,13.306,0.622zm-35.29-6.553c6.321,1.707,12.821,2.789,18.937,5.243-4.092,4.886-8.185,9.774-12.276,14.659-6.875-1.724-13.728-3.517-20.421-5.869,1.385-5.365,3.262-10.604,4.216-16.085,3.358-0.152,6.41,1.206,9.544,2.052zm-11.388-2.941c-0.279,0-0.564,0.018-0.843,0.017,0.279,0,0.564-0.017,0.843-0.017zm-1.257-0.003c-0.729,5.627-2.706,10.931-4.207,16.358-2.095-0.577-4.191-1.152-6.285-1.729,0.368-5.354,2.366-10.34,3.517-15.518,0.238-1.058,1.055-0.981,1.843-0.858,0.95,0.145,1.892,0.341,2.837,0.515,0.634,0.653,1.148,1.531,2.295,1.232zm-11.422-12.744c4.48,1.242,6.137,4.132,7.17,8.012-4.321-1.549-4.696-1.357-5.738,2.903-1.194,4.879-2.388,9.757-3.581,14.636-8.05-1.577-15.855-4.104-23.813-6.046-1.211-0.297-2.438-0.537-3.657-0.804-3.654-1.202-7.327-2.339-11.131-2.978,0.095,0.408,0.188,0.815,0.283,1.223-0.095-0.407-0.189-0.814-0.284-1.223-8.379-2.867-17.066-4.636-25.566-7.072-2.147-0.614-4.31-1.175-6.706-1.825,1.453-2.038,3.529-2.931,5.279-4.213,0.54-0.376,1.158-0.69,1.539-1.197-0.38,0.507-0.999,0.821-1.539,1.197,1.012,0.33,2.03,0.647,3.038,0.989,6.259,2.122,14.348,0.32,17.287-4.871,2.317-4.09,5.431-4.665,9.324-4.636,1.261,0.011,2.525-0.103,3.788-0.158,11.778,0.108,23.042,2.945,34.307,6.063zm-26.867-75.55c-6.851,20.56-9.607,41.684-8.505,63.318,0.054,1.066,0.23,2.126,0.35,3.189-1.845,0.109-3.745-0.018-5.524,0.387-2.315,0.521-2.703-0.349-2.514-2.378,0.485-5.269-1.031-9.805-5.219-13.26-3.178-27.926-0.808-55.176,9.907-81.412,0.252-0.533,0.476-1.095,0.816-1.542-0.34,0.447-0.564,1.01-0.816,1.543,0.874-0.028,1.372,0.613,1.963,1.098,5.143,4.202,10.292,8.4,15.438,12.601-1.972,5.483-4.054,10.93-5.896,16.456zm176.55-44.291c-6.991,4.275-13.963,8.586-20.924,12.909-0.91,0.564-1.744,0.492-2.765,0.289-12.415-2.467-24.909-4.555-37.482-5.897-16.308-1.74-32.688-1.972-49.076-0.848-13.611,0.934-26.768,3.823-39.434,8.888-6.176,2.471-12.006,5.62-17.506,9.366-0.626,0.426-1.116,1.15-2.037,0.938-5.243-4.956-10.911-9.387-16.503-13.911,2.533-3.401,6.393-4.968,9.922-6.873,11.968-6.461,24.858-9.983,38.301-11.865,13.035-1.825,26.123-1.536,39.145-0.868,18.1,0.928,35.951,4.093,53.558,8.424,3.007,0.74,4.479,0.164,5.949-2.617,3.549-6.725,7.557-13.207,11.265-19.852,0.949-1.705,2.09-2.209,3.994-2.122,11.831,0.543,22.227,9.524,24.696,21.398,0.265,1.27-0.044,1.983-1.117,2.641z"/><path id="path3189" d="m147.18,116.38c2.214-0.975,4.599-0.812,6.448,1.164,1.359,1.452,2.975,2.105,4.973,1.838,5.091-0.678,7.343-5.625,4.561-10.38-3.462-5.917-8.981-8.929-15.454-10.47-0.206-0.016-0.415-0.031-0.621-0.047h-4.633c-1.202,0.196-2.403,0.392-3.607,0.587-1.908,0.849-3.818,1.699-5.728,2.548-1.525,1.166-3.049,2.331-4.574,3.496-4.284,5.537-6.582,11.707-5.1,18.718,1.834,8.679,6.846,14.755,15.511,17.484,2.525,0.08,5.052,0.159,7.578,0.238,2.929-0.124,5.42-1.657,8.118-2.511,1.32-0.829,2.783-1.471,3.643-2.878,0.319-1.147,0.638-2.294,0.956-3.442-1.311-5.051-2.647-6.086-8.1-6.256-0.875-0.028-1.755,0.043-2.625-0.024-2.753-0.215-4.445-2.063-4.403-4.8,0.037-2.317,0.982-4.351,3.057-5.265zm-4.681,16.594c-3.678,0.811-8.88-3.541-10.698-8.291-1.967-5.134-0.465-11.474,3.697-14.949,4.938-4.124,10.605-4.708,15.642-1.614-6.667-0.297-11.61,2.596-13.779,8.062-2.49,6.275-0.908,11.441,5.138,16.792z"/></g></svg>
