<?xml version="1.0" encoding="UTF-8" standalone="no"?>
<!-- Generator: Adobe Illustrator 16.0.0, SVG Export Plug-In . SVG Version: 6.00 Build 0)  -->
<svg id="butcher" xmlns:rdf="http://www.w3.org/1999/02/22-rdf-syntax-ns#" xmlns="http://www.w3.org/2000/svg" enable-background="new 0 0 300 300" xml:space="preserve" height="90" viewBox="0 0 90 90" width="90" version="1.1" y="0px" x="0px" xmlns:cc="http://creativecommons.org/ns#" xmlns:dc="http://purl.org/dc/elements/1.1/"><metadata id="metadata3225"><rdf:RDF><cc:Work rdf:about=""><dc:format>image/svg+xml</dc:format><dc:type rdf:resource="http://purl.org/dc/dcmitype/StillImage"/><dc:title/></cc:Work></rdf:RDF></metadata><g id="icon_butcher" clip-rule="evenodd" transform="matrix(0.31293965,0,0,0.31293965,-2.1486521,-1.7676505)"><path id="path3215" d="m255.17,90.674c-6.101-3.524-12.202-7.05-18.302-10.576-1.146-0.699-2.293-1.397-3.438-2.096-19.75-11.033-40.312-20.476-60.368-30.908-1.942-1.016-3.884-2.033-5.826-3.048-0.965-0.203-1.823-0.626-2.583-1.253-3.316-1.356-6.502-2.973-9.542-4.869-4.281-1.102-7.078,0.695-8.838,4.521-0.559,1.532-1.263,2.985-2.261,4.285-7.188,14.278-14.758,28.355-22.417,42.383-0.792,1.783-1.436,3.644-2.768,5.135-1.382,3.328-3.083,6.49-5.006,9.535-0.575,1.111-1.151,2.222-1.724,3.333-6.897,13.046-13.792,26.093-20.688,39.139-3.068,7.402-6.634,14.573-10.102,21.789-1.417,2.639-1.728,5.254,0.268,7.762,0.644,0.807,0.437,1.52-0.018,2.287-4.332,7.317-8.657,14.638-12.986,21.957-0.965,1.64-1.927,3.278-2.892,4.918-0.227,0.5-0.419,1.02-0.685,1.498-4.771,8.602-12.046,15.176-18.303,22.573-1.32,2.04-3.495,3.526-3.958,6.12,0.509,3.457,1.316,6.83,2.84,10.001,2.389,3.497,5.218,6.548,8.855,8.78,5.243,2.61,10.819,4.092,16.581,5.061,5.926,0.997,8.244-0.153,10.644-5.637,0.218-0.496,0.51-0.961,0.767-1.439,0.939-2.692,1.915-5.369,3.373-7.839,1.09-3.067,2.285-6.091,3.87-8.946,0.925-3.15,2.379-6.072,3.88-8.973,0.207-1.005,0.496-1.973,1.207-2.758,0.646-2.827,2.142-5.213,3.887-7.469-0.094-0.63,0.322-1.035,0.652-1.479,0.565-1.114,1.134-2.229,1.698-3.342,2.934-5.24,5.866-10.48,8.798-15.719,0.346-1.144,0.996-0.809,1.665-0.339,0.971,0.681,1.937,1.368,2.904,2.051,6.828,4.091,13.615,8.247,20.133,12.825,1.022,0.42,1.978,0.944,2.762,1.744,1.286,0.453,2.409,1.162,3.383,2.116,3.48,1.835,6.789,3.944,9.958,6.274,0.588,0.361,1.178,0.721,1.767,1.082,2.413,1.51,4.827,3.021,7.241,4.531,1.696,1.104,3.391,2.209,5.086,3.314,1.53,0.629,2.889,1.341,1.661,3.339,0.123,2.108-0.648,4.027-1.339,5.944-1.14,3.168-1.846,6.418-2.104,9.77,0.346,1.653,0.69,3.307,1.033,4.961,0.396,0.592,0.791,1.183,1.185,1.773,8.802,8.478,15.477,8.551,23.99,0.9,0.688-1.421,1.72-2.689,1.928-4.324,0.624-2.102,0.434-4.252,0.383-6.393-0.97-3.236-1.941-6.474-2.911-9.711-0.35-0.748-0.699-1.495-1.048-2.242-1.515-1.795-1.033-3.345,0.581-4.756,1.687-3.102,4.938-4.969,6.459-8.197,6.323-8.905,12.646-17.811,18.966-26.717,0.694-0.979,1.379-1.965,2.069-2.948,1.3-2.219,2.6-4.437,3.898-6.655,5.843-10.879,12.133-21.516,17.633-32.58,0.427-1.387,0.998-2.701,1.906-3.849,2.502-5.604,5.004-11.208,7.507-16.812,0.498-1.092,0.995-2.184,1.494-3.275,0.151-0.525,0.262-1.067,0.46-1.575,3.488-8.939,6.981-17.874,9.659-27.106,1.116-3.837,0.426-5.935-2.924-7.871zm-52.03-19.967c0.986,0.498,2.046,0.874,2.749,1.8,0.637,2.905,2.771,5.01,4.071,7.568,2.284,4.503,1.857,8.572-1.369,12.419-1.678,2.002-3.479,3.868-5.428,5.612-3.058,2.737-5.982,5.623-7.88,9.334-1.671,3.265-5.551,3.832-8.136,1.159-1.534-1.585-3.222-2.918-5.648-2.035-2.339,0.851-4.441,5.448-3.735,8.076,0.63,2.337,2.935,3.529,6.093,3.15,2.074-0.249,3.249-1.563,4.125-3.336,1.146-2.321,3.298-0.796,4.957-1.167,1.335-0.298,1.641,0.663,1.984,1.747,1.104,3.48,2.829,6.683,4.875,9.686,0.947,1.389,1.07,2.508,0.262,4.045-4.117,7.817-8.19,15.658-12.1,23.579-0.965,1.956-2.258,2.587-4.262,2.874-4.872,0.697-9.8,1.297-14.541,2.559-5.608,1.492-6.918,4.119-5.975,9.771,0.432,2.584,1.018,5.168,0.85,8.516-1.94-2.971-3.502-5.363-5.063-7.754-0.203-0.312-0.391-0.635-0.604-0.938-0.41-0.58-0.377-1.183-0.257-1.859,1.007-5.592-0.281-7.666-5.662-9.199-2.93-0.834-4.333-3.633-3.169-6.328,12.206-28.247,24.41-56.495,36.628-84.738,0.393-0.907,0.521-2.028,1.661-2.441,5.191,2.633,10.379,5.27,15.574,7.9zm-20.291,44.149c-0.995,0.101-2.216-0.224-2.11-1.247,0.163-1.576,0.576-3.277,2.229-4.224,1.288,0.377,2.325,1.305,2.42,2.432,0.128,1.548-0.731,2.855-2.539,3.039zm20.007,15.423c8.06,13.268,0.055,21.269-12.076,23.336,2.101-4.058,4.074-7.867,6.045-11.677,1.994-3.85,3.984-7.703,6.031-11.659zm-50.827,38.469c-4.957,3.068-8.402,1.967-9.9-3.195-1.264-4.357,0.808-6.566,6.119-6.506,0.466,0,0.933-0.031,1.396,0.006,2.501,0.195,5.246,0.645,5.724,3.453,0.431,2.533-0.998,4.795-3.339,6.242zm-41.72-41.8c13.8-26.204,27.703-52.352,41.466-78.572,1.192-2.27,2.248-2.787,4.352-1.323,1.868,1.299,4.351,1.592,5.843,3.529-1.008,2.429-1.314,5.036-1.73,7.585-0.586,3.595-0.975,6.932-6.021,6.502-1.737-0.147-3.021,1.41-3.456,3.16-0.445,1.786,0.263,3.221,1.691,4.421,1.774,1.492,3.936,2.104,6.035,2.792,2.704,0.886,4.793-0.003,5.938-2.225,1.46-2.824,1.11-5.117-1.027-7.026-0.507-0.454-1.563-0.587-1.279-1.59,1.176-4.167,1.185-8.62,3.089-12.606,5.597,2.805,11.198,5.599,16.782,8.427,0.869,0.44,1.995,0.587,2.346,1.746-0.424,0.823-0.896,1.627-1.261,2.475-6.912,15.958-13.814,31.917-20.71,47.881-5.273,12.209-10.531,24.425-15.806,36.634-0.436,1.009-0.759,2.111-2.327,1.857-2.016-0.324-4.057-0.499-6.091-0.699-12.584-1.238-25.169-2.465-37.752-3.695,2.849-6.659,6.552-12.881,9.918-19.273zm51.703-56.513c-0.387,1.246-1.023,2.152-2.315,1.822-1.51-0.386-2.964-1.068-4.359-1.785-0.689-0.354-1.647-0.883-1.44-1.848,0.231-1.083,1.244-1.248,2.235-1.222,0.464,0.012,0.932,0.002,1.396,0.002,1.213-0.036,2.396-0.025,3.538,0.541,1.153,0.573,1.317,1.294,0.945,2.49zm-57.85,119.07c-4.841,8.578-9.287,17.38-14.481,25.759-0.389,1.044-0.779,2.089-1.168,3.134-4.465,10.4-8.933,20.803-13.389,31.208-0.446,1.042-0.772,2.035-2.31,1.828-6.439-0.87-12.591-2.43-17.553-6.974-0.746-0.684-1.398-1.495-1.988-2.321-3.122-4.364-3.118-5.474,0.3-9.478,4.407-5.156,8.892-10.244,13.335-15.367,0.424-0.49,0.759-1.078,1.534-1.029v-0.002c0.824,0.582,1.782,0.348,2.685,0.438,5.794,0.574,11.589,1.133,17.385,1.696,0.39-1.044,0.78-2.089,1.169-3.134-3.13-0.282-6.285-0.41-9.386-0.888-3.449-0.53-7.053,0.065-10.367-1.405,6.616-11.284,13.228-22.572,19.86-33.849,0.457-0.779,0.699-1.747,1.635-2.179,4.707,3.139,9.387,6.313,14.341,9.06-0.035,1.393-0.976,2.391-1.602,3.503zm3.629-5.39c-5.035-3.68-10.346-6.933-15.695-10.126-3.764-2.876-3.761-2.875-1.712-7.232,2.358-5.014,4.691-10.041,7.084-15.04,0.465-0.969,0.626-2.167,1.731-2.747,5.021,1.038,10.144,1.19,15.221,1.727,9.89,1.046,19.794,1.948,29.692,2.909,1.199,0.116,2.176,0.51,2.437,2.029-2.932,0.396-5.855,1.098-7.059,4.164-1.65,4.197-0.555,8.057,2.172,11.476,2.399,3.011,5.551,2.479,8.707,1.61,1.539-0.422,3.061-1.01,4.156-2.186,1.288-1.385,1.947-0.707,2.707,0.49,1.947,3.065,3.929,6.106,5.922,9.141,2.765,4.206,0.972,9.494-3.818,10.94-2.228,0.671-4.523,0.874-6.892,0.6-5.078-0.587-10.19-0.884-15.259-1.527-4.786-0.606-7.511,1.829-9.423,5.756v-0.001c-4.065-1.653-7.428-4.49-11.178-6.674-2.958-1.722-5.864-3.534-8.793-5.309zm73.51,68.11c-2.623,1.536-5.269,1.379-7.873-0.358-2.386-1.591-2.853-3.936-2.389-6.364,0.659-3.451,1.797-6.811,2.639-10.234,0.309-1.25,0.393-2.563,0.518-3.854,0.353-3.619-0.751-6.135-4.179-8.221-12.634-7.686-25.033-15.756-37.517-23.687-0.848-0.54-1.839-0.901-2.396-1.827,2.04-3.18,4.381-4.781,8.698-4.178,5.563,0.777,11.203,1.592,16.887,1.463,1.604-0.035,3.266-0.076,4.622-0.787,2.085-1.094,4.054-0.85,6.168-0.387,5.499,1.202,11.016,2.328,16.838,3.55-5.013,8.171-1.611,15.957,0.442,23.786-0.943,1.266-1.933,2.502-2.824,3.805-2.461,3.59-3.056,7.198-0.609,11.178,1.807,2.938,2.736,6.309,3.297,9.717,0.411,2.508,0.115,4.969-2.322,6.398zm6.886-36.655c-0.608,0.829-0.884,2.118-2.268,2.186-0.496-3.827-2.649-7.284-2.299-11.343,0.231-2.672,0.74-5.24,2.427-7.246,4.873-5.789,11.066-8.824,18.786-8.255,0.403,0.03,0.679,0.239,0.796,0.636-5.806,8.013-11.595,16.039-17.442,24.022zm20.264-28.188c-0.171,0.303-0.506,0.51-0.765,0.762-5.189-1.311-10.098-0.363-14.842,1.858-0.671,0.314-1.415,0.599-1.933,1.097-3.636,3.485-7.72,3.539-12.296,2.16-3.628-1.094-7.439-1.576-11.164-2.357-0.787-0.166-1.735-0.23-1.137-1.555,2.953-6.536,0.834-13.18,0.347-19.785-0.049-0.646-0.242-1.279-0.314-1.924-0.561-4.906,0.688-6.524,5.654-7.438,7.389-1.358,14.922-1.943,22.183-3.968,4.516-1.259,8.813-3.077,11.92-6.804,1.079-1.296,1.8-0.311,2.581,0.128,5.267,2.967,10.507,5.978,15.755,8.974-5.032,9.782-10.58,19.279-15.989,28.852zm41.824-88.294c-6.357,19.048-14.276,37.422-23.446,55.272-0.301,0.584-0.521,1.197-1.212,1.436-5.142-2.984-10.285-5.968-15.426-8.957-0.851-0.495-1.873-0.763-1.474-2.237,1.731-6.383-0.925-11.829-3.87-17.17-1.928-3.497-4.026-6.901-5.932-10.41-2.412-4.438-1.931-8.561,1.7-12.183,3.026-3.017,6.18-5.911,9.104-9.025,5.835-6.216,6.316-12.124,1.783-19.175-0.395-0.611-0.675-1.296-1.009-1.946,5.878,2.559,11.267,6.035,16.887,9.074,7.187,3.886,14.244,8.013,21.415,11.93,1.543,0.841,2.116,1.487,1.48,3.391z"/><path id="path3217" d="m232.65,214.61c-2.528,3.097-4.708,6.427-5.518,10.455-0.036,0.95-0.075,1.9-0.113,2.852,0.05,0.348,0.099,0.695,0.147,1.043,1.552,6.17,6.039,8.816,11.851,9.869,6.591,1.032,11.408-1.197,13.957-7.594,0.089-0.381,0.176-0.76,0.263-1.139,0.103-0.189,0.206-0.379,0.31-0.568,0.747-3.949,1.145-7.874-0.536-11.721-4.001-9.147-14.176-10.781-20.361-3.197zm13.723,11.239c-0.289,2.046-0.556,4.32-2.718,5.14-2.44,0.923-4.935,0.062-7.231-0.948-0.938-0.412-1.433-1.455-1.68-2.471-0.712-2.934,3.563-8.998,6.551-9.338,3.293-0.375,5.215,1.834,5.175,6.344-0.012,0.163-0.019,0.723-0.097,1.273z"/><path id="path3219" d="m231.35,103.32c-2.785-2.228-5.974-3.678-9.536-4.259-1.22-0.199-2.198-0.045-2.86,1.108-1.668,2.903-3.194,5.888-3.854,9.187-1.107,5.539,0.566,7.821,5.559,7.862,5.162,0.043,10.016-2.795,11.667-7.025,0.938-2.4,1.402-4.969-0.976-6.873zm-1.633,4.828c-1.041,3.306-4.822,6.113-8.457,6.155-2.943,0.034-3.64-0.729-3.193-3.65,0.153-0.997,0.426-1.998,0.802-2.934,0.777-1.936,1.076-4.984,2.964-5.286,2.53-0.406,5.033,1.436,7.232,3.005,0.975,0.696,1.003,1.596,0.652,2.71z"/></g></svg>
