<?xml version="1.0" encoding="UTF-8" standalone="no"?>
<!-- Generator: Adobe Illustrator 16.0.0, SVG Export Plug-In . SVG Version: 6.00 Build 0)  -->
<svg id="dagger-smith" xmlns:rdf="http://www.w3.org/1999/02/22-rdf-syntax-ns#" xmlns="http://www.w3.org/2000/svg" enable-background="new 0 0 90 90" xml:space="preserve" height="90" viewBox="0 0 90 90" width="90" version="1.1" y="0px" x="0px" xmlns:cc="http://creativecommons.org/ns#" xmlns:dc="http://purl.org/dc/elements/1.1/"><metadata id="metadata3267"><rdf:RDF><cc:Work rdf:about=""><dc:format>image/svg+xml</dc:format><dc:type rdf:resource="http://purl.org/dc/dcmitype/StillImage"/><dc:title/></cc:Work></rdf:RDF></metadata><path id="icon_dagger-smith" clip-rule="evenodd" d="m76.099,18.124c-0.17712-0.54467-0.59019-0.86702-1.0667-1.1333-0.78961-0.23317-1.5798-0.46788-2.3701-0.70414-0.39542-0.03623-0.78372-0.07896-1.177-0.11024-1.6582-0.13067-3.3216-0.33659-4.9671-0.13377-3.4551,0.4236-5.8028,2.3945-7.2696,5.4969-0.13439,0.2985-0.12262,0.76298-0.61311,0.81004-0.17991,0.11674-0.35919,0.23379-0.53631,0.35052-0.78279,0.57874-1.5647,1.1587-2.3437,1.7387,0.15142-1.5588,0.51309-3.0135,0.99707-4.437,0.12386-1.9483-0.65491-2.6806-2.5106-2.362-0.23378,0.16659-0.4685,0.33566-0.70662,0.50194-0.98407,0.83698-1.9777,1.6675-2.9593,2.5128-0.30284,0.26042-0.42453,0.12912-0.50442-0.1796-0.07463-0.29974-0.16442-0.59855-0.24308-0.89427-0.37746-1.3334-0.90325-1.7108-2.2595-1.539-0.35393,0.04273-0.51309-0.05976-0.65832-0.3369-0.42236-0.76236-0.86392-1.5151-1.3005-2.271-0.16752-0.28116-0.33566-0.5617-0.51061-0.8438-0.67628-1.0853-1.3693-2.1617-1.9164-3.3225-0.32173-0.36198-0.5617-0.79549-0.9946-1.0472-0.10528-0.03066-0.20901-0.06038-0.31646-0.09073-0.07431-0.02973-0.15266-0.06069-0.22945-0.09073-0.92399-0.0087-1.8508-0.07215-2.7776-0.01672-2.9002,0.17216-5.348,1.3569-7.3529,3.4588-0.56821,0.59236-0.75276,1.2516-0.56573,2.0802,0.40131,1.7492,0.72024,3.5145,1.0714,5.273,0.07277,0.33504,0.13748,0.66946,0.20808,1.0045,0.31151,0.536,0.21676,0.87569-0.43537,1.0203-0.70879,0.16009-1.4002,0.36167-2.1084,0.54684-0.6258,0.20034-1.2504,0.40347-1.8861,0.6032-0.82955,0.25422-1.6644,0.50442-2.5044,0.75462-0.39945,0.11333-0.7958,0.22604-1.2014,0.33535-2.3112,0.95868-4.715,1.5064-7.221,1.4606-1.4674-0.02291-2.2227,0.69547-2.685,1.965-0.32142,0.90511-0.36415,1.8152-0.18269,2.7457,0.29633,1.5043,1.0965,2.7587,1.9403,3.997,0.50535,0.51773,1.1147,0.77196,1.8427,0.71963,1.7436-0.82769,3.4932-1.6579,5.2417-2.4791,0.27094-0.12788,0.56511-0.22512,0.85339-0.33845,0.5744-0.20499,1.1621-0.40502,1.7374-0.60753,0.89706-0.30191,1.8093-0.56449,2.693-0.9113,0.59174-0.23843,1.011-0.13191,1.3566,0.38273,2.0486,1.5256,4.0889,3.0497,6.1986,4.6243-2.2561,1.8573-4.4388,3.6359-6.607,5.4213-0.32173,0.26661-0.61434,0.57316-0.91904,0.86392-0.43723,1.8923,0.65491,2.9534,2.5373,2.462,1.4591-0.38799,2.9194-0.7766,4.5593-1.2101-1.3095,1.9517-2.3094,3.9087-3.692,5.6099-0.9884,1.2237-2.3214,1.8344-3.9031,1.8864-0.46695,0.28859-0.77939,0.70817-1.02,1.1903-0.01486,0.21335-0.0353,0.42577-0.06131,0.63881,0.04459,0.65894,0.47191,1.1271,0.7927,1.6405,0.55985,0.87693,1.1321,1.7443,1.7303,2.5896,0.26289,0.38335,0.26692,0.68494-0.000619,1.0578-0.48058,0.6577-0.92214,1.3383-1.3795,2.0106-0.19818,0.37902-0.36601,0.77939-0.75214,1.0191-0.20623,0.26042-0.14584,0.67349-0.50008,0.84534-0.71003,1.2321-1.4947,2.4233-2.3434,3.5696-0.17186,0.38087-0.38551,0.72953-0.69578,1.0175-0.11643,0.31368-0.31027,0.58276-0.53724,0.82398-0.43506,1.1606-1.3971,1.8257-2.3391,2.5153-0.51092,0.3753-1.0311,0.74935-1.5433,1.1262-0.63323,0.57099-0.94319,1.2501-0.72892,2.1093,0.41926,1.0748,1.0187,2.0301,1.8368,2.85,0.53105,0.45611,1.0571,0.9113,1.5922,1.3671,1.2869,0.44837,2.4304,1.216,3.7269,1.6684,1.4136,0.49048,2.1403,0.35981,3.0259-0.80137,0.26444-0.86981,0.50287-1.7467,0.93824-2.5503,0.27497-0.74192,0.353-1.5665,0.88746-2.2025,0.86516-1.5114,1.7257-3.0228,2.7262-4.4447,0.12262-0.29664,0.24369-0.59453,0.51526-0.7958,0.94815-1.748,1.9892-3.4424,3.1244-5.0761,0.2985-0.96704,0.95836-0.38551,1.4869-0.3496,0.43754,0.02725,0.87693,0.0545,1.3095,0.08113,0.80292,0.13563,1.635-0.01208,2.4242,0.24834,1.9461-0.03035,2.6023-0.76205,2.306-2.6909-0.305-2.0654,0.07431-3.9394,1.2008-5.7242,2.0183-3.2222,3.9604-6.493,5.9115-9.7515,0.305-0.50628,0.46509-0.87724,1.2556-0.50287,1.1562,0.55303,2.3645-0.3914,2.3521-1.6848-0.004-0.4205-0.02508-0.86114-0.14244-1.2584-0.49823-1.7059,0.20808-2.9813,1.5046-4.2314-0.2087,1.5015-0.35796,2.8801-0.59298,4.2394-0.20468,1.2426-0.21366,2.527-0.7286,3.7211-0.42205,0.98933-1.0395,1.7796-1.9533,2.3561-1.3436,0.83822-1.3346,2.3567,0.0087,3.2132,1.0928,0.69609,2.1939,1.3838,3.3173,2.0403,0.39016,0.23193,0.53817,0.4942,0.45147,0.95496-0.25546,1.4671-0.48398,2.9445-0.72241,4.415-0.10404,0.6258-0.21211,1.247-0.32234,1.8715-0.20065,1.3117-0.4109,2.6246-0.60908,3.9397,0.0025,1.6297-0.68402,3.0172-1.512,4.3661-0.32482,0.5487-0.6097,1.1305-0.91502,1.6947-0.0025,0.28209-0.0071,0.56418-0.01393,0.84503,0.08299,0.38551,0.29912,0.70322,0.53755,1.0067,1.0689,0.98035,2.2583,1.7631,3.7127,2.0632,1.7802,0.46602,3.6093,0.28023,5.4238,0.33969,1.1717-0.0099,1.8269-0.67132,2.1731-1.7285,0.002-0.0963,0.004-0.19198,0.007-0.28736-0.15916-0.22016-0.1539-0.46447-0.11117-0.71622-0.0362-0.51092-0.0715-1.0218-0.11488-1.5343-0.11085-1.1798-0.41462-2.3555-0.0725-3.5436,0.17898-1.7077,0.33504-3.4179,0.64191-5.1108,0.0164-0.16257,0.0282-0.32606,0.0412-0.48615,0.0158-0.11674,0.0319-0.2341,0.0443-0.35021-0.0427-0.13377-0.0173-0.25701,0.0746-0.36508,0.0344-0.31708,0.0563-0.64005,0.0916-0.95775,0.0378-0.34836,0.083-0.69362,0.1347-1.0386,0.11147-0.90232,0.22016-1.8059,0.32792-2.7063-0.0229-0.46262,0.0133-0.87259,0.63974-0.8472,1.3287-0.54684,2.6806-1.0129,4.0725-1.3693,0.27713-0.11426,0.55582-0.231,0.8407-0.34928,0.0666-0.05481,0.13376-0.10745,0.1991-0.15978,0.87879-1.1169,0.89798-1.5721,0.13965-2.7937-0.84379-1.3764-1.4981-2.8169-1.4454-4.484-0.0477-0.9144,0.0845-1.8099,0.27744-2.7014,0.0632-1.534,0.35022-3.0439,0.55366-4.5624,0.0461-0.27961,0.092-0.55861,0.1285-0.84008,0.0201-0.80757,0.10219-1.6127,0.31368-2.3979,0.017-0.10745,0.0276-0.22047,0.0378-0.32916,0.35022-2.9274,0.69021-5.8518,1.0383-8.7789,0.30562-2.5562,1.2497-4.8203,3.0795-6.6742,0.22171-0.22573,0.38366-0.47996,0.46727-0.78713-0.002-0.34866-0.005-0.69362-0.007-1.0389zm-15.63,7.3944c0.18579-1.7638,0.83791-3.3278,1.9372-4.6869,1.4111-1.7393,3.2176-2.6689,5.5217-2.5435,1.1222,0.06131,2.253-0.02044,3.3668,0.20437-0.82429,0.40471-1.7229,0.66698-2.5088,1.1705-1.6034,1.0392-2.929,2.3091-3.3365,4.2744-0.44063,2.1799-0.841,4.3692-1.2674,6.5534-0.26258,1.3575-0.5487,2.7116-0.83791,4.1527-1.3036-0.95341-2.4769-1.8133-3.6632-2.6791,0.27249-2.1459,0.56387-4.2924,0.78806-6.446zm-4.541,5.3715c0.64562,0.19539,1.1866,0.59855,1.735,0.9692h-2.0672c-0.10466-0.45054,0.31522-0.63292,0.33225-0.9692zm-22.258-16.364c2.0505-1.8257,4.4732-2.3806,7.1365-2.1589,0.27466,0.02384,0.39604,0.17929,0.51742,0.37406,1.4606,2.5007,2.9302,4.9999,4.3921,7.5022,0.07091,0.11612,0.07927,0.26908,0.10714,0.40719,0.42236,0.26785,0.84596,0.17681,1.2711,0.0096,0.36539-0.33442,0.61032-0.33969,0.74099,0.21552,0.11178,0.46386,0.25887,0.91532,0.40564,1.3687,0.17216,0.5456-0.03128,0.81128-0.59979,0.8088-0.18022-0.79673-0.36477-1.5959-0.54684-2.393-0.42515,0.16721-0.84875,0.25825-1.2717-0.0093-2.9946,1.5535-6.0026,3.1104-9.0015,4.6584-1.2668,0.65336-1.268,0.64005-1.6123-0.78961-0.03313-0.16257-0.09475-0.31987-0.14337-0.48305,0-0.00031,0.00031-0.00031,0.00031-0.000619-0.57502-2.8048-1.125-5.6164-1.7368-8.4126-0.1028-0.49699-0.01115-0.78558,0.34123-1.0974zm13.783,11.075c0.41121,1.6021,0.8085,3.2039,1.2346,4.8042,0.09444,0.33504,0.24122,0.68773-0.01486,0.96177-0.64902,0.66853-1.2405,1.3798-2.0195,1.9093-1.7467,1.1779-3.6923,1.442-5.7347,1.2677-0.40998-0.03437-0.91687-0.0081-1.1748-0.48925-1.216-2.2183-2.4376-4.4363-3.6641-6.651-0.19446-0.34247-0.1381-0.55272,0.21954-0.73759,3.155-1.6266,6.3057-3.2553,9.4579-4.8987,0.37406-0.19941,0.54374-0.10869,0.66791,0.27311,0.17371,0.50008,0.18022,1.0534,0.48615,1.5068,0.000619,0.72984,0.2985,1.3863,0.54189,2.0536zm-13.723,1.3953c0.06131-0.81066,0.13408-1.6173,0.20375-2.4249h0.00031c0.0994-0.0096,0.18641-0.02075,0.28271-0.02849,0.1635,0.6772,0.3242,1.3581,0.48491,2.0381,0.11612,0.50535-0.29076,0.91687-0.79208,0.85339-0.35734-0.04118-0.1926-0.27559-0.1796-0.43815zm-15.857,6.384c-0.17155,0.09011-0.29881,0.09197-0.42081-0.0994-0.71003-1.1098-1.2689-2.2595-1.0983-3.6285,0.06162-0.50628,0.292-0.79054,0.86361-0.79642,1.0367-0.013,2.0716-0.09599,3.1086-0.15111,0.53662,0.88064,1.1565,1.699,1.8508,2.4633-1.3207,0.96827-2.889,1.4482-4.3038,2.2121zm5.4136-2.5079c-0.7735-0.67349-1.2092-1.6198-1.904-2.3515,2.2704-0.88405,4.6423-1.4684,6.973-2.1895,1.5489-0.48058,3.0776-1.0441,4.6831-1.3535-0.11178,0.71808-0.2824,1.429-0.32234,2.1499-0.01951,0.57099-0.30655,0.75338-0.77072,0.90046-0.76855,0.23905-1.5235,0.53198-2.2843,0.80354-2.1257,0.68247-4.2496,1.3615-6.3748,2.0406zm6.7733,22.783c1.8471-0.53043,3.173-1.7805,4.1865-3.3631,1.6848-2.6333,3.343-5.2805,5.0132-7.9215,0.16907-0.25825,0.36817-0.48739,0.55551-0.73201,0.68185-0.16752,1.39-0.25887,2.0428-0.51154,0.9401-0.37189,1.774-0.1765,2.672,0.17805,0.60691,0.23874,0.62023,0.43939,0.29757,0.94505-1.9254,3.0126-3.8236,6.0444-5.7378,9.0703-1.6768,2.6636-3.3727,5.3229-5.0383,8.002-0.37994,0.61496-0.6128,0.59638-0.96053,0.0056-0.25856-0.43227-0.57595-0.82491-0.876-1.2324-0.79332-1.2287-1.5832-2.4568-2.3917-3.6749-0.2567-0.38458-0.42391-0.57471,0.23688-0.76545zm14.792-13.252c0.40719-0.26847,0.86176-0.26537,1.3606-0.43072-0.2793,0.92183-0.75709,0.87352-1.3606,0.43072zm-16.521,32.597c-0.05945,0.26723-0.12479,0.53229-0.37746,0.68897-0.16133,1.299-0.83389,2.428-1.1971,3.6588-0.07091,0.24989-0.25484,0.25763-0.47067,0.17154-1.9443-0.78558-3.7972-1.6894-5.0987-3.4414-0.33566-0.45611-0.36755-0.75307,0.16133-1.0596,0.89334-0.51402,1.5229-1.4077,2.5558-1.7083,1.2764,0.91316,2.641,1.6879,4.049,2.379,0.25298-0.15668,0.31832-0.42174,0.37777-0.68897-1.286-0.90046-2.6577-1.6795-4.0648-2.3843,1.6257-2.4565,3.2396-4.9141,4.859-7.3681,0.10962-0.15978,0.24586-0.29355,0.37034-0.44156,0.07741-0.21768,0.15359-0.43444,0.30098-0.59298-0.1477,0.15854-0.22357,0.3753-0.30098,0.59329,1.0602,1.098,1.8173,2.4174,2.741,3.6155-1.1931,2.2533-2.4877,4.4531-3.9056,6.5782zm4.5153-7.4437c-1.0132-1.0915-1.8133-2.349-2.6912-3.5526,0.34928-1.0609,1.0262-1.905,1.7412-2.7367,0.32389,0.45209,0.69454,0.87971,0.9788,1.3618,0.38304,0.67999,0.82212,1.1872,1.7074,1.0513,0.20592-0.0322,0.43506,0.08794,0.6577,0.13563v0.000309c-0.79549,1.2466-1.5938,2.4936-2.3939,3.7403zm9.1926-4.4512c0.03995,0.62302-0.46324,0.3403-0.72396,0.31925-1.8551-0.1347-3.6932-0.41183-5.5464-0.43351-0.41865-0.3081-0.94288-0.06657-1.3857-0.24772-0.0675-0.29262,0.1508-0.46478,0.27899-0.66853,1.5126-2.4075,3.0519-4.8005,4.5364-7.2235,0.40285-0.64283,0.58648-0.57812,0.91966,0.0322,0.70105,1.2507,1.4504,2.4664,2.1815,3.6988-0.21737,1.4972-0.37034,3.0017-0.26042,4.5231zm1.4603-6.6302c-0.22047,0.35764-0.41183,0.73232-0.61527,1.0989-1.0472-1.2649-1.6764-2.7797-2.5181-4.1598-0.1604-0.27156,0.06038-0.48398,0.18703-0.69021,0.52826-0.83946,1.0593-1.6696,1.5795-2.4979,1.5693-2.4756,3.1398-4.9479,4.7194-7.413,0.17433-0.27342,0.30315-0.7509,0.80942-0.39047,1.0122,0.71622,2.1217,1.2739,3.0525,2.1025-2.4038,3.9815-4.8169,7.9639-7.2145,11.95zm9.7153-16.007c-0.28581,0.44311-0.56108,0.89024-0.83698,1.3315,0.08268,0.87507,0.17836,1.7532,0.26413,2.6645-0.51526-0.04923-0.8119-0.53693-1.2931-0.63912-1.3408-0.91192-2.6893-1.8235-4.0338-2.7435-0.28054-0.19136-0.54436-0.23255-0.87631-0.14151-2.2645,0.61806-4.545,1.2247-6.8141,1.8381,0.1892,0.14522,0.21706,0.32792,0.21118,0.51804,0.0059-0.19012-0.02168-0.37282-0.21118-0.51773-2.0963,0.53508-4.1914,1.0723-6.2874,1.6151-0.28674,0.07122-0.56883,0.20778-0.92276,0.05698,2.0022-1.6436,3.9799-3.2665,5.9527-4.8795,1.176-0.9562,1.181-0.96673,0.0081-1.8545-2.4438-1.8635-4.8857-3.7248-7.3176-5.5907-0.24122-0.18393-0.54777-0.30408-0.6673-0.62642,0.74347-0.23967,1.5173-0.43165,2.2409-0.73046,0.81345-0.33597,1.6439-0.29045,2.4859-0.21211,0.39976,0.03685,0.63354,0.2022,0.83389,0.57223,0.95341,1.8149,1.9551,3.6108,2.9315,5.4117,0.19849,0.37901,0.40998,0.69392,0.90696,0.78589,3.9381,0.74285,7.2226-0.32482,9.7834-3.4656,0.25484-0.31987,0.34247-0.64097,0.244-1.016-0.4815-1.7557-0.97416-3.5111-1.4631-5.2671,0.5103-0.7605,1.3086-1.2129,1.9883-1.7935,1.1869-1.0206,2.406-2.0034,3.8006-3.1563-0.66575,2.4806-1.264,4.7259-1.8644,6.9715-0.08701,0.35052-0.18765,0.70569-0.26475,1.0593-0.06255,0.27621-0.14708,0.58895,0.13841,0.77041,0.28797,0.17588,0.51526-0.013,0.75895-0.18734,1.5687-1.1411,3.1569-2.2614,4.9327-3.5251-0.90294,1.6535-1.6929,3.1126-2.4834,4.5714-1.2411,1.7659-2.2577,3.6721-3.3408,5.5446-0.1124,0.19539-0.18455,0.40471-0.14337,0.64283,0.16257,1.1054,0.32854,2.2186,0.50163,3.3241,0.27621-0.44125,0.55149-0.8887,0.83729-1.3318-0.37498-1.0197-0.58802-2.0177,0.13036-3.0151,0.40533-0.56852,0.75059-1.1909,1.0407-1.8291,0.34-0.74099,0.80137-1.0451,1.6387-0.91409,0.83358,0.12788,1.6851,0.12603,2.5258,0.17588,0.21056,0.01084,0.43413-0.0053,0.22821,0.30903-2.4047,1.1702-4.1629,3.0374-5.5638,5.2733zm1.7427,11.443c2.3667-1.7994,2.811-4.4212,3.1556-7.095,0.38242-2.8726,0.79611-5.7353,1.203-8.6042,0.02756-0.15544,0.13067-0.29634,0.20282-0.44435-0.11488-0.2341-0.22512-0.47098-0.45921-0.55056,0.2344,0.07989,0.34433,0.31646,0.45921,0.55025,0.55118-0.2697,0.99243-0.11767,1.4275,0.28271,0.43289,0.39604,0.91006,0.76205,1.4108,1.0652,0.63726,0.38211,0.89272,0.84658,0.70414,1.5829-0.11705,0.45735-0.122,0.94474-0.17309,1.4216-0.52548,5.0244-1.0432,10.052-1.5597,15.076-0.04118,0.46695-0.1477,0.63323-0.60815,0.34-0.39109-0.25949-0.81871-0.47129-1.2346-0.7026v-0.00031c-1.4835-0.95527-2.9723-1.9158-4.5283-2.9219zm8.0357,9.3709c-1.3411-0.73015-2.6837-1.4612-4.0267-2.1932,0.0384-1.1005,0.13841-2.1895,0.52238-3.2327,0.36322,0.21706,0.78094,0.37994,1.0791,0.66358,0.90975,0.86609,1.8929,0.83048,2.9457,0.36446-0.17464,1.4637-0.34681,2.9299-0.52052,4.398zm-4.2103-1.7148c-0.000309-0.08515,0.0068-0.16907,0.03344-0.24958-0.02632,0.08051-0.03375,0.16442-0.03344,0.24958zm3.1343,15.214c-2.1858,0.10776-4.3246-0.01208-6.245-1.251-0.20251-0.13284-0.47562-0.24276-0.2697-0.57626,0.56573-0.95527,0.95186-2.0251,1.6882-2.8875,1.569,0.26599,3.1476,0.47779,4.7488,0.54839,0.37715,1.2463,0.25794,2.5515,0.44497,3.8211,0.04738,0.27868-0.17402,0.3369-0.36724,0.34526zm0.06626-5.0259c-1.5687-0.17402-3.1349-0.34619-4.7002-0.5165,0.30408-2.0192,0.57409-4.0381,0.92152-6.049,0.1765-1.0407,0.22883-2.1062,0.5871-3.1104,0.0065-0.04118,0.0087-0.08361,0.0093-0.12572-0.00062,0.04242-0.0031,0.08453-0.0093,0.12634,1.3526,0.74502,2.7008,1.4845,4.0505,2.2285-0.28054,2.48-0.56635,4.9637-0.85897,7.4468zm1.7306-13.874c-1.5678,0.38923-1.5619,0.38985-1.3801-1.3318,0.15111-1.4773,0.30996-2.9544,0.43444-4.4367,0.04738-0.51619,0.21954-0.71096,0.77691-0.67008,1.455,0.0994,2.9138,0.13748,4.3713,0.2022,0.4332,1.4105,0.80323,2.85,1.7424,4.1385-2.0291,0.71157-3.9843,1.4033-5.945,2.0979zm6.2363-24.953c-0.51618,4.7596-1.1767,9.5022-1.769,14.257-0.13934,1.1683-0.37405,2.3388-0.26815,3.5303-0.93298-0.03561-1.861-0.05326-2.7807-0.1186-0.6676-0.04428-1.516,0.25453-1.9616-0.18176-0.47996-0.46231,0.01951-1.2739,0.01548-1.9353-0.0012-0.08144,0.0043-0.16566,0.0099-0.2536,0.34681-3.0439,0.58926-6.1063,1.0534-9.1356,0.47686-3.0779,1.1686-6.1292,1.7944-9.1848,0.25237-1.2479,0.27064-2.5583,1.1664-3.6371,1.6161-1.9353,3.7496-2.8017,6.127-3.2442-2.4137,2.8664-2.9894,6.3348-3.3873,9.9035z"/></svg>
