<?xml version="1.0" encoding="utf-8"?>
<!-- Generator: Adobe Illustrator 16.0.0, SVG Export Plug-In . SVG Version: 6.00 Build 0)  -->
<!DOCTYPE svg PUBLIC "-//W3C//DTD SVG 1.1//EN" "http://www.w3.org/Graphics/SVG/1.1/DTD/svg11.dtd">
<svg version="1.1" id="Layer_1" xmlns="http://www.w3.org/2000/svg" xmlns:xlink="http://www.w3.org/1999/xlink" x="0px" y="0px"
	 width="1172.312px" height="248px" viewBox="0 0 1172.312 248" enable-background="new 0 0 1172.312 248" xml:space="preserve">
<g>
	<g>
		<path fill-rule="evenodd" clip-rule="evenodd" fill="#37322C" d="M178.731,145.867c-1.235-14.082-4.656-27.659-10.083-40.725
			c-4.491-10.813-9.932-21.134-15.885-31.208c-7.672-12.983-16.266-25.269-26.383-36.487c-3.823-4.24-7.72-8.392-11.771-12.409
			c-5.961-5.907-12.387-11.226-19.578-15.586c0.001,0.001,0.002,0.002,0.004,0.004l-0.014-0.01c0.003,0.002,0.007,0.004,0.01,0.006
			c-0.312-0.309-0.585-0.679-0.945-0.915c-4.888-3.204-10.209-5.154-15.958-6.359c-2.882-0.604-5.799-0.964-8.659-1.252
			c-4.774-0.479-9.282,1.423-13.309,3.736c-5.546,3.185-10.45,7.366-14.677,12.199c-6.449,7.371-11.553,15.636-16.286,24.212
			c-5.777,10.47-10.234,21.472-14.431,32.608c-1.496,3.973-2.374,8.152-3.627,12.196c-2.913,9.399-4.593,19.022-5.506,28.757
			c-1.119,11.938-1.024,23.897,0.208,35.859c1.53,14.85,4.296,29.364,9.944,43.267c5.223,12.854,12.218,24.454,22.905,33.549
			c3.013,2.563,6.296,4.701,9.75,6.679c5,2.861,10.095,5.461,15.489,7.437c12.43,4.55,25.362,4.745,38.318,3.85
			c7.988-0.553,15.849-2.123,23.565-4.421c8.714-2.595,16.946-6.284,24.17-11.704c15.965-11.979,25.874-28.086,30.345-47.439
			C179.048,169.935,179.787,157.917,178.731,145.867z M170.552,177.493c-4.141,17.921-13.315,32.835-28.099,43.928
			c-6.689,5.019-14.312,8.435-22.381,10.837c-7.145,2.128-14.424,3.582-21.82,4.094c-11.997,0.83-23.972,0.648-35.481-3.564
			c-4.995-1.828-9.712-4.237-14.342-6.886c-3.199-1.832-6.24-3.811-9.029-6.185c-9.896-8.421-16.373-19.163-21.209-31.065
			c-5.23-12.873-7.791-26.313-9.208-40.063c-1.141-11.076-1.229-22.151-0.193-33.204c0.845-9.015,2.4-17.926,5.098-26.629
			c1.161-3.744,1.974-7.615,3.359-11.293c3.886-10.313,8.014-20.5,13.363-30.195c4.383-7.942,9.109-15.595,15.08-22.42
			c3.915-4.475,8.456-8.346,13.591-11.295c3.729-2.142,7.903-3.903,12.324-3.459c2.648,0.266,5.35,0.599,8.018,1.159
			c5.324,1.117,10.25,2.923,14.777,5.889c0.334,0.219,0.586,0.562,0.877,0.849c6.658,4.037,12.607,8.961,18.126,14.432
			c3.751,3.719,7.359,7.564,10.899,11.489c9.368,10.388,17.326,21.764,24.431,33.787c5.512,9.329,10.55,18.885,14.709,28.897
			c5.025,12.099,8.193,24.671,9.336,37.71C173.756,155.461,173.071,166.59,170.552,177.493z"/>
		<polygon fill-rule="evenodd" clip-rule="evenodd" fill="#37322C" points="95.278,17.99 95.276,17.988 95.265,17.98 		"/>
	</g>
	<path fill="#37322C" d="M167.822,134.644c-4.953-5.167-9.885-10.358-14.878-15.487c-0.827-0.851-1.072-1.317-0.076-2.279
		c1.783-1.721,1.694-3.868-0.007-5.688c-1.002-1.072-2.025-2.125-3.038-3.186c-0.58-0.606-1.157-1.214-1.735-1.82
		c-1.162-0.722-1.946-1.842-2.897-2.781c-1.984-1.953-4.053-2.104-6.137-0.266c-0.686,0.605-1,0.546-1.572-0.097
		c-1.462-1.646-3.104-3.137-4.495-4.839c-1.667-2.046-3.607-2.219-5.893-1.366c-1.939,0.725-3.914,1.333-6.015,1.38
		c-7.106,1.32-13.369-0.625-18.966-4.99c-1.139-0.888-2.285-1.605-3.75-1.697c-0.845,0.113-1.585,0.496-2.317,0.905
		c-1.892,1.817-3.783,3.637-5.674,5.455c-0.899,0.811-1.798,1.624-2.697,2.435c-0.348,0.58-0.789,1.053-1.524,1.36
		c-0.341-0.931-0.671-1.827-1.002-2.729c-0.307-0.64-0.612-1.28-0.918-1.92c-1.995-3.618-4.066-7.18-7.354-9.834
		c-0.567-0.412-1.136-0.826-1.704-1.239c-4.586-2.679-9.562-4.004-14.844-4.17c-2.071-0.066-4.148,0.068-6.223,0.112
		c-0.741,0.085-1.483,0.169-2.226,0.253c-0.854,0.507-1.601,1.139-2.167,1.963c-0.645,1.39-0.412,2.754,0.126,4.107
		c0.456,0.642,0.911,1.281,1.365,1.923c0.763,1.059,1.529,2.117,2.294,3.177c2.167,3.126,4.336,6.249,6.505,9.375
		c2.632,3.267,4.918,6.781,7.291,10.234c0.268,0.932-0.365,1.524-0.824,2.183c-0.085,0.68-0.377,1.266-0.821,1.779
		c-2.115,4.531-4.239,9.058-6.335,13.597c-0.272,0.588-0.679,0.806-1.277,0.846c-4.078,0.271-8.154,0.553-12.23,0.828
		c-0.624,0.069-1.248,0.137-1.871,0.204c-0.752,0.057-1.502,0.111-2.253,0.168c-2.08,0.642-3.313-0.273-4.341-2.059
		c-1.263-2.195-2.771-4.249-4.174-6.363c-0.322-0.185-0.591-0.41-0.637-0.812c-3.463-5.039-6.957-10.056-10.37-15.128
		c-0.939-1.393-2.163-1.938-3.728-1.814c-1.512,0.119-2.512,0.934-3.221,2.338c-2.743,5.428-4.383,11.114-4.353,17.234
		c0.311,0.594,0.288,1.225,0.191,1.863c0.165,0.76,0.329,1.521,0.493,2.282c0.757,2.873,2.038,5.516,3.582,8.039
		c0.392,0.416,0.806,0.82,0.87,1.433c2.127,2.695,4.525,5.128,7.143,7.344c4.09,2.957,8.424,5.416,13.317,6.83
		c2.42,0.697,4.898,1.056,7.352,1.559c0.112-0.048,0.228-0.06,0.347-0.038c1.391-0.282,2.751-0.001,4.114,0.23
		c3.004,0.011,5.973-0.321,8.876-1.08c0.958-0.249,1.434,0.049,1.931,0.829c1.831,2.868,3.727,5.69,5.6,8.53
		c0.742,0.609,1.178,1.428,1.576,2.275c2.658,3.476,2.677,3.497-0.488,6.36c-1.354,1.226-2.504,2.684-4.082,3.66
		c-0.555,0.776-1.152,1.512-2.008,1.985c-0.971,0.919-1.942,1.839-2.914,2.758c-0.514,0.709-1.105,1.326-1.932,1.677
		c-1.058,0.92-2.205,1.697-3.514,2.217c-3.275,2.37-6.683,4.536-10.153,6.605c-0.726,0.568-1.217,1.312-1.597,2.137
		c-0.105,1.323-0.212,2.646-0.317,3.971c0.345,1.795,0.655,3.598,1.403,5.285c1.466,2.295,3.265,4.292,5.375,6.011
		c1.787,1.017,3.548,2.077,5.362,3.043c4.538,2.413,5.87,2.173,9.19-1.547c0.2-0.225,0.45-0.403,0.677-0.602
		c1.567-2.189,3.288-4.25,5.15-6.191c2.983-3.801,5.82-7.727,9.367-11.051c0.706-0.924,1.455-1.808,2.46-2.427
		c0.458-0.626,0.904-1.262,1.6-1.658c0.402-0.541,0.771-1.005,1.339-0.117c1.479,2.31,2.99,4.598,4.487,6.894
		c0.58,0.541,1.049,1.157,1.326,1.91c0.922,0.951,1.552,2.107,2.236,3.228c1.137,1.64,2.378,3.215,3.26,5.022
		c1.672,1.936,3.027,4.087,4.273,6.313c0.556,0.303,0.863,0.785,1.021,1.382c1.653,1.892,2.903,4.064,4.26,6.157
		c0.861,1.325,1.882,1.881,3.501,2.149c4.847,0.805,9.198,0.017,13.067-3.077c1.356-1.401,2.711-2.801,4.066-4.201
		c1.293-1.967,2.589-3.93,3.883-5.894c0.342-1.662-0.033-3.099-1.101-4.46c-1.279-1.634-2.405-3.387-3.599-5.09
		c-1.089-1.562-2.179-3.125-3.268-4.689c-1.174-1.325-2.216-2.746-3.104-4.278c-0.75-0.838-1.447-1.71-1.896-2.756
		c-1.007-0.891-1.612-2.078-2.333-3.182c-0.408-0.553-0.817-1.105-1.226-1.657c-3.047-4.222-6.081-8.451-9.148-12.656
		c-0.564-0.77-0.584-1.291,0.158-2.009c6.562-6.34,13.086-12.722,19.612-19.098c0.53-0.519,0.911-0.872,1.607-0.125
		c4.338,4.651,8.719,9.262,13.088,13.887c0.209,0.348,0.421,0.697,0.633,1.047c0.507,0.424,0.989,0.884,1.525,1.27
		c2.107,1.505,3.868,1.422,5.771-0.349c2.959-2.753,5.877-5.551,8.812-8.328c0.66-0.657,1.318-1.316,1.978-1.975
		c2.493-2.449,4.911-4.979,7.63-7.191c0.911-0.939,1.707-2.003,2.829-2.725c1.078-1.078,2.15-2.163,3.236-3.234
		C169.635,138.571,169.66,136.558,167.822,134.644z M141.503,107.602c0.375-0.512,0.719-0.137,1.029,0.178
		c1.877,1.897,3.757,3.793,5.641,5.684c0.461,0.462,0.347,0.846-0.105,1.217c-0.649,0.534-1.119,1.289-1.956,1.589
		c-2.062-2.2-4.062-4.46-6.339-6.447l0,0C139.873,108.712,140.95,108.36,141.503,107.602z M137.278,109.778
		c-0.017-0.012-0.032-0.026-0.048-0.039C137.246,109.751,137.261,109.767,137.278,109.778z M137.095,109.626
		c-0.017-0.015-0.033-0.032-0.05-0.047C137.062,109.594,137.078,109.612,137.095,109.626z M136.746,109.263
		c-0.112-0.134-0.221-0.28-0.326-0.438l0,0C136.525,108.983,136.633,109.129,136.746,109.263z M89.828,105.123
		c2.666-2.438,5.29-4.923,7.867-7.455c0.709-0.696,1.116-0.734,1.94-0.112c8.657,6.547,18.162,7.567,28.279,4.123
		c0.948-0.324,1.514-0.252,2.194,0.491c2.062,2.255,4.201,4.441,6.312,6.655c0.038,0.822-0.582,1.327-0.984,1.91
		c-5.041,7.284-10.104,14.556-15.169,21.822c-0.838,1.198-1.589,3.162-2.618,3.333c-1.166,0.192-2.024-1.83-3.09-2.815
		c-0.133-0.122-0.284-0.225-0.426-0.335c-3.146-3.84-6.781-7.223-10.188-10.813c-4.681-4.932-9.412-9.815-14.19-14.651
		C88.857,106.367,88.972,105.906,89.828,105.123z M84.554,132.903c1.598-3.471,2.616-7.128,3.447-10.844
		c0.242-2.861,0.607-5.712,0.521-8.753c1.149,0.585,1.783,1.558,2.548,2.346c5.157,5.304,10.247,10.669,15.44,15.933
		c0.998,1.013,1.012,1.593-0.091,2.383c-0.74,0.531-1.401,1.168-2.097,1.758c-0.484,0.893-1.317,1.431-2.07,2.05
		c-0.686,0.652-1.371,1.306-2.057,1.958c-3.685,3.502-7.384,6.99-11.041,10.52c-0.718,0.694-1.119,0.714-1.611-0.193
		c-0.493-0.91-1.114-1.75-1.678-2.623c-0.848-0.866-1.424-1.914-1.991-2.972c-0.048-0.037-0.112-0.064-0.143-0.111
		c-1.003-1.457-2.44-2.795-2.884-4.406c-0.461-1.676,1.519-2.822,2.22-4.315C83.503,134.694,84.052,133.812,84.554,132.903z
		 M56.034,88.345c-0.275-0.392-0.514-0.809-0.909-1.432c8.508-0.622,16.423,0.298,21.801,7.486
		c4.161,5.562,6.496,12.053,6.623,19.144c0.037,2.079-0.12,4.161-0.188,6.242c0.042,0.328,0.019,0.63-0.323,0.803l-0.036,0.025
		c-4.117-0.853-8.284-1.468-12.341-2.604c2.585-3.617,2.077-6.634-0.764-10.195C64.938,101.595,60.619,94.865,56.034,88.345z
		 M20.629,137.286c-5.947-7.42-5.923-16.06-1.633-24.76c1.434,1.487,2.415,3.234,3.516,4.877c3.307,4.928,6.893,9.666,9.931,14.774
		c-2.609,2.997-5.149,6.051-7.403,9.33C23,140.698,21.9,138.87,20.629,137.286z M61.521,150.161
		c-0.373-0.576-0.579-1.281-1.262-1.616c-4.767,1.409-9.547,2.312-14.606,1.866c-7.153-0.631-13.55-2.989-19.268-7.28
		c-0.453-0.31-0.822-0.688-1.1-1.143c0.277,0.455,0.646,0.833,1.1,1.143c0.455-1.738,1.84-2.851,2.913-4.139
		c1.465-1.761,2.545-3.871,4.522-5.188c1.42,3.458,3.834,4.254,7.536,3.749c6.343-0.863,12.775-1.085,19.175-1.521
		c1.209-0.081,1.843-0.619,2.34-1.676c2.047-4.365,4.164-8.697,6.256-13.04c0.26-0.54,0.394-1.166,0.976-1.498
		c4.166,1.155,8.436,1.816,12.668,2.656c-1.195,6.332-4.073,11.814-8.374,16.578c-4.326,3.737-8.749,7.334-14.139,9.493
		C60.942,148.879,61.148,149.584,61.521,150.161c0.233-0.186,0.44-0.441,0.705-0.547c4.194-1.679,7.772-4.271,11.061-7.316
		c0.607-0.563,1.146-1.296,2.076-1.411c1.75,2.592,3.502,5.182,5.249,7.776c0.268,0.396,0.684,0.729,0.591,1.292
		c0.413,0.254,0.754,0.559,0.93,0.983c-0.176-0.426-0.518-0.729-0.93-0.981c-0.702,0.175-1.41,0.334-2.106,0.531
		c-4.838,1.368-9.675,2.744-14.513,4.117C63.564,153.124,62.542,151.642,61.521,150.161z M69.092,192.345
		c-4.054,4.91-8.16,9.78-12.174,14.724c-0.86,1.058-1.531,1.173-2.739,0.572c-2.821-1.405-5.503-2.941-7.513-5.447
		c-0.657-0.821-1.222-1.689-1.611-2.662c-1.298-3.263-0.991-4.246,1.897-6.112c3.652-2.358,7.309-4.709,10.965-7.064
		c0.629,0.212,1.267,0.406,1.888,0.639c3.399,1.268,6.793,2.545,10.189,3.819C70.045,191.53,69.464,191.895,69.092,192.345z
		 M106.319,186.01c0.163,0.239,0.205,0.561,0.301,0.842c-3.202,4.194-6.391,8.396-9.626,12.562c-0.4,0.516-0.572,1.435-1.558,1.287
		c0.319,0.681,0.81,1.211,1.431,1.631c3.763-4.604,7.282-9.394,10.738-14.23c2.384,2.467,4.149,5.411,6.246,8.101
		c2.366,3.037,4.556,6.211,6.921,9.248c0.742,0.952,0.723,1.598,0.051,2.547c-1.775,2.504-3.574,4.96-6.191,6.68
		c-1.397,0.917-2.871,1.635-4.548,1.823c-2.197,0.247-4.06,0.091-5.436-2.206c-2.197-3.662-4.765-7.103-7.159-10.649
		c-0.269-0.397-0.419-0.875-0.625-1.313c-0.619-0.418-1.11-0.949-1.429-1.63c-4.264-6.284-8.529-12.567-12.793-18.854
		c-0.247-0.838,0.443-1.181,0.89-1.635c3.617-3.668,7.244-7.327,10.867-10.989c0.439-0.057,0.648,0.227,0.866,0.544
		C98.949,175.181,102.642,180.59,106.319,186.01z M101.007,159.813c-1.376,2.343-3.664,3.832-5.448,5.793
		c-0.612,0.673-1.364,1.224-1.819,2.039c-4.385,4.057-8.562,8.325-12.736,12.598c0.783,0.089,0.972,0.783,1.345,1.292
		c-0.373-0.509-0.562-1.203-1.345-1.292c-2.685,2.628-5.365,5.263-8.07,7.872c-0.515,0.495-0.944,1.12-1.681,1.353
		c-3.796-1.459-7.592-2.916-11.389-4.373c-0.189,0.123-0.379,0.245-0.57,0.368c0.19-0.123,0.38-0.247,0.57-0.368
		c1.065-1.893,2.909-3.037,4.396-4.519c3.444-3.428,7.001-6.738,10.513-10.095l0,0c4.371-4.183,8.741-8.364,13.111-12.543
		c-0.95,0.107-1.202-0.717-1.672-1.254c0.004,0.478-0.312,0.766-0.623,1.064c-3.568,3.415-7.129,6.833-10.696,10.249
		c-0.303,0.29-0.579,0.655-1.089,0.498c-2.265-3.396-4.548-6.776-6.779-10.194c-0.443-0.679-1.248-1.227-1.058-2.22
		c5.499-1.318,10.881-3.044,16.289-4.679c1.631,1.524,2.517,3.608,3.955,5.28c0.47,0.537,0.723,1.361,1.675,1.253
		c2.7-2.511,5.394-5.031,8.109-7.527c0.481-0.439,0.862-1.029,1.551-1.21C98.699,152.738,99.853,156.276,101.007,159.813
		c0.265-0.088,0.494-0.217,0.698-0.376C101.501,159.596,101.272,159.725,101.007,159.813z M114.819,146.774
		c-3.838,3.851-7.796,7.584-11.714,11.355c-0.211,0.206-0.498,0.331-0.751,0.493l0,0c-1.099-3.484-2.197-6.97-3.296-10.457
		c0.621-1.876,2.413-2.681,3.69-3.939c3.042-2.999,6.187-5.894,9.304-8.813c0.428-0.4,0.803-0.971,1.536-0.843l0,0
		c2.015,2.386,3.953,4.845,6.386,6.838C118.67,143.589,116.569,145.019,114.819,146.774z M162.609,138.613
		c-7.023,6.643-14.002,13.333-20.945,20.058c-0.98,0.949-1.504,1.085-2.536-0.006c-5.67-5.999-11.438-11.907-17.171-17.848
		c-0.667-0.712-1.275-1.49-2.014-2.118c-0.856-0.726-0.748-1.309-0.15-2.162c5.762-8.226,11.5-16.466,17.196-24.737
		c0.71-1.03,1.104-1.12,1.984-0.169c2.032,2.2,4.187,4.284,6.292,6.415c5.789,6.059,11.551,12.144,17.395,18.148
		C163.628,137.19,163.609,137.671,162.609,138.613z"/>
</g>
<g>
	<path fill="#37322C" d="M291.42,124.378c0,13.895-3.857,24.517-11.572,31.866c-7.714,7.35-18.826,11.025-33.334,11.025h-23.547
		V83.1h26.022c13.395,0,23.815,3.608,31.262,10.823C287.697,101.139,291.42,111.291,291.42,124.378z M276.912,124.839
		c0-20.15-9.423-30.225-28.268-30.225h-11.917v61.084h9.787C266.78,155.698,276.912,145.412,276.912,124.839z"/>
	<path fill="#37322C" d="M364.537,135.317c0,10.402-2.668,18.52-8.002,24.353c-5.335,5.834-12.762,8.751-22.28,8.751
		c-5.95,0-11.208-1.343-15.774-4.03c-4.568-2.686-8.08-6.543-10.536-11.572c-2.457-5.027-3.685-10.861-3.685-17.502
		c0-10.324,2.648-18.384,7.945-24.18c5.296-5.795,12.761-8.693,22.396-8.693c9.211,0,16.503,2.965,21.877,8.895
		C361.85,117.269,364.537,125.262,364.537,135.317z M318.191,135.317c0,14.701,5.431,22.05,16.293,22.05
		c10.746,0,16.12-7.35,16.12-22.05c0-14.546-5.412-21.819-16.235-21.819c-5.681,0-9.797,1.881-12.349,5.642
		C319.467,122.901,318.191,128.293,318.191,135.317z"/>
	<path fill="#37322C" d="M412.034,113.843h-15.544v53.427h-13.587v-53.427h-10.478v-6.333l10.478-4.145V99.22
		c0-7.522,1.765-13.098,5.296-16.725c3.531-3.627,8.924-5.441,16.178-5.441c4.759,0,9.442,0.787,14.048,2.361l-3.57,10.248
		c-3.339-1.074-6.525-1.612-9.557-1.612c-3.071,0-5.307,0.95-6.707,2.85c-1.402,1.9-2.102,4.75-2.102,8.549v4.146h15.544V113.843z"
		/>
	<path fill="#37322C" d="M467.763,167.27l-1.9-8.348h-0.691c-1.881,2.956-4.558,5.278-8.031,6.966
		c-3.474,1.688-7.437,2.533-11.889,2.533c-7.714,0-13.472-1.918-17.271-5.757c-3.8-3.837-5.7-9.652-5.7-17.444v-41.625h13.645
		v39.264c0,4.875,0.998,8.531,2.994,10.968c1.995,2.438,5.124,3.656,9.384,3.656c5.68,0,9.854-1.698,12.522-5.095
		c2.667-3.397,4.001-9.086,4.001-17.07v-31.722h13.587v63.674H467.763z"/>
	<path fill="#37322C" d="M540.477,149.134c0,6.218-2.265,10.987-6.794,14.307c-4.529,3.32-11.016,4.98-19.459,4.98
		c-8.483,0-15.295-1.286-20.438-3.857v-11.687c7.484,3.455,14.45,5.182,20.898,5.182c8.328,0,12.493-2.514,12.493-7.542
		c0-1.612-0.46-2.955-1.382-4.03c-0.921-1.074-2.438-2.188-4.548-3.339s-5.047-2.456-8.808-3.915
		c-7.332-2.84-12.292-5.68-14.882-8.521c-2.591-2.84-3.886-6.524-3.886-11.054c0-5.45,2.197-9.681,6.592-12.695
		c4.395-3.013,10.372-4.52,17.934-4.52c7.484,0,14.566,1.517,21.244,4.548l-4.375,10.19c-6.871-2.84-12.647-4.26-17.329-4.26
		c-7.139,0-10.708,2.035-10.708,6.103c0,1.996,0.93,3.685,2.792,5.066c1.861,1.381,5.92,3.281,12.176,5.699
		c5.258,2.035,9.077,3.896,11.457,5.584c2.379,1.689,4.145,3.637,5.296,5.844C539.9,143.426,540.477,146.064,540.477,149.134z"/>
	<path fill="#37322C" d="M623.898,87.187c-10.556,0-18.865,3.378-24.929,10.133c-6.065,6.755-9.096,16.005-9.096,27.75
		c0,12.014,2.859,21.34,8.578,27.98c5.718,6.641,13.894,9.96,24.525,9.96c7.062,0,13.548-0.901,19.459-2.706v5.182
		c-5.565,1.958-12.513,2.936-20.841,2.936c-11.822,0-21.129-3.818-27.922-11.457c-6.793-7.638-10.19-18.308-10.19-32.01
		c0-8.558,1.621-16.1,4.865-22.625c3.243-6.525,7.906-11.562,13.99-15.113c6.083-3.55,13.155-5.325,21.215-5.325
		c8.213,0,15.563,1.535,22.05,4.605l-2.36,5.297C637.101,88.723,630.653,87.187,623.898,87.187z"/>
	<path fill="#37322C" d="M697.763,167.27l-1.439-9.902h-0.46c-3.147,4.03-6.381,6.88-9.701,8.549
		c-3.32,1.669-7.245,2.504-11.773,2.504c-6.142,0-10.92-1.573-14.335-4.721c-3.417-3.147-5.124-7.503-5.124-13.069
		c0-6.103,2.542-10.842,7.628-14.22c5.085-3.377,12.444-5.162,22.079-5.354l11.917-0.345v-4.145c0-5.949-1.209-10.439-3.627-13.472
		c-2.418-3.031-6.314-4.548-11.687-4.548c-5.796,0-11.802,1.612-18.02,4.836l-2.13-4.951c6.87-3.224,13.664-4.836,20.38-4.836
		c6.87,0,12.004,1.785,15.4,5.354c3.397,3.569,5.095,9.135,5.095,16.696v41.625H697.763z M674.734,163.239
		c6.678,0,11.946-1.909,15.804-5.728c3.857-3.819,5.786-9.125,5.786-15.919v-6.16l-10.938,0.461
		c-8.79,0.422-15.055,1.794-18.797,4.116c-3.742,2.323-5.613,5.94-5.613,10.852c0,3.915,1.199,6.958,3.598,9.125
		C666.971,162.156,670.358,163.239,674.734,163.239z"/>
	<path fill="#37322C" d="M727.931,167.27h-5.7V77.688h5.7V167.27z"/>
	<path fill="#37322C" d="M773.873,168.421c-8.943,0-15.947-2.821-21.014-8.463s-7.6-13.51-7.6-23.604
		c0-10.363,2.629-18.432,7.888-24.209c5.258-5.776,12.454-8.665,21.589-8.665c5.411,0,10.593,0.941,15.544,2.821l-1.555,5.066
		c-5.41-1.804-10.113-2.706-14.104-2.706c-7.678,0-13.492,2.371-17.444,7.11c-3.954,4.741-5.931,11.563-5.931,20.467
		c0,8.444,1.977,15.055,5.931,19.833c3.952,4.778,9.479,7.167,16.58,7.167c5.681,0,10.958-1.016,15.833-3.051v5.297
		C785.599,167.442,780.358,168.421,773.873,168.421z"/>
	<path fill="#37322C" d="M809.855,104.689v40.531c0,6.295,1.324,10.872,3.972,13.73c2.648,2.86,6.755,4.289,12.32,4.289
		c7.446,0,12.926-1.88,16.438-5.642c3.512-3.761,5.268-9.883,5.268-18.366v-34.543h5.642v62.581h-4.836l-1.036-8.636h-0.346
		c-4.068,6.525-11.304,9.787-21.704,9.787c-14.24,0-21.359-7.618-21.359-22.856v-40.876H809.855z"/>
	<path fill="#37322C" d="M880.15,167.27h-5.699V77.688h5.699V167.27z"/>
	<path fill="#37322C" d="M939.104,167.27l-1.439-9.902h-0.461c-3.147,4.03-6.381,6.88-9.7,8.549
		c-3.32,1.669-7.245,2.504-11.773,2.504c-6.142,0-10.92-1.573-14.336-4.721c-3.416-3.147-5.124-7.503-5.124-13.069
		c0-6.103,2.543-10.842,7.629-14.22c5.085-3.377,12.444-5.162,22.079-5.354l11.917-0.345v-4.145c0-5.949-1.209-10.439-3.627-13.472
		c-2.418-3.031-6.314-4.548-11.688-4.548c-5.796,0-11.802,1.612-18.02,4.836l-2.131-4.951c6.87-3.224,13.664-4.836,20.381-4.836
		c6.87,0,12.004,1.785,15.4,5.354s5.096,9.135,5.096,16.696v41.625H939.104z M916.076,163.239c6.678,0,11.945-1.909,15.803-5.728
		c3.857-3.819,5.786-9.125,5.786-15.919v-6.16l-10.938,0.461c-8.79,0.422-15.055,1.794-18.797,4.116
		c-3.742,2.323-5.613,5.94-5.613,10.852c0,3.915,1.198,6.958,3.598,9.125C908.313,162.156,911.7,163.239,916.076,163.239z"/>
	<path fill="#37322C" d="M980.095,163.354c3.607,0,6.755-0.307,9.442-0.921v4.605c-2.764,0.921-5.95,1.382-9.558,1.382
		c-5.526,0-9.605-1.477-12.233-4.433c-2.63-2.955-3.944-7.599-3.944-13.932V109.64h-9.269v-3.339l9.269-2.591l2.879-14.163h2.937
		v15.142h18.365v4.951h-18.365v39.609c0,4.798,0.844,8.348,2.533,10.651C973.839,162.203,976.487,163.354,980.095,163.354z"/>
	<path fill="#37322C" d="M1054.824,135.893c0,10.21-2.476,18.184-7.427,23.921c-4.951,5.738-11.783,8.607-20.496,8.607
		c-5.488,0-10.325-1.324-14.508-3.972c-4.184-2.648-7.389-6.448-9.614-11.399c-2.227-4.951-3.34-10.67-3.34-17.156
		c0-10.209,2.476-18.164,7.427-23.864c4.952-5.7,11.745-8.549,20.381-8.549c8.598,0,15.343,2.888,20.236,8.665
		C1052.377,117.921,1054.824,125.837,1054.824,135.893z M1005.428,135.893c0,8.598,1.89,15.305,5.671,20.121
		c3.779,4.817,9.125,7.225,16.033,7.225c6.909,0,12.253-2.408,16.034-7.225c3.779-4.816,5.671-11.523,5.671-20.121
		c0-8.636-1.91-15.333-5.729-20.093c-3.819-4.759-9.183-7.139-16.092-7.139c-6.908,0-12.233,2.371-15.976,7.11
		C1007.299,120.512,1005.428,127.219,1005.428,135.893z"/>
	<path fill="#37322C" d="M1096.794,103.48c2.648,0,5.488,0.269,8.521,0.806l-1.094,5.47c-2.61-0.652-5.316-0.979-8.118-0.979
		c-5.335,0-9.711,2.265-13.126,6.793c-3.417,4.529-5.124,10.248-5.124,17.157v34.543h-5.699v-62.581h4.836l0.575,11.284h0.403
		c2.571-4.606,5.315-7.839,8.232-9.701C1089.117,104.411,1092.648,103.48,1096.794,103.48z"/>
	<path fill="#37322C" d="M1156.841,150.977c0,5.604-2.13,9.913-6.391,12.925c-4.26,3.014-10.305,4.52-18.135,4.52
		c-8.367,0-15.007-1.286-19.92-3.857v-6.16c6.294,3.147,12.934,4.721,19.92,4.721c6.179,0,10.871-1.026,14.076-3.08
		c3.204-2.053,4.808-4.788,4.808-8.204c0-3.147-1.276-5.795-3.829-7.945c-2.553-2.149-6.745-4.26-12.579-6.333
		c-6.257-2.264-10.65-4.212-13.184-5.844c-2.533-1.631-4.443-3.473-5.729-5.527c-1.286-2.053-1.929-4.557-1.929-7.513
		c0-4.682,1.966-8.386,5.901-11.111c3.934-2.725,9.432-4.087,16.494-4.087c6.755,0,13.164,1.267,19.229,3.8l-2.13,5.181
		c-6.142-2.533-11.841-3.8-17.099-3.8c-5.105,0-9.154,0.845-12.147,2.533c-2.994,1.689-4.491,4.03-4.491,7.024
		c0,3.263,1.161,5.873,3.483,7.83c2.321,1.958,6.86,4.146,13.615,6.563c5.643,2.035,9.749,3.867,12.321,5.498
		c2.57,1.632,4.499,3.483,5.785,5.556S1156.841,148.175,1156.841,150.977z"/>
</g>
</svg>
