<?xml version="1.0" encoding="UTF-8" standalone="no"?>
<!-- Generator: Adobe Illustrator 16.0.0, SVG Export Plug-In . SVG Version: 6.00 Build 0)  -->
<svg id="fisherman" xmlns:rdf="http://www.w3.org/1999/02/22-rdf-syntax-ns#" xmlns="http://www.w3.org/2000/svg" enable-background="new 0 0 90 90" xml:space="preserve" height="90" viewBox="0 0 90 90" width="90" version="1.1" y="0px" x="0px" xmlns:cc="http://creativecommons.org/ns#" xmlns:dc="http://purl.org/dc/elements/1.1/"><metadata id="metadata3410"><rdf:RDF><cc:Work rdf:about=""><dc:format>image/svg+xml</dc:format><dc:type rdf:resource="http://purl.org/dc/dcmitype/StillImage"/><dc:title/></cc:Work></rdf:RDF></metadata><path id="icon_fisherman" clip-rule="evenodd" d="m74.48,15.665c-0.32181-0.95875,0.36984-1.7994,0.31948-2.7266-0.15685-0.43177-0.39849-0.80827-0.72955-1.1278-0.32094-0.18347-0.60222-0.41354-0.82043-0.71538-0.13977-0.09261-0.28881-0.17392-0.41817-0.27897-1.3017-1.0598-1.7265-1.0734-3.1384-0.12299-2.6717,1.7974-5.2218,3.7621-7.8098,5.6741-1.8359,1.5231-3.6718,3.0461-5.508,4.5692-0.4448,0.39647-0.8893,0.79322-1.3341,1.19-0.5782,0.51078-1.1567,1.0213-1.7352,1.532-0.32441,0.28939-0.64882,0.57878-0.97322,0.86817-2.5553,2.5125-5.1106,5.0247-7.666,7.5372-0.3684,0.57502-0.87628,1.0218-1.3677,1.4843-2.8956,3.1801-5.5722,6.5472-8.2138,9.9331-2.3299,2.9856-4.4387,6.1438-6.6473,9.2246-0.14672,0.20518-0.31081,0.39791-0.4665,0.59672-0.18492,0.28708-0.36926,0.57386-0.5539,0.86123-0.30704,0.77962-1.0974,0.56779-1.6652,0.81203-0.28621,0.12328-0.5727,0.24685-0.8592,0.36984-0.27579,0.18-0.55129,0.36-0.82737,0.54058-2.3255,1.8165-3.2377,4.2132-2.9145,7.1153,0.23556,0.39386,0.18029,0.73939-0.17479,1.0331-0.99782,1.8081-2.1218,3.5384-3.2502,5.2652-0.28245,0.45261-0.56518,0.90579-0.84763,1.3593-0.11228,0.17334-0.22399,0.3464-0.3354,0.52004-0.17711,0.31341-0.32556,0.64708-0.53653,0.93589-0.65084,0.89104-1.0959,1.8133-0.61582,2.937,0.98277,2.0663,2.7958,3.1651,4.7596,4.0877,0.58573,0.19389,1.1865,0.35335,1.7549,0.58804,1.0728,0.44219,2.0246,0.40515,2.8068-0.5565,0.54232-1.2539,1.0823-2.5099,1.6301-3.7618,0.06222-0.14209,0.09579-0.33685,0.32325-0.32556,0.3383-1.5344,1.1234-2.8835,1.7774-4.2868,0.20807-0.51714,0.41643-1.0337,0.62393-1.5506,0.0981-0.24482,0.23267-0.41904,0.5293-0.46766,1.2481-0.20576,2.2937-0.84184,3.2826-1.5902,0.28071-0.26884,0.56084-0.53798,0.84184-0.80682,1.0001-1.2371,1.5867-2.6447,1.6924-4.2344,0.02228-0.33425,0.14904-0.49399,0.43872-0.62074,1.3373-0.58283,2.667-1.1822,3.9991-1.7763,0.27926-0.12126,0.55882-0.24222,0.83808-0.36319,0.37997-0.26827,0.76776-0.52235,1.2146-0.66936,1.5639-1.0178,3.1017-2.0613,4.4885-3.3283,1.7138-1.5656,2.6601-3.5439,3.372-5.6946,0.77354-2.3374,1.2612-4.7463,1.8729-7.1237,0.03849-0.64534,0.18203-1.2701,0.35971-1.8886,0.25611-1.4116,0.52669-2.8213,0.75936-4.237,0.06945-0.42367,0.23064-0.62364,0.6737-0.69193,3.0942-0.47489,6.1235-1.2273,9.097-2.2052,0.06453-0.04312,0.12878-0.08595,0.19302-0.12878,1.6979-0.59325,3.0895-1.5876,4.0793-3.1095,1.3807-2.0932,2.3904-4.3773,3.4223-6.6502,0.0379-0.07177,0.0761-0.14354,0.11431-0.21589-0.006-0.04457,0.006-0.08305,0.0391-0.1146,0.20634-0.52988,0.41238-1.0598,0.61872-1.5896,0.1936,0.95065,0.21907,1.8703,0.0998,2.7915,0.0868,2.1111-0.0356,4.2185-0.14498,6.3244-0.0614,1.1793-0.19187,2.3545-0.29113,3.5314,0.0252,0.19736,0.0446,0.39328-0.0993,0.56084,0.006,1.357-0.24165,2.6867-0.4312,4.0228-0.048,0.29692-0.0958,0.59412-0.14411,0.89104-0.15107,0.90174-0.17335,1.8266-0.47403,2.7026-0.0174,0.58718-0.12559,1.1573-0.33424,1.7071-0.24975,2.1687-0.85978,4.2604-1.3928,6.366-0.38084,1.5054-0.86065,2.9856-1.2916,4.4786-0.0874,0.30386-0.14064,0.55708-0.57068,0.60107-2.3371,0.24106-4.0139,1.565-5.3358,3.4009-0.29344,0.40717-0.58862,0.69251-1.0791,0.86615-1.2916,0.45695-2.307,1.2988-3.0647,2.4451-1.0514,1.5908-0.78946,2.9712,0.79612,4.1878,0.45232,0.1554,0.89451,0.36,1.359,0.45,0.34148,0.06627,0.39328,0.25698,0.4283,0.51743,0.43785,0.7012,0.49341,1.3159-0.28679,1.8585-0.31312,0.21791-0.51743,0.5918-0.77123,0.89451-0.48994,1.0783-0.84415,2.1864-0.73332,3.3943,0.01302,0.67515,0.41412,1.2299,0.57242,1.8605,0.16929,0.2781,0.3383,0.55592,0.5073,0.83402,1.0626,0.99059,2.2078,1.166,3.4548,0.35306,0.25293-0.16466,0.46332-0.25814,0.71653,0.06309,1.6212,2.0544,2.2303,2.1788,4.4401,0.96657,0.68123-0.65981,1.315-1.3567,1.7589-2.2057,0.54869-1.4206,0.67892-2.8488,0.0602-4.285-0.12676-0.29518-0.12068-0.56836,0.15106-0.75763,0.34698-0.24106,0.55939,0.07582,0.80161,0.24251,0.54087,0.25929,1.1252,0.20431,1.6976,0.23643,1.3529-0.67197,1.954-1.8133,2.0182-3.2736,0.0298-0.67775,0.0162-1.3564,0.0223-2.0344-0.24598-1.012-0.47518-2.0185-1.0861-2.9092-0.28476-0.41528-0.10331-0.99203-0.16119-1.4927-0.29952-1.2843-0.78338-2.4922-1.5025-3.6018-0.11199-0.11084-0.2237-0.22167-0.3354-0.3328-0.5455-0.29344-0.60078-0.69917-0.38865-1.2617,0.55129-1.4629,0.77672-3.0308,1.4151-4.4679-0.0333-0.69164,0.25929-1.3121,0.42483-1.9603,0.48357-2.2732,0.96743-4.546,1.451-6.8195-0.0558-0.4636,0.0941-0.89827,0.19361-1.3396,0.51164-3.4941,0.85862-7.0047,1.1095-10.527,0.0695-0.97583-0.12212-1.9757,0.22312-2.9301,0.0116-1.473,0.0232-2.9463,0.035-4.4193v-0.86268c-0.11084-2.3808-0.22081-4.7614-0.33106-7.1419zm-20.196,10.147c3.3234-3.038,6.7489-5.947,10.31-8.695,1.9699-1.5205,4.0315-2.9223,6.0517-4.377,0.30936-0.22283,0.55911-0.36695,0.96541-0.04978,0.53798,0.41904,0.52467,0.70554,0.0339,1.1185-2.0558,1.73-4.1091,3.4629-6.1444,5.2163-1.3286,1.1445-2.645,2.3047-3.9314,3.4961-3.2661,3.0244-6.4462,6.1403-9.5163,9.3621-2.555,2.6818-5.038,5.4345-7.372,8.3162-0.05122,0.06309-0.1363,0.09781-0.20547,0.14614-0.44016-1.1573-0.82997-2.3293-1.0522-3.5511h0.000289c3.435-3.84,7.05-7.5,10.859-10.981zm13.506-5.69c-0.15569,0.34004-0.31139,0.68007-0.46679,1.0204-0.80943,2.1128-1.6921,4.1913-2.9223,6.103-0.79872,2.1241-2.5562,2.9509-4.5955,3.396-0.28679,0.09753-0.57328,0.19534-0.86065,0.29344-1.1411,0.26971-2.2827,0.53942-3.4241,0.80885,0.65808-0.94949,1.3937-1.7546,2.23-2.4645,0.11373-0.11489,0.22688-0.22978,0.34061-0.34466,1.192-1.1338,2.384-2.2677,3.576-3.4015,1.7063-1.6556,3.4238-3.2985,5.2779-4.7917,0.202-0.2619,0.40399-0.5238,0.60656-0.7857,0.0793,0.05556,0.15859,0.11113,0.23817,0.1664zm-19.863,22.477c-0.0599,0.27695,0.02199,0.58833-0.1991,0.82679-0.48184,2.5626-1.124,5.0829-2.2798,7.431-0.72145,1.4658-2.0419,2.3959-3.337,3.3193-0.90435,0.72522-1.8903,1.3188-2.9336,1.8208-1.1558,0.68065-2.3261,1.33-3.7106,1.6446,0.39155-0.59701,0.78309-1.1943,1.1744-1.7916,0.18116-0.28737,0.36203-0.57502,0.54261-0.8621,2.4989-4.1733,5.2808-8.1542,8.1484-12.078,0.22515-0.48965,0.58023-0.87599,0.98132-1.2247,0.68962-0.83663,1.3795-1.6733,2.0694-2.5102,0.16408,1.2207-0.15309,2.3215-0.45608,3.4241zm-23.422,31.605c-0.3956,0.90753-0.84618,1.7942-1.1851,2.7226-0.25785,0.70554-0.60512,0.78801-1.2687,0.53132-1.4646-0.56576-2.8728-1.1908-3.9525-2.3898-0.54319-0.60309-0.74345-1.1095-0.20807-1.9204,1.668-2.5258,3.2221-5.1257,4.8346-7.6883,0.17508-0.27868,0.28389-0.62798,0.62248-0.78367,0.03241-0.26537,0.2645-0.45724,0.3438-0.70554-0.07929,0.24801-0.31138,0.44016-0.3438,0.70554,0.97293,1.5045,2.292,2.4946,4.0972,2.7654-0.9793,2.2546-1.9574,4.5096-2.9399,6.7628zm4.4546-7.5766-0.05962,0.05527-0.06743-0.04399c-0.24425-0.0012-0.4882-0.0017-0.73216-0.0029-0.24685,0.13399-0.42049,0.3273-0.5455,0.56026,0.12502-0.23296,0.29865-0.42627,0.54579-0.56055-0.89335-0.0087-1.69-0.27174-2.4526-0.76139-0.86268-0.55332-1.4111-1.3462-1.9404-2.1759-0.75126-2.184-0.4202-4.1137,1.337-5.7135,0.88293-0.80335,1.9433-1.1142,3.1072-1.1515,0.10563-0.05933,0.19823-0.13283,0.28534-0.21126-0.08769,0.07843-0.18,0.15193-0.28563,0.21183,1.6958-0.08363,3.0427,0.57907,4.0781,1.9082,0.11142-0.27058,0.22283-0.54116,0.33396-0.81174-0.91303-1.1651-2.1088-1.8009-3.583-1.9146,1.3567-2.3229,2.9836-4.4627,4.5388-6.6493,2.8033-3.9412,5.8411-7.7033,8.8921-11.453,0.05238-0.06482,0.12994-0.10823,0.19563-0.16119h-0.00029c0.59441,1.0268,0.59701,2.2682,1.1963,3.293-0.37968,0.99203-1.1249,1.745-1.7219,2.5909-3.1275,4.4309-6.1409,8.9352-8.9486,13.576-0.15569,0.25756-0.2564,0.57705-0.56894,0.7174-0.11142,0.27058-0.22283,0.54116-0.33396,0.81174,2.3716,3.5164,0.0301,7.4229-3.2704,7.8856zm29.219-2.3189c-0.25206-0.71566,0.53393-1.2241,1.0598-1.6834,0.40833-0.35624,0.88409-0.60743,1.4351-0.68152-0.25756,0.96223-0.62769,1.9039-0.54463,2.9295-0.72579,0.02981-1.6646,0.24917-1.9502-0.5646zm7.3977,11.667c-0.64274,0.48444-0.92026,0.41412-1.1564-0.35508-0.2428-0.78686-0.34466-1.6018-0.38373-2.4268-0.01823-0.38286,0.06106-0.88988-0.37274-1.0511-0.47258-0.17508-0.65171,0.33772-0.8864,0.62277-0.59441,0.72261-1.1848,1.4444-1.9354,2.0168-0.51164,0.39126-0.82245,0.28245-1.0956-0.30762-0.83837-1.8116,0.44711-4.2008,2.4268-4.456,0.98017,1.0441,2.2127,0.83952,3.4333,0.69541,1.7644,1.7586,1.7523,3.9189-0.02981,5.2617zm5.5948-8.1163c-0.12473,0.95412-0.42251,1.0577-1.1691,0.45116-0.19187-0.15598-0.34785-0.3574-0.52033-0.53798,0.70843-0.9084,0.86123-2.0677,1.3807-3.0618,0.35334,1.025,0.44768,2.0819,0.30878,3.1486zm-1.1532-4.0092c-0.25669,1.2644-0.6682,2.472-1.324,3.5893h-0.00029c-0.84473,0.9848-1.7039,1.9531-2.9425,2.4691-0.18145,0.14064-0.28013,0.29605-0.27434,0.47055-0.0061-0.1745,0.09289-0.32991,0.27434-0.47084-1.1095-0.0043-2.2654,0.23788-3.2192-0.60222-1.1156-1.1362-1.5508-2.5383-1.5957-4.0917-0.0026-1.1877,0.36261-2.2972,0.71885-3.4084,0.45868-0.9793,1.0421-1.8498,1.8353-2.6155,1.8573-1.7931,5.0409-1.7193,6.1626,1.2134-0.67052-0.04688-1.0922,0.42888-1.5439,0.78859-0.44943,0.35856-0.7692,0.39589-1.076-0.13283-0.08392-0.14412-0.21299-0.26364-0.3273-0.38894-0.23933-0.26248-0.41933-0.63319-0.86933-0.21328-0.44595,0.41614-0.0029,0.59354,0.17508,0.80885,0.71827,0.8702,0.72406,0.8566-0.19939,1.5051-0.27955,0.19592-0.78599,0.36637-0.46997,0.81695,0.28331,0.40399,0.65316,0.0926,0.95875-0.10881,0.04717-0.03068,0.09839-0.05846,0.13891-0.09695,0.59875-0.56894,1.1347-0.64274,1.5723,0.18521,0.0509,0.09666,0.15743,0.16293,0.22486,0.25293,0.20952,0.28071,0.38489,0.1036,0.56605-0.03415,0.17595-0.13399,0.28534-0.2836,0.11518-0.49515-0.12444-0.15367-0.23702-0.32412-0.38576-0.45029-0.48907-0.41528-0.37505-0.69222,0.12704-1.0143,0.36984-0.23614,0.7964-0.43872,1.0279-0.85457,0.58515,0.90493,0.26248,1.9135,0.33048,2.878zm3.1995-33.139c-0.0897,3.2617-0.48907,6.5168-1.0482,9.74-0.40399,2.3302-0.8074,4.663-1.3127,6.9729-0.6876,3.1431-1.5506,6.2439-2.4798,9.3253-0.0805,0.26653-0.0741,0.70467-0.56229,0.54-0.45666-0.15453-0.33685-0.48704-0.23412-0.83866,1.2655-4.3339,2.4358-8.6953,3.2261-13.141,0.53653-3.0192,1.0363-6.0471,1.284-9.115,0.16553-2.0573,0.15859-4.1285,0.36724-6.169,0.26711-2.6178-0.10679-5.198-0.0799-7.7956,0.0142-1.3581-0.23586-2.7188-0.36666-4.0784-0.0515-0.01331-0.10245-0.02633-0.15367-0.03965-0.61293,1.4695-1.2186,2.9422-1.8405,4.408-1.3156,3.1011-2.6103,6.2106-4.4071,9.0811-0.89306,1.4264-2.23,2.1968-3.7456,2.7492-3.1138,1.1344-6.349,1.7766-9.5994,2.3484-0.43582,0.0764-0.59036,0.19476-0.67168,0.65113-0.60078,3.3833-1.1726,6.7764-2.0226,10.108-0.61409,2.4077-1.1356,4.8864-2.5148,6.9972-1.2551,1.9204-3.0716,3.3277-5.0192,4.4995-2.3308,1.4018-4.7715,2.6089-7.3158,3.585-0.21936,0.0845-0.5892,0.46968-0.76862-0.02199-0.15106-0.41354,0.10794-0.62364,0.52235-0.79785,2.8178-1.1807,5.5893-2.4373,8.16-4.1331,3.2345-2.1331,4.8884-5.1949,5.7693-8.8516,0.94457-3.921,1.7123-7.872,2.3852-11.845,0.09-0.52901,0.3111-0.94023,0.95702-1.0114,2.698-0.29749,5.3216-0.96223,7.9287-1.6892,0.78599-0.21907,1.5529-0.50586,2.327-0.76631,2.2489-0.75792,3.2863-2.6711,4.2896-4.5802,1.8454-3.5129,3.1911-7.2478,4.7301-10.896,0.22139-0.52467,0.55274-0.91332,0.94457-1.2803,0.42454-0.39733,0.70554-0.30212,0.76776,0.27782,0.12733,1.1761,0.2564,2.353,0.34698,3.5326,0.31312,4.074,0.24974,8.16,0.13659,12.235z"/></svg>
