<?xml version="1.0" encoding="UTF-8" standalone="no"?>
<!-- Generator: Adobe Illustrator 16.0.0, SVG Export Plug-In . SVG Version: 6.00 Build 0)  -->
<svg id="fishmonger" xmlns:rdf="http://www.w3.org/1999/02/22-rdf-syntax-ns#" xmlns="http://www.w3.org/2000/svg" enable-background="new 0 0 90 90" xml:space="preserve" height="90" viewBox="0 0 90 90" width="90" version="1.1" y="0px" x="0px" xmlns:cc="http://creativecommons.org/ns#" xmlns:dc="http://purl.org/dc/elements/1.1/"><metadata id="metadata3440"><rdf:RDF><cc:Work rdf:about=""><dc:format>image/svg+xml</dc:format><dc:type rdf:resource="http://purl.org/dc/dcmitype/StillImage"/><dc:title/></cc:Work></rdf:RDF></metadata><g id="icon_fishmonger" clip-rule="evenodd" transform="matrix(0.2953577,0,0,0.2953577,0.94724607,0.69600309)"><polygon id="polygon3430" points="265.74,188.94,265.74,188.94,265.74,188.94"/><path id="path3432" d="m260.96,147.99c2.108-4.96,4.062-9.976,5.494-15.181,0.365-2.151,0.73-4.3,1.096-6.451,0.398-8.408-0.295-16.65-3.416-24.587-1.918-4.886-3.293-5.816-8.414-5.8-7.076,0.022-13.832,1.466-20.376,4.068-0.66,0.632-1.419,1.081-2.339,1.218-5.205,3.154-9.316,7.466-12.986,12.245-1.246,2.162-2.492,4.321-3.736,6.48-0.511,1.223-1.02,2.441-1.652,3.95-1.59-3.667-3.049-7.031-4.51-10.396-0.566-0.979-1.133-1.96-1.699-2.94-1.486-2.037-2.973-4.074-4.459-6.113-0.848-1.081-1.697-2.165-2.547-3.249-1.181-0.74-1.869-1.984-2.875-2.923-1.465-1.37,0.41-2.41,1.012-3.545,3.396-6.812,5.361-14.026,6.08-21.593-0.061-1.161-0.119-2.324-0.18-3.486-1.426-3.345-4.67-4.373-7.522-5.901-1.06-0.167-2.067-0.477-2.956-1.103-3.064-0.454-5.941-1.8-9.078-1.899-1.438-0.045-1.422-1.056-1.361-2.055,0.258-4.091-2.096-6.269-5.59-7.514-6.643-2.366-13.456-3.667-20.542-2.934-0.835,0.086-1.542,0.169-2.034-0.632-0.813-1.314-2.307-1.703-3.457-2.558-1.752-0.491-3.506-0.982-5.259-1.473-7.237-1.32-14.471-1.572-21.703,0.027-3.493,1.16-6.94,2.444-10.046,4.462-7.957,5.171-14.322,12.003-18.794,20.239-2.595,4.775-6.038,7.343-11.06,8.374-0.094,0.02-0.189,0.035-0.285,0.053-1.221,0.508-2.44,1.02-3.662,1.529-0.776,0.4-1.547,0.805-2.327,1.2-20.012,10.186-35.616,24.664-44.507,45.681-0.165,0.396-0.331,0.791-0.498,1.183-0.372,1.181-0.747,2.363-1.12,3.544-0.637,2.895-1.274,5.792-1.91,8.688-0.322,2.765-0.644,5.528-0.965,8.293-0.378,4.186,0.191,8.338,0.454,12.499,0.583,9.227,2.996,17.954,7.129,26.223,5.184,10.372,12.893,18.624,21.616,26.047,1.628,0.627,2.844,1.824,4.105,2.96,2.704,1.778,5.406,3.56,8.109,5.337,1.976,1.146,3.95,2.291,5.925,3.438,3.398,1.545,6.785,3.121,10.204,4.626,1.11,0.488,2.303,0.797,3.457,1.188,3.625,0.973,7.269,1.881,10.872,2.934,5.521,1.613,11.225,1.567,16.878,1.996,4.507-1.023,7.107,1.357,8.979,5.031,5.578,5.537,11.194,11.009,18.721,13.943,2.333,0.908,4.609,1.982,6.909,2.979,3.048,0.843,6.113,1.547,9.31,1.329,0.937-0.058,1.875-0.112,2.813-0.169,1.56-2.349,3.117-4.696,4.678-7.046,0.733-1.59,1.47-3.18,2.207-4.771,0.361-1.134,0.721-2.267,1.08-3.401,0.11-0.364,0.238-0.727,0.33-1.098,1.03-4.271,1.564-4.467,5.688-2.079,4.227,0.118,8.451,0.371,12.675,0.31,3.263-0.045,6.601-0.236,9.057-2.935,1.732-5.099,2.579-10.368,3.051-15.709-0.046-1.524-0.096-3.05-0.146-4.575-0.323-1.762-0.646-3.521-0.971-5.278-0.338-1.196-0.435-2.538-1.059-3.563-2.238-3.67-1.313-6.547,1.883-9.016,2.92-4.284,6.154-8.359,8.661-13.688,0.821,1.868,1.406,3.199,1.991,4.53,1.729,2.741,3.455,5.479,5.184,8.22,1.909,1.622,3.873,3.186,5.454,5.158,1.404,0.96,2.809,1.918,4.214,2.877,2.469,1.098,4.861,2.344,7.479,3.113,7.526,2.219,15.079,1.873,22.704,0.617,4.403-0.727,6.537-2.97,6.393-7.423-0.086-2.61-0.336-5.214-0.512-7.82-0.741-1.514-0.527-3.14-0.553-4.738-0.396-0.305-0.481-0.693-0.313-1.152-0.07-0.595-0.143-1.19-0.213-1.788-1.906-8.314-4.018-16.574-7.056-24.565-0.325-0.781-0.652-1.563-0.979-2.349-2.343-3.329,0.586-5.312,1.967-7.688,0.601-1.134,1.204-2.268,1.808-3.405zm-85.957-89.76c1.314,0.402,1.645,1.022,1.58,2.523-0.354,8.135-1.252,7.67,6.773,7.732,4.423,0.035,8.527,1.671,12.615,3.264,1.863,0.727,1.494,2.103,1.326,3.366-0.99,7.403-3.372,14.262-7.742,20.317-8.069-0.03-16.139-0.078-24.206-0.077-1.46,0-2.698,0.029-3.115-1.858-2.683-12.094-5.42-24.177-8.147-36.261,7.062-1.939,14.01-1.117,20.916,0.994zm-51.45-4.384c7.833-3.769,15.952-3.579,24.213-1.856,1.138,0.238,1.695,0.684,1.795,1.849,0.117,1.35,0.362,2.688,0.555,4.031,0.188,0.059,0.372,0.083,0.553,0.093,2.256,9.95,4.551,19.892,6.699,29.865,0.768,3.571,2.426,7.051,2.063,10.753-0.345,3.538-1.327,7.007-1.958,10.517-1.918,10.731-3.745,21.478-5.727,32.193-0.833,4.489-1.261,9.08-2.695,13.672-5.125-4.612-9.896-9.122-14.909-13.343-3.044-2.559-5.209-5.097-6.02-9.377-3.691-19.454-10.364-37.936-19.439-55.549-1.375-2.667-2.813-4.041-5.785-2.09-0.12,0.079-0.258,0.13-0.402,0.171,5.052-8.881,11.554-16.356,21.057-20.929zm-66.695,143.9c-9.29-9.517-15.168-20.868-17.271-34.073-0.15-0.938,0.004-1.929,0.017-2.892-3.486-23.112,3.879-42.344,20.713-58.258,11.166-10.557,24.042-17.943,39.037-21.522,0.56-0.133,1.087-0.397,1.628-0.602-0.194-0.66-0.129-1.288,0.009-1.908,0.683-0.111,1.365-0.227,2.023-0.422,1.444-0.429,2.376-0.234,3.085,1.309,2.575,5.604,5.547,11.037,7.886,16.733,13.656,33.28,17.166,67.67,10.709,103.04-0.829,4.55-1.271,9.247-3.463,13.467-3.38,4.324-6.763,8.648-10.146,12.971-0.161-0.009-0.321-0.019-0.482-0.027-20.935-3.432-38.923-12.632-53.745-27.821zm106.22,49.893c-0.6,1.035-1.248,1.699-2.53,1.409-11.336-2.552-20.735-8.001-27.492-17.402,8.4-0.873,16.747-2.048,24.748-4.937,1.909-0.688,3.36-0.859,5.093,0.667,1.477,1.3,3.135,2.565,5.106,3.198-0.085,6.094-1.853,11.743-4.925,17.065zm33.748-26.157c-0.147,2.439-0.629,4.813-0.945,7.217-0.233,1.774-1.02,2.402-2.814,2.48-7.414,0.325-14.553-0.612-21.227-4.088-0.764-0.397-1.646-0.565-2.475-0.842-0.488,0.217-0.791,0.533-0.991,0.905-6.098-3.99-11.603-8.688-16.511-14.099-0.807-0.887-1.556-1.46-2.757-0.419-1.32,1.147-0.5,1.862,0.307,2.657,2.602,2.557,5.211,5.109,8.167,8.008-9.238,3.016-18.15,4.396-27.16,5.073-0.366-0.562-0.666-1.172-0.988-1.767-3.678-0.386-7.367-0.285-11.055-0.293-1.063-0.002-2.22,0.38-3.222-0.215,2.12-2.68,4.247-5.355,6.326-8.065,1.736-2.26,3.655-4.3,4.374-7.319,2.34-9.783,4.067-19.678,4.813-29.682,0.632-8.519,1.357-17.07,0.273-25.645-0.512-4.071-0.533-8.211-0.793-12.594,0.62,0.321,0.906,0.404,1.107,0.583,11.414,10.397,22.948,20.671,34.192,31.249,8.979,8.45,17.723,17.154,25.963,26.34,3.584,6.36,5.865,13.055,5.416,20.516zm14.828-54.795c-2.789,11.169-8.295,20.902-15.91,29.487-0.644,0.727-1.273,1.468-1.906,2.204-0.082,0.114-0.17,0.221-0.253,0.332-0.026-0.029-0.052-0.058-0.077-0.088-3.993-4.592-8.178-8.998-12.469-13.314-8.791-8.844-17.976-17.266-27.059-25.799-0.976-0.917-1.787-1.74-1.504-3.301,3.334-18.286,6.662-36.574,9.87-54.88,0.349-1.99,1.007-2.558,3.007-2.539,7.537,0.075,15.075-0.033,22.612-0.086-0.002,0.402,0.037,0.813,0.065,1.222,3.846,2.11,6.479,5.527,9.178,8.801,7.057,8.552,10.781,18.52,12.406,29.431,0.971,6.511,2.123,13.002,3.543,19.452,0.614,2.786-0.757,6.084-1.503,9.078zm35.696-9.966c6.033,12.775,9.705,26.209,11.232,40.254,0.434,3.982,0.121,4.546-3.838,4.793-1.553,0.096-3.117,0.014-4.675,0.014-14.498,0.629-24.655-8.166-29.367-21.286-2.351-6.54-3.552-13.294-4.157-20.206-1.207-13.75,1.607-26.636,8.277-38.624,6.29-11.299,16.14-17,29.032-17.602,1.964-0.092,2.979,0.473,3.554,2.439,5.094,17.42,1.308,32.998-9.682,47.08-0.848,1.091-0.957,1.905-0.376,3.138z"/><path id="path3434" d="m89.944,126.8c-2.414,2.083-4.947,4.032-7.324,6.149-1.11,0.991-1.788,0.906-2.599-0.268-1.638-2.379-3.336-4.718-5.031-7.053-0.399-0.549-0.887-1.029-1.346-1.553-0.696,0.451-1.345,0.758-1.85,1.224-0.723,0.671-0.112,1.273,0.28,1.825,1.735,2.433,3.408,4.916,5.263,7.255,1.129,1.424,0.97,2.314-0.429,3.404-2.041,1.587-4.021,3.277-5.862,5.094-0.798,0.785-2.964,1.236-1.377,3.162,1.551,1.888,2.399,0.03,3.335-0.703,1.724-1.348,3.454-2.726,4.956-4.308,1.764-1.856,2.943-2.063,4.46,0.348,1.69,2.688,3.833,5.09,5.709,7.665,0.75,1.026,1.288,1.573,2.567,0.554,1.189-0.944,1.055-1.59,0.224-2.641-2.225-2.81-4.295-5.747-6.55-8.532-1.038-1.28-1.093-2.047,0.313-3.105,2.544-1.917,4.919-4.055,7.396-6.062,0.935-0.755,1.208-1.351,0.283-2.417-0.931-1.076-1.523-0.81-2.418-0.038z"/></g></svg>
