<?xml version="1.0" encoding="UTF-8" standalone="no"?>
<!-- Generator: Adobe Illustrator 16.0.0, SVG Export Plug-In . SVG Version: 6.00 Build 0)  -->
<svg id="hammer_smith" xmlns:rdf="http://www.w3.org/1999/02/22-rdf-syntax-ns#" xmlns="http://www.w3.org/2000/svg" enable-background="new 0 0 100 100" xml:space="preserve" height="100" viewBox="0 0 100 100" width="100" version="1.1" y="0px" x="0px" xmlns:cc="http://creativecommons.org/ns#" xmlns:dc="http://purl.org/dc/elements/1.1/"><metadata id="metadata3001"><rdf:RDF><cc:Work rdf:about=""><dc:format>image/svg+xml</dc:format><dc:type rdf:resource="http://purl.org/dc/dcmitype/StillImage"/><dc:title/></cc:Work></rdf:RDF></metadata><path id="icon_hammer_smith" clip-rule="evenodd" d="m82.465,43.521c-2.2865-2.0912-4.5763-4.179-6.8563-6.2772-0.27528-0.2529-0.54078-0.49294-0.92348-0.55224-0.06435-0.0017-0.12869-0.0036-0.19275-0.0056-0.15778-0.0039-0.31557-0.0076-0.47335-0.01175-0.83312,0.01175-1.1537,0.78137-1.7947,1.2687-0.24003-0.86837-0.28563-1.7611-1.0021-2.334-1.0857-0.79927-1.0857-0.79927,0.0691-2.0892,0.21541-0.25962,0.4118-0.5377,0.64904-0.77549,0.76234-0.76458,0.93356-1.6352,0.51895-2.6269-0.17121-0.16842-0.34186-0.33655-0.5128-0.50468-1.483-1.4992-2.966-2.9982-4.4482-4.4977-0.86781-0.87816-1.9759-0.83704-2.7864,0.09428-0.40369,0.4644-0.82473,0.91369-1.2379,1.37-0.0098,0.02602-0.01427,0.05707-0.03049,0.07749-0.79815,0.97972-0.85047,1.0276-1.6844,0.11526-0.71702-0.785-1.6338-0.7022-2.7061-0.79508,0.90334-0.89271,1.5325-1.7717,1.0673-2.978-1.5345-1.7071-3.3417-3.1311-4.9585-4.7534-0.52595-0.50049-1.0519-1.001-1.5778-1.5015-0.38467-0.35138-0.7699-0.70276-1.1546-1.0541-1.116-0.3981-2.0599-0.23947-2.7814,0.79368-0.20115,0.28787-0.5086,0.50077-0.76766,0.74808-0.27444,0.28843-0.54917,0.57714-0.82361,0.8653-0.02266,0.05036-0.03357,0.11162-0.06994,0.14883-0.53854,0.55672-0.99846,1.6027-1.6114,1.5608-0.63198-0.04252-0.83088-1.1831-1.2416-1.8285-0.25234-0.39726-0.44594-0.83116-0.66583-1.2491-0.0442-0.06602-0.08812-0.13205-0.13177-0.19807-0.39334-0.61995-0.74668-1.2802-1.5882-1.3966-3.6411-0.50245-6.8323,0.38355-9.4377,3.0625-0.58498,0.6012-0.82949,1.2735-0.62302,2.1558,0.45601,1.9488,0.81214,3.9208,1.2318,5.878,0.12142,0.56539,0.000559,0.86977-0.6096,1.025-1.0905,0.27612-2.1595,0.63477-3.2379,0.95874-0.2792,0.07917-0.55812,0.1589-0.83732,0.23808-3.2262,1.0709-6.4009,2.3312-9.8895,2.3262-1.3985-0.0017-2.2954,1.0024-2.4773,2.4174-0.25066,1.946,0.44706,3.5974,1.4727,5.1677,0.88712,1.3582,1.3708,1.5367,2.8922,1.0586,1.1297-0.66527,2.3463-1.1428,3.5473-1.6553,1.3661-0.85075,2.9154-1.2178,4.4291-1.6794,0.27025-0.09148,0.54105-0.18324,0.81186-0.27444,0.57602-0.40425,1.0827-0.30913,1.5787,0.17037,0.38299,0.36984,0.81158,0.69268,1.22,1.0365,0.31753,0.24563,0.63533,0.49154,0.95314,0.73744,1.1151,0.84711,2.2305,1.6945,3.4262,2.6029-2.1751,1.7731-4.2926,3.4989-6.4104,5.2248-0.80235,0.87816-0.93691,1.5479-0.47223,2.3483,0.47643,0.82025,1.2337,1.0782,2.3542,0.77437,4.5685-1.2396,9.1353-2.4854,13.702-3.7306,0.26745-0.0733,0.52539-0.19947,0.79899-0.11498,0.10407,0.12813,0.05483,0.22744-0.02154,0.31333-3.2086,3.6069-6.4182,7.2122-9.6293,10.816-0.03553,0.04001-0.09176,0.06211-0.13848,0.09288-0.27221,0.35166-0.50748,0.73605-0.87732,1.0027-0.60512,0.70024-1.1593,1.4472-1.861,2.0607-0.08533,0.23416-0.26186,0.38775-0.46188,0.51951-1.3056,1.5661-2.6306,3.1146-4.0786,4.5531-0.17457,0.44594-0.53266,0.7394-0.87229,1.0474-1.2488,1.4022-2.4977,2.804-3.746,4.2062-0.30354,0.41404-0.76234,0.61099-1.1932,0.84543-0.50105,0.42244-1.0614,0.7492-1.6509,1.029-0.3911,0.37796-0.8541,0.64037-1.3521,0.84823-0.38859,0.26465-0.76094,0.5584-1.1691,0.78696-0.64121,0.35949-1.0852,0.85382-1.2631,1.5734,0.16002,0.97748,0.3662,1.944,0.68401,2.8838,0.03637,0.05595,0.07274,0.1119,0.10911,0.16814,0.01343,0.05679,0.02742,0.11442,0.04084,0.17121,0.23556,0.29766,0.43419,0.61575,0.54805,0.98196,0.75563,1.025,1.6156,1.9594,2.4862,2.8846,1.5549,1.0874,3.029,2.2977,4.7705,3.1031,1.0362,0.47895,1.9105,0.27808,2.5422-0.67198,0.52707-0.79088,1.0278-1.5997,1.5398-2.4003,0.46692-0.96853,1.088-1.8414,1.6917-2.7249,0.36928-0.78193,0.85243-1.4928,1.3552-2.1916,0.88712-1.6106,2.2316-2.8561,3.3904-4.2498,0.06742-0.15638,0.17457-0.27137,0.33851-0.32704,1.0119-1.3649,2.1539-2.6211,3.2684-3.9001,0.09456-0.2322,0.26018-0.39838,0.47699-0.51811,0.71422-0.9758,1.4533-1.9298,2.3572-2.7425,0.10883-0.36313,0.38719-0.59225,0.65743-0.82753,2.1057-2.5064,4.2087-5.0158,6.3192-7.518,1.3652-1.619,2.7405-3.2304,4.1167-4.8404,0.18408-0.21569,0.35725-0.59197,0.71003-0.1866,0.60932,0.70164,1.4203,0.86865,2.3111,0.8418-0.0034,0.36425-0.28591,0.49713-0.4588,0.69156-0.79871,0.89831-0.80207,1.7751,0.0691,2.597,1.5395,1.4528,3.1036,2.8796,4.6546,4.3206,0.12114,0.11218,0.21709,0.2515,0.3248,0.37879,0.61016,0.5363,1.2298,1.0611,1.826,1.6125,0.35865,0.33235,0.785,0.53154,1.2184,0.72821,0.8348,0.08589,1.4503-0.27137,1.9941-0.8874,0.70863-0.80207,1.4766-1.5524,2.2188-2.3248,0.26717-0.27808,0.53434-0.557,0.80123-0.83536,1.9986-2.1785,3.9933-4.36,5.9972-6.5338,0.6675-0.72374,1.3568-1.4271,2.0358-2.1399,0.26801-0.29179,0.53602-0.58302,0.80375-0.87453,0.78556-1.0267,1.7303-1.9063,2.6121-2.8443,0.09876-0.11666,0.19779-0.2336,0.29654-0.34998,0.07078-0.21458,0.14156-0.42915,0.21234-0.64373,0.05316-0.73297-0.18212-1.356-0.71143-1.8668zm-16.464-16.324c0.23388-0.2722,0.40173-0.01175,0.54973,0.13848,1.1288,1.1459,2.2537,2.296,3.3767,3.4472,0.19192,0.19639,0.46216,0.38495,0.15974,0.69996-0.83816,0.87313-1.5015,1.9015-2.4048,2.717-1.4187-1.304-2.8376-2.6079-4.256-3.9116,0.61407-1.2332,1.7007-2.0741,2.5746-3.0911zm-5.911,1.3124c0.76066,0.3511,1.2617,1.015,1.873,1.5465,0.25234,0.21961,0.45461,0.5072,0.792,0.61911h0.00028c1.4301,1.5138,2.9629,2.9173,4.5766,4.233,0.02322-0.04784,0.047-0.0954,0.07078-0.14296-0.02378,0.04756-0.04728,0.09512-0.07078,0.1424,0.61855,0.90838,1.6092,1.4528,2.2669,2.3223-1.1322,1.2214-2.2641,2.4429-3.3968,3.664-0.21346,0.22968-0.42048,0.4381-0.78752,0.40789-2.2174-0.18352-4.4359-0.34746-6.6527-0.53154-0.37879-0.03189-0.64205-0.21122-0.81746-0.61183-0.56763-1.2925-1.1481-2.5836-1.8156-3.8257-0.37684-0.70052-0.30718-1.2586,0.09847-1.8859,1.2813-1.9829,2.235-4.1788,3.8629-5.9373-0.38439-0.44286-0.92796-0.22548-1.4008-0.30186,0.47279,0.07637,1.0164-0.141,1.4008,0.30186zm5.0262,13.581c-1.4279,1.5602-2.7195,2.9716-4.1164,4.4985-0.7436-1.5602-1.4282-3.0088-2.1267-4.451-0.17709-0.36592-0.10743-0.51951,0.31165-0.4879,1.9001,0.14296,3.8002,0.28228,5.9315,0.44034zm-6.746-13.566c-1.5983,1.1358-3.1962,2.2725-4.9702,3.5336,0.34774-1.5015,0.41348-2.8653,1.6008-3.7446,0.55672-0.41264,0.72905-1.2293,1.502-1.4058,0.45489,0.66275,1.0802,1.0572,1.873,1.1884,0.10491,0.14408,0.19303,0.28731-0.0056,0.42831zm-8.566-8.953c0.51084-0.5598,1.0007-1.4514,1.5946-1.5367,0.62582-0.09036,1.1308,0.87509,1.6872,1.3775,1.4836,1.3406,2.9285,2.7235,4.411,4.0649,0.36257,0.32732,0.34075,0.53238,0.01231,0.85886-0.47783,0.47447-0.9039,1.0015-1.3518,1.5059-0.51112,0.43363-1.0217,0.86753-1.4584,1.2379,0.20115-0.77102,0.44118-1.7054,0.69017-2.6376,0.07889-0.29654,0.2585-0.61743-0.05623-0.85466-0.38299-0.28927-0.63449,0.08449-0.86949,0.27892-1.3233,1.0936-2.6418,2.1944-3.9301,3.3283-0.45769,0.40257-0.65016,0.40201-0.79116-0.22688-0.18464-0.82137-0.44286-1.626-0.64512-2.444-0.09736-0.39166-0.34886-0.70471-0.69856-0.5128-1.0592,0.58078-1.4822-0.04644-1.8584-0.85494,0.98699-1.2863,2.1748-2.3905,3.264-3.5848zm-0.49322,14.913c0.14464,0.51811-0.01986,0.87816-0.33935,1.2242-1.6092,1.7421-3.5969,2.656-6.5914,2.7433-0.70807,0.04588-1.6111-0.40565-2.1874-1.7365-0.73744-1.7009-1.6937-3.3101-2.6034-4.9319-0.32088-0.57127-0.08505-0.80039,0.37656-1.0449,1.5443-0.81746,3.0771-1.6565,4.6199-2.477,1.2701-0.67506,2.5548-1.3219,3.8182-2.0081,0.45713-0.24871,0.65268-0.1189,0.77577,0.34354,0.70136,2.6314,1.3991,5.2642,2.1312,7.8872zm-1.204-9.503c0.35669-0.0053,0.3013,0.3206,0.3262,0.49126,0.08868,0.61267,0.58274,1.1831,0.2613,1.8265-0.0733,0.14659-0.37768,0.11778-0.45293-0.14967-0.16786-0.59561-0.32984-1.1932-0.48286-1.7927-0.07386-0.28703,0.17065-0.30466,0.3483-0.37544zm-12.728-5.719c1.8279-1.4878,3.8517-2.2702,6.2487-1.9189,0.41041,0.05987,0.64121,0.18828,0.84683,0.54777,0.90754,1.5899,1.8528,3.1579,2.7769,4.7386,0.1575,0.26913,0.2985,0.54385,0.56036,0.73045,0.01343,0.322,0.13009,0.61631,0.33431,0.85131,0.54721,0.62918,0.30298,1.0013-0.34438,1.3423-2.6141,1.3773-5.2133,2.7828-7.8249,4.1645-0.96685,0.51112-0.97216,0.4935-1.2544-0.53518-0.05707-0.2087,0.002-0.46552-0.22828-0.61044-0.23752,0.08365-0.47447,0.16758-0.71143,0.2515,0.13848,0.65268,0.26409,1.3087,0.423,1.9566,0.05232,0.2129,0.23416,0.44118-0.03413,0.58414-0.2364,0.12617-0.51867,0.33124-0.77969,0.2087-0.24059-0.11274-0.06071-0.40537-0.04588-0.60596,0.05064-0.66527,0.1438-1.3269,0.22073-1.9896h0.00028c0.07162-0.05147,0.1438-0.10239,0.2157-0.15387,0.23696-0.08393,0.47391-0.16786,0.71143-0.25178-0.09931-1.777-0.63729-3.476-0.93216-5.2183-0.1589-0.94027-0.38551-1.8696-0.57015-2.806-0.09708-0.49042-0.05875-0.92293,0.38719-1.2858zm-14.58,17.898c-0.39978,0.19443-0.59924,0.10379-0.7934-0.25514-0.55252-1.0192-1.0541-2.038-0.84823-3.2626,0.07861-0.46888,0.25822-0.67114,0.75283-0.68961,0.86753-0.03301,1.7323-0.13904,2.5978-0.21402,0.25094-0.01818,0.50217-0.03609,0.75283-0.05455-0.25094,0.01846-0.50217,0.03637-0.75395,0.05511,1.0813,0.57574,1.5197,1.6886,2.1824,2.6141-1.2984,0.59896-2.6048,1.1814-3.8903,1.8067zm25.875,5.3879c-3.9074,1.0656-7.8142,2.1318-11.719,3.2066-0.30102,0.08281-0.58861,0.19024-0.95118,0.09288,1.9424-1.6111,3.8615-3.2072,5.7854-4.7967,0.85494-0.70667,0.85998-0.78444-0.04644-1.4875-2.3391-1.8131-4.682-3.6218-7.02-5.4366-0.21765-0.1687-0.49294-0.29123-0.57071-0.59673-0.34634-0.02042-0.55532-0.24619-0.74556-0.49937-1.8931,0.63953-3.7863,1.2788-5.6788,1.918,0.00028-0.00028,0.00028-0.00028,0.00028-0.00028-0.879-0.57379-1.2463-1.5854-1.9608-2.3007,0.43726-0.40006,1.0222-0.42579,1.5457-0.59197,3.1028-0.98503,6.2132-1.9457,9.321-2.9145,0.09512,0.81634-0.18688,1.6005-0.21346,2.4076-0.01147,0.34886-0.24031,0.51504-0.57295,0.62274-0.82109,0.26465-1.6282,0.57015-2.4412,0.85914,0.19024,0.2529,0.39922,0.47895,0.74556,0.49937,0.53574-0.16842,1.0841-0.30382,1.6041-0.5114,0.88656-0.3539,1.7905-0.42244,2.7369-0.38523,0.50608,0.0193,0.74612,0.2087,0.95818,0.62107,0.89131,1.7298,1.8086,3.4461,2.7081,5.1716,0.16142,0.31025,0.3206,0.57351,0.71115,0.64848,3.6486,0.70024,6.6871-0.28452,9.0617-3.2032,0.36285-0.44622,0.44426-0.86446,0.29571-1.3988-0.3774-1.358-0.69912-2.731-1.0972-4.0822-0.1659-0.56316-0.07861-0.92572,0.39306-1.3003,1.2153-0.96629,2.3827-1.9924,3.5829-2.9778,0.31529-0.25878,0.5626-0.62806,1.0077-0.72262,0.09987,0.31445-0.04476,0.57099-0.11386,0.84012-0.55001,2.1276-1.0975,4.2554-1.6458,6.383-0.0705,0.27249-0.19331,0.56875,0.09596,0.77465,0.29263,0.20842,0.5307-0.0073,0.76066-0.17037,1.2435-0.88236,2.4829-1.77,3.7328-2.6432,0.15722-0.10939,0.29459-0.37152,0.57211-0.19275-0.01007,0.34075-0.23947,0.57211-0.38858,0.83256-1.5292,2.6692-3.0611,5.3361-4.6102,7.9933-0.25458,0.43642-0.3469,0.85075-0.2764,1.3596,0.24143,1.7446,0.43419,3.4956,0.66219,5.3803-0.903-0.572-1.682-1.065-2.461-1.558-0.862-0.585-1.741-1.145-2.577-1.765-0.414-0.308-0.79-0.187-1.192-0.078zm-11.638,30.013c-0.52175,0.62386-1.0681,1.227-1.6033,1.8397-2.0803-1.1336-4.1603-2.2669-6.2409-3.3999-0.23276,0.20786-0.46608,0.41516-0.69856,0.62358,2.1486,1.1526,4.2965,2.3063,6.4454,3.4595-1.4707,2.4079-2.9417,4.8161-4.4124,7.2242-0.12561,0.20506-0.24507,0.35026-0.52986,0.1838-2.6404-1.5426-5.1137-3.2547-6.3995-6.1919-0.56288-1.2858-0.55728-1.2942,0.64988-2.047,1.4125-0.88096,2.8306-1.7532,4.2462-2.6286,0.23304-0.20842,0.46636-0.41572,0.69884-0.62358,1.7449-1.9899,3.478-3.9908,5.236-5.9692,2.585-2.9092,5.1862-5.8044,7.7857-8.7008,0.20311-0.22577,0.36369-0.51084,0.68681-0.604,0.04028-0.28396,0.18576-0.48258,0.42328-0.60596-0.23752,0.12337-0.38327,0.322-0.423,0.60596,0.96181,2.0722,1.9765,4.1178,3.0653,6.1262-2.9758,3.5703-5.9499,7.1417-8.9299,10.708zm13.698-16.269c-1.3697,1.6097-2.7386,3.22-4.1083,4.83-0.2985-0.12086-0.34382-0.42607-0.46664-0.66583-0.91509-1.7916-1.8198-3.5882-2.7285-5.3831,1.8582-2.1161,3.7007-4.2467,5.5801-6.3433,1.069-1.1932,2.0341-2.484,3.2542-3.5392,1.6615,1.1397,3.4561,2.0968,4.8728,3.5703-2.1348,2.5106-4.2694,5.0211-6.4037,7.5311zm6.9453-8.0529c-0.10323-0.13065-0.18044-0.30326-0.31361-0.38467-1.4953-0.91509-1.791-2.381-1.8892-3.9675-0.05371-0.86893-0.20227-1.732-0.31781-2.5967-0.10267-0.77046-0.06798-1.4866,0.39166-2.181,0.56791-0.85802,1.0407-1.779,1.633-2.8085,0.67898,1.4271,1.29,2.7139,1.9035,4,1.0309,2.1617,2.047,4.3301,3.1101,6.4759,0.17765,0.35837,0.11974,0.52846-0.12002,0.7864-0.74724,0.80375-1.4679,1.6307-2.1989,2.4487-0.87956-0.40873-1.3238-1.3577-2.1986-1.7726zm16.686,5.9021c-1.7712,1.9757-3.6081,3.8914-5.4075,5.8422-0.32004,0.34718-0.52567,0.51588-0.97664,0.08617-1.8391-1.7532-3.7205-3.4626-5.6053-5.1663-0.37124-0.33571-0.42216-0.52874-0.03497-0.9123,0.61463-0.61016,1.1437-1.3065,1.7088-1.9661h-0.000559c1.3188-1.1009,2.4208-2.4185,3.5448-3.699,0.62358-0.71031,1.093-0.78836,1.9228-0.43391,2.5276,1.0807,5.0944,2.0702,7.6458,3.095-0.76906,1.1954-1.8593,2.1085-2.7973,3.1543zm8.0744-8.6669c-1.5462,1.598-3.0485,3.2377-4.5673,4.8619-0.14883,0.19359-0.30438,0.38019-0.49965,0.52343,0.19527-0.14324,0.35082-0.32984,0.49965-0.52371-0.08421-0.01119-0.17485-0.005-0.25038-0.03581-2.6572-1.0788-5.3104-2.1665-7.9698-3.2396-0.5349-0.21597-0.42663-0.43251-0.10519-0.77633,1.5938-1.7043,3.1686-3.4262,4.75-5.142-0.28088-0.05875-0.56232-0.1175-0.84347-0.17625-0.93496,0.69688-1.6089,1.6469-2.3964,2.4857-2.5052,2.6689-4.9929,5.3546-7.4872,8.0336-0.85159-0.59896-1.7479-1.093-2.8054-1.215,1.3048-1.4422,2.6001-2.8935,3.9166-4.3251,2.1981-2.3897,4.4076-4.7679,6.6171-7.1462,0.1894-0.20366,0.4188-0.36928,0.62974-0.55252,0.27165,1.0393,0.8818,1.8887,1.5255,2.7195,0.28116,0.05875,0.5626,0.1175,0.84347,0.17625,0.52063-0.55168,1.0547-1.0913,1.5563-1.6595,0.29738-0.33711,0.50049-0.40173,0.87313-0.04672,1.8551,1.7672,3.7415,3.5017,5.619,5.2458,0.2585,0.24031,0.46776,0.40593,0.09428,0.79256z"/></svg>
