<?xml version="1.0" encoding="UTF-8" standalone="no"?>
<!-- Generator: Adobe Illustrator 16.0.0, SVG Export Plug-In . SVG Version: 6.00 Build 0)  -->
<svg id="handyman" xmlns:rdf="http://www.w3.org/1999/02/22-rdf-syntax-ns#" xmlns="http://www.w3.org/2000/svg" enable-background="new 0 0 300 300" xml:space="preserve" height="100" viewBox="0 0 100 100" width="100" version="1.1" y="0px" x="0px" xmlns:cc="http://creativecommons.org/ns#" xmlns:dc="http://purl.org/dc/elements/1.1/"><metadata id="metadata3029"><rdf:RDF><cc:Work rdf:about=""><dc:format>image/svg+xml</dc:format><dc:type rdf:resource="http://purl.org/dc/dcmitype/StillImage"/><dc:title/></cc:Work></rdf:RDF></metadata><path id="icon_handyman" clip-rule="evenodd" d="m90.285,37.61c-2.7796-2.4491-5.5489-4.9114-8.3464-7.3395-0.46388-0.40302-0.61085-0.6338-0.13866-1.1732,0.84528-0.96433,0.70562-2.0687-0.25106-2.9332-0.5633-0.5091-1.1369-1.0076-1.7052-1.5103-0.32488-0.28797-0.64909-0.57594-0.97364-0.86424-0.63114-0.32122-1.0837-0.86457-1.6158-1.3078-1.1076-0.92143-2.181-0.9088-3.1766,0.13002-0.32721,0.3415-0.49181,0.32455-0.81469,0.01796-0.82566-0.78443-1.7378-1.4827-2.5285-2.2998-0.94903-0.98229-1.9573-0.98794-3.0985-0.44858-0.96832,0.45822-1.9609,0.85792-3.0423,0.97298-3.6079,0.9906-6.9222,0.25904-9.9988-1.7484-0.62615-0.40868-1.2483-0.72857-2.0078-0.71227-0.43129,0.0951-0.79674,0.32454-1.1559,0.56696-0.89649,1.0202-1.7927,2.0407-2.6891,3.0602-0.4283,0.45789-0.85659,0.91578-1.2852,1.3737-0.15396,0.3139-0.36112,0.57693-0.72724,0.76747-0.21681-0.46487-0.4263-0.91412-0.63612-1.3637-0.18588-0.31657-0.37176-0.63346-0.55732-0.95036-1.1861-1.7794-2.4095-3.5261-4.2201-4.7518-0.31058-0.18821-0.62149-0.37675-0.93241-0.56496-2.482-1.1821-5.106-1.6493-7.8373-1.5054-1.0711,0.05586-2.1362,0.21548-3.2042,0.32854-0.37875,0.07548-0.75783,0.1513-1.1366,0.22712-0.41932,0.29861-0.77612,0.65641-1.0328,1.1063-0.27201,0.74519-0.09311,1.4385,0.24341,2.1132,0.26303,0.31091,0.52539,0.62149,0.78809,0.93241,0.43993,0.51276,0.88053,1.0255,1.3211,1.5389,1.254,1.5173,2.5086,3.034,3.7629,4.5516,1.4997,1.5705,2.8308,3.284,4.2048,4.9616,0.17824,0.46886-0.12204,0.80206-0.3302,1.1618-0.0143,0.35414-0.13966,0.66871-0.34616,0.95302-0.89383,2.4288-1.7923,4.8556-2.6758,7.288-0.11472,0.3149-0.3149,0.44459-0.62183,0.49148-2.0913,0.31723-4.1815,0.63912-6.2718,0.95934-0.31889,0.06252-0.63746,0.1247-0.95602,0.18688-0.38473,0.06119-0.76947,0.12237-1.1545,0.18389-1.0445,0.42131-1.7205,0.0033-2.328-0.87288-0.74686-1.0771-1.6141-2.071-2.4294-3.1002-0.17424-0.08147-0.32288-0.18622-0.36412-0.39138-2.0051-2.4474-4.0256-4.8828-6.0058-7.3505-0.54468-0.67802-1.2004-0.90614-2.0015-0.77412-0.77479,0.12736-1.2553,0.5909-1.5599,1.3457-1.1785,2.9189-1.7774,5.923-1.4954,9.0777,0.18655,0.29362,0.20184,0.61983,0.1799,0.95269,0.11772,0.38507,0.23543,0.77047,0.35348,1.1555,0.51542,1.4495,1.2905,2.756,2.1967,3.9907,0.22013,0.19752,0.45124,0.38739,0.51076,0.70163,1.2141,1.2972,2.5565,2.4471,4.003,3.4766,2.2379,1.3471,4.5806,2.4268,7.1656,2.9429,1.2782,0.25472,2.5724,0.3322,3.8596,0.48449,0.05553-0.02993,0.11472-0.04123,0.17724-0.03458,0.70529-0.2065,1.4189-0.12004,2.1315-0.06019,1.5499-0.12503,3.0666-0.42597,4.531-0.94272,0.4835-0.17025,0.7412-0.03724,1.0322,0.34383,1.0684,1.3986,2.1694,2.7726,3.2588,4.1553,0.40868,0.28232,0.67004,0.68567,0.91146,1.105,1.5216,1.6769,1.5326,1.6872,0.02494,3.302-0.6451,0.69099-1.1752,1.4924-1.946,2.065-0.25272,0.42464-0.52872,0.82999-0.9497,1.1116-0.46055,0.51642-0.92143,1.0325-1.3826,1.5486-0.2341,0.38806-0.51242,0.73256-0.92343,0.94903-0.50511,0.5204-1.0631,0.97131-1.7158,1.2962-1.5858,1.365-3.2491,2.6296-4.9493,3.8477-0.34949,0.32488-0.57062,0.72923-0.7309,1.1715,0.0033,0.68733,0.006,1.3743,0.009,2.0613,0.25571,0.91112,0.49414,1.8276,0.95336,2.6655,0.85592,1.12,1.8708,2.0716,3.034,2.8671,0.96533,0.44625,1.9203,0.91611,2.8976,1.3351,2.4454,1.0478,3.1218,0.86524,4.6727-1.1971,0.09344-0.1237,0.21481-0.22745,0.32322-0.33984,0.71294-1.1968,1.5103-2.3343,2.3865-3.4167,1.3733-2.0903,2.6655-4.2381,4.3501-6.1065,0.32388-0.5081,0.6717-0.99559,1.1638-1.3594,0.20949-0.34217,0.41267-0.68966,0.7545-0.92476,0.18356-0.29628,0.35381-0.55166,0.68567-0.11805,0.86224,1.1269,1.7414,2.2406,2.6137,3.3599,0.32222,0.25405,0.59157,0.551,0.76648,0.92742,0.51741,0.45058,0.8925,1.0195,1.2932,1.5672,0.65807,0.79707,1.3664,1.5552,1.9001,2.4487,0.94637,0.92576,1.7388,1.9765,2.478,3.0702,0.29994,0.13135,0.4795,0.36711,0.58658,0.66805,0.9344,0.90314,1.6739,1.9702,2.465,2.9904,0.50112,0.6461,1.0524,0.88851,1.8991,0.95668,2.5345,0.20384,4.7448-0.39172,6.6057-2.1561,0.63812-0.78111,1.2756-1.5622,1.9137-2.3433,0.58226-1.0697,1.1645-2.1395,1.7468-3.2082,0.10408-0.87222-0.15196-1.5971-0.76149-2.2519-0.7309-0.78709-1.388-1.6427-2.0776-2.4687-0.63014-0.75916-1.2596-1.518-1.8894-2.2775-0.66306-0.6318-1.2623-1.3195-1.7863-2.0713-0.42298-0.39937-0.82134-0.81835-1.098-1.3374-0.55865-0.41699-0.92177-1.0029-1.3414-1.5403-0.23476-0.26735-0.46953-0.5347-0.70429-0.80206-1.7547-2.0444-3.5038-4.0931-5.2686-6.1288-0.32388-0.37276-0.35713-0.64078-0.0057-1.0435,3.1085-3.5554,6.1956-7.1294,9.2842-10.702,0.25039-0.28996,0.43162-0.48882,0.82334-0.13401,2.4398,2.21,4.8998,4.3977,7.3538,6.5927,0.1237,0.17092,0.24773,0.3415,0.3721,0.51242,0.27999,0.19686,0.54834,0.413,0.84196,0.58791,1.1519,0.68467,2.0567,0.5653,2.9615-0.42996,1.4063-1.5482,2.7892-3.1181,4.1822-4.6783,0.31157-0.36811,0.62249-0.73655,0.93407-1.1043,1.1798-1.3717,2.3164-2.7819,3.6222-4.0405,0.42962-0.52473,0.79307-1.1073,1.3404-1.5286,0.5091-0.60287,1.0155-1.2087,1.5286-1.8089,0.88951-1.0425,0.81469-2.081-0.21614-2.9891zm-14.75-12.802c0.17092-0.27999,0.36445-0.10175,0.53836,0.04689,1.0505,0.89716,2.1022,1.7933,3.1563,2.6862,0.25804,0.21814,0.21548,0.42131-0.0013,0.63247-0.31161,0.3036-0.52077,0.71327-0.94008,0.90448-1.1582-1.0451-2.2885-2.1235-3.5491-3.0499,0.0027-0.57627,0.54302-0.80505,0.79574-1.22zm-2.0849,1.3062c-0.009-0.006-0.01729-0.0123-0.02627-0.01829,0.009,0.006,0.01729,0.01264,0.02627,0.01829zm-0.10109-0.07016c-0.0093-0.007-0.01862-0.0153-0.0276-0.02228,0.0093,0.007,0.01829,0.01563,0.0276,0.02228zm-0.19586-0.17225c-0.06351-0.06418-0.12603-0.13501-0.18721-0.21215,0.06118,0.07715,0.1237,0.14764,0.18721,0.21215zm-24.378-0.09544c1.2686-1.3733,2.5142-2.7693,3.7333-4.1869,0.33585-0.39006,0.54335-0.4273,0.99559-0.14199,4.7502,2.9997,9.6965,3.1128,14.764,0.89583,0.47485-0.20783,0.77046-0.19553,1.1532,0.15828,1.1619,1.0737,2.3603,2.1082,3.5447,3.158,0.05553,0.42264-0.24241,0.70995-0.42497,1.0278-2.2828,3.976-4.5776,7.9461-6.8747,11.914-0.37941,0.65474-0.68168,1.7005-1.2051,1.8336-0.59223,0.14997-1.1233-0.85626-1.7158-1.3175-0.07382-0.05753-0.15629-0.10408-0.23476-0.15496-1.7897-1.8432-3.8111-3.4294-5.7251-5.1336-2.6283-2.3397-5.2805-4.6527-7.955-6.9388-0.50212-0.42996-0.46288-0.6727-0.0552-1.114zm-1.512,14.556c0.67337-1.8605,1.0395-3.7901,1.3065-5.7431,0.000332-1.4857,0.06484-2.9721-0.11173-4.5367,0.61817,0.25172,0.98727,0.72524,1.4166,1.0987,2.8897,2.5109,5.7484,5.0571,8.6557,7.5464,0.55831,0.47818,0.5909,0.77712,0.0562,1.2327-0.35813,0.30592-0.6717,0.66339-1.0049,0.99791-0.21082,0.48084-0.61684,0.79441-0.9783,1.1466-0.32554,0.36678-0.65042,0.73322-0.97597,1.1-1.7481,1.9659-3.5045,3.9255-5.2373,5.9054-0.33951,0.38839-0.54568,0.41666-0.83897-0.02993-0.29395-0.44825-0.65042-0.8546-0.97963-1.2799-0.47485-0.40967-0.81768-0.92576-1.1559-1.4462-0.0266-0.01663-0.06019-0.02827-0.07881-0.05121-0.58126-0.70795-1.381-1.3354-1.6799-2.1475-0.31091-0.84362,0.6604-1.5213,0.95701-2.3224,0.18488-0.50178,0.43062-0.98096,0.64943-1.4708zm-16.647-21.74c-0.15928-0.18987-0.3006-0.39471-0.53138-0.69864,4.3614-0.69099,8.4834-0.56064,11.569,2.9126,2.3879,2.6872,3.8743,5.9336,4.2484,9.5851,0.10973,1.0707,0.11904,2.1518,0.17424,3.2282,0.03658,0.16726,0.03758,0.32388-0.13168,0.4273l-0.01696,0.01496c-2.16-0.26-4.336-0.397-6.478-0.806,1.176-1.978,0.783-3.512-0.837-5.225-2.828-2.991-5.349-6.275-7.996-9.438zm-16.132,26.78c-3.3895-3.568-3.7532-8.0255-1.9187-12.698,0.80372,0.70429,1.3856,1.5625,2.0251,2.3616,1.9197,2.3975,3.975,4.6863,5.7644,7.1882-1.2154,1.659-2.3929,3.3442-3.4124,5.1339-1.0867-0.3292-1.7338-1.2237-2.4584-1.9855zm21.65,4.8619c-0.21714-0.28065-0.35414-0.63579-0.72092-0.77878-2.3972,0.93374-4.8233,1.6078-7.4516,1.5978-3.717-0.0143-7.1181-0.95236-10.254-2.9166-0.24707-0.13999-0.4539-0.31889-0.61684-0.54136,0.16294,0.22246,0.36977,0.40136,0.61684,0.54136,0.15895-0.91645,0.825-1.5509,1.3225-2.2619,0.67902-0.97164,1.1446-2.1072,2.1066-2.872,0.88286,1.7215,2.1624,2.0268,4.0498,1.6058,3.2338-0.72125,6.5418-1.1156,9.8232-1.6177,0.61983-0.09477,0.92343-0.40003,1.1336-0.96666,0.86623-2.3397,1.7694-4.666,2.6596-6.997,0.11073-0.2903,0.15296-0.6185,0.4386-0.81502,2.199,0.41433,4.4299,0.56962,6.6492,0.81902-0.34117,3.3176-1.5868,6.2701-3.5976,8.9141-2.069,2.1162-4.1935,4.1636-6.8793,5.5106,0.36644,0.14266,0.50345,0.49813,0.72059,0.77845,0.11239-0.10608,0.20783-0.24674,0.33984-0.31291,2.0899-1.0475,3.8224-2.5405,5.3866-4.254,0.28863-0.31657,0.5347-0.71759,1.0092-0.81802,1.0152,1.2606,2.0314,2.5202,3.0453,3.7822,0.15529,0.19253,0.3844,0.34616,0.36112,0.64045,0.22412,0.11339,0.41366,0.25538,0.52373,0.4662-0.11007-0.21116-0.29961-0.35314-0.52373-0.46587-0.35414,0.12137-0.71227,0.23443-1.0628,0.36678-2.4361,0.91545-4.8709,1.8359-7.3063,2.7543-0.59057-0.71959-1.1821-1.4395-1.773-2.1591zm5.7388,21.427c-1.8771,2.7091-3.7832,5.3986-5.6383,8.1226-0.39704,0.58358-0.73854,0.67237-1.388,0.41466-1.516-0.60221-2.9661-1.2782-4.1114-2.4826-0.37476-0.39438-0.70429-0.81802-0.94704-1.3028-0.81103-1.6264-0.69565-2.1471,0.71294-3.2345,1.781-1.3757,3.5654-2.747,5.348-4.1207,0.33352,0.0818,0.67071,0.15396,1.0016,0.24674,1.8076,0.50611,3.6139,1.0179,5.4209,1.5276,0.05786,0.36678-0.22612,0.58026-0.3987,0.82899zm18.926-4.8862c0.09411,0.11672,0.12969,0.28032,0.19187,0.42164-1.4694,2.3014-2.9312,4.6075-4.419,6.8966-0.18422,0.28365-0.2321,0.76481-0.74752,0.73156,0.1942,0.33718,0.47053,0.58957,0.80871,0.77845,1.7408-2.5382,3.3476-5.1612,4.9194-7.8057,1.3371,1.1682,2.3756,2.611,3.5737,3.9069,1.3521,1.4628,2.6196,3.0044,3.9714,4.4678,0.42364,0.45856,0.44226,0.79308,0.137,1.3115-0.80638,1.3687-1.6274,2.7134-2.902,3.7137-0.68102,0.53404-1.4102,0.96832-2.2668,1.1386-1.1219,0.22346-2.0899,0.22379-2.8993-0.90015-1.2925-1.7943-2.7663-3.457-4.1549-5.1821-0.15596-0.1932-0.25438-0.43262-0.37941-0.65042-0.33752-0.18854-0.61385-0.44126-0.80804-0.77845-2.4727-3.0556-4.9453-6.1112-7.4177-9.1664-0.16327-0.42231,0.1769-0.62914,0.38773-0.88253,1.7062-2.0487,3.4177-4.0941,5.1272-6.1408,0.22412-0.04788,0.34417,0.08879,0.47019,0.24308,2.1355,2.6326,4.2753,5.2616,6.4075,7.8969zm-3.88-13.28c-0.60786,1.2686-1.7228,2.1358-2.5581,3.2245-0.28697,0.37409-0.64976,0.68999-0.84928,1.1306-2.0853,2.2835-4.0542,4.6664-6.0211,7.0516,0.40801,0.01131,0.53537,0.36179,0.74918,0.60786-0.21382-0.24607-0.34117-0.59655-0.74952-0.60786-1.2716,1.4714-2.5392,2.9472-3.8204,4.4103-0.24408,0.27832-0.4386,0.61917-0.80871,0.7708-2.0211-0.58724-4.0425-1.1735-6.0636-1.7601-0.09244,0.07149-0.18522,0.14332-0.27766,0.21481,0.09244-0.07183,0.18488-0.14365,0.27766-0.21481,0.4672-1.0219,1.368-1.6932,2.0706-2.5212,1.6267-1.9174,3.3176-3.7798,4.9826-5.6646,2.0723-2.346,4.1456-4.6923,6.2183-7.0389-0.48549,0.09743-0.65175-0.3169-0.91744-0.57361,0.02294,0.24674-0.12669,0.40868-0.27467,0.57627-1.6916,1.9164-3.3808,3.8344-5.072,5.7514-0.14365,0.16261-0.27001,0.36345-0.54002,0.30393-1.3155-1.6523-2.6406-3.297-3.9395-4.963-0.25771-0.33053-0.69698-0.57793-0.64244-1.0987,2.7786-0.91911,5.4797-2.0434,8.1981-3.1211,0.90846,0.7146,1.4558,1.7518,2.2702,2.5508,0.26569,0.25638,0.43195,0.67104,0.91811,0.57361,1.2836-1.4126,2.5635-2.8291,3.8553-4.2347,0.22845-0.24807,0.39936-0.56829,0.74719-0.69099,0.74885,1.7747,1.4977,3.5491,2.2472,5.3231,0.13268-0.05653,0.24507-0.13301,0.3435-0.22346-0.09843,0.09045-0.21082,0.16693-0.3435,0.22346zm6.5564-7.3252c-1.8126,2.1524-3.6911,4.25-5.5472,6.3662-0.10042,0.11506-0.24274,0.1922-0.36611,0.28697-0.71826-1.7498-1.4362-3.4995-2.1544-5.2496,0.23875-0.99525,1.1276-1.4881,1.7318-2.193,1.4388-1.6786,2.9346-3.3083,4.4156-4.9493,0.20317-0.22545,0.37143-0.53504,0.7555-0.50145,1.1432,1.1426,2.2492,2.326,3.591,3.2488-0.57893,1.1815-1.6001,2.0105-2.4261,2.9914zm24.293-6.2864c-3.3336,3.7306-6.6422,7.4845-9.9306,11.255-0.46421,0.53238-0.72857,0.62449-1.3078,0.10707-3.1859-2.8474-6.4168-5.6443-9.6323-8.4585-0.37476-0.33818-0.72291-0.71327-1.1309-1.0046-0.47352-0.33752-0.44259-0.64244-0.17158-1.1093,2.614-4.4921,5.2154-8.9922,7.7934-13.505,0.32122-0.5623,0.52074-0.62582,1.0159-0.17358,1.1436,1.0461,2.3456,2.0274,3.5245,3.035,3.2488,2.8727,6.4849,5.7604,9.7597,8.6038,0.54335,0.47186,0.55366,0.72092,0.0798,1.2503z"/></svg>
