<?xml version="1.0" encoding="UTF-8" standalone="no"?>
<!-- Generator: Adobe Illustrator 16.0.0, SVG Export Plug-In . SVG Version: 6.00 Build 0)  -->
<svg id="hunter" xmlns:rdf="http://www.w3.org/1999/02/22-rdf-syntax-ns#" xmlns="http://www.w3.org/2000/svg" enable-background="new 0 0 300 300" xml:space="preserve" height="100" viewBox="0 0 100 100" width="100" version="1.1" y="0px" x="0px" xmlns:cc="http://creativecommons.org/ns#" xmlns:dc="http://purl.org/dc/elements/1.1/"><metadata id="metadata3105"><rdf:RDF><cc:Work rdf:about=""><dc:format>image/svg+xml</dc:format><dc:type rdf:resource="http://purl.org/dc/dcmitype/StillImage"/><dc:title/></cc:Work></rdf:RDF></metadata><path id="icon_hunter" clip-rule="evenodd" d="m86.189,25.868c-0.89923-0.43142-1.7997-0.86222-2.6989-1.2921-1.0821-0.29912-1.5286-1.0997-1.6862-2.13-0.26274-0.52732-0.45177-1.0793-0.56618-1.6572-0.21155-0.32935-0.31886-0.6957-0.38146-1.0784-0.94949-1.6335-2.4115-1.7482-3.654-0.33243-1.1388,1.2986-2.1374,2.6974-3.0927,4.1307-0.16683,0.31053-0.33335,0.62169-0.49988,0.93284-0.50389,1.318-1.0216,2.62-1.1598,4.0585-0.06908,0.71605-0.81812,1.0509-1.3624,1.4605-0.33058,0.41292-0.71327,0.76878-1.1438,1.0735-1.339,1.2199-2.677,2.4399-4.0157,3.6586-0.43481,0.41847-0.86931,0.83693-1.3041,1.2557-1.6393,1.6782-3.2944,3.3416-4.9103,5.041-0.5042,0.53072-0.55323,0.07308-0.69847-0.23652-1.4873-3.1791-4.0416-5.0962-7.3061-6.1641-1.0294-0.33706-2.105-0.29265-3.1698-0.31763-0.43173,0.01542-0.86314,0.03084-1.2939,0.04626-0.11564,0.02282-0.23097,0.04533-0.34631,0.06815-0.20384,0.04811-0.42124,0.06661-0.60997,0.14956-1.4611,0.64697-2.7473,0.78574-4.3435-0.07463-1.7013-0.91773-3.6654-0.42494-5.5372,0.65407,0.65838-1.2862,1.3538-2.294,2.2851-3.175,1.9224-1.8213,3.7866-3.7042,5.6621-5.5748,0.53503-0.53318,1.0768-0.87702,1.9067-0.83046,1.2264,0.06815,2.2598-0.6112,3.3255-1.1191,0.13106-0.20476,0.346-0.28432,0.55693-0.37067,0.49155-0.44283,1.017-0.85482,1.4676-1.3368,0.96892-1.0371,0.71142-2.7313-0.61428-3.1451-1.7488-0.54521-2.5028-1.7235-2.7994-3.3749-0.07956-0.17793-0.15943-0.35587-0.23868-0.5338-0.56741-0.54243-1.2536-0.70279-2.0149-0.64111-0.78944,0.06414-1.0991,0.79561-1.66,1.1768-0.0086,0.26582-0.24732,0.36974-0.38239,0.54675-0.95381,1.4774-1.9539,2.9188-2.2086,4.7413-0.07247,0.52177-0.68583,0.82491-1.075,1.2011-2.1411,2.0698-4.3071,4.1162-6.4457,6.1891-0.58129,0.5631-1.3174,0.86777-2.0075,1.2017-1.4414,0.69724-1.9869,1.9878-2.4732,3.3345-0.25595,0.70957-0.38609,1.4651-0.57266,2.199,0.07308,0.28926,0.1471,0.5779,0.22049,0.86623,0.5631,0.44622,0.59948,0.76878-0.11472,1.1564-0.94887,0.51376-1.783,1.2637-2.2499,2.2212-0.66764,1.3676-2.105,1.7855-3.077,2.7686-0.53688,0.54367-2.2416-0.20229-2.2404-0.93191,0.0037-1.8284-1.0648-2.7412-2.6147-3.3052-0.32287,0.01141-0.64512,0.02375-0.96861,0.03485-2.1725,0.0885-3.1285,1.4148-3.4458,3.3887-0.17762,1.1037-0.3534,2.208-0.52948,3.3117-0.0031,0.12366-0.0065,0.24608-0.0089,0.36974-0.01449,0.55323-0.02837,1.1077-0.04225,1.6618-0.13723,2.0575,0.58129,3.7301,2.2407,4.98,1.3649,0.76539,1.3649,0.76539,0.40459,2.1608-1.4713,3.4979-1.3948,6.9403,0.46966,10.27,0.36234,0.6479,0.37098,0.8761-0.34476,1.2215-2.5669,1.2369-4.3521,3.0159-4.3435,6.1601,0.008,3.0313,0.38886,4.3601,2.9058,5.4465,0.30838,0.14648,0.61706,0.29234,0.92451,0.43882,0.39565,0.08357,0.79191,0.16498,1.1348,0.39904,0.93777,0.0049,1.8833,0.1545,2.8075-0.10732,0.60997-0.17146,0.55631,0.28772,0.6149,0.62014,0.21987,1.2539,0.42587,2.5111,0.85574,3.7172,0.3938,0.52239,0.55816,1.2409,1.2184,1.5366,1.7436,0.78173,3.559,1.2378,5.4752,0.89645,2.1451-0.38208,3.3767-1.9391,4.4224-3.6638,0.25811-0.42587,0.43789-0.57173,0.98187-0.47027,1.0463,0.1952,2.1232,0.17948,3.1744-0.05828,0.31763-0.07216,0.58314-0.08049,0.8616,0.11379,1.882,1.3115,3.9716,1.9446,6.2674,1.8876,0.43234-0.01449,0.86469-0.02837,1.297-0.04225,2.0081-0.38454,3.8544-1.1364,5.4795-2.3964,0.54706-0.5486,1.0941-1.0981,1.6415-1.6473,0.12058-0.35833,0.42402-0.3389,0.72592-0.40058,0.67689-0.13815,1.3757-0.07031,2.0445-0.30005,0.98865-0.34045,0.99729-0.31516,0.8468,0.73394-0.03639,0.77988-0.07339,1.5595-0.10978,2.3397,0.22111,0.29573,0.14679,0.64111,0.11996,0.9572-0.07401,0.87425,0.18626,1.5934,0.86592,2.1549,0.54058,0.27692,1.1203,0.17084,1.689,0.17392,1.4259-0.79222,2.83-1.627,4.2849-2.3634,1.0226-0.51684,1.6927-1.2076,1.8614-2.381,0.12674-0.88103,0.42371-1.6409,1.6011-1.4793,0.2908,0.03978,0.62076-0.20137,0.93253-0.31393,0.59794-0.34754,1.2125-0.67103,1.7917-1.0482,1.0546-0.68737,1.8231-1.5536,1.8552-2.9225,0.02652-1.1262-0.12181-2.2293-0.28309-3.3348-0.26767-0.60565-0.79808-1.2563-0.70618-1.8018,0.05736-0.34137,1.059-0.51036,1.6242-0.78266,0.70156-0.33798,1.2659-0.84495,1.6708-1.5104,0.55323-0.9094,1.1163-1.8142,1.6224-2.7495,0.46996-0.86931,0.54212-1.7741,0.11595-2.7149-0.416-0.91927,0.09868-1.8327,1.108-2.0797,0.47182-0.11626,0.94271-0.23961,1.4139-0.36018,0.85359-0.4786,1.7062-0.9572,2.5595-1.4358,1.5888-1.3359,2.9666-2.8549,4.073-4.6186,0.85143-1.3569,0.28-2.7775-1.2906-3.1106-0.91834-0.1952-1.8453-0.34631-2.7689-0.51684-0.88967-0.06013-1.6498-0.3315-2.0248-1.2354-0.57975-0.77279-1.19-1.5237-1.6532-2.3779-0.4049-0.31208-0.55354-0.85574-1.0525-1.0978-1.0072-0.48908-2.0621-0.17978-2.6601,0.83138-0.22974,0.38855-0.43512,0.79068-0.65129,1.1872-0.62662,1.6732-1.3646,3.3052-1.6853,5.0867-0.24547,1.3621-0.33675,2.7168-0.07709,4.0764,0.13507,0.70865-0.11657,0.94456-0.81103,0.90539-0.75799-0.04163-1.5271-0.10731-2.2743,0.06908-0.50913,0.11872-0.49371-0.12397-0.43142-0.48199,0.54336-3.102-0.57266-5.4049-3.3308-6.923-0.48477-0.26644-0.75151-1.9477-0.35741-2.3387,1.0139-1.0062,2.0538-1.9869,3.0828-2.9777,1.5252-1.4808,2.8846-3.1322,4.576-4.4412,1.0343-1.0241,2.0692-2.0479,3.1038-3.072,0.30468-0.43142,0.71482-0.7549,1.1222-1.0799,0.74596-1.0981,1.6828-1.6995,3.1075-1.5221,0.99236,0.12273,1.9573-0.30961,2.9249-0.54459,0.42309-0.18441,0.84557-0.3682,1.269-0.55261,1.5447-0.83385,2.9521-1.8611,4.284-3.0011,1.3232-1.1336,1.1311-2.6224-0.45824-3.3854zm-43.384,11.985c0.41446,0.49402,0.68922,0.56155,1.2696,0.2282,2.2937-1.3189,4.7293-1.8416,7.3366-1.0395,0.28556,0.08696,0.59455,0.1252,0.7987,0.3827-0.65407,0.98927-1.3137,1.9739-1.9622,2.9672-0.44653,0.68336-0.81257,1.4343-1.7997,1.4854-0.32164,0.01696-0.49155,0.31115-0.6038,0.61367-0.16837,0.45424-0.35895,0.90046-0.53442,1.3522-0.24793,0.63556-0.6664,0.92328-1.3899,0.92636-1.3032,0.0049-2.6021,0.27322-3.9111,0.03176-0.26644-0.04872-0.51684-0.03238-0.71543-0.29758-1.4768-1.973-2.9718-3.9324-4.456-5.9008-0.0515-0.06753-0.05335-0.17238-0.07894-0.25996,1.4306-2.3159,4.3025-2.566,6.0466-0.4897zm-21.573,14.804c0.31208,0.23313,0.60658,0.49618,0.94086,0.69138,0.56803,0.33243,0.97663,0.60627,0.74565,1.4531-0.1878,0.6923,0.23344,1.3784,0.972,1.6637,0.44622,0.17238,0.49741,0.43974,0.44406,0.84032-0.08357,0.63156-0.13507,1.2668-0.2023,1.9008-0.07093,0.67134-0.16005,1.2915-0.90447,1.6384-0.56433,0.26335-0.49063,1.0161-0.85914,1.4586-0.67843,0.81535-1.3599,1.6285-2.0396,2.443,0.17392,0.19921,0.32996,0.40736,0.38485,0.65931-0.05489-0.25164-0.21093-0.4601-0.38547-0.65931-3.0831-3.349-2.9339-8.6937,0.48847-11.985,0.12767-0.12304,0.2615-0.13199,0.41507-0.10423zm9.5452,4.9794c1.763-0.13106,3.2346-2.4204,2.6267-4.2226-0.21679-0.64112,0-0.69416,0.50204-0.79654,2.3643-0.48107,2.3594-0.49155,2.5139,1.8903,0.07432,1.1484,0.16221,2.2974,0.24917,3.5229-2.3208-0.33551-4.3826,0.13908-6.3334,1.1792-1.5228,0.81195-3.0859,1.384-4.8662,1.1206-0.41785-0.06167-0.5964-0.11533-0.52239-0.57266,0.09652-0.59979,0.13754-1.2085,0.19859-1.8139,0.0737-0.72746,0.13599-1.4327,0.972-1.7735,0.42772-0.17362,0.4968-0.66208,0.60411-1.0719,0.05181-0.19767-0.0037-0.44622,0.30838-0.46657,0.35402-0.02436,0.24362,0.28371,0.30653,0.45023,0.67658,1.7855,1.8644,2.6721,3.4406,2.5543zm-2.6659-4.0098c0.13044-1.2606,1.2141-2.2721,2.3649-2.207,1.1077,0.06168,2.1713,1.487,2.1454,2.8741-0.02683,1.4182-1.0445,2.5275-2.2598,2.4649-1.3288-0.06846-2.4118-1.5764-2.2505-3.1319zm-2.693,14.853c-0.26952-0.08758-0.49094-0.25256-0.63618-0.49248-1.0324-1.709-1.5323-3.5562-1.3208-5.5514,0.08727-0.82583,0.59702-1.1946,1.4737-1.2051,0.38948-0.08758,0.51684,0.12212,0.57389,0.5338,0.27291,1.9853,0.58992,3.9642,0.86808,5.948,0.11009,0.77958-0.20445,1.0136-0.95874,0.76724zm-0.62-12.629c-0.49248-0.0148-1.0213-0.32287-0.97231-0.98403,0.04286-0.5708,0.32441-0.96892,1.0975-0.9646,0.49618,0.09591,0.86561,0.50944,0.86746,1.0759,0.0018,0.55261-0.54058,0.88473-0.99266,0.8727zm-4.0656,9.8224c0.53349-0.61428,1.0673-1.2286,1.6378-1.8851,0.79191,2.2453,0.49741,5.14,3.7215,5.8477-0.07,0.30098-0.16436,0.70618-0.25934,1.1126-0.5412,0.41261-1.1996,0.5264-1.8284,0.71667-3.002-0.78698-3.7872-1.6797-3.8566-4.386,0.19489-0.46873,0.38979-0.93685,0.58499-1.4059zm6.1142-4.3817c0.93438,0.01295,1.7759-0.34785,2.6227-0.6846,0.20784-0.08203,0.47151-0.27939,0.55693,0.13661,0.42186,2.0501,0.83878,4.1023,1.2572,6.1533,0.04749,0.22512-0.0367,0.34692-0.27692,0.34446-1.0602-0.01388-1.9909,0.49094-2.9795,0.76015-0.45424,0.12335-0.6775,0.14771-0.75182-0.45609-0.23097-1.8678-0.54305-3.7255-0.83015-5.5847-0.05366-0.34662-0.1434-0.67719,0.4015-0.66918zm4.1116-0.54953c-0.12674-0.56556-0.0065-0.86037,0.556-1.1028,1.8574-0.79962,1.8577-0.82552,2.2912,1.1469,0.40922,1.8635,0.74257,3.7462,1.2113,5.5936,0.2023,0.79654-0.02467,0.9572-0.72808,0.86777-0.17948-0.02251-0.3645-0.0034-0.54613-0.0034-1.4262,0-1.425,0-1.7214-1.4293-0.35032-1.6927-0.6846-3.3881-1.063-5.0728zm3.4782-1.405c-0.07648-0.35217,0.05551-0.46966,0.40891-0.50882,1.1222-0.12335,2.0424,0.20168,2.6807,1.1533,0.81442,1.2132,1.1906,2.5737,1.2727,3.7267-0.0034,2.0334-0.74627,2.9875-2.2826,3.3027-0.32225,0.06599-0.42093,0.01727-0.48693-0.29265-0.52301-2.4621-1.0577-4.9223-1.5928-7.3813zm3.9321,9.4391c-0.21586-1.0183,0.1104-1.631,0.65437-2.3005,0.96398-1.186,0.78728-2.6338,0.46503-4.0212-0.30252-1.302-0.63495-2.6076-1.6689-3.5756-0.16992-0.15943-0.18718-0.36913-0.20384-0.58499-0.1434-1.9113-0.2797-3.8236-0.44776-5.7336-0.03885-0.44776,0.04718-0.70279,0.54151-0.71112,0.11688-0.0015,0.23128-0.07309,0.35001-0.09806,1.6171-0.34723,1.6433-0.35525,2.1858,1.1919,0.18718,0.53472,0.47829,0.70618,1.0072,0.6846,1.1256-0.04626,2.2533-0.03762,3.3776-0.09375,0.58006-0.0293,0.97817,0.16344,1.2967,0.6516,1.1296,1.7318,2.2792,3.4507,3.4307,5.1681,0.1767,0.26335,0.29203,0.50759,0.22727,0.84248-0.53411,2.7751-1.0815,5.548-1.5601,8.3329-0.09868,0.57358-0.37036,0.67473-0.83231,0.71574-2.6968,0.24146-5.395,0.46966-8.0878,0.75182-1.4195,0.14833-0.5338-0.935-0.73548-1.2202zm4.8082-16.129c-0.12212,0-0.24393-0.0015-0.36604,0-1.9212,0.0259-1.9582-0.000925-2.1491-1.9496-0.14802-1.5123,0.07432-2.9694,0.65592-4.3777,0.18533-0.4493,0.379-0.6738,0.94024-0.57204,1.4558,0.26243,2.9129-0.07,4.3706-0.11379,0.63618-0.01881,1.0217-0.5119,1.3029-1.0257,0.23159-0.4234,0.41477-0.88257,0.55508-1.3448,0.19428-0.64204,0.67473-0.69909,1.2193-0.70957,0.59085-0.01234,0.73579,0.44468,0.77402,0.84526,0.23159,2.426,0.03916,4.8412-0.95072,7.0677-0.62169,1.3994-2.1697,1.6424-3.5358,1.9755-0.92698,0.22666-1.8749,0.17454-2.8164,0.20476zm6.2209-31.22c-0.94363,0.8542-1.9388,1.3507-3.0717,1.5857-0.11225,0.16344-0.23344,0.16899-0.36296,0.02035-0.0663-0.01789-0.13291-0.03485-0.1989-0.05273,0.56864-0.84526,1.4577-1.3849,2.08-2.1796,0.48754,0.19644,0.97509,0.39287,1.5536,0.62631zm-3.2272-3.6506c0.18595,0.45177,0.31393,0.76323,0.4416,1.0744-0.69693,0.66116-1.2434,1.4854-2.1179,1.9545,0.14278-1.1956,0.99636-1.9758,1.6763-3.0289zm-2.055,3.871c0.0025,0.23097,0.04101,0.46935,0.03423,0.69847,0.0068-0.22912-0.03176-0.4675-0.03423-0.69847zm-0.08542,1.2261c0.03022-0.10084,0.0626-0.20168,0.09529-0.30221,0.99451-0.82552,1.8626-1.7796,2.7538-2.7094,0.11533,0.11657,0.23036,0.23375,0.34538,0.35032-0.91865,0.91249-1.8379,1.8253-2.7563,2.7378-0.09498,0.0259-0.18965,0.05366-0.28371,0.08049-0.10361,0.10485-0.24177,0.2063-0.34261,0.05057-0.0626-0.09714,0.08018-0.17516,0.18811-0.20754zm-1.2202,1.3285c0.05674-0.0845,0.11472-0.16745,0.173-0.24948,0.03238,0.0293,0.06507,0.05859,0.09745,0.0885-0.07278,0.07493-0.14617,0.15049-0.21864,0.22604-0.08326,0.0552-0.16591,0.11132-0.25071,0.16406-0.0015,0.000617-0.03053-0.04132-0.04564-0.06353,0.0811-0.05489,0.16282-0.1104,0.24454-0.1656zm-0.62384,0.44869c-0.86931,0.89152-1.7399,1.7821-2.6101,2.6736,0.67719-1.0765,1.6551-1.8617,2.6101-2.6736zm-4.3731,4.1353c0.29327-0.30899,0.58807-0.62014,0.88288-0.93099,0.06137,0.06106,0.12273,0.12212,0.18441,0.18194-0.21956,0.0774-0.61552,0.36728-1.0673,0.74905-0.89984,0.94856-1.7873,1.8842-2.6243,2.7658,0.11996-0.38362,1.5376-1.8466,2.6243-2.7658zm-3.4535,3.4168c0.7842,0.6516,0.30776,1.1336-0.10947,1.6584-0.37591-0.4567-0.75182-0.91341-1.1274-1.3701,0.34538-0.37375,0.62785-0.79469,1.2369-0.28833zm-1.7608,1.0059c0.28617,0.42186,0.57204,0.84279,0.8579,1.2653-0.48569,0.13414-0.97138,0.26829-1.5773,0.43481,0.17762-0.67349,0.11903-1.3121,0.71944-1.7001zm-4.5905,9.4709c0.16622-0.07555,0.27353-0.3204,0.36944-0.50635,1.2095-2.3467,3.0514-3.5651,5.7632-3.2577,0.27014,0.02991,0.54737-0.0034,0.82182-0.0074,0.30221-0.0293,0.60627-0.08696,0.90169,0.03978,0.07432,0.04163,0.14864,0.08295,0.22265,0.12428,1.4062,1.8715,2.7997,3.7514,4.226,5.6057,0.31238,0.40706,0.41045,0.72993,0.17362,1.2255-0.61028,1.2807-0.87671,2.6542-0.80024,4.0724,0.0222,0.4049-0.11903,0.54675-0.46842,0.61768-2.0229,0.41446-4.045,0.83138-6.0655,1.2588-0.31454,0.06661-0.50481-0.05551-0.71204-0.27076-1.6202-1.6862-3.9003-1.2952-4.8764,0.82984-0.10084,0.21926-0.17516,0.45177-0.25534,0.67997-0.23776,0.67781-0.76539,0.8616-1.2539,0.37468-0.46318-0.46318-1.0439-0.67935-1.5755-0.45085-0.81257,0.34846-1.3075-0.08943-1.8888-0.45671-0.37498-0.23807-0.67565-0.61614-1.1641-0.6516-0.06353-0.06414-0.12613-0.12859-0.18904-0.19181-0.05797-0.13414-0.10022-0.27785-0.17547-0.40151-1.6295-2.6591-0.17948-5.4635,2.933-5.6732,0.20353-0.01357,0.43234,0.06507,0.59332-0.13877,1.0324-1.0691,2.0223-2.1873,3.4199-2.822zm-11.523,4.8665c0.0037-1.9869,0.14864-3.9472,0.71389-5.869,0.21432-0.729,0.67226-0.84279,1.3032-0.78513,0.67442,0.06168,0.69786,0.55261,0.7364,1.0599,0.13599,1.7781,0.56926,2.3023,2.2774,2.854,0.2137,0.06908,0.50049,0.0333,0.62539,0.30221-0.5745,0.16498-0.99544,0.556-1.3976,0.96553-1.4697,1.4953-1.5203,3.2549-0.93839,5.1286-0.73949-0.22357-1.392-0.62384-1.9986-1.0793-0.84804-0.63556-1.3229-1.474-1.3217-2.5768zm3.9358,27.718c-1.4364,0.86561-3.9003,0.45609-5.0648-0.79129-0.12181-0.13013-0.23622-0.2871-0.29234-0.4527-0.69416-2.035,0.09529-4.3558,1.9024-5.5366,0.70711-0.46256,1.4154-0.94672,2.2866-1.0704-0.0068,0.45732-0.01141,0.90755,0.10238,1.3612,0.53688,2.1364,2.113,3.0912,4.0684,3.6287-0.77002,1.1959-1.7975,2.1346-3.0027,2.8611zm8.4961,6.6939c-0.89152,0.64142-3.703,0.53472-4.5575-0.10053-0.20106-0.14956-0.346-0.34292-0.41847-0.58283-0.84094-2.776-1.0963-3.7677,0.95782-5.9088,0.83817-0.87456,1.7639-1.6588,2.937-2.0763,0.2726,0.2871,0.45516,0.59948,0.57636,0.9979,0.52516,1.718,1.5305,3.0807,3.1353,3.9543-0.43142,1.5545-1.3393,2.7859-2.6304,3.7162zm3.4927-4.2544c-1.5551-0.86284-2.649-2.1037-3.1288-3.843-0.18934-0.68675-0.63834-1.1506-1.2539-1.474-0.43604-0.48415-0.8724-0.96892-1.3087-1.4531,0.10916-1.4327,1.0324-1.8993,2.2996-2.3023,1.5622-0.49741,3.1115-0.4493,4.6858-0.48199,1.0577-0.0219,2.129,0.1437,3.1605-0.26736,0.63988-0.25534,0.52455,0.25102,0.52362,0.58992-0.0062,3.1985-0.01789,6.3982-0.02837,9.5967-1.7066,0.65191-3.3428,0.34662-4.9497-0.36481zm19.878-1.882c-0.59332,0.02005-0.92482,0.22265-1.2415,0.69878-2.4362,3.6678-8.3764,5.194-12.706,1.7059-0.0441-0.03485-0.06445-0.09991-0.09621-0.15049,0.01912-2.1266,0.05797-4.2544,0.04256-6.38-0.0049-0.58036,0.15357-0.7583,0.74812-0.8061,2.8738-0.23313,5.7441-0.51684,8.6129-0.8101,0.37869-0.03824,0.63125,0.07,0.89861,0.2982,2.0078,1.7155,4.0225,3.4239,6.0355,5.1342-0.72222,0.40212-1.5295,0.28432-2.2943,0.30961zm4.1668-1.0802c-0.28802,0.19767-0.5412,0.5079-0.96121,0.38609-2.0334-1.7429-4.0508-3.5041-6.1111-5.214-0.44098-0.36573-0.57019-0.70772-0.46935-1.2394,0.50111-2.6298,0.98249-5.2637,1.4713-7.895,0.06753-0.36173,0.11903-0.69416,0.61089-0.76971,4.061-0.62107,8.1189-1.2631,12.178-1.8993,0.18595,0.54953,0.3719,1.0987,0.55724,1.6483-0.01049,0.57358-0.10115,1.1857,0.34939,1.6384,1.3313,1.3362,1.6369,2.8509,0.87548,4.5788-0.41014,0.44776-0.81966,0.89614-1.2292,1.3448-0.73394,0.4382-1.5545,0.45516-2.373,0.51036-0.90447,0.06075-2.4007,1.0599-2.3791,1.6375,0.03793,1.0315-0.2797,1.9677-0.61089,2.9105-0.52393,0.87918-1.0392,1.7658-1.9082,2.3628zm10.496-5.8801c0.02128,0.29666,0.2871,0.40952,0.4675,0.58807-0.1804-0.17855-0.44653-0.29142-0.46873-0.589-1.0836,1.788-2.1901,3.5627-3.2367,5.3716-0.31054,0.53565-0.5116,0.76477-1.161,0.40706-0.7805-0.43142-0.24177-0.82059-0.04934-1.1703,0.96275-1.7528,2.0513-3.4359,2.9216-5.2409h-0.000617c0.449-0.46565,0.6812-1.0531,0.91742-1.6375,0.1841-0.23252,0.36728-0.46503,0.56124-0.7105,0.46472,0.31516,0.61058,0.84125,0.95257,1.2101h-0.000308c-0.30128,0.59054-0.60257,1.1811-0.90354,1.7713zm0.55785,0.69631c-0.02313-0.03577-0.05027-0.06815-0.08049-0.09899,0.03022,0.03084,0.05736,0.06322,0.08049,0.09899zm-3.378-1.5157c0.0956,0.01573,0.22635-0.03731,0.2467,0.12674-0.93962,1.6668-1.9092,3.3184-2.7982,5.0117-0.23992,0.45763-0.68274,0.41292-0.98125,0.67072-0.65438-0.14062-1.0571-0.62107-1.4694-1.0883,0.42618-0.67504,0.66178-1.4204,0.73671-2.208,0.12612-1.3294,0.55847-1.7568,1.8919-1.8225,0.84495-0.04194,1.6936-0.07864,2.3736-0.69045zm-5.5033,13.357c-0.09375-1.4247-0.11441-2.7371,0.35186-4.0138,0.95319,0.7216,1.9067,1.4432,2.8596,2.1651-0.9683,0.72808-2.0849,1.1891-3.2114,1.8487zm3.8066-2.5675c-1.013-0.7512-2.0254-1.5006-3.0387-2.2518-0.24732,0.08542-0.36419,0.23745-0.40675,0.42772,0.04286-0.19027,0.15974-0.34261,0.40675-0.42772,0.36018-0.73794,0.96584-1.2588,1.5764-1.7732,0.78451,0.42433,1.5687,0.84834,2.3529,1.2727-0.29481,0.91834-0.4456,1.8833-0.89059,2.7523zm5.9591-4.8699c-0.29542,1.1009-1.6464,1.5024-2.8013,1.7392-0.41415,0.08511-0.84588,0.08665-1.2696,0.12643-0.14432-0.29728-0.11595-0.5742,0.05643-0.85975,1.0657-1.7608,2.1244-3.5269,3.1852-5.2911,1.2027,1.2458,1.2091,2.8694,0.82922,4.2852zm4.2707-11.143c-0.69971,1.2101-1.2088,2.5931-2.7233,3.0859,0.06013-0.80455,0.63803-1.3596,0.99667-2.0146,0.47952-0.87702,1.0445-1.7066,1.5721-2.5567-0.1215-0.22265-0.24331-0.4453-0.36543-0.66794,0.12212,0.22265,0.24393,0.44468,0.36543,0.66733,0.4345,0.45578,0.45732,0.96275,0.1545,1.4861zm9.301-11.295c-1.7972,2.4097-3.6857,4.387-6.6474,4.9217,1.0821-1.8188,2.1648-3.6367,3.2466-5.4555,1.0886,0.17146,2.1768,0.34168,3.4008,0.5338zm-7.363-4.813c0.52208,0.7435,0.98865,1.409,1.4562,2.0748-0.87548,1.5548-1.7411,3.1152-2.6317,4.6605-0.2023,0.35124-0.2763,0.8138-0.73147,0.98187-0.17423-2.7387,0.69076-5.2159,1.907-7.7171zm-2.6505,11.403c0.36018,0.0065,0.72068,0.01234,1.0812,0.01881,0.3645-0.17608,0.46904-0.52578,0.57851-0.87116-0.38208-0.01696-0.76477-0.033-1.1475-0.04934,0.19458-0.43728,0.38886-0.87548,0.58376-1.3124,1.0392-1.7775,2.0757-3.5556,3.1208-5.3287,0.17732-0.30067,0.2578-0.70772,0.71204-0.7509,0.26736,0.20476,0.5338,0.40922,0.80116,0.61429-0.07894,0.46318-0.36635,0.82583-0.59856,1.2144-0.96244,1.6122-1.9277,3.2238-2.8913,4.8363-0.19335,0.25842-0.38609,0.51776-0.57944,0.7768-0.10978,0.34538-0.21463,0.69508-0.57882,0.87116-0.1434,0.83878-0.81936,1.4167-1.0738,2.2009-1.1543,1.9496-2.3091,3.8997-3.4637,5.8505l-0.01233,0.01203c-1.1644-1.0735-1.1752-1.1928-0.34353-2.4621,0.98187-1.4969,1.9508-3.0036,2.9249-4.5063,0.29512-0.37221,0.59054-0.74288,0.88658-1.1142zm-1.7519,0.72962c0.24763,0.02529,0.4086,0.24485,0.62477,0.34045-0.21617-0.0956-0.37714-0.31516-0.62477-0.34045-1.2375,1.9246-2.4741,3.8495-3.711,5.7743-0.11287-1.2989-0.43759-2.4275-1.2446-3.3385-0.41045-0.46318-0.64821-0.92729-0.6664-1.5252,1.7389-1.1379,3.6151-1.429,5.622-0.91064zm-7.0291-1.6455c-2.6104,0.39811-5.2211,0.79129-7.8306,1.1953-1.5009,0.23252-3.0024,0.4675-4.4974,0.73578-0.40582,0.07216-0.61521-0.07308-0.81936-0.3827-1.087-1.6483-2.1879-3.2882-3.2796-4.9337-0.16714-0.25194-0.41106-0.51715,0.15388-0.62415,2.726-0.51684,3.9725-2.2737,4.2667-4.9417,0.15666-1.4222,0.35617-2.8331,0.30313-4.2673-0.02251-0.6186-0.06784-1.2964-0.51129-1.709-0.57697-0.53812-0.30807-0.88504,0.01943-1.3516,0.59424-0.84526,1.1419-1.722,1.7235-2.5768,0.13846-0.20414,0.20229-0.5486,0.58684-0.43635,1.9184,1.1906,3.3317,2.7964,3.8923,5.0157,0.13846,0.54675,0.79839,0.55014,0.83632,1.0873-0.76508,0.43049-1.5271,0.86777-2.2962,1.2906-0.27569,0.1511-0.45856,0.35278-0.62292,0.62816-0.94456,1.5866-1.4728,3.3166-1.8937,5.0981-0.17238,0.73054,0.16467,0.8283,0.7142,0.71759,0.74319-0.15049,1.4694-0.38701,2.2151-0.52177,1.7867-0.32256,3.554-0.64852,4.2133-2.7134,0.01789-0.0552,0.05427-0.12027,0.10146-0.14956,0.30252-0.18934,0.21031,0.18194,0.33767,0.24392-0.0062,0.15203-0.01449,0.30406-0.01819,0.45609-0.03361,1.3581-0.02436,1.3313,1.3112,1.7651,2.4645,0.7987,3.6348,4.2297,1.0941,6.3744zm-3.0785-10.644c0.05797,0.06167,0.11657,0.12335,0.17454,0.18533l-0.0333,0.03423c-0.3941,0.68244-0.79808,1.3596-1.1786,2.0489-0.24793,0.44776-0.42032,0.27384-0.63865-0.0259-0.5742-0.78759-1.1432-1.5804-1.7565-2.3363-0.31269-0.38609-0.1804-0.54953,0.18132-0.74596,1.8802-1.0207,1.232-1.1638,2.6875,0.36974,0.16745,0.17639,0.35278,0.33551,0.52979,0.50204l0.03392-0.03207zm-2.1028,3.2244c-1.0735,0.27415-2.0381,0.5119-2.9993,0.76724-0.46719,0.12335-0.70125,0.06815-0.54089-0.50234,0.31238-1.1086,0.59948-2.2234,1.334-3.2108,0.72592,0.96892,1.4466,1.932,2.2061,2.9459zm4.0817-5.7364c-0.56063,0.55909-0.98619,1.302-1.8145,1.5579-0.25472-0.2689-0.37745-0.65006-0.72006-0.84341-0.40305,0.01912-0.66455-0.24855-0.94949-0.47058,0.28494,0.22203,0.54644,0.4897,0.95011,0.47058,2.2582-2.4063,4.4733-4.8548,6.9082-7.089v-0.000309c0.17362,0.47336,0.34754,0.94641,0.52146,1.4201,0.17392-0.004,0.30344-0.05397,0.40182-0.13661-0.09806,0.08265-0.22727,0.1326-0.4012,0.13661-1.5012,1.7803-3.2515,3.3163-4.8964,4.9547zm5.3318-5.1126c0.0065-0.0065,0.0093-0.01696,0.01542-0.02436-0.0062,0.0074-0.0093,0.01789-0.01542,0.02436zm0.50975-0.53287c-0.07339,0.07308-0.22141,0.07216-0.33459,0.10485v0.000309c-0.13661-0.53565-0.27415-1.0716-0.41107-1.6063,1.9653-1.7602,3.9312-3.5198,5.8968-5.2791,0.41908,0.11194,0.83786,0.22419,1.2566,0.33706-2.0442,2.2388-4.259,4.308-6.4078,6.4432zm7.1605-7.1734c-0.0404,0.20044-0.15326,0.32595-0.28956,0.42741,0.13599-0.10146,0.24917-0.22696,0.28926-0.42741-0.36944-0.12828-0.73887-0.25749-1.1083-0.38578,0.30591-0.36635,0.61213-0.73239,0.91834-1.0981,1.4096-1.2887,2.7359-2.6597,4.0382-4.0551,0.32472-0.34785,0.56865-0.799,1.0944-0.90539-0.12428-0.35833-0.24917-0.71667-0.37344-1.075-1.5363,1.5299-3.073,3.0597-4.6099,4.5908,0.14617-1.7821,1.0072-3.2746,1.9542-4.7206,0.51005-0.77865,1.0497-1.5459,1.8379-2.282,0.2908,0.85821,0.55446,1.635,0.81812,2.4121,0.12397,0.35833,0.24886,0.71667,0.37314,1.075,0.29326,0.36419,0.58684,0.72746,0.88041,1.0917-1.7759,1.458-3.3351,3.1402-4.9436,4.7721-0.29357,0.19274-0.58622,0.38701-0.87918,0.58036zm3.4671-0.33243c-0.42217,0.22573-0.84804,0.20414-1.2754,0.01542-0.07-0.01634-0.13969-0.03238-0.2097-0.04965,1.3488-1.5992,2.9829-2.9151,4.4144-4.432v0.000308c1.0917,0.28772,2.0526,0.87024,3.1911,1.3507-1.8466,1.5851-3.7721,2.756-6.1203,3.1152z"/></svg>
