<?xml version="1.0" encoding="UTF-8" standalone="no"?>
<!-- Generator: Adobe Illustrator 16.0.0, SVG Export Plug-In . SVG Version: 6.00 Build 0)  -->
<svg id="shield_smith" xmlns:rdf="http://www.w3.org/1999/02/22-rdf-syntax-ns#" xmlns="http://www.w3.org/2000/svg" enable-background="new 0 0 100 100" xml:space="preserve" height="100" viewBox="0 0 100 100" width="100" version="1.1" y="0px" x="0px" xmlns:cc="http://creativecommons.org/ns#" xmlns:dc="http://purl.org/dc/elements/1.1/"><metadata id="metadata3248"><rdf:RDF><cc:Work rdf:about=""><dc:format>image/svg+xml</dc:format><dc:type rdf:resource="http://purl.org/dc/dcmitype/StillImage"/><dc:title/></cc:Work></rdf:RDF></metadata><g id="icon_shield_smith" transform="matrix(0.29455829,0,0,0.29455829,5.4620044,5.7716615)"><path id="path3242" clip-rule="evenodd" d="m263.86,116.8c-10.307-6.973-20.588-13.982-30.88-20.978-2.461-1.624-4.919-3.249-7.38-4.875-2.027-1.447-4.054-2.894-6.081-4.343-3.765-2.283-7.486-4.631-10.952-7.358-5.936-5.063-13.499-5.937-20.603-7.979-4.087-1.174-8.195-2.286-12.323-3.308-1.34-0.333-1.867-0.946-1.424-2.213,1.183-3.382,0.853-6.457-2.325-8.473-3.17-2.01-6.104-0.794-8.744,1.406-0.383,0.5-0.715,1.079-1.484,1.019-3.442,3.604-7.105,3.996-10.252,1.099-0.412-0.516-0.822-1.032-1.233-1.549-1.258-0.707-2.555-1.757-4.022-1.245-2.76,0.962-3.729-0.7-4.784-2.682-1.72-3.227-3.583-6.378-5.387-9.562-0.788-1.15-1.72-2.214-2.081-3.609-1.458-2.393-2.934-4.772-4.368-7.178-1.175-1.969-2.854-3.056-5.15-3.316-13.051-1.482-24.36,1.966-33.466,11.723-1.706,2.479-1.734,5.114-0.992,7.95,0.553,2.11,1.199,4.253,0.949,6.501,1.692,4.648,2.467,9.528,3.323,14.359,0.388,2.189-1.973,1.676-3.258,2.123-1.026,0.308-2.054,0.616-3.081,0.925-0.389,0.15-0.776,0.301-1.165,0.452-3.316,1.066-6.621,2.176-9.953,3.192-11.442,3.49-22.587,8.182-34.945,7.781-3.526-0.114-5.681,2.511-6.833,5.754-2.965,8.346,0.275,15.358,4.862,22.025,2.848,4.137,5.399,4.709,9.975,2.65,5.727-2.573,11.17-5.756,17.093-7.904,0.673-0.675,1.592-0.651,2.43-0.854,1.394-0.886,2.957-1.275,4.555-1.559,0.293-0.434,0.713-0.527,1.197-0.452,1.343-0.494,2.777-0.823,4.011-1.512,3.646-2.039,6.44-0.958,8.809,2.111,0.223,0.134,0.444,0.267,0.667,0.401l0.011-0.012c1.799,1.257,3.535,2.622,5.417,3.741,2.043,1.217,2.297,2.524,0.736,4.287-0.564,0.636-1.019,1.369-1.524,2.057l0.008,0.004c-0.331,1.118-0.946,2.06-1.78,2.862-0.213,0.356-0.425,0.713-0.638,1.068-0.146,0.229-0.292,0.458-0.438,0.687-6.863,10.858-13.201,22.048-20.517,32.623-2.976,3.731-2.352,7.896-1.522,12.124,1.371,6.992,2.665,13.999,3.991,21,0.629,1.076,0.974,2.241,1.08,3.479,0.88,1.685,1.289,3.514,1.65,5.356,0.207,0.585,0.415,1.17,0.621,1.754,0.061,0.329,0.12,0.658,0.181,0.986,0.421,0.343,0.488,0.804,0.431,1.306,2.931,7.347,5.861,14.693,8.791,22.041,0.684,0.643,0.933,1.495,1.138,2.37,3.517,6.571,7.033,13.144,10.55,19.715,3.096,4.729,6.192,9.455,9.289,14.182,1.45,1.92,3.062,3.739,4.311,5.78,1.865,3.045,4.438,4.13,7.95,4.204,11.118,0.236,22.128-0.765,33.109-2.329,0.573-0.062,1.149-0.124,1.723-0.186,1.984-1.219,4.378-0.775,6.461-1.597,2.708-0.585,5.416-1.17,8.124-1.756,0.953-0.241,1.906-0.483,2.861-0.725,9.933-3.052,19.552-6.93,29.103-10.996,5.868-3.079,11.735-6.158,17.604-9.237,1.618-1.012,3.139-2.253,4.873-2.987,4.214-1.782,6.063-5.314,7.435-9.295,0.565-2.033,1.182-4.049,2.215-5.908,3.203-8.715,6.407-17.429,9.611-26.143,0.928-2.522,1.855-5.045,2.783-7.567,0.699-1.783,1.398-3.566,2.097-5.352l0.065,0.039c0.083-0.377,0.166-0.755,0.248-1.131,0.116-0.218,0.232-0.436,0.349-0.653,0.426-1.135,0.854-2.27,1.28-3.404-0.119-0.698,0.289-1.218,0.598-1.772-0.04-0.476,0.091-0.879,0.493-1.171,2.548-7.916,5.515-15.681,8.619-23.393,0.343-0.952,0.686-1.905,1.027-2.856,1.683-5.379,3.649-10.654,5.864-15.838,0.521-1.76,0.97-3.549,1.961-5.128,0.19-0.643,0.348-1.298,0.576-1.928,2.134-5.912,1.647-7.327-3.52-10.823zm-58.27-30.018c9.434,6.964,19.376,13.237,29.087,19.827,0.772,0.525,1.807,0.83,2.031,1.947-1.338,2.797-2.865,5.521-3.957,8.413-0.878,2.329-1.748,2.078-3.47,0.864-10.234-7.209-20.687-14.122-30.749-21.56-4.611-3.408-9.888-4.225-15.053-5.731-1.47-0.428-3.066-0.484-4.481-1.478,1.892-3.416,3.766-6.806,5.64-10.196h0.001c7.308,1.762,14.584,3.211,20.951,7.914zm-99.588,122.69c11.181-11.981,22.287-24.035,33.297-36.173,1.853-2.042,2.919-1.846,4.87-0.114,8.774,7.785,17.636,15.477,26.638,22.996,2.455,2.051,3.499,4.829,5.086,7.329,1.707,2.688,4.479,5.349,4.395,8.353-0.08,2.88-3.231,5.089-5.027,7.593-5.196,7.248-10.533,14.396-15.735,21.642-0.895,1.245-2.079,1.705-3.389,2.01-8.79,2.035-17.677,3.392-27.617,3.726-3.37,1.015-5.764-1.052-7.994-4.558-5.74-9.021-10.858-18.348-15.376-28.029-0.925-1.98-0.637-3.178,0.852-4.775zm-3.05-0.782c-5.706-14.407-9.326-28.42-10.665-43.005-0.099-1.073,0.17-1.841,0.701-2.691,4.365-6.995,8.726-13.996,13.017-21.038,0.761-1.25,1.691-2,3.088-2.375,10.196-2.735,20.386-5.489,30.564-8.286,1.329-0.365,2.348-0.169,3.503,0.611,5.066,3.42,10.209,6.726,15.313,10.088,2.637,1.737,2.802,2.536,0.778,4.986-1.604,1.942-3.363,3.757-5.071,5.614-16.357,17.783-32.719,35.56-49.068,53.349-0.649,0.707-1.194,1.511-2.16,2.747zm79.583,6.194c1.446-1.958,1.533-3.838,0.407-5.91-1.944-3.576-3.81-7.195-5.802-10.743-0.757-1.349-0.683-2.354,0.183-3.691,9.309-14.413,18.544-28.872,27.773-43.339,0.723-1.133,1.421-1.895,2.952-1.845,8.137,0.263,16.276,0.433,24.415,0.608,2.491,0.054,1.049,1.521,0.76,2.304-3.152,8.54-6.374,17.053-9.584,25.571-5.019,13.321-10.055,26.636-15.051,39.967-0.454,1.211-0.971,2.219-2.128,2.971-12.989,8.435-26.701,15.354-41.518,19.982-0.259,0.081-0.563,0.011-1.343,0.011,6.466-8.85,12.666-17.394,18.936-25.886zm50.513-68.151c-3.393-0.124-6.792-0.037-10.189-0.037,0-0.194,0.001-0.389,0.001-0.582-5.138,0-10.279,0.07-15.414-0.037-1.972-0.041-3.179,0.616-4.259,2.313-9.325,14.651-18.782,29.215-28.079,43.881-1.206,1.901-1.821,2.114-3.567,0.583-8.756-7.675-17.606-15.243-26.502-22.755-1.596-1.347-0.923-2.085,0.109-3.206,5.459-5.92,10.857-11.895,16.297-17.833,0.863-0.941,1.573-1.944,2.059-3.134,6.633-16.242,13.319-32.463,19.875-48.738,0.887-2.202,1.724-2.711,4.232-2.301,6.735,1.102,11.35,5.739,16.587,9.263,11.752,7.909,23.288,16.138,34.976,24.143,1.711,1.172,2.328,2.133,1.453,4.209-1.655,3.924-3.076,7.956-4.432,11.996-0.557,1.657-1.386,2.3-3.147,2.235zm-70.596-29.221c4.468-7.721,8.932-15.447,13.415-23.158,1.109-1.91,3.227-2.28,4.994-0.948,1.11,0.836,0.079,1.55-0.188,2.208-3.782,9.343-7.61,18.665-11.436,27.989-1.688,4.116-3.391,8.228-5.086,12.34-0.169,0.033-0.338,0.063-0.506,0.095-0.671-5.278-1.316-10.56-2.033-15.831-0.145-1.087,0.359-1.863,0.84-2.695zm5.294-43.283c4.438,1.341,9.169,1.727,13.313,4.031-3.583,1.947-6.733,4.533-9.968,6.967-1.8,1.354-3.391,1.422-5.382,0.792-1.247-0.395-1.428-0.845-1.11-2.054,0.808-3.077,1.439-6.201,2.143-9.304v0.002c0.338-0.155,0.737-0.514,1.004-0.434zm-11.782-2.964c-1.723,1.351-3.444,2.7-5.44,4.266-0.272-2.428-1.481-4.279-1.284-6.46,2.223,0.785,4.71,0.765,6.724,2.194zm-55.978-25.473c5.693-4.398,12.045-6.482,19.167-6.505,2.602-0.009,4.419,0.847,5.799,3.341,4.455,8.059,9.183,15.966,13.806,23.932,1.303,0.212,2.604,0.425,3.907,0.637,1.889-1.917,2.372-0.288,2.927,1.161,0.272,1.316,0.477,2.653,0.84,3.944,0.255,0.904,0.552,1.763-0.578,2.179-1.438,0.531-1.243-0.725-1.469-1.479-0.579-1.934-1.147-3.87-1.72-5.806-1.303-0.211-2.604-0.424-3.908-0.637-9.449,5.021-18.876,10.08-28.352,15.046-5.515,2.89-5.55,2.823-6.879-3.362-1.84-9-3.642-18.011-5.547-26.997-0.499-2.341-0.022-3.886,2.007-5.454zm47.532,51.916c1.269,3.984-0.317,6.313-2.795,8.441-5.443,4.675-11.687,7.493-19.653,7.071-4.238,1.119-6.642-1.3-8.572-5.48-2.834-6.139-6.241-12.015-9.475-17.966-0.728-1.339-0.833-2.058,0.778-2.866,4.059-2.037,7.972-4.363,11.993-6.479,5.91-3.113,11.905-6.069,17.774-9.257,1.961-1.063,2.773-0.925,3.337,1.359,2.079,8.426,3.983,16.919,6.613,25.177zm-81.902,3.467c-1.334,0.351-2.669,0.702-4.004,1.055-4.408,3.202-9.631,4.824-14.363,7.397-0.597,0.326-1.058-0.044-1.422-0.612-2.397-3.74-4.191-7.623-3.47-12.266,0.224-1.445,0.739-2.286,2.308-2.415,3.564-0.298,7.125-0.553,10.703-0.358,2.007,2.807,3.86,5.731,6.244,8.254,1.335-0.353,2.669-0.704,4.006-1.056-1.354-0.089-1.848-1.248-2.542-2.114-1.488-1.856-2.917-3.759-4.37-5.644,2.078-1.736,4.753-1.978,7.184-2.766,9.579-3.103,19.205-6.06,28.819-9.055,0.636-0.199,1.313-0.265,1.971-0.392,1.151-0.376,2.301-0.753,3.452-1.131,0.108-0.146,0.238-0.267,0.391-0.362,0.441,2.055,0.663,4.191,1.376,6.147,1.031,2.832-0.29,3.513-2.989,3.637,0.417-3.212,0.821-6.316,1.223-9.422-1.151,0.378-2.301,0.755-3.452,1.131-0.151,1.339-0.558,2.71-0.407,4.015,0.593,5.109-2.347,6.94-6.7,7.774-1.382,0.265-2.668,1.03-3.998,1.567v-0.001c-6.777,1.837-13.312,4.398-19.96,6.617zm24.939-2.562c-0.765-0.603-2.05-0.856-1.989-2.234,3.034-0.972,6.064-1.954,9.102-2.913,4.354-1.373,7.571-0.089,9.666,3.849,2.865,5.384,5.73,10.768,8.577,16.162,0.646,1.223,1.292,2.325,2.866,2.587,12.807,2.138,23.553-1.321,31.885-11.551,1.067-1.311,1.449-2.487,0.944-4.222-1.459-5.013-2.612-10.112-4.04-15.135-0.496-1.746-0.161-2.844,1.239-3.999,3.653-3.011,7.18-6.178,10.756-9.281,1.848-1.333,3.696-2.667,5.783-4.174-0.389,1.786-0.712,3.271-1.033,4.753-1.845,7.119-3.678,14.24-5.548,21.354-0.245,0.929-0.321,1.749,0.589,2.306,0.91,0.556,1.659,0.035,2.387-0.482,5.127-3.64,10.256-7.277,15.777-10.647-1.171,2.144-2.302,4.309-3.523,6.422-4.747,8.225-9.471,16.465-14.331,24.623-1.123,1.889-1.358,3.68-1.054,5.789,0.826,5.745,1.499,11.512,2.249,17.406-1.361,0.057-2.093-0.803-2.92-1.337-4.558-2.948-9.14-5.864-13.581-8.981-1.768-1.24-3.342-1.45-5.39-0.882-13.525,3.741-27.083,7.362-40.623,11.054-1.033,0.281-2.022,0.599-3.348,0.2,6.793-5.658,13.479-11.202,20.134-16.782,2.802-2.352,2.794-2.833-0.024-5.021-2.826-2.194-5.705-4.317-8.561-6.472-5.335-4.126-10.689-8.224-15.989-12.392zm14.826,15.271c2.168,1.748,4.319,3.52,6.516,5.233,0.833,0.648,1.213,1.097,0.165,1.96-7.075,5.824-14.11,11.696-21.165,17.544-0.343,0.285-0.731,0.585-1.219,0.293,0.258,0.306,0.09,0.587-0.161,0.771-0.09,0.065-0.378-0.144-0.577-0.227,0.229-0.195,0.457-0.391,0.686-0.585,4.935-8.53,10.001-16.976,15.755-24.989zm7.538,140.78c-18.122-25.325-30.244-53.223-35.87-83.892-0.506-2.76-0.878-5.543-1.298-8.316-0.132-0.87-0.121-1.699,0.395-2.51,3.117-4.9,6.195-9.824,9.306-14.727,0.136-0.215,0.461-0.31,0.698-0.46,1.041,1.08,2.143,0.387,3.224,0.104,4.097-1.064,8.193-2.136,12.646-3.297-0.704,2.84-2.353,4.651-3.553,6.67-2.578,4.334-5.206,8.649-8.026,12.829-1.307,1.937-1.539,3.871-1.298,6.047,1.621,14.63,5.216,28.73,10.734,42.402,4.924,12.202,10.945,23.778,18.309,34.655,1.214,1.796,1.444,3.361,0.759,5.4-1.015,3.02-1.696,6.151-2.521,9.235-1.681-0.944-2.455-2.673-3.505-4.14zm93.28-15.592c-19.133,10.097-39.21,17.389-60.737,20.302-4.596,0.621-9.232,0.947-13.85,1.41-4.074,0.909-8.159,0.758-12.249,0.127l-0.169-0.175c0.816-2.89,1.723-5.758,2.412-8.678,0.367-1.55,1.137-1.959,2.642-1.956,27.072,0.063,51.971-7.634,75.145-21.299,2.083-1.227,2.967-1.036,4.095,1.148,1.316,2.553,2.483,5.25,4.438,7.441,0.043,1.192-1.011,1.301-1.727,1.68zm53.45-112.87c-12.656,33.933-25.231,67.898-37.787,101.87-0.67,1.813-1.611,3.16-3.388,4.081-2.405,1.246-4.668,2.767-6.99,4.169-3.057-2.689-4.202-6.602-6.282-9.913-0.647-1.03,0.648-1.518,1.345-1.862,3.083-1.523,4.505-4.118,5.671-7.266,10.597-28.626,21.321-57.205,32.066-85.776,0.737-1.958,0.606-3.219-1.313-4.356-2.332-1.382-4.47-3.087-6.753-4.557-1.348-0.866-1.921-1.722-0.987-3.297,1.753-2.962,2.258-6.587,4.818-9.129,6.097,4.142,12.159,8.334,18.313,12.39,1.514,0.997,1.987,1.768,1.287,3.648z"/></g></svg>
