<?xml version="1.0" encoding="UTF-8" standalone="no"?>
<!-- Generator: Adobe Illustrator 16.0.0, SVG Export Plug-In . SVG Version: 6.00 Build 0)  -->
<svg id="shoemaker" xmlns:rdf="http://www.w3.org/1999/02/22-rdf-syntax-ns#" xmlns="http://www.w3.org/2000/svg" enable-background="new 0 0 100 100" xml:space="preserve" height="100" viewBox="0 0 100 100" width="100" version="1.1" y="0px" x="0px" xmlns:cc="http://creativecommons.org/ns#" xmlns:dc="http://purl.org/dc/elements/1.1/"><metadata id="metadata3266"><rdf:RDF><cc:Work rdf:about=""><dc:format>image/svg+xml</dc:format><dc:type rdf:resource="http://purl.org/dc/dcmitype/StillImage"/><dc:title/></cc:Work></rdf:RDF></metadata><path id="icon_shoemaker" clip-rule="evenodd" d="m75.327,76.095c-0.1433-0.51078-0.22091-1.029-0.17494-1.5613-0.4663-2.8035-1.0386-5.5771-2.2578-8.1722-0.46003-0.74662-0.92006-1.4935-1.3804-2.2405-0.28629-0.06896-0.38749-0.32331-0.53227-0.53317-0.52392-0.45794-1.0481-0.91529-1.572-1.3729-0.063-0.04508-0.12568-0.09045-0.18837-0.13523-0.33943-0.19404-0.67856-0.38838-1.0177-0.58213-0.90155-0.39197-1.8518-0.6287-2.7966-0.88275-2.6518,0.000299-5.2914-0.21643-7.9322-0.43048-0.50839-0.0415-0.6699-0.23703-0.7899-0.69109-0.65408-2.4739-1.344-4.9388-2.0172-7.4077-0.05284-0.19345-0.10628-0.39644-0.10299-0.59377,0.03941-2.3882-0.11643-4.7782,0.07911-7.1644,0.0012-0.28241,0.003-0.56511,0.0045-0.84722-0.17464-2.4745-0.02746-4.952-0.07941-7.4274-0.0084-0.39018,0.23345-0.36361,0.5066-0.39525,1.5715-0.18121,2.4223-1.3329,2.1694-2.9133-0.17792-1.1069-0.44809-2.1999-0.49705-3.3262-0.21136-0.25763-0.16568-0.56511-0.16658-0.86334-0.86245-2.8462-0.71318-5.6893,0.02358-8.531,0.05135-1.2081,0.58004-2.3975,0.14329-3.625-0.29733-0.3436-0.59437-0.68721-0.8917-1.0311-1.1069-0.50839-2.2966-0.24091-3.4444-0.36391h-0.87618c-1.2729,0.000896-2.5455,0.0018-3.8185,0.0027-0.63646-0.0021-1.2726-0.0039-1.9094-0.0057-5.6072-0.000298-11.215-0.000597-16.822-0.000895-0.57735,0.0092-1.1553,0.01821-1.7327,0.02746-0.35316,0.08896-0.70602,0.17822-1.0592,0.26748-0.1209,0.07463-0.2424,0.14986-0.36331,0.22449-0.23345,0.29106-0.466,0.58213-0.69915,0.87379-0.07433,0.29644-0.14897,0.59288-0.223,0.88961,0.0051,0.16628,0.01015,0.33286,0.01552,0.49914,0.0069,0.0609,0.01403,0.1215,0.0209,0.1821,0.01911,0.51168,0.03791,1.0234,0.05702,1.535,0.21076,0.8102,0.13494,1.6365,0.13762,2.4584,0.05702,0.689,0.1409,1.3765,0.16718,2.0664,0.1018,2.6656-0.39615,5.2869-0.61049,7.9298-0.08478,1.044-0.22002,2.0745,0.48451,2.9811,0.0615,0.05791,0.12299,0.11583,0.18509,0.17374,0.28121,0.17165,0.56243,0.34301,0.84364,0.51526,1.1983,0.09254,1.201,0.09254,1.2043,1.3079,0.0045,1.8942,0.05433,3.7898-0.1612,5.6777,0.16419,0.07553,0.15165,0.22628,0.15135,0.36719-0.006,4.2125-0.01314,8.4254-0.0203,12.638,0.0078,1.2893,0.08329,2.5832,0.0024,3.8671-0.06866,1.0953-0.74363,2.0261-1.0783,3.0554-0.05881,0.18001-0.11822,0.35973-0.17703,0.54004-0.09583,0.29077-0.19195,0.58153-0.28718,0.8726-0.5481,2.173-1.0502,4.3549-1.2335,6.596-0.0057,0.05612-0.01134,0.11195-0.01731,0.16837-0.0069,0.17762-0.01403,0.35495-0.0209,0.53317-0.0081,0.40958,0.0806,0.82513-0.07015,1.2267-0.0018,0.27644-0.0039,0.55317-0.006,0.82931,0.14658,0.80931,0.1409,1.6273,0.13822,2.4452,0.20897,1.2069,0.4666,2.407,0.49675,3.6385,0.0206,1.324,0.04179,2.6473,0.06209,3.9713,0.57735,1.2049,1.5135,1.6395,2.8593,1.6234,4.8221-0.05732,9.6466-0.08986,14.467,0.01672,1.5613,0.03433,2.6441-0.53377,3.4244-1.7249,0.94305-1.4389,2.1336-2.1569,3.8731-1.8145,0.26479,0.05254,0.6087-0.08806,0.68064,0.33972,0.46003,0.32868,0.77796,0.77378,1.041,1.2649,0.4657,0.51377,0.93111,1.0266,1.3965,1.5404,0.13792,0.0036,0.26211,0.03463,0.33525,0.16777,0.49824,0.15882,1.0072,0.18807,1.5288,0.18718,5.8246-0.0087,11.649-0.0206,17.473,0.0063,0.97887,0.0048,1.8879-0.05642,2.6441-0.7505,0.50392-0.78573,0.57348-1.6709,0.5884-2.5682-0.0597-1.8509-0.11851-3.7009-0.17762-5.5514zm-20.711-13.615c-0.03821-0.0609-0.07195-0.12449-0.09881-0.19225,0.02687,0.06777,0.0606,0.13135,0.09881,0.19225zm-24.373-18.498c-0.04478-3.3967-0.08448-6.793,0.0203-10.189h14.278c-0.6078,0.91738-1.155,1.764-1.7234,2.596-1.2022,1.761-2.4261,3.5068-3.6191,5.2738-0.42749,0.63318-0.84155,1.1231-1.7201,1.2204-2.4237,0.26897-4.8039,0.85767-7.2354,1.0989zm9.475-1.428c1.9088-2.7488,3.8003-5.5099,5.6816-8.2773,0.25614-0.37734,0.54571-0.51466,1.0004-0.5078,1.7616,0.02657,3.5238,0.01284,5.286,0.01403,0.01612,1.67,0.04359,3.3399,0.04627,5.0099,0.0069,3.9761,0.0036,7.9525-0.000298,11.929-0.000299,0.3442-0.03463,0.6884-0.05373,1.0326,0.0084,0.03642,0.01642,0.07284,0.02418,0.10956-0.0078-0.03672-0.01582-0.07314-0.02418-0.10956-1.9461,0.51944-3.8952,1.0281-5.8371,1.5655-0.52033,0.14359-0.79617,0.0409-1.0765-0.46869-1.6688-3.0327-3.3749-6.0452-5.098-9.0478-0.27106-0.47257-0.25255-0.8114,0.05135-1.249zm5.9198,12.171c0.50869-0.88484,1.5228-0.57526,2.2575-0.93648,0.43227-0.21255,0.5687,0.12389,0.67975,0.42391,0.21046,0.5672,0.79856,1.2105-0.32719,1.5294-0.30241,0.08568-0.31077,0.40719-0.21763,0.73677,0.39286,1.3852,0.75259,2.7799,1.1189,4.1722,0.11911,0.45287,0.42749,0.59019,0.852,0.5272,0.48093-0.07135,0.77319,0.1227,0.65975,0.60512-0.10568,0.45287,0.70303,1.1613-0.3857,1.3619-0.64751,0.11911-1.2753,0.34689-1.9121,0.52601-0.36779-0.0012-0.45018-0.2442-0.52212-0.51108-0.72483-2.6984-1.4532-5.3962-2.1769-8.0943-0.02926-0.11075-0.07314-0.25882-0.02627-0.34062zm4.8248,5.3837c-0.30151,0.06806-0.43704-0.09404-0.51854-0.39197-0.24987-0.912-0.53048-1.815-0.78095-2.7271-0.18628-0.67796,0.39943-0.66393,0.7717-0.76722,0.35405-0.09822,0.78811-0.30301,0.92484,0.35734,0.15673,0.75587,0.40182,1.4935,0.60094,2.2408,0.2639,0.99201,0.06866,1.2467-0.99798,1.2881zm2.0198,0.36361c0.39585-0.06359,0.29286-0.45585,0.22479-0.72274-0.35525-1.3938-0.73826-2.7802-1.0947-4.1734-0.14508-0.56601-0.4257-0.72274-1.012-0.55914-1.0502,0.29345-0.95469-0.69497-1.1741-1.2177-0.27703-0.66094,0.39376-0.52063,0.7105-0.629,0.57108-0.19524,1.1574-0.34808,1.7365-0.51854,0.61825,1.4598,0.87081,3.0247,1.2998,4.5388,0.45406,1.6034,0.84991,3.2232,1.2711,4.8359-0.72065,0.19852-1.4464,0.38271-2.1601,0.60273-0.34599,0.10628-0.51854,0.09404-0.58661-0.33047-0.12628-0.7917-0.48541-1.6225,0.78483-1.8264zm-24.967-28.212c0.19345-2.876,0.77259-5.7267,0.59437-8.6266-0.09344-1.5249-0.18389-3.0507-0.31256-4.5729-0.09881-1.1693-0.05821-1.244,1.1004-1.2443,8.0406-0.000299,16.081-0.000597,24.122,0.000298,1.0266,0,1.0959,0.07403,0.92872,1.0863-0.2639,1.5912-0.55108,3.1781-0.8114,4.7702-0.22479,1.3756,0.21046,2.6921,0.41077,4.0262,0.2224,1.4813,0.49138,2.9554,0.75408,4.4305,0.1009,0.56929-0.09523,0.7914-0.68273,0.7511-0.57586-0.03911-1.1565-0.0045-1.735-0.0024-7.2324-0.000298-14.465-0.000895-21.697-0.0015-0.72333-0.0018-1.447-0.01911-2.1694,0-0.47018,0.01194-0.53377-0.1412-0.50183-0.61706zm2.4936,28.743c0.03344-0.07165,0.11583-0.1209,0.17494-0.18061,0.02687-0.30659,0.05374-0.61347,0.0809-0.92006-0.01881-1.438-0.05553-2.8757-0.05403-4.3134,0.0033-3.5119,0.02448-7.0232,0.03791-10.534v-0.000298c2.5521-0.41466,5.1084-0.80424,7.6519-1.2649,0.52332-0.09493,0.70303,0.07284,0.92394,0.46988,1.2037,2.1679,2.4739,4.3003,3.6376,6.4891,0.76841,1.4449,1.798,2.7608,2.2199,4.3845,0.37585,1.4482,0.77289,2.89,1.1556,4.3364,0.44958,1.7001,0.44899,1.6741-1.2831,1.5356-4.7618-0.38062-9.5257-0.73706-14.289-1.1025-0.02717,0.30689-0.05433,0.61377-0.0809,0.92036,1.9488,0.17404,3.8961,0.3657,5.8467,0.51795,3.2713,0.25584,6.5449,0.4878,9.8177,0.72781,0.29106,0.02149,0.67706,0.009,0.75438,0.30718,0.20688,0.79946,0.5675,1.5801,0.50392,2.4288-0.19554,2.6121-0.40928,5.2221-0.62154,7.8325-0.13493,1.6631-0.29733,3.325-0.41107,4.9896-0.04896,0.71378-0.3248,0.92574-1.0666,0.92156-5.6326-0.03135-11.265-0.0084-16.898-0.0024-0.48959-1.0031-0.52929-2.1139-0.62243-3.179-0.43585-5.0027,0.38928-9.8034,2.522-14.364zm13.395,20.909c-0.21046,0.26599-0.49048,0.25912-0.78214,0.25912-4.6693-0.0015-9.3386-0.0057-14.008,0.006-0.45645,0.0012-0.70453-0.09075-0.6702-0.61527,0.04329-0.66004,0.03075-1.324,0.04239-1.9858,5.7673-0.0024,11.535-0.0051,17.303-0.0075-0.49406,0.88932-1.2634,1.5571-1.8852,2.3434zm3.5973-3.3898c-0.11762-0.03164-0.2236-0.04478-0.32062-0.04329,0.09702-0.0018,0.203,0.01134,0.32062,0.04329,0.0603-0.94932,0.10329-1.898,0.19404-2.8474,0.32629-3.4122,0.61079-6.8285,0.8511-10.248,0.04269-0.60482,0.3045-0.76154,0.78961-0.88842,2.0625-0.53825,4.1185-1.0995,6.1771-1.6521,0.000299,0,0.000299,0.000298,0.000299,0.000298,1.5565-0.09493,3.0948,0.16509,4.6418,0.25703,1.3786,0.0815,2.7512,0.28271,4.1364,0.2627,2.6351-0.03791,4.5848,1.1613,5.9852,3.3253,1.4085,2.1769,2.0413,4.6275,2.4049,7.1554,0.22121,1.5386,0.4684,3.0802,0.35495,4.6466v-0.000299c-4.3051-0.0027-8.6101-0.01015-12.915-0.006-2.6865,0.0027-5.3726,0.02358-8.0588,0.03612-0.000597,0-0.000597,0-0.000896-0.000299-1.5192-0.01343-3.0402-0.02717-4.5609-0.04149zm4.8642,0.25106c0.1012,0.08478,0.19404,0.17852,0.2833,0.27584-0.08926-0.09732-0.1821-0.19076-0.2833-0.27584zm18.344,3.3972c-4.9633,0-9.9264-0.0066-14.89,0.0096-0.50332,0.0015-0.85886-0.09851-1.1568-0.54511-0.47645-0.71587-1.1332-1.3016-1.5547-2.0634,6.6455-0.0057,13.291-0.01104,19.936-0.01672,0.20777,2.6157,0.20777,2.6157-2.3348,2.6157z"/></svg>
