<?xml version="1.0" encoding="UTF-8" standalone="no"?>
<!-- Generator: Adobe Illustrator 16.0.0, SVG Export Plug-In . SVG Version: 6.00 Build 0)  -->
<svg id="staff_carver" xmlns:rdf="http://www.w3.org/1999/02/22-rdf-syntax-ns#" xmlns="http://www.w3.org/2000/svg" enable-background="new 0 0 100 100" xml:space="preserve" height="100" viewBox="0 0 100 100" width="100" version="1.1" y="0px" x="0px" xmlns:cc="http://creativecommons.org/ns#" xmlns:dc="http://purl.org/dc/elements/1.1/"><metadata id="metadata3330"><rdf:RDF><cc:Work rdf:about=""><dc:format>image/svg+xml</dc:format><dc:type rdf:resource="http://purl.org/dc/dcmitype/StillImage"/><dc:title/></cc:Work></rdf:RDF></metadata><g id="icon_staff_carver" transform="matrix(0.2930779,0,0,0.2930779,6.0387542,6.3313793)"><path id="path3324" clip-rule="evenodd" d="m266.84,57.118c-2.314-8.306-6.053-15.698-13.222-20.957-3.321-2.436-7.15-3.759-10.9-5.275-2.351-0.399-4.701-0.798-7.051-1.196-1.36-0.01-2.738,0.112-4.078-0.058-2.957-0.376-5.04,1.254-6.238,3.429-1.701,3.085-3.681,6.033-5.162,9.22-4.974,10.712-11.818,19.986-20.752,27.712-0.771,1.163-1.673,2.195-2.887,2.919-3.895,4.29-7.919,8.447-12.168,12.39-0.778,1.356-1.8,2.495-3.065,3.411-4.778,4.946-9.576,9.875-14.318,14.856-0.852,0.895-1.385,0.924-2.329,0.087-6.794-6.019-14.547-7.113-23.013-4.31-2.577,1.413-4.873,3.228-7.177,5.032-5.349,6.54-7.297,13.852-4.843,22.076,0.454,1.522-0.505,1.677-1.385,1.938-2.625,0.777-5.111,1.885-7.545,3.107-2.395,1.205-4.233,2.972-4.144,5.841,0.084,2.717,1.474,4.618,4.007,5.945,4.55,2.383,4.489,2.514,0.877,6.115-3.724,3.714-7.459,7.417-11.189,11.125-0.224,0.086-0.571,0.306-0.65,0.232-0.354-0.324-0.1-0.595,0.195-0.817,6.229-10.719,3.301-21.346-2.961-27.254-1.02-0.961-2.088-1.706-3.396-2.144-1.132,0.034-2.264,0.067-3.395,0.1-2.883,0.997-4.145,3.155-4.348,6.071,0.113,0.178,0.132,0.364,0.056,0.561,0.233,0.787,0.467,1.573,0.699,2.359,1.696,3.158,1.405,5.408-0.966,7.454-2.115,1.827-5.048,1.981-7.185,0.379-2.359-1.768-3.054-4.578-1.719-7.502,0.57-1.249,0.941-2.521,1.168-3.855-0.609-2.694-1.946-4.763-4.775-5.548-1.134,0.026-2.27,0.053-3.404,0.08-0.388,0.108-0.775,0.216-1.162,0.325-7.998,6.756-9.849,15.226-6.981,25.016,0.708,1.106,1.462,2.19,1.689,3.526,1.551,2.737,3.942,4.631,6.441,6.418,1.719,0.838,3.439,1.678,5.16,2.517,1.2,0.353,2.399,0.703,3.599,1.055,2.147,0.006,4.295,0.012,6.443,0.019,3.315-0.642,6.312-2.086,9.25-3.675,0.372-0.551,0.736-1.115,2.178-0.771-0.734,0.548-1.203,0.896-1.67,1.247-1.863,1.842-3.728,3.683-5.593,5.524-1.025,1.126-2.049,2.249-3.074,3.376-1.529,1.416-3.058,2.834-4.587,4.254-0.292,0.805-0.946,1.277-1.617,1.73-4.494,4.5-8.989,8.999-13.485,13.499-3.494,4.501-7.83,8.189-11.814,12.216-1.38,0.942-2.761,1.883-4.142,2.825-0.958,0.624-1.916,1.25-2.874,1.875-6.844,4.755-13.672,9.533-20.542,14.249-1.713,1.176-3.239,2.454-4.072,4.409-0.069,0.989-0.137,1.982-0.206,2.972,0.04,3.745,0.281,7.465,1.365,11.08,1.803,4.118,4.307,7.77,7.365,11.049,5.922,5.053,12.519,8.949,19.74,11.89,4.98,2.027,7.254,1.547,10.527-2.706,2.536-3.295,5.198-6.494,7.803-9.734,2.471-3.425,4.9-6.879,7.804-9.964,1.328-2.104,2.809-4.092,4.578-5.852,0.788-1.605,2.032-2.86,3.211-4.166,2.752-3.567,5.11-7.461,8.601-10.418,5.068-5.674,10.193-11.29,15.739-16.509,0.583-1.114,1.344-2.071,2.427-2.744,2.291-2.43,4.58-4.86,6.871-7.292,0.051,4.408-1.107,8.378-1.014,12.489,0.75,1.469,0.366,3.136,0.813,4.657,0.74,1.945,1.481,3.89,2.221,5.833,1.84,2.583,3.34,5.425,5.762,7.565,3.244,2.288,6.271,4.994,10.473,5.438,2.791,0.256,5.461,1.371,8.339,1.092,1.12-0.109,1.672,0.83,2.168,1.69,2.478,2.497,5.242,4.633,8.228,6.487,1.921,0.642,3.842,1.283,5.764,1.924,4.556,0.656,9.076,0.551,13.548-0.623,2.937-1.097,5.594-2.707,8.193-4.426,2.118-2.304,4.236-4.606,6.354-6.909,2.453-4.721,3.769-9.719,3.668-15.061-0.063-0.971-0.124-1.94-0.185-2.91-0.673-1.038-0.502-2.255-0.712-3.391-1.202-2.958-2.55-5.841-4.449-8.429-1.189-1.34-2.38-2.678-3.57-4.017-2.256-0.88-4.557-0.964-6.893-0.376-1.005,1.093-2.011,2.185-3.017,3.279-0.04,0.195-0.081,0.391-0.121,0.585-0.009,2.041,0.143,4.049,1.238,5.856,0.682,0.849,0.784,1.839,0.706,2.874,0.704,6.565-4.385,10.848-11.687,9.83-1.161-0.249-2.186-0.745-2.992-1.642-1.694-1.025-2.907-2.362-2.932-4.479-1.515-3.145-0.517-5.976,1.006-8.794,0.525-0.975,1.295-0.633,2.011-0.702,5.105-0.502,7.573-4.533,5.264-9.115-4.253-8.445-11.502-12.659-20.686-13.71-5.09-0.58-10.038,0.266-14.72,2.613-0.126-0.218-0.254-0.435-0.381-0.651,2.926-3.108,5.845-6.223,8.781-9.321,2.612-2.755,5.359-5.396,7.821-8.277,1.337-1.566,2.329-1.414,3.896-0.457,10.864,6.619,21.777,13.16,32.675,19.727,0.8,0.6,1.597,1.198,2.396,1.798,1.964,1.501,3.928,3.002,5.893,4.502,1.514,0.728,2.766,1.815,4.003,2.918,1.367,1.036,2.735,2.072,4.101,3.107,0.419,0.344,0.84,0.686,1.259,1.027,1.069,0.619,2.141,1.232,2.924,2.229,1.558,0.731,2.826,1.858,4.078,3.006,0.777,0.4,1.555,0.8,2.332,1.201,0.964-0.024,1.928-0.049,2.893-0.073,7.666-4.648,14.099-10.357,16.643-19.401,0.092-1.89,0.185-3.779,0.276-5.667-0.612-1.955-1.226-3.91-1.84-5.865-1.488-1.754-3.43-2.686-5.589-3.424-6.135-2.095-12.454-3.671-18.358-6.422-6.862-3.846-13.716-7.709-20.598-11.521-1.007-0.56-1.368-1.452-1.395-2.395-0.14-5.272-2.85-8.716-7.504-10.818-1.386-0.624-1.38-1.217-0.331-2.283,6.692-6.798,13.327-13.651,19.98-20.486,0.583-0.584,1.164-1.169,1.747-1.756,0.749-1.188,1.707-2.171,2.88-2.945,4.57-5.009,9.17-9.992,14.079-14.675,0.375-0.368,0.749-0.736,1.125-1.103,7.295-7.887,14.114-16.246,24.042-21.238,4.839-2.433,9.288-5.633,13.959-8.41,1.801-1.071,3.327-2.332,4.243-4.246,0.253-2.191,0.076-4.348-0.517-6.472zm-165.48,100.77c-4.616,4.339-10.715,5.35-15.869,2.632-5.732-3.023-8.425-8.476-7.323-15.62,3.142,9.216,9.328,11.671,14.951,11.218,5.133-0.415,10.019-4.61,11.814-10.608,1.643,3.619,0.115,8.911-3.573,12.378zm36.844-45.572c3.658-6.418,12.12-8.622,18.696-4.672-3.239-0.319-6.1,0.088-8.695,1.793-2.517,1.652-4.445,3.762-5.518,6.603-2.245,5.95-0.517,11.396,5.251,16.561-1.585,0.266-2.978-0.453-4.43-0.867-7.021-3.973-9.317-12.378-5.304-19.418zm11.732,8.025c-0.357-2.902,1.268-4.672,5.55-5.001-2.188,1.973-3.949,3.559-5.55,5.001zm-0.239,11.892c-0.344,0.226-0.718,0.39-1.162,0.415,0.444-0.025,0.818-0.188,1.162-0.415zm-41.171,29.404c0.193-0.229,0.315-0.677,0.712-0.243,0.014,0.014-0.277,0.309-0.426,0.472-0.1,0.476-0.53,0.745-0.796,0.432-0.388-0.457,0.234-0.505,0.51-0.661zm43.141,51.031c-1.501-4.376,0.569-8.464,5.731-10.832-2.76,3.564-4.591,6.853-5.731,10.832zm23.293,16.583c10.42,0.933,18.322-6.715,19.009-15.907,3.234,5.131,1.162,14.229-4.423,19.415-6.794,6.311-16.174,6.907-23.495,1.497-6.828-5.048-9.548-14.515-5.981-21.845,0.833,9.364,7.224,16.154,14.89,16.84zm-33.927-33.782c5.931-5.761,14.391-6.727,22.155-2.242-12.145,1.58-17.465,5.393-19.322,13.599-1.78,7.874,1.363,13.941,10.28,19.844-5.684,1.354-13.032-2.708-16.602-9.178-3.918-7.099-2.471-16.234,3.489-22.023zm5.465-27.731c-16.402,17.388-32.875,34.709-49.33,52.047-0.392,0.413-0.87,0.748-1.307,1.119-8.284-3.131-16.567-6.261-24.853-9.392-0.989,0.425-1.678,1.148-2.114,2.124,7.426,2.841,14.858,5.669,22.272,8.542,0.94,0.364,2.181,0.341,2.595,1.599-9.063,11.573-18.159,23.119-27.153,34.746-1.269,1.64-2.28,2.085-4.269,1.167-5.967-2.752-11.653-5.863-16.131-10.804-3.658-4.037-5.799-8.708-5.89-14.229-0.017-0.993-0.036-1.883,0.954-2.553,8.938-6.063,17.852-12.162,26.782-18.236,0.228-0.156,0.558-0.159,0.841-0.232,0.437-0.975,1.125-1.698,2.114-2.123,3.353-4.182,7.363-7.733,11.112-11.529,13.561-13.731,27.24-27.347,40.856-41.022,3.505-3.521,6.935-7.117,10.424-10.655,0.669-0.677,1.213-1.558,2.273-1.743,6.522,3.846,12.966,7.829,19.721,11.268-2.313,3.885-5.853,6.68-8.897,9.906zm84.728,11.382c1.217,0.389,1.535,1.252,1.631,2.438,0.444,5.447-2.142,9.57-5.867,13.057-4.203,3.933-4.285,3.824-8.823,0.387-5.029-3.808-10.076-7.591-15.119-11.382-0.691-0.52-1.504-0.908-1.845-1.787-0.931-0.213-1.597-0.771-2.137-1.492,0.54,0.722,1.206,1.279,2.137,1.491,4.106-2.807,8.214-5.612,12.32-8.416,5.9,1.901,11.798,3.813,17.703,5.704zm-21.05-7.337c-3.779,2.746-7.558,5.492-11.334,8.239-5.033-2.165-9.625-5.09-14.128-8.168,2.028-3.646,4.056-7.289,6.082-10.934,6.75,3.105,13.011,7.08,19.38,10.863zm-24.361-17.986c0.225,1.35,0.447,2.698,0.673,4.05,0.254,0.354,0.507,0.711,0.759,1.066,0.536,2.13-3.415,9.608-5.959,11.277-1.133-0.646-2.267-1.29-3.4-1.934h-0.001c0.717-3.405,3.187-5.92,4.549-8.989,0.896-2.022,2.139-2.55,4.053-1.421-0.226-1.352-0.448-2.7-0.676-4.052-2.558-0.891-3.999,0.135-5.108,2.509-1.22,2.607-2.853,5.023-4.306,7.522-0.48,0.825-0.856,1.791-2.113,1.586-5.215-2.987-10.43-5.976-15.646-8.963-7.442-4.253-14.883-8.507-22.325-12.759-3.31-2.001-6.621-4.003-10.286-6.22,5.335-2.412,10.53-3.674,16.041-3.601,2.303,1.893,5.053,1.912,7.772,1.663,4.896-0.449,9.465,0.655,13.91,2.546,2.951,1.255,5.896,2.521,8.845,3.783,2.767,1.614,5.478,3.333,8.314,4.812,2.951,1.54,4.914,3.616,4.904,7.125zm72.179-91.807c-4.994,3.031-9.901,6.216-14.999,9.061-5.165,2.882-9.579,6.559-13.648,10.829-12.365,12.976-24.938,25.757-37.308,38.728-6.032,6.327-12.072,12.642-18.316,18.759,0,0,0,0.001-0.001,0.001-3.477-2.118-7.291-3.493-11.066-4.937-1.405-0.538-2.985-0.644-3.158-2.695-0.058-0.669-0.967-1.114-1.628-0.84-2.132,0.882-4.176,0.054-6.254-0.125,3.382-5.069,8.116-8.889,12.296-13.208,16.464-17.013,32.979-33.977,49.598-50.84,5.376-5.453,8.412-12.339,12.334-18.691,1.79-2.898,3.513-5.849,5.066-8.877,0.8-1.562,1.799-2.073,3.468-1.872,13.878,1.668,21.538,8.911,25.185,22.013,0.431,1.555-0.555,2.077-1.569,2.694z"/></g></svg>
